<svg width="106" height="38" viewBox="0 0 106 38" fill="none" xmlns="http://www.w3.org/2000/svg">
<path d="M54.9751 9.82908L58.1268 19.7365H58.2478L61.406 9.82908H64.4622L59.967 22.8691H56.4141L51.9124 9.82908H54.9751ZM77.2794 16.3491C77.2794 17.7711 77.0099 18.9809 76.4708 19.9784C75.9359 20.976 75.2058 21.7379 74.2805 22.2643C73.3593 22.7864 72.3236 23.0474 71.1733 23.0474C70.0144 23.0474 68.9745 22.7842 68.0533 22.2579C67.1322 21.7315 66.4042 20.9696 65.8694 19.9721C65.3345 18.9745 65.0671 17.7669 65.0671 16.3491C65.0671 14.9271 65.3345 13.7173 65.8694 12.7198C66.4042 11.7223 67.1322 10.9624 68.0533 10.4403C68.9745 9.91398 70.0144 9.6508 71.1733 9.6508C72.3236 9.6508 73.3593 9.91398 74.2805 10.4403C75.2058 10.9624 75.9359 11.7223 76.4708 12.7198C77.0099 13.7173 77.2794 14.9271 77.2794 16.3491ZM74.4842 16.3491C74.4842 15.428 74.3463 14.6512 74.0703 14.0187C73.7987 13.3862 73.4145 12.9066 72.9179 12.5797C72.4212 12.2529 71.8397 12.0894 71.1733 12.0894C70.5068 12.0894 69.9253 12.2529 69.4287 12.5797C68.932 12.9066 68.5457 13.3862 68.2698 14.0187C67.9981 14.6512 67.8623 15.428 67.8623 16.3491C67.8623 17.2702 67.9981 18.047 68.2698 18.6795C68.5457 19.312 68.932 19.7917 69.4287 20.1185C69.9253 20.4454 70.5068 20.6088 71.1733 20.6088C71.8397 20.6088 72.4212 20.4454 72.9179 20.1185C73.4145 19.7917 73.7987 19.312 74.0703 18.6795C74.3463 18.047 74.4842 17.2702 74.4842 16.3491ZM90.8273 14.3944H88.0384C87.9875 14.0336 87.8835 13.7131 87.7264 13.4329C87.5694 13.1485 87.3677 12.9066 87.1215 12.7071C86.8754 12.5076 86.5909 12.3547 86.2683 12.2486C85.95 12.1425 85.604 12.0894 85.2305 12.0894C84.5556 12.0894 83.9677 12.2571 83.4668 12.5925C82.9659 12.9236 82.5775 13.4075 82.3016 14.0442C82.0257 14.6767 81.8877 15.445 81.8877 16.3491C81.8877 17.2787 82.0257 18.0598 82.3016 18.6922C82.5817 19.3247 82.9722 19.8023 83.4731 20.1249C83.974 20.4475 84.5534 20.6088 85.2114 20.6088C85.5807 20.6088 85.9224 20.56 86.2365 20.4623C86.5549 20.3647 86.8371 20.2225 87.0833 20.0357C87.3295 19.8447 87.5333 19.6134 87.6946 19.3417C87.8601 19.07 87.9748 18.7602 88.0384 18.4121L90.8273 18.4248C90.7551 19.0233 90.5747 19.6006 90.2861 20.1567C90.0017 20.7085 89.6175 21.2031 89.1336 21.6403C88.6539 22.0732 88.0809 22.4171 87.4144 22.6718C86.7523 22.9222 86.003 23.0474 85.1668 23.0474C84.0037 23.0474 82.9638 22.7842 82.0469 22.2579C81.1342 21.7315 80.4126 20.9696 79.882 19.9721C79.3557 18.9745 79.0925 17.7669 79.0925 16.3491C79.0925 14.9271 79.3599 13.7173 79.8948 12.7198C80.4296 11.7223 81.1555 10.9624 82.0723 10.4403C82.9892 9.91398 84.0207 9.6508 85.1668 9.6508C85.9224 9.6508 86.6228 9.75692 87.268 9.96916C87.9175 10.1814 88.4926 10.4913 88.9935 10.8988C89.4944 11.302 89.9019 11.7966 90.216 12.3823C90.5344 12.9681 90.7381 13.6388 90.8273 14.3944ZM104.31 14.3944H101.521C101.47 14.0336 101.366 13.7131 101.209 13.4329C101.052 13.1485 100.85 12.9066 100.604 12.7071C100.358 12.5076 100.074 12.3547 99.7509 12.2486C99.4326 12.1425 99.0866 12.0894 98.7131 12.0894C98.0381 12.0894 97.4502 12.2571 96.9493 12.5925C96.4485 12.9236 96.0601 13.4075 95.7841 14.0442C95.5082 14.6767 95.3703 15.445 95.3703 16.3491C95.3703 17.2787 95.5082 18.0598 95.7841 18.6922C96.0643 19.3247 96.4548 19.8023 96.9557 20.1249C97.4566 20.4475 98.036 20.6088 98.694 20.6088C99.0633 20.6088 99.405 20.56 99.7191 20.4623C100.037 20.3647 100.32 20.2225 100.566 20.0357C100.812 19.8447 101.016 19.6134 101.177 19.3417C101.343 19.07 101.457 18.7602 101.521 18.4121L104.31 18.4248C104.238 19.0233 104.057 19.6006 103.769 20.1567C103.484 20.7085 103.1 21.2031 102.616 21.6403C102.137 22.0732 101.563 22.4171 100.897 22.6718C100.235 22.9222 99.4856 23.0474 98.6494 23.0474C97.4863 23.0474 96.4463 22.7842 95.5295 22.2579C94.6168 21.7315 93.8952 20.9696 93.3646 19.9721C92.8382 18.9745 92.5751 17.7669 92.5751 16.3491C92.5751 14.9271 92.8425 13.7173 93.3773 12.7198C93.9122 11.7223 94.638 10.9624 95.5549 10.4403C96.4718 9.91398 97.5033 9.6508 98.6494 9.6508C99.405 9.6508 100.105 9.75692 100.751 9.96916C101.4 10.1814 101.975 10.4913 102.476 10.8988C102.977 11.302 103.384 11.7966 103.699 12.3823C104.017 12.9681 104.221 13.6388 104.31 14.3944Z" fill="#34495E"/>
<path d="M74.6181 27.2947C74.6181 27.2947 74.5645 27.2469 74.4671 27.1617C74.3344 27.0363 74.189 26.9581 74.0391 26.9316C73.9351 26.9263 73.8311 26.9406 73.7289 26.9742C73.6172 27.0048 73.5024 27.042 73.3749 27.0926C73.128 27.1857 72.8548 27.32 72.5566 27.3293C72.2584 27.3386 71.9844 27.1817 71.7391 27.0793C71.6232 27.0263 71.5055 26.9867 71.3866 26.9609C71.2835 26.9409 71.1795 26.9409 71.0764 26.9609C70.9263 26.9849 70.7823 27.0765 70.6582 27.2269C70.6151 27.2874 70.574 27.3523 70.5352 27.4211C70.5418 27.3987 70.5502 27.3781 70.5601 27.3599C70.5859 27.302 70.6158 27.2501 70.6491 27.2056C70.7724 27.0409 70.9188 26.9383 71.0726 26.909C71.178 26.8843 71.2846 26.8812 71.3904 26.8997C71.5107 26.9227 71.63 26.9605 71.7474 27.0128C71.995 27.1138 72.2645 27.2655 72.5559 27.2562C72.8472 27.2469 73.119 27.1165 73.3673 27.0261C73.4919 26.9782 73.6119 26.9423 73.7243 26.913C73.8287 26.8811 73.9348 26.8695 74.0406 26.8784C74.1936 26.9094 74.3411 26.9964 74.4739 27.1338C74.5215 27.1804 74.5569 27.2176 74.5811 27.2455C74.5948 27.2585 74.6073 27.2751 74.6181 27.2947Z" fill="#263238"/>
<path d="M68.2811 33.0418C68.2811 33.0485 68.2358 32.9687 68.1422 32.8663C68.0082 32.7289 67.8587 32.645 67.7044 32.6202C67.4749 32.5849 67.2437 32.6154 67.0197 32.7106C66.7646 32.8024 66.4853 32.9474 66.1803 32.9766C65.8754 33.0059 65.5893 32.8529 65.3372 32.7452C65.2183 32.6883 65.0975 32.6438 64.9756 32.6122C64.8697 32.5884 64.7626 32.5858 64.6563 32.6042C64.5017 32.6248 64.3528 32.7165 64.2246 32.8702C64.1789 32.9336 64.1355 33.002 64.0947 33.0751C64.1263 32.9894 64.1661 32.9142 64.2125 32.8529C64.3404 32.6862 64.4918 32.5846 64.6503 32.559C64.7586 32.537 64.868 32.537 64.9764 32.559C65.1 32.5865 65.2226 32.6278 65.3432 32.6827C65.5969 32.7891 65.8716 32.9394 66.1735 32.9075C66.4755 32.8756 66.7502 32.7386 67.0076 32.6494C67.2353 32.5559 67.4703 32.5299 67.7028 32.5723C67.8605 32.6017 68.0122 32.6951 68.1459 32.845C68.182 32.886 68.2156 32.9332 68.2463 32.986C68.2589 33.0025 68.2706 33.0212 68.2811 33.0418Z" fill="#263238"/>
<path d="M104.131 35.486C104.11 35.4793 104.088 35.4696 104.067 35.4567C104.025 35.4368 103.964 35.4022 103.885 35.3583C103.728 35.2705 103.503 35.1242 103.218 34.9845C103.064 34.9081 102.906 34.8525 102.747 34.8183C102.564 34.7804 102.38 34.7804 102.197 34.8183C101.81 34.8928 101.394 35.1016 100.944 35.2027C100.725 35.2572 100.503 35.2572 100.283 35.2027C100.071 35.1521 99.8698 35.0763 99.6796 35.0058C99.2985 34.8608 98.9498 34.7597 98.6555 34.7863C98.4228 34.7956 98.1937 34.8888 97.9823 35.0603C97.9259 35.1105 97.8712 35.1665 97.8185 35.2279C97.8009 35.2521 97.7822 35.2739 97.7627 35.2931C97.8268 35.1911 97.8984 35.1048 97.9755 35.0364C98.1873 34.8527 98.4188 34.7507 98.6547 34.7371C98.9566 34.7039 99.306 34.8023 99.6879 34.9433C100.07 35.0843 100.495 35.2559 100.942 35.1335C101.387 35.0324 101.804 34.8262 102.195 34.7531C102.38 34.7145 102.567 34.7145 102.753 34.7531C102.913 34.7906 103.072 34.8493 103.228 34.9287C103.513 35.0763 103.736 35.2293 103.892 35.3277L104.072 35.4381C104.093 35.4505 104.113 35.4665 104.131 35.486Z" fill="#263238"/>
<path d="M61.6259 30.6146C61.6259 30.6146 61.5723 30.5667 61.4749 30.4816C61.3422 30.3561 61.1968 30.2779 61.0469 30.2514C60.9429 30.2461 60.8389 30.2604 60.7367 30.294C60.625 30.3246 60.5102 30.3618 60.3827 30.4124C60.1358 30.5055 59.8626 30.6398 59.5644 30.6491C59.2663 30.6585 58.9923 30.5015 58.7469 30.3991C58.631 30.3461 58.5133 30.3065 58.3944 30.2807C58.2913 30.2607 58.1873 30.2607 58.0842 30.2807C57.9341 30.3047 57.7901 30.3963 57.666 30.5467C57.6229 30.6073 57.5818 30.6721 57.543 30.7409C57.5496 30.7186 57.558 30.6979 57.5679 30.6797C57.5937 30.6218 57.6236 30.5699 57.6569 30.5255C57.7802 30.3607 57.9266 30.2581 58.0804 30.2288C58.1858 30.2042 58.2924 30.201 58.3982 30.2195C58.5186 30.2426 58.6379 30.2803 58.7552 30.3326C59.0028 30.4337 59.2723 30.5853 59.5637 30.576C59.855 30.5667 60.1268 30.4363 60.3751 30.3459C60.4997 30.298 60.6197 30.2621 60.7322 30.2328C60.8365 30.2009 60.9426 30.1893 61.0484 30.1982C61.2014 30.2293 61.349 30.3162 61.4817 30.4536C61.5293 30.5002 61.5647 30.5374 61.5889 30.5654C61.6026 30.5783 61.6151 30.5949 61.6259 30.6146Z" fill="#263238"/>
<path d="M98.8141 25.4083C98.8141 25.4083 98.7688 25.3338 98.6752 25.2327C98.5414 25.0943 98.3919 25.0098 98.2374 24.9853C98.0079 24.9499 97.7766 24.9809 97.5527 25.0771C97.2976 25.1675 97.0191 25.3125 96.7134 25.3431C96.4077 25.3737 96.1223 25.2194 95.871 25.1103C95.7518 25.0534 95.6308 25.009 95.5086 24.9773C95.4027 24.9546 95.2956 24.9524 95.1893 24.9707C95.0349 24.9906 94.8861 25.0824 94.7583 25.2367C94.7147 25.3018 94.6731 25.3711 94.6338 25.4442C94.6657 25.359 94.7058 25.2843 94.7523 25.2234C94.8797 25.0556 95.031 24.9533 95.1893 24.9281C95.2977 24.9061 95.4071 24.9061 95.5154 24.9281C95.639 24.9558 95.7615 24.9966 95.8823 25.0505C96.1359 25.1569 96.4107 25.3072 96.7126 25.2766C97.0145 25.246 97.2901 25.1063 97.5467 25.0185C97.7743 24.9237 98.0094 24.8976 98.2419 24.9414C98.3996 24.9702 98.5514 25.0636 98.685 25.2141C98.721 25.2548 98.7546 25.3016 98.7854 25.3537C98.805 25.387 98.8156 25.4056 98.8141 25.4083Z" fill="#263238"/>
<path d="M54.2859 26.9378C54.2859 26.9445 54.2406 26.8647 54.147 26.7622C54.013 26.6249 53.8636 26.541 53.7092 26.5162C53.4798 26.4809 53.2485 26.5114 53.0246 26.6066C52.7695 26.6984 52.4902 26.8434 52.1852 26.8726C51.8803 26.9019 51.5942 26.7489 51.3421 26.6412C51.2232 26.5843 51.1024 26.5398 50.9805 26.5082C50.8746 26.4844 50.7675 26.4818 50.6612 26.5002C50.5066 26.5208 50.3577 26.6125 50.2294 26.7662C50.1838 26.8296 50.1404 26.898 50.0996 26.9711C50.1311 26.8854 50.171 26.8102 50.2174 26.7489C50.3453 26.5822 50.4967 26.4806 50.6552 26.455C50.7635 26.433 50.8729 26.433 50.9813 26.455C51.1049 26.4825 51.2274 26.5238 51.3481 26.5787C51.6017 26.6851 51.8765 26.8354 52.1784 26.8035C52.4804 26.7716 52.7551 26.6346 53.0125 26.5454C53.2402 26.4519 53.4752 26.4259 53.7077 26.4683C53.8654 26.4977 54.017 26.591 54.1508 26.741C54.1869 26.782 54.2205 26.8292 54.2512 26.882C54.2638 26.8985 54.2754 26.9172 54.2859 26.9378Z" fill="#263238"/>
<path d="M95.5851 30.9074C95.5633 30.9007 95.5419 30.8909 95.521 30.8781C95.4787 30.8582 95.4176 30.8236 95.3391 30.7797C95.1814 30.6919 94.9565 30.5456 94.6719 30.4059C94.5173 30.3294 94.3597 30.2739 94.2003 30.2397C94.0178 30.2018 93.8334 30.2018 93.6508 30.2397C93.2637 30.3141 92.8479 30.523 92.3981 30.6241C92.1788 30.6786 91.9562 30.6786 91.737 30.6241C91.5249 30.5735 91.3234 30.4977 91.1332 30.4272C90.7521 30.2822 90.4034 30.1811 90.1091 30.2077C89.8764 30.2169 89.6473 30.3102 89.4359 30.4817C89.3795 30.5319 89.3248 30.5879 89.2722 30.6493C89.2545 30.6735 89.2358 30.6953 89.2163 30.7145C89.2804 30.6125 89.352 30.5262 89.4291 30.4578C89.6409 30.2741 89.8724 30.1721 90.1083 30.1585C90.4102 30.1253 90.7596 30.2237 91.1415 30.3647C91.5234 30.5057 91.9483 30.6773 92.3958 30.5549C92.8411 30.4538 93.2577 30.2476 93.6486 30.1745C93.8338 30.1359 94.021 30.1359 94.2063 30.1745C94.3671 30.212 94.526 30.2707 94.6818 30.3501C94.9663 30.4977 95.1897 30.6507 95.3459 30.7491L95.5255 30.8595C95.5462 30.8719 95.5662 30.8879 95.5851 30.9074Z" fill="#263238"/>
<path d="M43.0382 30.6826C42.6686 30.6826 42.3729 30.6008 42.1511 30.4371C41.9293 30.2707 41.8 30.0371 41.763 29.7361H42.3491C42.3676 29.8892 42.4415 30.0107 42.5709 30.1005C42.7003 30.1876 42.8653 30.2311 43.066 30.2311C43.2296 30.2311 43.3551 30.2021 43.4422 30.144C43.5319 30.0859 43.5768 30.008 43.5768 29.9104C43.5768 29.818 43.5504 29.744 43.4976 29.6886C43.4448 29.6305 43.3537 29.5843 43.2244 29.55L42.6937 29.4034C42.4217 29.3269 42.2224 29.2226 42.0957 29.0906C41.9716 28.9559 41.9095 28.7883 41.9095 28.5876C41.9095 28.416 41.9531 28.2682 42.0402 28.1441C42.13 28.0173 42.2554 27.921 42.4165 27.855C42.5775 27.7863 42.7663 27.752 42.9828 27.752C43.3154 27.752 43.5808 27.8312 43.7788 27.9896C43.9768 28.1454 44.089 28.3526 44.1154 28.6114H43.5293C43.5029 28.4715 43.4382 28.3685 43.3353 28.3025C43.2349 28.2365 43.1056 28.2035 42.9471 28.2035C42.8099 28.2035 42.7003 28.2299 42.6184 28.2827C42.5366 28.3355 42.4957 28.4068 42.4957 28.4965C42.4957 28.5652 42.5181 28.6285 42.563 28.6866C42.6079 28.7421 42.7016 28.7896 42.8442 28.8292L43.3749 28.9757C43.6547 29.0523 43.8554 29.1579 43.9768 29.2926C44.1009 29.4246 44.163 29.5922 44.163 29.7955C44.163 30.0807 44.0639 30.2998 43.8659 30.4529C43.6679 30.606 43.392 30.6826 43.0382 30.6826ZM49.7286 30.647V27.7956H50.3384V30.647H49.7286ZM51.574 30.647V27.7956H52.1839V30.647H51.574ZM50.0137 28.9282H51.8513V29.3955H50.0137V28.9282ZM59.3663 30.647V27.7956H59.9762V30.647H59.3663ZM66.4051 30.647V27.7956H67.7595C67.9707 27.7956 68.1516 27.8325 68.3021 27.9065C68.4552 27.9804 68.5727 28.0833 68.6545 28.2154C68.739 28.3474 68.7813 28.5018 68.7813 28.6787C68.7813 28.8556 68.739 29.0114 68.6545 29.146C68.5701 29.2807 68.4512 29.3863 68.2981 29.4628C68.1476 29.5368 67.9681 29.5737 67.7595 29.5737H66.8882V29.1064H67.7278C67.8678 29.1064 67.976 29.0681 68.0526 28.9916C68.1318 28.9124 68.1714 28.8094 68.1714 28.6827C68.1714 28.5559 68.1318 28.4543 68.0526 28.3777C67.976 28.3012 67.8678 28.2629 67.7278 28.2629H67.015V30.647H66.4051ZM75.0992 30.647V27.7956H76.4536C76.6648 27.7956 76.8457 27.8325 76.9961 27.9065C77.1493 27.9804 77.2668 28.0833 77.3486 28.2154C77.4331 28.3474 77.4753 28.5018 77.4753 28.6787C77.4753 28.8556 77.4331 29.0114 77.3486 29.146C77.2641 29.2807 77.1453 29.3863 76.9922 29.4628C76.8417 29.5368 76.6622 29.5737 76.4536 29.5737H75.5823V29.1064H76.4219C76.5618 29.1064 76.6701 29.0681 76.7466 28.9916C76.8259 28.9124 76.8655 28.8094 76.8655 28.6827C76.8655 28.5559 76.8259 28.4543 76.7466 28.3777C76.6701 28.3012 76.5618 28.2629 76.4219 28.2629H75.7091V30.647H75.0992ZM83.7932 30.647V27.7956H84.4031V30.647H83.7932ZM90.832 30.647V27.7956H91.6201L92.8874 30.3143L92.6934 30.3618V27.7956H93.2874V30.647H92.4993L91.232 28.1282L91.4261 28.0807V30.647H90.832ZM100.371 30.6866C100.062 30.6866 99.7971 30.6259 99.5753 30.5044C99.3535 30.383 99.1819 30.2127 99.0605 29.9935C98.9417 29.7744 98.8823 29.5183 98.8823 29.2252C98.8823 28.9348 98.943 28.68 99.0644 28.4609C99.1859 28.2391 99.3535 28.0662 99.5674 27.9421C99.7839 27.818 100.035 27.756 100.32 27.756C100.555 27.756 100.765 27.7982 100.95 27.8827C101.137 27.9672 101.287 28.0833 101.401 28.2312C101.517 28.3764 101.586 28.5454 101.607 28.7381H100.997C100.971 28.5823 100.897 28.4609 100.775 28.3738C100.656 28.284 100.507 28.2391 100.328 28.2391C100.161 28.2391 100.016 28.2787 99.8921 28.3579C99.768 28.4345 99.6717 28.5454 99.603 28.6906C99.5344 28.8358 99.5001 29.0101 99.5001 29.2133C99.5001 29.4246 99.5344 29.6054 99.603 29.7559C99.6717 29.9038 99.772 30.0173 99.904 30.0965C100.039 30.1731 100.204 30.2113 100.399 30.2113C100.557 30.2113 100.692 30.1915 100.803 30.1519C100.914 30.1123 100.998 30.0569 101.056 29.9856L101.635 30.2153C101.482 30.3684 101.303 30.4859 101.1 30.5678C100.899 30.647 100.656 30.6866 100.371 30.6866ZM101.025 30.2153V29.4312L101.148 29.5539H100.395V29.0866H101.635V30.2153H101.025Z" fill="#85919D"/>
<path d="M8.73249 36.7925C8.73249 36.7925 8.6806 36.7545 8.58631 36.6871C8.45779 36.5878 8.31696 36.5259 8.17186 36.5049C8.07117 36.5007 7.97046 36.512 7.87144 36.5386C7.76326 36.5628 7.65216 36.5923 7.52863 36.6324C7.28961 36.7061 7.02501 36.8125 6.73628 36.8199C6.44756 36.8272 6.18222 36.7029 5.94467 36.6218C5.83243 36.5799 5.7184 36.5485 5.60332 36.5281C5.50348 36.5123 5.40274 36.5123 5.3029 36.5281C5.15761 36.5471 5.01815 36.6196 4.89795 36.7387C4.85623 36.7867 4.81645 36.838 4.77881 36.8925C4.78521 36.8748 4.79334 36.8585 4.80293 36.8441C4.82793 36.7982 4.85691 36.7571 4.88918 36.7219C5.00854 36.5914 5.15029 36.5102 5.29924 36.487C5.40128 36.4675 5.50454 36.465 5.60697 36.4796C5.72352 36.4979 5.83904 36.5278 5.95271 36.5692C6.19246 36.6492 6.45341 36.7693 6.73555 36.7619C7.0177 36.7545 7.28084 36.6513 7.52132 36.5797C7.64192 36.5418 7.75814 36.5133 7.86706 36.4902C7.96814 36.4649 8.07084 36.4557 8.17332 36.4628C8.32142 36.4873 8.46433 36.5562 8.59288 36.665C8.63893 36.7019 8.67329 36.7314 8.69668 36.7535C8.70994 36.7638 8.72202 36.7769 8.73249 36.7925Z" fill="#263238"/>
<path d="M44.7438 29.635C44.7438 29.635 44.6999 29.576 44.6093 29.496C44.4797 29.3864 44.335 29.3194 44.1853 29.3C43.9631 29.272 43.7391 29.2966 43.5224 29.3727C43.2753 29.4444 43.0056 29.5592 42.7096 29.5834C42.4135 29.6076 42.1372 29.4854 41.8938 29.3991C41.7784 29.354 41.6613 29.3188 41.543 29.2937C41.4403 29.2758 41.3367 29.274 41.2338 29.2885C41.0842 29.3042 40.9402 29.3769 40.8164 29.4991C40.7742 29.5507 40.7339 29.6056 40.6958 29.6635C40.7267 29.596 40.7656 29.5368 40.8106 29.4886C40.9339 29.3557 41.0804 29.2747 41.2338 29.2548C41.3387 29.2373 41.4446 29.2373 41.5495 29.2548C41.6692 29.2767 41.7878 29.309 41.9048 29.3517C42.1504 29.4359 42.4164 29.555 42.7088 29.5307C43.0012 29.5065 43.268 29.3959 43.5165 29.3264C43.7369 29.2513 43.9645 29.2306 44.1897 29.2653C44.3425 29.2881 44.4894 29.362 44.6188 29.4812C44.6536 29.5135 44.6862 29.5505 44.716 29.5918C44.735 29.6182 44.7452 29.6329 44.7438 29.635Z" fill="#263238"/>
<path d="M4.2633 33.7065C4.2633 33.7117 4.21944 33.6485 4.1288 33.5674C3.99904 33.4587 3.85434 33.3922 3.70486 33.3726C3.48263 33.3446 3.25874 33.3688 3.04189 33.4442C2.79483 33.5169 2.52438 33.6317 2.22908 33.6549C1.93377 33.678 1.65675 33.5569 1.41261 33.4716C1.29746 33.4265 1.18054 33.3913 1.06249 33.3662C0.959914 33.3474 0.856198 33.3453 0.753297 33.3599C0.603538 33.3762 0.459369 33.4489 0.335195 33.5706C0.290955 33.6208 0.248964 33.675 0.209473 33.7328C0.239999 33.665 0.278601 33.6054 0.3235 33.5569C0.447376 33.4249 0.594015 33.3444 0.747449 33.3241C0.852357 33.3067 0.958309 33.3067 1.06322 33.3241C1.18295 33.3459 1.3016 33.3786 1.41846 33.4221C1.66406 33.5063 1.93012 33.6254 2.2225 33.6001C2.51488 33.5748 2.78094 33.4663 3.03019 33.3957C3.25069 33.3217 3.4782 33.301 3.70339 33.3346C3.85606 33.358 4.00292 33.4319 4.13246 33.5506C4.16736 33.5831 4.19992 33.6205 4.22968 33.6622C4.24187 33.6753 4.25313 33.6902 4.2633 33.7065Z" fill="#263238"/>
<path d="M41.6174 37.0242C41.5963 37.019 41.5755 37.0112 41.5553 37.0011C41.5144 36.9853 41.4552 36.9579 41.3792 36.9231C41.2264 36.8536 41.0087 36.7377 40.7331 36.6271C40.5834 36.5666 40.4308 36.5225 40.2764 36.4955C40.0997 36.4655 39.9211 36.4655 39.7444 36.4955C39.3695 36.5544 38.9668 36.7198 38.5312 36.7999C38.3189 36.8431 38.1034 36.8431 37.8911 36.7999C37.6857 36.7598 37.4906 36.6998 37.3064 36.644C36.9374 36.5292 36.5997 36.4491 36.3147 36.4702C36.0894 36.4775 35.8676 36.5513 35.6629 36.6872C35.6083 36.7269 35.5553 36.7712 35.5043 36.8199C35.4872 36.8391 35.4691 36.8563 35.4502 36.8715C35.5123 36.7907 35.5816 36.7224 35.6563 36.6682C35.8613 36.5227 36.0856 36.4419 36.314 36.4312C36.6063 36.4049 36.9447 36.4828 37.3145 36.5945C37.6843 36.7061 38.0957 36.842 38.5291 36.7451C38.9602 36.665 39.3636 36.5018 39.7422 36.4438C39.9216 36.4133 40.1029 36.4133 40.2822 36.4438C40.4379 36.4735 40.5918 36.52 40.7427 36.5829C41.0182 36.6998 41.2345 36.8209 41.3858 36.8989L41.5597 36.9863C41.5798 36.9961 41.5991 37.0088 41.6174 37.0242Z" fill="#263238"/>
<path d="M28.225 25.5474H0V28.0396H28.225V25.5474Z" fill="#263238"/>
<path d="M9.9364 25.5998H7.21729V20.4595H9.9364V25.5998ZM7.29038 25.4945H9.86331V20.5648H7.29038V25.4945Z" fill="#263238"/>
<path d="M12.0991 20.5122H9.89893V25.8432H12.0991V20.5122Z" fill="#263238"/>
<path d="M16.186 6.37256H15.9243V25.9006H16.186V6.37256Z" fill="#263238"/>
<path d="M16.8144 6.37256H16.5527V25.9006H16.8144V6.37256Z" fill="#263238"/>
<path d="M19.2094 6.37256H18.9478V25.9006H19.2094V6.37256Z" fill="#263238"/>
<path d="M13.729 6.37256H13.4673V25.9006H13.729V6.37256Z" fill="#263238"/>
<path d="M16.1857 6.37256H13.4673V6.76019H16.1857V6.37256Z" fill="#263238"/>
<path d="M22.3948 7.30566H3.82666V7.75123H22.3948V7.30566Z" fill="#263238"/>
<path d="M19.2092 13.2217H13.5981V13.6388H19.2092V13.2217Z" fill="#263238"/>
<path d="M19.1335 7.9743L18.9351 7.79785L16.6002 13.2533L16.7986 13.4297L19.1335 7.9743Z" fill="#263238"/>
<path d="M16.1257 7.81609L15.9272 7.63965L13.5924 13.0951L13.7908 13.2715L16.1257 7.81609Z" fill="#263238"/>
<path d="M20.4735 5.40918H16.3086V7.30626H20.4735V5.40918Z" fill="#263238"/>
<path d="M8.10024 7.57055L8.05566 7.48734L14.6964 0.15918L17.0847 5.90942L17.0226 5.96419L14.676 0.315075L8.10024 7.57055Z" fill="#263238"/>
<path d="M16.1749 7.87503L13.4214 7.57588L14.6837 0.0244141L16.1749 7.87503ZM13.5098 7.48003L16.074 7.75811L14.6852 0.447861L13.5098 7.48003Z" fill="#263238"/>
<path d="M2.57031 14.9449L2.79179 13.2132L4.16012 7.28914L4.22956 7.32285L2.86196 13.2395L2.65803 14.8374L7.20378 14.7226L5.42392 7.32285L5.49336 7.28809L7.30611 14.8248L2.57031 14.9449Z" fill="#263238"/>
<path d="M3.21589 13.3228H1.43896V16.4333H3.21589V13.3228Z" fill="#263238"/>
<path d="M8.18479 13.3228H3.21582V16.4333H8.18479V13.3228Z" fill="#263238"/>
<path d="M2.36469 16.4328C2.35374 16.4328 2.3457 15.7418 2.3457 14.8907C2.3457 14.0396 2.35374 13.3486 2.36469 13.3486C2.37564 13.3486 2.38368 14.0386 2.38368 14.8907C2.38368 15.7429 2.37491 16.4328 2.36469 16.4328Z" fill="#455A64"/>
<path d="M3.21674 16.4328C3.20652 16.4328 3.19775 15.7418 3.19775 14.8907C3.19775 14.0396 3.20652 13.3486 3.21674 13.3486C3.22696 13.3486 3.23573 14.0386 3.23573 14.8907C3.23573 15.7429 3.22696 16.4328 3.21674 16.4328Z" fill="#455A64"/>
<path d="M7.90596 16.0775C7.90596 16.0775 7.90596 16.0617 7.90596 16.0343C7.90596 16.0069 7.90596 15.9627 7.90596 15.91C7.90596 15.7994 7.90595 15.6414 7.9023 15.4381C7.9023 15.0273 7.89865 14.4353 7.89572 13.6969L7.90815 13.7159L3.43037 13.7243C3.41283 13.7496 3.45303 13.6917 3.44938 13.698V14.3132C3.44938 14.5175 3.44938 14.7187 3.44938 14.9178V16.0765L3.42526 16.0554L6.62899 16.068L7.56314 16.0754H7.81459H7.88037C7.88791 16.0745 7.89549 16.0745 7.90303 16.0754H7.88403H7.82043H7.57337L6.64288 16.0828L3.42672 16.0954H3.40771V14.3047C3.40771 14.1994 3.40771 14.1004 3.40771 13.9972V13.6896L3.42745 13.6611L7.90522 13.6706H7.91838V13.6885C7.91838 14.4259 7.91326 15.0273 7.91107 15.4413C7.91107 15.6425 7.91107 15.7994 7.91107 15.909C7.91107 15.9595 7.91107 15.9996 7.91107 16.0291C7.91102 16.0455 7.9093 16.0618 7.90596 16.0775Z" fill="#455A64"/>
<path d="M3.77387 16.0783C3.76292 16.0783 3.75488 15.5453 3.75488 14.888C3.75488 14.2307 3.76292 13.6978 3.77387 13.6978C3.78482 13.6978 3.79285 14.2307 3.79285 14.888C3.79285 15.5453 3.78409 16.0783 3.77387 16.0783Z" fill="#455A64"/>
<path d="M4.19526 16.0783C4.1843 16.0783 4.17627 15.5453 4.17627 14.888C4.17627 14.2307 4.1843 13.6978 4.19526 13.6978C4.20621 13.6978 4.21424 14.2307 4.21424 14.888C4.21424 15.5453 4.20548 16.0783 4.19526 16.0783Z" fill="#455A64"/>
<path d="M4.61567 16.0783C4.60544 16.0783 4.59668 15.5453 4.59668 14.888C4.59668 14.2307 4.60544 13.6978 4.61567 13.6978C4.62589 13.6978 4.63465 14.2307 4.63465 14.888C4.63465 15.5453 4.62589 16.0783 4.61567 16.0783Z" fill="#455A64"/>
<path d="M5.03657 16.0783C5.02634 16.0783 5.01758 15.5453 5.01758 14.888C5.01758 14.2307 5.02634 13.6978 5.03657 13.6978C5.04679 13.6978 5.05555 14.2307 5.05555 14.888C5.05555 15.5453 5.04752 16.0783 5.03657 16.0783Z" fill="#455A64"/>
<path d="M5.45795 16.0783C5.44773 16.0783 5.43896 15.5453 5.43896 14.888C5.43896 14.2307 5.44773 13.6978 5.45795 13.6978C5.46817 13.6978 5.47694 14.2307 5.47694 14.888C5.47694 15.5453 5.47183 16.0783 5.45795 16.0783Z" fill="#455A64"/>
<path d="M5.87909 16.0783C5.86814 16.0783 5.85938 15.5453 5.85938 14.888C5.85938 14.2307 5.86814 13.6978 5.87909 13.6978C5.89005 13.6978 5.89808 14.2307 5.89808 14.888C5.89808 15.5453 5.88932 16.0783 5.87909 16.0783Z" fill="#455A64"/>
<path d="M6.30024 16.0783C6.28928 16.0783 6.28125 15.5453 6.28125 14.888C6.28125 14.2307 6.28928 13.6978 6.30024 13.6978C6.31119 13.6978 6.31922 14.2307 6.31922 14.888C6.31922 15.5453 6.31046 16.0783 6.30024 16.0783Z" fill="#455A64"/>
<path d="M6.72114 16.0783C6.71018 16.0783 6.70215 15.5453 6.70215 14.888C6.70215 14.2307 6.71018 13.6978 6.72114 13.6978C6.73209 13.6978 6.74012 14.2307 6.74012 14.888C6.74012 15.5453 6.73136 16.0783 6.72114 16.0783Z" fill="#455A64"/>
<path d="M7.14252 16.0783C7.1323 16.0783 7.12354 15.5453 7.12354 14.888C7.12354 14.2307 7.1323 13.6978 7.14252 13.6978C7.15274 13.6978 7.16151 14.2307 7.16151 14.888C7.16151 15.5453 7.15274 16.0783 7.14252 16.0783Z" fill="#455A64"/>
<path d="M7.56293 16.0783C7.55271 16.0783 7.54395 15.5453 7.54395 14.888C7.54395 14.2307 7.55271 13.6978 7.56293 13.6978C7.57315 13.6978 7.58192 14.2307 7.58192 14.888C7.58192 15.5453 7.57388 16.0783 7.56293 16.0783Z" fill="#455A64"/>
<path d="M32.8921 22.9809H32.1626V21.186H32.6779L32.8921 22.9809Z" fill="#FF7775"/>
<path d="M17.4698 23.8726H15.6929V26.9831H17.4698V23.8726Z" fill="#FF7775"/>
<path opacity="0.4" d="M17.4698 23.8726H15.6929V26.9831H17.4698V23.8726Z" fill="white"/>
<path d="M22.4397 23.8726H17.4707V26.9831H22.4397V23.8726Z" fill="#FF7775"/>
<path opacity="0.2" d="M22.4397 23.8726H17.4707V26.9831H22.4397V23.8726Z" fill="white"/>
<path d="M16.6181 26.9826C16.6079 26.9826 16.5991 26.2916 16.5991 25.4405C16.5991 24.5894 16.6079 23.8994 16.6181 23.8994C16.6283 23.8994 16.6371 24.5894 16.6371 25.4405C16.6371 26.2916 16.6291 26.9826 16.6181 26.9826Z" fill="#263238"/>
<path d="M22.16 26.6282C22.1594 26.6138 22.1594 26.5994 22.16 26.585C22.16 26.5544 22.16 26.5134 22.16 26.4617C22.16 26.3511 22.16 26.1921 22.16 25.9888C22.16 25.578 22.1556 24.986 22.1527 24.2486L22.1658 24.2666L17.688 24.276C17.6705 24.3003 17.7107 24.2423 17.7063 24.2486V25.4695C17.7063 25.8676 17.7063 26.2553 17.7063 26.6282L17.688 26.6018L20.8918 26.6134L21.8267 26.6208H22.0781H22.1439H22.1665H22.1461H22.0825H21.8354L20.9042 26.6282L17.688 26.6408H17.6698V26.6145C17.6698 26.2416 17.6698 25.854 17.6698 25.4558V24.2486C17.6654 24.2539 17.7063 24.196 17.6895 24.2213L22.1673 24.2297H22.1804V24.2486C22.1804 24.986 22.1746 25.5864 22.1731 26.0004C22.1731 26.2016 22.1731 26.3585 22.1731 26.4681C22.1731 26.5197 22.1731 26.5586 22.1731 26.5881C22.1695 26.602 22.1651 26.6154 22.16 26.6282Z" fill="#263238"/>
<path d="M18.0273 26.6285C18.0171 26.6285 18.0083 26.0955 18.0083 25.4383C18.0083 24.781 18.0171 24.249 18.0273 24.249C18.0375 24.249 18.0463 24.781 18.0463 25.4383C18.0463 26.0955 18.0412 26.6285 18.0273 26.6285Z" fill="#263238"/>
<path d="M18.4489 26.6285C18.438 26.6285 18.4292 26.0955 18.4292 25.4383C18.4292 24.781 18.438 24.249 18.4489 24.249C18.4599 24.249 18.4679 24.781 18.4679 25.4383C18.4679 26.0955 18.4591 26.6285 18.4489 26.6285Z" fill="#263238"/>
<path d="M18.8696 26.6285C18.8586 26.6285 18.8506 26.0955 18.8506 25.4383C18.8506 24.781 18.8586 24.249 18.8696 24.249C18.8805 24.249 18.8886 24.781 18.8886 25.4383C18.8886 26.0955 18.8798 26.6285 18.8696 26.6285Z" fill="#263238"/>
<path d="M19.2905 26.6285C19.2795 26.6285 19.2715 26.0955 19.2715 25.4383C19.2715 24.781 19.2795 24.249 19.2905 24.249C19.3014 24.249 19.3095 24.781 19.3095 25.4383C19.3095 26.0955 19.3007 26.6285 19.2905 26.6285Z" fill="#263238"/>
<path d="M19.7119 26.6285C19.7016 26.6285 19.6929 26.0955 19.6929 25.4383C19.6929 24.781 19.7016 24.249 19.7119 24.249C19.7221 24.249 19.7308 24.781 19.7308 25.4383C19.7308 26.0955 19.7221 26.6285 19.7119 26.6285Z" fill="#263238"/>
<path d="M20.1328 26.6285C20.1225 26.6285 20.1138 26.0955 20.1138 25.4383C20.1138 24.781 20.1225 24.249 20.1328 24.249C20.143 24.249 20.1517 24.781 20.1517 25.4383C20.1517 26.0955 20.1437 26.6285 20.1328 26.6285Z" fill="#263238"/>
<path d="M20.5537 26.6285C20.5434 26.6285 20.5347 26.0955 20.5347 25.4383C20.5347 24.781 20.5434 24.249 20.5537 24.249C20.5639 24.249 20.5726 24.781 20.5726 25.4383C20.5726 26.0955 20.5646 26.6285 20.5537 26.6285Z" fill="#263238"/>
<path d="M20.9755 26.6285C20.9646 26.6285 20.9565 26.0955 20.9565 25.4383C20.9565 24.781 20.9646 24.249 20.9755 24.249C20.9865 24.249 20.9945 24.781 20.9945 25.4383C20.9945 26.0955 20.9858 26.6285 20.9755 26.6285Z" fill="#263238"/>
<path d="M21.3959 26.6285C21.385 26.6285 21.377 26.0955 21.377 25.4383C21.377 24.781 21.385 24.249 21.3959 24.249C21.4069 24.249 21.4149 24.781 21.4149 25.4383C21.4149 26.0955 21.4062 26.6285 21.3959 26.6285Z" fill="#263238"/>
<path d="M21.8173 26.6285C21.8071 26.6285 21.7983 26.0955 21.7983 25.4383C21.7983 24.781 21.8071 24.249 21.8173 24.249C21.8276 24.249 21.8363 24.781 21.8363 25.4383C21.8363 26.0955 21.8276 26.6285 21.8173 26.6285Z" fill="#263238"/>
<path d="M23.3404 17.6694H21.5635V20.78H23.3404V17.6694Z" fill="#FF7775"/>
<path opacity="0.4" d="M23.3404 17.6694H21.5635V20.78H23.3404V17.6694Z" fill="white"/>
<path d="M28.3088 17.6694H23.3398V20.78H28.3088V17.6694Z" fill="#FF7775"/>
<path opacity="0.2" d="M28.3088 17.6694H23.3398V20.78H28.3088V17.6694Z" fill="white"/>
<path d="M22.4887 20.7805C22.4785 20.7805 22.4697 20.0895 22.4697 19.2384C22.4697 18.3873 22.4785 17.6963 22.4887 17.6963C22.4989 17.6963 22.5077 18.3873 22.5077 19.2384C22.5077 20.0895 22.4989 20.7805 22.4887 20.7805Z" fill="#263238"/>
<path d="M28.0311 20.4241C28.03 20.4097 28.03 20.3953 28.0311 20.3809C28.0311 20.3504 28.0311 20.3093 28.0311 20.2566C28.0311 20.1513 28.0311 19.988 28.0311 19.7847C28.0311 19.3739 28.0267 18.7819 28.0238 18.0446L28.0369 18.0625L23.5584 18.072L23.5774 18.0446V19.2643C23.5774 19.6625 23.5774 20.0501 23.5774 20.423L23.5591 20.3967L26.7629 20.4083L27.6978 20.4157H27.9492H28.0143H28.0376H28.0164H27.9536H27.7058L26.7753 20.423L23.5591 20.4357H23.5409V20.4093C23.5409 20.0365 23.5409 19.6488 23.5409 19.2507V18.0456C23.5365 18.0509 23.5767 17.993 23.5599 18.0172L28.0384 18.0267H28.0508V18.0456C28.0508 18.783 28.0457 19.3834 28.0442 19.7973C28.0442 19.9985 28.0442 20.1555 28.0406 20.265C28.0406 20.3156 28.0406 20.3556 28.0406 20.3851C28.0406 20.4146 28.0311 20.4241 28.0311 20.4241Z" fill="#263238"/>
<path d="M23.8974 20.4249C23.8872 20.4249 23.8784 19.8919 23.8784 19.2346C23.8784 18.5774 23.8872 18.0454 23.8974 18.0454C23.9076 18.0454 23.9164 18.5774 23.9164 19.2346C23.9164 19.8919 23.9076 20.4249 23.8974 20.4249Z" fill="#263238"/>
<path d="M24.3188 20.4249C24.3086 20.4249 24.2998 19.8919 24.2998 19.2346C24.2998 18.5774 24.3086 18.0454 24.3188 18.0454C24.329 18.0454 24.3378 18.5774 24.3378 19.2346C24.3378 19.8919 24.3261 20.4249 24.3188 20.4249Z" fill="#263238"/>
<path d="M24.7397 20.4249C24.7295 20.4249 24.7207 19.8919 24.7207 19.2346C24.7207 18.5774 24.7295 18.0454 24.7397 18.0454C24.7499 18.0454 24.7587 18.5774 24.7587 19.2346C24.7587 19.8919 24.7506 20.4249 24.7397 20.4249Z" fill="#263238"/>
<path d="M25.1606 20.4249C25.1504 20.4249 25.1416 19.8919 25.1416 19.2346C25.1416 18.5774 25.1504 18.0454 25.1606 18.0454C25.1708 18.0454 25.1803 18.5774 25.1803 19.2346C25.1803 19.8919 25.1715 20.4249 25.1606 20.4249Z" fill="#263238"/>
<path d="M25.5825 20.4249C25.5715 20.4249 25.5635 19.8919 25.5635 19.2346C25.5635 18.5774 25.5715 18.0454 25.5825 18.0454C25.5934 18.0454 25.6015 18.5774 25.6015 19.2346C25.6015 19.8919 25.5927 20.4249 25.5825 20.4249Z" fill="#263238"/>
<path d="M26.0073 20.4249C25.9963 20.4249 25.9883 19.8919 25.9883 19.2346C25.9883 18.5774 25.9963 18.0454 26.0073 18.0454C26.0182 18.0454 26.0263 18.5774 26.0263 19.2346C26.0263 19.8919 26.0138 20.4249 26.0073 20.4249Z" fill="#263238"/>
<path d="M26.4243 20.4249C26.414 20.4249 26.4053 19.8919 26.4053 19.2346C26.4053 18.5774 26.414 18.0454 26.4243 18.0454C26.4345 18.0454 26.4432 18.5774 26.4432 19.2346C26.4432 19.8919 26.4345 20.4249 26.4243 20.4249Z" fill="#263238"/>
<path d="M26.8447 20.4249C26.8344 20.4249 26.8257 19.8919 26.8257 19.2346C26.8257 18.5774 26.8344 18.0454 26.8447 18.0454C26.8549 18.0454 26.8637 18.5774 26.8637 19.2346C26.8637 19.8919 26.8556 20.4249 26.8447 20.4249Z" fill="#263238"/>
<path d="M27.2661 20.4249C27.2558 20.4249 27.2471 19.8919 27.2471 19.2346C27.2471 18.5774 27.2558 18.0454 27.2661 18.0454C27.2763 18.0454 27.285 18.5774 27.285 19.2346C27.285 19.8919 27.277 20.4249 27.2661 20.4249Z" fill="#263238"/>
<path d="M27.6877 20.4249C27.6767 20.4249 27.668 19.8919 27.668 19.2346C27.668 18.5774 27.6767 18.0454 27.6877 18.0454C27.6986 18.0454 27.7067 18.5774 27.7067 19.2346C27.7067 19.8919 27.6979 20.4249 27.6877 20.4249Z" fill="#263238"/>
<path d="M8.04548 25.4458H6.26855V28.5563H8.04548V25.4458Z" fill="#FF7775"/>
<path opacity="0.4" d="M8.04548 25.4458H6.26855V28.5563H8.04548V25.4458Z" fill="white"/>
<path d="M13.0144 25.4458H8.04541V28.5563H13.0144V25.4458Z" fill="#FF7775"/>
<path opacity="0.2" d="M13.0144 25.4458H8.04541V28.5563H13.0144V25.4458Z" fill="white"/>
<path d="M7.19428 28.5563C7.18406 28.5563 7.17529 27.8664 7.17529 27.0142C7.17529 26.162 7.18406 25.4731 7.19428 25.4731C7.2045 25.4731 7.21327 26.1631 7.21327 27.0142C7.21327 27.8653 7.2045 28.5563 7.19428 28.5563Z" fill="#263238"/>
<path d="M12.7357 28.2014C12.7346 28.187 12.7346 28.1725 12.7357 28.1582C12.7357 28.1276 12.7357 28.0866 12.7357 28.0349C12.7357 27.9243 12.7357 27.7653 12.7357 27.562C12.7357 27.1512 12.7313 26.5592 12.7283 25.8219L12.7415 25.8398L8.263 25.8492L8.282 25.8219V27.0427C8.282 27.4409 8.282 27.8285 8.282 28.2014L8.26373 28.175L11.4675 28.1877L12.4023 28.195H12.6538H12.7188H12.7422H12.721H12.6582H12.4104L11.4799 28.2024L8.26373 28.2151H8.24545V28.1887C8.24545 27.8158 8.24545 27.4282 8.24545 27.03V25.8219C8.24107 25.8219 8.28127 25.7692 8.26446 25.7945L12.743 25.8029H12.7554V25.8219C12.7554 26.5592 12.7503 27.1596 12.7488 27.5736C12.7488 27.7748 12.7488 27.9317 12.7452 28.0413C12.7452 28.0929 12.7452 28.1318 12.7452 28.1613C12.7452 28.1908 12.7357 28.2014 12.7357 28.2014Z" fill="#263238"/>
<path d="M8.60297 28.2023C8.59202 28.2023 8.58398 27.6693 8.58398 27.012C8.58398 26.3547 8.59202 25.8228 8.60297 25.8228C8.61392 25.8228 8.62196 26.3494 8.62196 27.012C8.62196 27.6745 8.61392 28.2023 8.60297 28.2023Z" fill="#263238"/>
<path d="M9.02387 28.2023C9.01365 28.2023 9.00488 27.6693 9.00488 27.012C9.00488 26.3547 9.01365 25.8228 9.02387 25.8228C9.03409 25.8228 9.04285 26.3494 9.04285 27.012C9.04285 27.6745 9.03409 28.2023 9.02387 28.2023Z" fill="#263238"/>
<path d="M9.44477 28.2023C9.43454 28.2023 9.42578 27.6693 9.42578 27.012C9.42578 26.3547 9.43454 25.8228 9.44477 25.8228C9.45499 25.8228 9.46375 26.3494 9.46375 27.012C9.46375 27.6745 9.45572 28.2023 9.44477 28.2023Z" fill="#263238"/>
<path d="M9.86518 28.2023C9.85495 28.2023 9.84619 27.6693 9.84619 27.012C9.84619 26.3547 9.85495 25.8228 9.86518 25.8228C9.8754 25.8228 9.88416 26.3494 9.88416 27.012C9.88416 27.6745 9.87613 28.2023 9.86518 28.2023Z" fill="#263238"/>
<path d="M10.2871 28.2023C10.2761 28.2023 10.2681 27.6693 10.2681 27.012C10.2681 26.3547 10.2761 25.8228 10.2871 25.8228C10.298 25.8228 10.306 26.3494 10.306 27.012C10.306 27.6745 10.2944 28.2023 10.2871 28.2023Z" fill="#263238"/>
<path d="M10.7084 28.2023C10.6975 28.2023 10.6895 27.6693 10.6895 27.012C10.6895 26.3547 10.6975 25.8228 10.7084 25.8228C10.7194 25.8228 10.7274 26.3494 10.7274 27.012C10.7274 27.6745 10.7187 28.2023 10.7084 28.2023Z" fill="#263238"/>
<path d="M11.1293 28.2023C11.1191 28.2023 11.1104 27.6693 11.1104 27.012C11.1104 26.3547 11.1191 25.8228 11.1293 25.8228C11.1396 25.8228 11.1483 26.3494 11.1483 27.012C11.1483 27.6745 11.1396 28.2023 11.1293 28.2023Z" fill="#263238"/>
<path d="M11.5502 28.2023C11.54 28.2023 11.5312 27.6693 11.5312 27.012C11.5312 26.3547 11.54 25.8228 11.5502 25.8228C11.5605 25.8228 11.5692 26.3494 11.5692 27.012C11.5692 27.6745 11.5605 28.2023 11.5502 28.2023Z" fill="#263238"/>
<path d="M11.9711 28.2023C11.9609 28.2023 11.9521 27.6693 11.9521 27.012C11.9521 26.3547 11.9609 25.8228 11.9711 25.8228C11.9814 25.8228 11.9901 26.3494 11.9901 27.012C11.9901 27.6745 11.9821 28.2023 11.9711 28.2023Z" fill="#263238"/>
<path d="M12.3925 28.2023C12.3823 28.2023 12.3735 27.6693 12.3735 27.012C12.3735 26.3547 12.3823 25.8228 12.3925 25.8228C12.4027 25.8228 12.4115 26.3494 12.4115 27.012C12.4115 27.6745 12.4035 28.2023 12.3925 28.2023Z" fill="#263238"/>
<path d="M19.5001 20.7969H17.7231V23.9074H19.5001V20.7969Z" fill="#263238"/>
<path d="M24.4695 20.7969H19.5005V23.9074H24.4695V20.7969Z" fill="#263238"/>
<path d="M18.6484 23.9064C18.6382 23.9064 18.6294 23.2165 18.6294 22.3653C18.6294 21.5142 18.6382 20.8232 18.6484 20.8232C18.6586 20.8232 18.6674 21.5132 18.6674 22.3653C18.6674 23.2175 18.6593 23.9064 18.6484 23.9064Z" fill="#455A64"/>
<path d="M19.5024 23.9064C19.4914 23.9064 19.4834 23.2165 19.4834 22.3653C19.4834 21.5142 19.4914 20.8232 19.5024 20.8232C19.5133 20.8232 19.5214 21.5132 19.5214 22.3653C19.5214 23.2175 19.5104 23.9064 19.5024 23.9064Z" fill="#455A64"/>
<path d="M24.1906 23.5503C24.19 23.5359 24.19 23.5215 24.1906 23.5071C24.1906 23.4766 24.1906 23.4365 24.1906 23.3839C24.1906 23.2733 24.1906 23.1153 24.1906 22.9109C24.1906 22.5001 24.1862 21.9081 24.1833 21.1708L24.1965 21.1897L19.7187 21.1982C19.7012 21.2224 19.7414 21.1645 19.737 21.1708V22.3895C19.737 22.7877 19.737 23.1753 19.737 23.5482L19.7187 23.5219L22.9224 23.5345L23.8573 23.5419H24.1088H24.1738H24.1972H24.1767H24.108H23.8602L22.9297 23.5493L19.7136 23.5608H19.6953V23.5345C19.6953 23.1616 19.6953 22.774 19.6953 22.3758V21.1729L19.715 21.1455L24.1928 21.1539H24.206V21.1729C24.206 21.9155 24.2001 22.5117 24.1987 22.9246C24.1987 23.1269 24.1987 23.2838 24.1987 23.3934C24.1987 23.4439 24.1987 23.4839 24.1987 23.5134C24.1967 23.526 24.194 23.5383 24.1906 23.5503Z" fill="#455A64"/>
<path d="M20.0576 23.5509C20.0473 23.5509 20.0386 23.0179 20.0386 22.3617C20.0386 21.7054 20.0473 21.1714 20.0576 21.1714C20.0678 21.1714 20.0765 21.7044 20.0765 22.3617C20.0765 23.019 20.0685 23.5509 20.0576 23.5509Z" fill="#455A64"/>
<path d="M20.478 23.5509C20.4677 23.5509 20.459 23.0179 20.459 22.3617C20.459 21.7054 20.4677 21.1714 20.478 21.1714C20.4882 21.1714 20.497 21.7044 20.497 22.3617C20.497 23.019 20.4889 23.5509 20.478 23.5509Z" fill="#455A64"/>
<path d="M20.8998 23.5509C20.8889 23.5509 20.8809 23.0179 20.8809 22.3617C20.8809 21.7054 20.8889 21.1714 20.8998 21.1714C20.9108 21.1714 20.9188 21.7044 20.9188 22.3617C20.9188 23.019 20.9101 23.5509 20.8998 23.5509Z" fill="#455A64"/>
<path d="M21.3212 23.5509C21.3103 23.5509 21.3022 23.0179 21.3022 22.3617C21.3022 21.7054 21.3103 21.1714 21.3212 21.1714C21.3322 21.1714 21.3402 21.7044 21.3402 22.3617C21.3402 23.019 21.33 23.5509 21.3212 23.5509Z" fill="#455A64"/>
<path d="M21.7421 23.5509C21.7319 23.5509 21.7231 23.0179 21.7231 22.3617C21.7231 21.7054 21.7319 21.1714 21.7421 21.1714C21.7524 21.1714 21.7611 21.7044 21.7611 22.3617C21.7611 23.019 21.7524 23.5509 21.7421 23.5509Z" fill="#455A64"/>
<path d="M22.163 23.5509C22.1528 23.5509 22.144 23.0179 22.144 22.3617C22.144 21.7054 22.1528 21.1714 22.163 21.1714C22.1733 21.1714 22.182 21.7044 22.182 22.3617C22.182 23.019 22.174 23.5509 22.163 23.5509Z" fill="#455A64"/>
<path d="M22.5839 23.5509C22.5737 23.5509 22.5649 23.0179 22.5649 22.3617C22.5649 21.7054 22.5737 21.1714 22.5839 21.1714C22.5942 21.1714 22.6029 21.7044 22.6029 22.3617C22.6029 23.019 22.5949 23.5509 22.5839 23.5509Z" fill="#455A64"/>
<path d="M23.0048 23.5509C22.9946 23.5509 22.9858 23.0179 22.9858 22.3617C22.9858 21.7054 22.9946 21.1714 23.0048 21.1714C23.0151 21.1714 23.0245 21.7044 23.0245 22.3617C23.0245 23.019 23.0158 23.5509 23.0048 23.5509Z" fill="#455A64"/>
<path d="M23.4262 23.5509C23.4153 23.5509 23.4072 23.0179 23.4072 22.3617C23.4072 21.7054 23.4153 21.1714 23.4262 21.1714C23.4372 21.1714 23.4452 21.7044 23.4452 22.3617C23.4452 23.019 23.4364 23.5509 23.4262 23.5509Z" fill="#455A64"/>
<path d="M23.8471 23.5509C23.8362 23.5509 23.8281 23.0179 23.8281 22.3617C23.8281 21.7054 23.8362 21.1714 23.8471 21.1714C23.8581 21.1714 23.8661 21.7044 23.8661 22.3617C23.8661 23.019 23.8573 23.5509 23.8471 23.5509Z" fill="#455A64"/>
<path d="M15.2017 27.0825H13.4248V30.1931H15.2017V27.0825Z" fill="#FF7775"/>
<path d="M20.1716 27.0825H15.2026V30.1931H20.1716V27.0825Z" fill="#FF7775"/>
<path opacity="0.4" d="M20.1716 27.0825H15.2026V30.1931H20.1716V27.0825Z" fill="black"/>
<path d="M14.3515 30.194C14.3406 30.194 14.3325 29.504 14.3325 28.6519C14.3325 27.7997 14.3406 27.1108 14.3515 27.1108C14.3625 27.1108 14.3705 27.8008 14.3705 28.6519C14.3705 29.503 14.3617 30.194 14.3515 30.194Z" fill="#263238"/>
<path d="M19.8925 29.8381C19.8925 29.8381 19.8925 29.8223 19.8925 29.795C19.8925 29.7676 19.8925 29.7233 19.8925 29.6717C19.8925 29.5664 19.8925 29.4021 19.8889 29.1988C19.8889 28.788 19.8852 28.196 19.8823 27.4586L19.8947 27.4765L15.4169 27.486L15.4359 27.4586V27.7683C15.4359 27.8737 15.4359 27.9737 15.4359 28.0748V29.8381L15.4177 29.8118L18.6214 29.8245L19.5555 29.8318H19.807H19.8728C19.8803 29.8309 19.8879 29.8309 19.8954 29.8318H19.8691H19.8055H19.5585L18.628 29.8392L15.4118 29.8518H15.3928V28.0611C15.3928 27.9558 15.3928 27.8568 15.3928 27.7546V27.4449C15.3892 27.4502 15.4294 27.3923 15.4125 27.4175L19.8903 27.426H19.9035V27.4449C19.9035 28.1823 19.8984 28.7827 19.8962 29.1967C19.8962 29.3978 19.8962 29.5548 19.8962 29.6643C19.8962 29.716 19.8962 29.7549 19.8962 29.7844C19.8971 29.8025 19.8958 29.8207 19.8925 29.8381Z" fill="#263238"/>
<path d="M15.7602 29.839C15.7492 29.839 15.7412 29.306 15.7412 28.6487C15.7412 27.9914 15.7492 27.4595 15.7602 27.4595C15.7712 27.4595 15.7792 27.9914 15.7792 28.6487C15.7792 29.306 15.7704 29.839 15.7602 29.839Z" fill="#263238"/>
<path d="M16.1811 29.839C16.1701 29.839 16.1621 29.306 16.1621 28.6487C16.1621 27.9914 16.1701 27.4595 16.1811 27.4595C16.192 27.4595 16.2001 27.9914 16.2001 28.6487C16.2001 29.306 16.1913 29.839 16.1811 29.839Z" fill="#263238"/>
<path d="M16.6025 29.839C16.5923 29.839 16.5835 29.306 16.5835 28.6487C16.5835 27.9914 16.5923 27.4595 16.6025 27.4595C16.6127 27.4595 16.6215 27.9914 16.6215 28.6487C16.6215 29.306 16.6127 29.839 16.6025 29.839Z" fill="#263238"/>
<path d="M17.0234 29.839C17.0132 29.839 17.0044 29.306 17.0044 28.6487C17.0044 27.9914 17.0132 27.4595 17.0234 27.4595C17.0336 27.4595 17.0424 27.9914 17.0424 28.6487C17.0424 29.306 17.0343 29.839 17.0234 29.839Z" fill="#263238"/>
<path d="M17.4443 29.839C17.4341 29.839 17.4253 29.306 17.4253 28.6487C17.4253 27.9914 17.4341 27.4595 17.4443 27.4595C17.4545 27.4595 17.4633 27.9914 17.4633 28.6487C17.4633 29.306 17.4567 29.839 17.4443 29.839Z" fill="#263238"/>
<path d="M17.8657 29.839C17.8554 29.839 17.8467 29.306 17.8467 28.6487C17.8467 27.9914 17.8554 27.4595 17.8657 27.4595C17.8759 27.4595 17.8854 27.9914 17.8854 28.6487C17.8854 29.306 17.8766 29.839 17.8657 29.839Z" fill="#263238"/>
<path d="M18.2866 29.839C18.2756 29.839 18.2676 29.306 18.2676 28.6487C18.2676 27.9914 18.2756 27.4595 18.2866 27.4595C18.2975 27.4595 18.3055 27.9914 18.3055 28.6487C18.3055 29.306 18.2968 29.839 18.2866 29.839Z" fill="#263238"/>
<path d="M18.7075 29.839C18.6965 29.839 18.6885 29.306 18.6885 28.6487C18.6885 27.9914 18.6965 27.4595 18.7075 27.4595C18.7184 27.4595 18.7265 27.9914 18.7265 28.6487C18.7265 29.306 18.7177 29.839 18.7075 29.839Z" fill="#263238"/>
<path d="M19.1284 29.839C19.1181 29.839 19.1094 29.306 19.1094 28.6487C19.1094 27.9914 19.1181 27.4595 19.1284 27.4595C19.1386 27.4595 19.1473 27.9914 19.1473 28.6487C19.1473 29.306 19.1371 29.839 19.1284 29.839Z" fill="#263238"/>
<path d="M19.5493 29.839C19.539 29.839 19.5303 29.306 19.5303 28.6487C19.5303 27.9914 19.539 27.4595 19.5493 27.4595C19.5595 27.4595 19.5682 27.9914 19.5682 28.6487C19.5682 29.306 19.5602 29.839 19.5493 29.839Z" fill="#263238"/>
<path d="M20.8804 26.9829H19.1035V30.0935H20.8804V26.9829Z" fill="#263238"/>
<path d="M25.8493 26.9829H20.8804V30.0935H25.8493V26.9829Z" fill="#263238"/>
<path d="M20.0288 30.092C20.0178 30.092 20.0098 29.401 20.0098 28.5499C20.0098 27.6988 20.0178 27.0078 20.0288 27.0078C20.0397 27.0078 20.0477 27.6978 20.0477 28.5499C20.0477 29.4021 20.039 30.092 20.0288 30.092Z" fill="#455A64"/>
<path d="M20.8798 30.092C20.8696 30.092 20.8608 29.401 20.8608 28.5499C20.8608 27.6988 20.8696 27.0078 20.8798 27.0078C20.8901 27.0078 20.8988 27.6978 20.8988 28.5499C20.8988 29.4021 20.8908 30.092 20.8798 30.092Z" fill="#455A64"/>
<path d="M25.5696 29.7376C25.5696 29.7376 25.5696 29.7218 25.5696 29.6944C25.5696 29.667 25.5696 29.6227 25.5696 29.5701C25.5696 29.4595 25.5696 29.3015 25.566 29.0982C25.566 28.6874 25.5623 28.0954 25.5594 27.357L25.5718 27.376L21.0941 27.3854L21.1131 27.358V27.9732C21.1131 28.1776 21.1131 28.3787 21.1131 28.5778V29.7365L21.0948 29.7102L24.2985 29.7218L25.2327 29.7291H25.4841H25.5499H25.5726H25.5521H25.4885H25.2414L24.3109 29.7365L21.0948 29.7491H21.0765V27.3591C21.0721 27.3644 21.1123 27.3064 21.0955 27.3307L25.5733 27.3401H25.5864V27.358C25.5864 28.0954 25.5813 28.6969 25.5791 29.1108C25.5791 29.312 25.5791 29.469 25.5791 29.5785C25.5791 29.6291 25.5791 29.6691 25.5791 29.6986C25.5771 29.7121 25.5739 29.7252 25.5696 29.7376Z" fill="#455A64"/>
<path d="M21.4384 29.738C21.4275 29.738 21.4194 29.205 21.4194 28.5477C21.4194 27.8904 21.4275 27.3574 21.4384 27.3574C21.4494 27.3574 21.4574 27.8904 21.4574 28.5477C21.4574 29.205 21.4486 29.738 21.4384 29.738Z" fill="#455A64"/>
<path d="M21.8588 29.738C21.8479 29.738 21.8398 29.205 21.8398 28.5477C21.8398 27.8904 21.8479 27.3574 21.8588 27.3574C21.8698 27.3574 21.8778 27.8904 21.8778 28.5477C21.8778 29.205 21.8691 29.738 21.8588 29.738Z" fill="#455A64"/>
<path d="M22.2797 29.738C22.2695 29.738 22.2607 29.205 22.2607 28.5477C22.2607 27.8904 22.2695 27.3574 22.2797 27.3574C22.29 27.3574 22.2987 27.8904 22.2987 28.5477C22.2987 29.205 22.29 29.738 22.2797 29.738Z" fill="#455A64"/>
<path d="M22.7006 29.738C22.6904 29.738 22.6816 29.205 22.6816 28.5477C22.6816 27.8904 22.6904 27.3574 22.7006 27.3574C22.7109 27.3574 22.7196 27.8904 22.7196 28.5477C22.7196 29.205 22.7116 29.738 22.7006 29.738Z" fill="#455A64"/>
<path d="M23.1215 29.738C23.1113 29.738 23.1025 29.205 23.1025 28.5477C23.1025 27.8904 23.1113 27.3574 23.1215 27.3574C23.1317 27.3574 23.1405 27.8904 23.1405 28.5477C23.1405 29.205 23.1325 29.738 23.1215 29.738Z" fill="#455A64"/>
<path d="M23.5434 29.738C23.5324 29.738 23.5244 29.205 23.5244 28.5477C23.5244 27.8904 23.5324 27.3574 23.5434 27.3574C23.5544 27.3574 23.5624 27.8904 23.5624 28.5477C23.5624 29.205 23.5536 29.738 23.5434 29.738Z" fill="#455A64"/>
<path d="M23.9643 29.738C23.9533 29.738 23.9453 29.205 23.9453 28.5477C23.9453 27.8904 23.9533 27.3574 23.9643 27.3574C23.9753 27.3574 23.9833 27.8904 23.9833 28.5477C23.9833 29.205 23.9745 29.738 23.9643 29.738Z" fill="#455A64"/>
<path d="M24.3857 29.738C24.3755 29.738 24.3667 29.205 24.3667 28.5477C24.3667 27.8904 24.3755 27.3574 24.3857 27.3574C24.3959 27.3574 24.4047 27.8904 24.4047 28.5477C24.4047 29.205 24.3996 29.738 24.3857 29.738Z" fill="#455A64"/>
<path d="M24.8061 29.738C24.7959 29.738 24.7871 29.205 24.7871 28.5477C24.7871 27.8904 24.7959 27.3574 24.8061 27.3574C24.8163 27.3574 24.8251 27.8904 24.8251 28.5477C24.8251 29.205 24.8163 29.738 24.8061 29.738Z" fill="#455A64"/>
<path d="M25.227 29.738C25.2168 29.738 25.208 29.205 25.208 28.5477C25.208 27.8904 25.2168 27.3574 25.227 27.3574C25.2372 27.3574 25.246 27.8904 25.246 28.5477C25.246 29.205 25.2379 29.738 25.227 29.738Z" fill="#455A64"/>
<path d="M22.2774 20.8096H20.5005V23.9201H22.2774V20.8096Z" fill="#455A64"/>
<path d="M27.2458 20.8096H22.2769V23.9201H27.2458V20.8096Z" fill="#455A64"/>
<path d="M21.4257 23.9192C21.4155 23.9192 21.4067 23.2282 21.4067 22.3771C21.4067 21.526 21.4155 20.835 21.4257 20.835C21.4359 20.835 21.4447 21.526 21.4447 22.3771C21.4447 23.2282 21.4367 23.9192 21.4257 23.9192Z" fill="#263238"/>
<path d="M22.2797 23.9192C22.2695 23.9192 22.2607 23.2282 22.2607 22.3771C22.2607 21.526 22.2695 20.835 22.2797 20.835C22.29 20.835 22.2987 21.526 22.2987 22.3771C22.2987 23.2282 22.2878 23.9192 22.2797 23.9192Z" fill="#263238"/>
<path d="M26.9668 23.5651C26.9662 23.5507 26.9662 23.5363 26.9668 23.5219C26.9668 23.4914 26.9668 23.4503 26.9668 23.3976C26.9668 23.2923 26.9668 23.129 26.9668 22.9257C26.9668 22.5149 26.9624 21.9229 26.9595 21.1856L26.9726 21.2035L22.4941 21.213L22.5131 21.1856V22.4064C22.5131 22.8046 22.5131 23.1922 22.5131 23.5651L22.4948 23.5388L25.6986 23.5504L26.6335 23.5577H26.8849H26.9499H26.9733H26.9521H26.8893H26.6415L25.711 23.5651L22.4948 23.5777H22.4766V23.5514C22.4766 23.1785 22.4766 22.7909 22.4766 22.3927V21.1856L22.4956 21.1582L26.9741 21.1666H26.9872V21.1856C26.9836 21.9229 26.9814 22.5233 26.9799 22.9373C26.9799 23.1385 26.9799 23.2954 26.9799 23.405C26.9799 23.4566 26.9799 23.4956 26.9799 23.5251C26.9799 23.5546 26.9668 23.5651 26.9668 23.5651Z" fill="#263238"/>
<path d="M22.8344 23.5656C22.8242 23.5656 22.8154 23.0326 22.8154 22.3753C22.8154 21.718 22.8242 21.186 22.8344 21.186C22.8446 21.186 22.8534 21.718 22.8534 22.3753C22.8534 23.0326 22.8446 23.5656 22.8344 23.5656Z" fill="#263238"/>
<path d="M23.2553 23.5656C23.2451 23.5656 23.2363 23.0326 23.2363 22.3753C23.2363 21.718 23.2451 21.186 23.2553 21.186C23.2655 21.186 23.2743 21.718 23.2743 22.3753C23.2743 23.0326 23.2663 23.5656 23.2553 23.5656Z" fill="#263238"/>
<path d="M23.6767 23.5656C23.6665 23.5656 23.6577 23.0326 23.6577 22.3753C23.6577 21.718 23.6665 21.186 23.6767 21.186C23.6869 21.186 23.6957 21.718 23.6957 22.3753C23.6957 23.0326 23.6877 23.5656 23.6767 23.5656Z" fill="#263238"/>
<path d="M24.0981 23.5656C24.0871 23.5656 24.0791 23.0326 24.0791 22.3753C24.0791 21.718 24.0871 21.186 24.0981 21.186C24.109 21.186 24.1171 21.718 24.1171 22.3753C24.1171 23.0326 24.1069 23.5656 24.0981 23.5656Z" fill="#263238"/>
<path d="M24.5185 23.5656C24.5075 23.5656 24.4995 23.0326 24.4995 22.3753C24.4995 21.718 24.5075 21.186 24.5185 21.186C24.5295 21.186 24.5375 21.718 24.5375 22.3753C24.5375 23.0326 24.5287 23.5656 24.5185 23.5656Z" fill="#263238"/>
<path d="M24.9394 23.5656C24.9292 23.5656 24.9204 23.0326 24.9204 22.3753C24.9204 21.718 24.9292 21.186 24.9394 21.186C24.9496 21.186 24.9584 21.718 24.9584 22.3753C24.9584 23.0326 24.9496 23.5656 24.9394 23.5656Z" fill="#263238"/>
<path d="M25.3613 23.5656C25.351 23.5656 25.3423 23.0326 25.3423 22.3753C25.3423 21.718 25.351 21.186 25.3613 21.186C25.3715 21.186 25.3803 21.718 25.3803 22.3753C25.3803 23.0326 25.3722 23.5656 25.3613 23.5656Z" fill="#263238"/>
<path d="M25.7817 23.5656C25.7715 23.5656 25.7627 23.0326 25.7627 22.3753C25.7627 21.718 25.7715 21.186 25.7817 21.186C25.7919 21.186 25.8007 21.718 25.8007 22.3753C25.8007 23.0326 25.7926 23.5656 25.7817 23.5656Z" fill="#263238"/>
<path d="M26.2033 23.5656C26.1924 23.5656 26.1836 23.0326 26.1836 22.3753C26.1836 21.718 26.1924 21.186 26.2033 21.186C26.2143 21.186 26.2223 21.718 26.2223 22.3753C26.2223 23.0326 26.2135 23.5656 26.2033 23.5656Z" fill="#263238"/>
<path d="M26.6245 23.5656C26.6135 23.5656 26.6055 23.0326 26.6055 22.3753C26.6055 21.718 26.6135 21.186 26.6245 21.186C26.6354 21.186 26.6434 21.718 26.6434 22.3753C26.6434 23.0326 26.6347 23.5656 26.6245 23.5656Z" fill="#263238"/>
<path d="M19.6182 23.8726H17.8413V26.9831H19.6182V23.8726Z" fill="#FF7775"/>
<path d="M24.5871 23.8726H19.6182V26.9831H24.5871V23.8726Z" fill="#FF7775"/>
<path opacity="0.4" d="M24.5871 23.8726H19.6182V26.9831H24.5871V23.8726Z" fill="black"/>
<path d="M18.7661 26.9826C18.7558 26.9826 18.7471 26.2916 18.7471 25.4405C18.7471 24.5894 18.7558 23.8994 18.7661 23.8994C18.7763 23.8994 18.7858 24.5894 18.7858 25.4405C18.7858 26.2916 18.777 26.9826 18.7661 26.9826Z" fill="#263238"/>
<path d="M24.3081 26.6282C24.3081 26.6282 24.3081 26.6124 24.3081 26.585C24.3081 26.5576 24.3081 26.5134 24.3081 26.4617C24.3081 26.3511 24.3081 26.1921 24.3081 25.9888C24.3081 25.578 24.3037 24.986 24.3008 24.2486L24.3139 24.2666L19.8361 24.276C19.8186 24.3003 19.8588 24.2423 19.8544 24.2486V25.4695C19.8544 25.8676 19.8544 26.2553 19.8544 26.6282L19.8361 26.6018L23.0399 26.6134L23.9748 26.6208H24.2262H24.292H24.3146H24.2942H24.2306H23.9835L23.0523 26.6282L19.8361 26.6408H19.8179V25.4695C19.8179 25.2704 19.8179 25.0692 19.8179 24.8649V24.2486C19.8179 24.2539 19.8544 24.196 19.8376 24.2213L24.3154 24.2297H24.3285V24.2486C24.3285 24.986 24.3227 25.5864 24.3212 26.0004C24.3212 26.2016 24.3212 26.3585 24.3212 26.4681C24.3212 26.5197 24.3212 26.5586 24.3212 26.5881C24.3176 26.602 24.3132 26.6154 24.3081 26.6282Z" fill="#263238"/>
<path d="M20.1752 26.6285C20.165 26.6285 20.1562 26.0955 20.1562 25.4383C20.1562 24.781 20.165 24.249 20.1752 24.249C20.1855 24.249 20.1942 24.781 20.1942 25.4383C20.1942 26.0955 20.1862 26.6285 20.1752 26.6285Z" fill="#263238"/>
<path d="M20.5991 26.6285C20.5881 26.6285 20.5801 26.0955 20.5801 25.4383C20.5801 24.781 20.5881 24.249 20.5991 24.249C20.61 24.249 20.6181 24.781 20.6181 25.4383C20.6181 26.0955 20.6071 26.6285 20.5991 26.6285Z" fill="#263238"/>
<path d="M21.018 26.6285C21.0071 26.6285 20.999 26.0955 20.999 25.4383C20.999 24.781 21.0071 24.249 21.018 24.249C21.029 24.249 21.037 24.781 21.037 25.4383C21.037 26.0955 21.0282 26.6285 21.018 26.6285Z" fill="#263238"/>
<path d="M21.4389 26.6285C21.4287 26.6285 21.4199 26.0955 21.4199 25.4383C21.4199 24.781 21.4287 24.249 21.4389 24.249C21.4491 24.249 21.4579 24.781 21.4579 25.4383C21.4579 26.0955 21.4491 26.6285 21.4389 26.6285Z" fill="#263238"/>
<path d="M21.8593 26.6285C21.8491 26.6285 21.8403 26.0955 21.8403 25.4383C21.8403 24.781 21.8491 24.249 21.8593 24.249C21.8695 24.249 21.8783 24.781 21.8783 25.4383C21.8783 26.0955 21.8695 26.6285 21.8593 26.6285Z" fill="#263238"/>
<path d="M22.2797 26.6285C22.2695 26.6285 22.2607 26.0955 22.2607 25.4383C22.2607 24.781 22.2695 24.249 22.2797 24.249C22.29 24.249 22.2987 24.781 22.2987 25.4383C22.2987 26.0955 22.2914 26.6285 22.2797 26.6285Z" fill="#263238"/>
<path d="M22.7011 26.6285C22.6909 26.6285 22.6821 26.0955 22.6821 25.4383C22.6821 24.781 22.6909 24.249 22.7011 24.249C22.7113 24.249 22.7208 24.781 22.7208 25.4383C22.7208 26.0955 22.7121 26.6285 22.7011 26.6285Z" fill="#263238"/>
<path d="M23.123 26.6285C23.112 26.6285 23.104 26.0955 23.104 25.4383C23.104 24.781 23.112 24.249 23.123 24.249C23.1339 24.249 23.142 24.781 23.142 25.4383C23.142 26.0955 23.1332 26.6285 23.123 26.6285Z" fill="#263238"/>
<path d="M23.5439 26.6285C23.5329 26.6285 23.5249 26.0955 23.5249 25.4383C23.5249 24.781 23.5329 24.249 23.5439 24.249C23.5548 24.249 23.5629 24.781 23.5629 25.4383C23.5629 26.0955 23.5541 26.6285 23.5439 26.6285Z" fill="#263238"/>
<path d="M23.9653 26.6285C23.9551 26.6285 23.9463 26.0955 23.9463 25.4383C23.9463 24.781 23.9551 24.249 23.9653 24.249C23.9755 24.249 23.9843 24.781 23.9843 25.4383C23.9843 26.0955 23.9755 26.6285 23.9653 26.6285Z" fill="#263238"/>
<path d="M24.6114 23.8604H22.8345V26.9709H24.6114V23.8604Z" fill="#455A64"/>
<path d="M29.5793 23.8604H24.6104V26.9709H29.5793V23.8604Z" fill="#455A64"/>
<path d="M23.7597 26.9694C23.7495 26.9694 23.7407 26.2794 23.7407 25.4283C23.7407 24.5772 23.7495 23.8862 23.7597 23.8862C23.7699 23.8862 23.7787 24.5762 23.7787 25.4283C23.7787 26.2805 23.7699 26.9694 23.7597 26.9694Z" fill="#263238"/>
<path d="M24.6113 26.9694C24.601 26.9694 24.5923 26.2794 24.5923 25.4283C24.5923 24.5772 24.601 23.8862 24.6113 23.8862C24.6215 23.8862 24.6303 24.5762 24.6303 25.4283C24.6303 26.2805 24.6222 26.9694 24.6113 26.9694Z" fill="#263238"/>
<path d="M29.3012 26.6143C29.3001 26.5999 29.3001 26.5854 29.3012 26.5711C29.3012 26.5405 29.3012 26.5005 29.3012 26.4478C29.3012 26.3372 29.3012 26.1792 29.3012 25.9759C29.3012 25.5641 29.2968 24.9721 29.2939 24.2348L29.3071 24.2537L24.8286 24.2621L24.8476 24.2348V25.4545C24.8476 25.8516 24.8476 26.2393 24.8476 26.6132L24.8293 26.5869L28.033 26.5995L28.9679 26.6069H29.2194H29.2844H29.3078H29.2866H29.2238H28.976L28.0455 26.6143L24.8293 26.6259H24.811V26.5995C24.811 26.2266 24.811 25.839 24.811 25.4408V24.2369L24.83 24.2095L29.3085 24.2179H29.321V24.2369C29.321 24.9795 29.3159 25.5757 29.3144 25.9886C29.3144 26.1908 29.3144 26.3478 29.3144 26.4573C29.3144 26.5079 29.3144 26.5479 29.3144 26.5774C29.3144 26.6069 29.3012 26.6153 29.3012 26.6143Z" fill="#263238"/>
<path d="M25.1684 26.6139C25.1582 26.6139 25.1494 26.0809 25.1494 25.4247C25.1494 24.7684 25.1582 24.2344 25.1684 24.2344C25.1786 24.2344 25.1874 24.7674 25.1874 25.4247C25.1874 26.082 25.1786 26.6139 25.1684 26.6139Z" fill="#263238"/>
<path d="M25.5898 26.6139C25.5796 26.6139 25.5708 26.0809 25.5708 25.4247C25.5708 24.7684 25.5796 24.2344 25.5898 24.2344C25.6 24.2344 25.6088 24.7674 25.6088 25.4247C25.6088 26.082 25.6 26.6139 25.5898 26.6139Z" fill="#263238"/>
<path d="M26.0102 26.6139C26 26.6139 25.9912 26.0809 25.9912 25.4247C25.9912 24.7684 26 24.2344 26.0102 24.2344C26.0204 24.2344 26.0292 24.7674 26.0292 25.4247C26.0292 26.082 26.0211 26.6139 26.0102 26.6139Z" fill="#263238"/>
<path d="M26.4311 26.6139C26.4209 26.6139 26.4121 26.0809 26.4121 25.4247C26.4121 24.7684 26.4209 24.2344 26.4311 24.2344C26.4413 24.2344 26.4501 24.7674 26.4501 25.4247C26.4501 26.082 26.445 26.6139 26.4311 26.6139Z" fill="#263238"/>
<path d="M26.853 26.6139C26.842 26.6139 26.834 26.0809 26.834 25.4247C26.834 24.7684 26.842 24.2344 26.853 24.2344C26.8639 24.2344 26.872 24.7674 26.872 25.4247C26.872 26.082 26.8632 26.6139 26.853 26.6139Z" fill="#263238"/>
<path d="M27.2744 26.6139C27.2634 26.6139 27.2554 26.0809 27.2554 25.4247C27.2554 24.7684 27.2634 24.2344 27.2744 24.2344C27.2853 24.2344 27.2933 24.7674 27.2933 25.4247C27.2933 26.082 27.2846 26.6139 27.2744 26.6139Z" fill="#263238"/>
<path d="M27.6953 26.6139C27.685 26.6139 27.6763 26.0809 27.6763 25.4247C27.6763 24.7684 27.685 24.2344 27.6953 24.2344C27.7055 24.2344 27.7142 24.7674 27.7142 25.4247C27.7142 26.082 27.7055 26.6139 27.6953 26.6139Z" fill="#263238"/>
<path d="M28.1162 26.6139C28.1059 26.6139 28.0972 26.0809 28.0972 25.4247C28.0972 24.7684 28.1059 24.2344 28.1162 24.2344C28.1264 24.2344 28.1351 24.7674 28.1351 25.4247C28.1351 26.082 28.1264 26.6139 28.1162 26.6139Z" fill="#263238"/>
<path d="M28.5371 26.6139C28.5268 26.6139 28.5181 26.0809 28.5181 25.4247C28.5181 24.7684 28.5268 24.2344 28.5371 24.2344C28.5473 24.2344 28.556 24.7674 28.556 25.4247C28.556 26.082 28.548 26.6139 28.5371 26.6139Z" fill="#263238"/>
<path d="M28.9575 26.6139C28.9472 26.6139 28.9385 26.0809 28.9385 25.4247C28.9385 24.7684 28.9472 24.2344 28.9575 24.2344C28.9677 24.2344 28.9772 24.7674 28.9772 25.4247C28.9772 26.082 28.9684 26.6139 28.9575 26.6139Z" fill="#263238"/>
<path d="M8.93318 19.1538H7.15625V22.2644H8.93318V19.1538Z" fill="#455A64"/>
<path d="M13.9031 19.1538H8.93408V22.2644H13.9031V19.1538Z" fill="#455A64"/>
<path d="M8.08246 22.2628C8.07151 22.2628 8.06348 21.5729 8.06348 20.7218C8.06348 19.8707 8.07151 19.1797 8.08246 19.1797C8.09342 19.1797 8.10145 19.8696 8.10145 20.7218C8.10145 21.574 8.09269 22.2628 8.08246 22.2628Z" fill="#263238"/>
<path d="M8.93354 22.2628C8.92331 22.2628 8.91455 21.5729 8.91455 20.7218C8.91455 19.8707 8.92331 19.1797 8.93354 19.1797C8.94376 19.1797 8.95252 19.8696 8.95252 20.7218C8.95252 21.574 8.94376 22.2628 8.93354 22.2628Z" fill="#263238"/>
<path d="M13.6237 21.9077C13.6237 21.9077 13.6237 21.893 13.6237 21.8646C13.6237 21.8361 13.6237 21.794 13.6237 21.7413C13.6237 21.6307 13.6237 21.4727 13.6237 21.2694C13.6237 20.8586 13.6201 20.2656 13.6171 19.5282L13.6296 19.5472L9.1518 19.5556L9.17081 19.5282V19.8358C9.17081 19.9411 9.17081 20.0412 9.17081 20.1434V21.9056L9.15253 21.8793L12.3563 21.8919L13.2904 21.8993H13.5419H13.6076H13.6303C13.6235 21.9004 13.6166 21.9004 13.6098 21.8993H13.5462H13.2992L12.3687 21.9067L9.15253 21.9183H9.12549V20.1276C9.12549 20.0223 9.12549 19.9232 9.12549 19.82V19.5314C9.12549 19.5377 9.16204 19.4798 9.14522 19.504L13.623 19.5135H13.6362V19.5314C13.6362 20.2687 13.631 20.8702 13.6288 21.2831C13.6288 21.4854 13.6288 21.6423 13.6288 21.7518C13.6288 21.8024 13.6288 21.8424 13.6288 21.8719C13.6282 21.8841 13.6265 21.8962 13.6237 21.9077Z" fill="#263238"/>
<path d="M9.49115 21.9078C9.4802 21.9078 9.47217 21.3759 9.47217 20.7186C9.47217 20.0613 9.4802 19.5283 9.49115 19.5283C9.50211 19.5283 9.51014 20.0613 9.51014 20.7186C9.51014 21.3759 9.50211 21.9078 9.49115 21.9078Z" fill="#263238"/>
<path d="M9.91205 21.9078C9.9011 21.9078 9.89307 21.3759 9.89307 20.7186C9.89307 20.0613 9.9011 19.5283 9.91205 19.5283C9.92301 19.5283 9.93104 20.0613 9.93104 20.7186C9.93104 21.3759 9.92228 21.9078 9.91205 21.9078Z" fill="#263238"/>
<path d="M10.3334 21.9078C10.3232 21.9078 10.3145 21.3759 10.3145 20.7186C10.3145 20.0613 10.3232 19.5283 10.3334 19.5283C10.3437 19.5283 10.3524 20.0613 10.3524 20.7186C10.3524 21.3759 10.3437 21.9078 10.3334 21.9078Z" fill="#263238"/>
<path d="M10.7543 21.9078C10.7441 21.9078 10.7354 21.3759 10.7354 20.7186C10.7354 20.0613 10.7441 19.5283 10.7543 19.5283C10.7646 19.5283 10.7733 20.0613 10.7733 20.7186C10.7733 21.3759 10.7653 21.9078 10.7543 21.9078Z" fill="#263238"/>
<path d="M11.1757 21.9078C11.1655 21.9078 11.1567 21.3759 11.1567 20.7186C11.1567 20.0613 11.1655 19.5283 11.1757 19.5283C11.1859 19.5283 11.1947 20.0613 11.1947 20.7186C11.1947 21.3759 11.1867 21.9078 11.1757 21.9078Z" fill="#263238"/>
<path d="M11.5969 21.9078C11.5859 21.9078 11.5771 21.3759 11.5771 20.7186C11.5771 20.0613 11.5859 19.5283 11.5969 19.5283C11.6078 19.5283 11.6159 20.0613 11.6159 20.7186C11.6159 21.3759 11.61 21.9078 11.5969 21.9078Z" fill="#263238"/>
<path d="M12.018 21.9078C12.0071 21.9078 11.999 21.3759 11.999 20.7186C11.999 20.0613 12.0071 19.5283 12.018 19.5283C12.029 19.5283 12.037 20.0613 12.037 20.7186C12.037 21.3759 12.0282 21.9078 12.018 21.9078Z" fill="#263238"/>
<path d="M12.4389 21.9078C12.428 21.9078 12.4199 21.3759 12.4199 20.7186C12.4199 20.0613 12.428 19.5283 12.4389 19.5283C12.4499 19.5283 12.4579 20.0613 12.4579 20.7186C12.4579 21.3759 12.4491 21.9078 12.4389 21.9078Z" fill="#263238"/>
<path d="M12.8593 21.9078C12.8491 21.9078 12.8403 21.3759 12.8403 20.7186C12.8403 20.0613 12.8491 19.5283 12.8593 19.5283C12.8695 19.5283 12.8783 20.0613 12.8783 20.7186C12.8783 21.3759 12.8695 21.9078 12.8593 21.9078Z" fill="#263238"/>
<path d="M13.2807 21.9078C13.2705 21.9078 13.2617 21.3759 13.2617 20.7186C13.2617 20.0613 13.2705 19.5283 13.2807 19.5283C13.2909 19.5283 13.2997 20.0613 13.2997 20.7186C13.2997 21.3759 13.2909 21.9078 13.2807 21.9078Z" fill="#263238"/>
<path d="M24.7247 20.7095H22.9478V23.82H24.7247V20.7095Z" fill="#263238"/>
<path d="M29.6931 20.7095H24.7241V23.82H29.6931V20.7095Z" fill="#263238"/>
<path d="M23.873 23.8195C23.862 23.8195 23.854 23.1295 23.854 22.2784C23.854 21.4273 23.862 20.7363 23.873 20.7363C23.8839 20.7363 23.892 21.4263 23.892 22.2784C23.892 23.1306 23.8832 23.8195 23.873 23.8195Z" fill="#455A64"/>
<path d="M24.7246 23.8195C24.7143 23.8195 24.7056 23.1295 24.7056 22.2784C24.7056 21.4273 24.7143 20.7363 24.7246 20.7363C24.7348 20.7363 24.7435 21.4263 24.7435 22.2784C24.7435 23.1306 24.7348 23.8195 24.7246 23.8195Z" fill="#455A64"/>
<path d="M29.4139 23.464C29.4139 23.464 29.4139 23.4493 29.4139 23.4209C29.4139 23.3924 29.4139 23.3503 29.4139 23.2976C29.4139 23.187 29.4139 23.029 29.4102 22.8257C29.4102 22.4149 29.4102 21.8219 29.4036 21.0845L29.4161 21.1035L24.9383 21.1119C24.9215 21.1372 24.9609 21.0793 24.9573 21.0856V21.7007C24.9573 21.904 24.9573 22.1063 24.9573 22.3054V23.464L24.939 23.4377L28.1428 23.4504L29.0776 23.4577H29.3283H29.3941H29.4168C29.41 23.4595 29.4031 23.4595 29.3963 23.4577H29.3335H29.0857L28.1552 23.4651L24.939 23.4777H24.9207V23.4504C24.9207 23.0775 24.9207 22.6909 24.9207 22.2917V21.0866C24.9164 21.0919 24.9566 21.034 24.9398 21.0582L29.4175 21.0677H29.4307V21.0856C29.4307 21.8282 29.4256 22.4244 29.4241 22.8373C29.4241 23.0395 29.4241 23.1965 29.4204 23.306C29.4204 23.3566 29.4204 23.3966 29.4204 23.4261C29.4194 23.4391 29.4172 23.4519 29.4139 23.464Z" fill="#455A64"/>
<path d="M25.2817 23.4635C25.2707 23.4635 25.2627 22.9316 25.2627 22.2743C25.2627 21.617 25.2707 21.084 25.2817 21.084C25.2926 21.084 25.3007 21.617 25.3007 22.2743C25.3007 22.9316 25.2919 23.4635 25.2817 23.4635Z" fill="#455A64"/>
<path d="M25.7031 23.4635C25.6928 23.4635 25.6841 22.9316 25.6841 22.2743C25.6841 21.617 25.6928 21.084 25.7031 21.084C25.7133 21.084 25.7221 21.617 25.7221 22.2743C25.7221 22.9316 25.7148 23.4635 25.7031 23.4635Z" fill="#455A64"/>
<path d="M26.1235 23.4635C26.1133 23.4635 26.1045 22.9316 26.1045 22.2743C26.1045 21.617 26.1133 21.084 26.1235 21.084C26.1337 21.084 26.1425 21.617 26.1425 22.2743C26.1425 22.9316 26.1337 23.4635 26.1235 23.4635Z" fill="#455A64"/>
<path d="M26.5444 23.4635C26.5342 23.4635 26.5254 22.9316 26.5254 22.2743C26.5254 21.617 26.5342 21.084 26.5444 21.084C26.5546 21.084 26.5634 21.617 26.5634 22.2743C26.5634 22.9316 26.5553 23.4635 26.5444 23.4635Z" fill="#455A64"/>
<path d="M26.9658 23.4635C26.9555 23.4635 26.9468 22.9316 26.9468 22.2743C26.9468 21.617 26.9555 21.084 26.9658 21.084C26.976 21.084 26.9848 21.617 26.9848 22.2743C26.9848 22.9316 26.9767 23.4635 26.9658 23.4635Z" fill="#455A64"/>
<path d="M27.3876 23.4635C27.3767 23.4635 27.3687 22.9316 27.3687 22.2743C27.3687 21.617 27.3767 21.084 27.3876 21.084C27.3986 21.084 27.4066 21.617 27.4066 22.2743C27.4066 22.9316 27.3957 23.4635 27.3876 23.4635Z" fill="#455A64"/>
<path d="M27.808 23.4635C27.7971 23.4635 27.7891 22.9316 27.7891 22.2743C27.7891 21.617 27.7971 21.084 27.808 21.084C27.819 21.084 27.827 21.617 27.827 22.2743C27.827 22.9316 27.8183 23.4635 27.808 23.4635Z" fill="#455A64"/>
<path d="M28.2289 23.4635C28.2187 23.4635 28.21 22.9316 28.21 22.2743C28.21 21.617 28.2187 21.084 28.2289 21.084C28.2392 21.084 28.2479 21.617 28.2479 22.2743C28.2479 22.9316 28.2392 23.4635 28.2289 23.4635Z" fill="#455A64"/>
<path d="M28.6503 23.4635C28.6401 23.4635 28.6313 22.9316 28.6313 22.2743C28.6313 21.617 28.6401 21.084 28.6503 21.084C28.6606 21.084 28.6693 21.617 28.6693 22.2743C28.6693 22.9316 28.6613 23.4635 28.6503 23.4635Z" fill="#455A64"/>
<path d="M29.0707 23.4635C29.0605 23.4635 29.0518 22.9316 29.0518 22.2743C29.0518 21.617 29.0605 21.084 29.0707 21.084C29.081 21.084 29.0897 21.617 29.0897 22.2743C29.0897 22.9316 29.0817 23.4635 29.0707 23.4635Z" fill="#455A64"/>
<path d="M25.003 26.9692H23.2261V30.0798H25.003V26.9692Z" fill="#FF7775"/>
<path d="M29.9729 26.9692H25.0039V30.0798H29.9729V26.9692Z" fill="#FF7775"/>
<path opacity="0.4" d="M29.9729 26.9692H25.0039V30.0798H29.9729V26.9692Z" fill="black"/>
<path d="M24.1518 30.0803C24.1408 30.0803 24.1328 29.3893 24.1328 28.5382C24.1328 27.6871 24.1408 26.9961 24.1518 26.9961C24.1628 26.9961 24.1708 27.6871 24.1708 28.5382C24.1708 29.3893 24.162 30.0803 24.1518 30.0803Z" fill="#263238"/>
<path d="M29.6931 29.7258C29.6931 29.7258 29.6931 29.71 29.6931 29.6826C29.6931 29.6552 29.6931 29.611 29.6931 29.5583C29.6931 29.453 29.6931 29.2897 29.6931 29.0864C29.6931 28.6756 29.6894 28.0836 29.6865 27.3463L29.6989 27.3642L25.2212 27.3737L25.2402 27.3463V27.656C25.2402 27.7613 25.2402 27.8614 25.2402 27.9625V29.7258L25.2212 29.6995L28.4256 29.7111L29.3598 29.7184H29.6112H29.677H29.6997H29.6792H29.6156H29.3685L28.438 29.7258L25.2219 29.7385H25.2036V28.5671C25.2036 28.3681 25.2036 28.1669 25.2036 27.9625V27.3463C25.2036 27.3516 25.2402 27.2936 25.2233 27.3189L29.7011 27.3273H29.7143V27.3463C29.7143 28.0836 29.7092 28.6841 29.707 29.098C29.707 29.2992 29.707 29.4562 29.707 29.5657C29.707 29.6163 29.707 29.6563 29.707 29.6858C29.7037 29.7 29.699 29.7135 29.6931 29.7258Z" fill="#263238"/>
<path d="M25.561 29.7252C25.55 29.7252 25.542 29.1922 25.542 28.5349C25.542 27.8776 25.55 27.3457 25.561 27.3457C25.5719 27.3457 25.58 27.8776 25.58 28.5349C25.58 29.1922 25.5683 29.7252 25.561 29.7252Z" fill="#263238"/>
<path d="M25.9824 29.7252C25.9714 29.7252 25.9634 29.1922 25.9634 28.5349C25.9634 27.8776 25.9714 27.3457 25.9824 27.3457C25.9933 27.3457 26.0014 27.8776 26.0014 28.5349C26.0014 29.1922 25.9926 29.7252 25.9824 29.7252Z" fill="#263238"/>
<path d="M26.4033 29.7252C26.393 29.7252 26.3843 29.1922 26.3843 28.5349C26.3843 27.8776 26.393 27.3457 26.4033 27.3457C26.4135 27.3457 26.4222 27.8776 26.4222 28.5349C26.4222 29.1922 26.4135 29.7252 26.4033 29.7252Z" fill="#263238"/>
<path d="M26.8237 29.7252C26.8134 29.7252 26.8047 29.1922 26.8047 28.5349C26.8047 27.8776 26.8134 27.3457 26.8237 27.3457C26.8339 27.3457 26.8427 27.8776 26.8427 28.5349C26.8427 29.1922 26.8339 29.7252 26.8237 29.7252Z" fill="#263238"/>
<path d="M27.2446 29.7252C27.2343 29.7252 27.2256 29.1922 27.2256 28.5349C27.2256 27.8776 27.2343 27.3457 27.2446 27.3457C27.2548 27.3457 27.2636 27.8776 27.2636 28.5349C27.2636 29.1922 27.2555 29.7252 27.2446 29.7252Z" fill="#263238"/>
<path d="M27.666 29.7252C27.6557 29.7252 27.647 29.1922 27.647 28.5349C27.647 27.8776 27.6557 27.3457 27.666 27.3457C27.6762 27.3457 27.6857 27.8776 27.6857 28.5349C27.6857 29.1922 27.6769 29.7252 27.666 29.7252Z" fill="#263238"/>
<path d="M28.0869 29.7252C28.0759 29.7252 28.0679 29.1922 28.0679 28.5349C28.0679 27.8776 28.0759 27.3457 28.0869 27.3457C28.0978 27.3457 28.1058 27.8776 28.1058 28.5349C28.1058 29.1922 28.0971 29.7252 28.0869 29.7252Z" fill="#263238"/>
<path d="M28.5082 29.7252C28.4973 29.7252 28.4893 29.1922 28.4893 28.5349C28.4893 27.8776 28.4973 27.3457 28.5082 27.3457C28.5192 27.3457 28.5272 27.8776 28.5272 28.5349C28.5272 29.1922 28.5185 29.7252 28.5082 29.7252Z" fill="#263238"/>
<path d="M28.9301 29.7252C28.9199 29.7252 28.9111 29.1922 28.9111 28.5349C28.9111 27.8776 28.9199 27.3457 28.9301 27.3457C28.9403 27.3457 28.9491 27.8776 28.9491 28.5349C28.9491 29.1922 28.9396 29.7252 28.9301 29.7252Z" fill="#263238"/>
<path d="M29.3505 29.7252C29.3403 29.7252 29.3315 29.1922 29.3315 28.5349C29.3315 27.8776 29.3403 27.3457 29.3505 27.3457C29.3608 27.3457 29.3695 27.8776 29.3695 28.5349C29.3695 29.1922 29.3615 29.7252 29.3505 29.7252Z" fill="#263238"/>
<path d="M22.3726 29.1176H22.3477H22.2746L21.9955 29.1229L20.9672 29.1313L17.5763 29.1397C15.8224 29.1397 14.2877 29.1345 13.4692 29.126L13.4787 29.1123C13.4787 29.4284 13.4787 29.6769 13.4744 29.8497C13.4744 29.9308 13.4744 29.9951 13.4744 30.0414C13.4744 30.0604 13.4744 30.0772 13.4744 30.0899C13.4744 30.1025 13.4744 30.1067 13.4744 30.1067C13.4744 30.1067 13.4744 30.1014 13.4744 30.0899V30.0414C13.4744 29.9951 13.4744 29.9308 13.4744 29.8497C13.4744 29.6769 13.4744 29.4284 13.47 29.1123V29.0987H13.4802C14.3009 29.0902 15.8341 29.085 17.5873 29.085L20.9782 29.0934L22.0064 29.1018L22.2856 29.1071H22.3587L22.3726 29.1176Z" fill="#263238"/>
<path d="M21.6347 29.9982C21.6094 29.7083 21.6094 29.4149 21.6347 29.125C21.66 29.4149 21.66 29.7083 21.6347 29.9982Z" fill="#263238"/>
<path d="M20.3906 29.9982C20.3653 29.7083 20.3653 29.4149 20.3906 29.125C20.4159 29.4149 20.4159 29.7083 20.3906 29.9982Z" fill="#263238"/>
<path d="M19.1469 29.9982C19.1216 29.7083 19.1216 29.4149 19.1469 29.125C19.1722 29.4149 19.1722 29.7083 19.1469 29.9982Z" fill="#263238"/>
<path d="M17.9028 29.9982C17.8775 29.7083 17.8775 29.4149 17.9028 29.125C17.9281 29.4149 17.9281 29.7083 17.9028 29.9982Z" fill="#263238"/>
<path d="M16.6581 29.9982C16.6328 29.7083 16.6328 29.4149 16.6581 29.125C16.6835 29.4149 16.6835 29.7083 16.6581 29.9982Z" fill="#263238"/>
<path d="M15.4142 29.9982C15.388 29.7084 15.388 29.4148 15.4142 29.125C15.4395 29.4149 15.4395 29.7083 15.4142 29.9982Z" fill="#263238"/>
<path d="M14.1679 29.9982C14.1426 29.7083 14.1426 29.4149 14.1679 29.125C14.1932 29.4149 14.1932 29.7083 14.1679 29.9982Z" fill="#263238"/>
<path d="M31.2747 29.9645C31.2737 29.9463 31.2737 29.928 31.2747 29.9097C31.2747 29.8711 31.2747 29.8174 31.2747 29.7486C31.2747 29.6022 31.2747 29.3915 31.2703 29.1166L31.2791 29.1303C30.4964 29.1387 28.9259 29.144 27.1208 29.144L23.7657 29.1366L22.7492 29.1271H22.4722H22.3991C22.3911 29.1285 22.383 29.1285 22.375 29.1271H22.3991H22.4722L22.7492 29.1218L23.7657 29.1134L27.1208 29.105C28.9259 29.105 30.4964 29.1113 31.2791 29.1197H31.2886V29.1166C31.2886 29.3883 31.2886 29.599 31.2886 29.7486C31.2886 29.817 31.2886 29.8708 31.2886 29.9097C31.285 29.9285 31.2803 29.9468 31.2747 29.9645Z" fill="#263238"/>
<path d="M28.0532 30.0002C28.0279 29.7103 28.0279 29.4169 28.0532 29.127C28.0785 29.4169 28.0785 29.7103 28.0532 30.0002Z" fill="#263238"/>
<path d="M26.8061 30.0002C26.7808 29.7103 26.7808 29.4169 26.8061 29.127C26.8314 29.4169 26.8314 29.7103 26.8061 30.0002Z" fill="#263238"/>
<path d="M25.561 30.0002C25.5357 29.7103 25.5357 29.4169 25.561 29.127C25.5872 29.4168 25.5872 29.7103 25.561 30.0002Z" fill="#263238"/>
<path d="M24.3168 30.0002C24.2915 29.7103 24.2915 29.4169 24.3168 29.127C24.3422 29.4169 24.3422 29.7103 24.3168 30.0002Z" fill="#263238"/>
<path d="M23.0732 30.0002C23.0479 29.7103 23.0479 29.4169 23.0732 29.127C23.0985 29.4169 23.0985 29.7103 23.0732 30.0002Z" fill="#263238"/>
<path d="M13.3108 28.6449C13.3099 28.6266 13.3099 28.6083 13.3108 28.5901C13.3108 28.5508 13.3108 28.497 13.3108 28.4289C13.3108 28.2825 13.3108 28.0718 13.3064 27.7969L13.3152 27.8096C12.4887 27.818 10.7808 27.8243 8.81274 27.8243C6.9207 27.8243 5.27056 27.819 4.4126 27.8106L4.4221 27.7969C4.4221 28.1129 4.4221 28.3636 4.41771 28.5343C4.41771 28.6164 4.41771 28.6796 4.41771 28.726C4.41771 28.7723 4.41771 28.7913 4.41771 28.7913C4.41692 28.7695 4.41692 28.7477 4.41771 28.726C4.41771 28.6796 4.41771 28.6206 4.41771 28.5343C4.41771 28.3636 4.41771 28.1129 4.41333 27.7969V27.7832H4.42283C5.28079 27.7748 6.93093 27.7695 8.82298 27.7695C10.791 27.7695 12.4989 27.7759 13.3254 27.7843H13.3342V27.7969C13.3342 28.0687 13.3342 28.2794 13.3342 28.4289C13.3342 28.4992 13.3342 28.5529 13.3342 28.5901C13.3279 28.6096 13.32 28.628 13.3108 28.6449Z" fill="#263238"/>
<path d="M12.5732 28.6804C12.5479 28.3904 12.5479 28.0971 12.5732 27.8071C12.5985 28.0971 12.5985 28.3904 12.5732 28.6804Z" fill="#263238"/>
<path d="M11.33 28.6804C11.3047 28.3904 11.3047 28.0971 11.33 27.8071C11.3553 28.0971 11.3553 28.3904 11.33 28.6804Z" fill="#263238"/>
<path d="M10.0849 28.6804C10.0596 28.3904 10.0596 28.0971 10.0849 27.8071C10.1102 28.0971 10.1102 28.3904 10.0849 28.6804Z" fill="#263238"/>
<path d="M8.84076 28.6804C8.81545 28.3904 8.81545 28.0971 8.84076 27.8071C8.86608 28.0971 8.86608 28.3904 8.84076 28.6804Z" fill="#263238"/>
<path d="M7.59711 28.6804C7.5718 28.3904 7.5718 28.0971 7.59711 27.8071C7.62243 28.0971 7.62243 28.3904 7.59711 28.6804Z" fill="#263238"/>
<path d="M6.35248 28.6804C6.32717 28.3904 6.32717 28.0971 6.35248 27.8071C6.3778 28.0971 6.3778 28.3904 6.35248 28.6804Z" fill="#263238"/>
<path d="M5.1059 28.6804C5.08059 28.3904 5.08059 28.0971 5.1059 27.8071C5.13122 28.0971 5.13122 28.3904 5.1059 28.6804Z" fill="#263238"/>
<path d="M8.93318 22.2637H7.15625V25.3742H8.93318V22.2637Z" fill="#FF7775"/>
<path d="M13.9031 22.2637H8.93408V25.3742H13.9031V22.2637Z" fill="#FF7775"/>
<path opacity="0.4" d="M13.9031 22.2637H8.93408V25.3742H13.9031V22.2637Z" fill="black"/>
<path d="M8.08246 25.3747C8.07151 25.3747 8.06348 24.6837 8.06348 23.8326C8.06348 22.9815 8.07151 22.2905 8.08246 22.2905C8.09342 22.2905 8.10145 22.9815 8.10145 23.8326C8.10145 24.6837 8.09269 25.3747 8.08246 25.3747Z" fill="#263238"/>
<path d="M13.6237 25.0194C13.6237 25.0194 13.6237 25.0036 13.6237 24.9762C13.6237 24.9488 13.6237 24.9046 13.6237 24.8519C13.6237 24.7466 13.6237 24.5833 13.6237 24.38C13.6237 23.9692 13.6201 23.3772 13.6171 22.6399L13.6296 22.6578L9.1518 22.6672L9.17081 22.6399V22.9495C9.17081 23.0549 9.17081 23.1549 9.17081 23.2561V25.0194L9.15253 24.993L12.3563 25.0046L13.2904 25.012H13.5419H13.6076C13.6152 25.0111 13.6228 25.0111 13.6303 25.012H13.6098H13.5462H13.2992L12.3687 25.0194L9.15253 25.032H9.12549V23.2413C9.12549 23.136 9.12549 23.037 9.12549 22.9348V22.6251C9.12549 22.6304 9.16204 22.5724 9.14522 22.5977L13.623 22.6062H13.6362V22.6251C13.6362 23.3625 13.631 23.9629 13.6288 24.3768C13.6288 24.578 13.6288 24.735 13.6288 24.8445C13.6288 24.8951 13.6288 24.9351 13.6288 24.9646C13.6294 24.9832 13.6276 25.0017 13.6237 25.0194Z" fill="#263238"/>
<path d="M9.49115 25.0201C9.4802 25.0201 9.47217 24.4871 9.47217 23.8299C9.47217 23.1726 9.4802 22.6406 9.49115 22.6406C9.50211 22.6406 9.51014 23.1726 9.51014 23.8299C9.51014 24.4871 9.50211 25.0201 9.49115 25.0201Z" fill="#263238"/>
<path d="M9.91205 25.0201C9.9011 25.0201 9.89307 24.4871 9.89307 23.8299C9.89307 23.1726 9.9011 22.6406 9.91205 22.6406C9.92301 22.6406 9.93104 23.1726 9.93104 23.8299C9.93104 24.4871 9.92228 25.0201 9.91205 25.0201Z" fill="#263238"/>
<path d="M10.3334 25.0201C10.3232 25.0201 10.3145 24.4871 10.3145 23.8299C10.3145 23.1726 10.3232 22.6406 10.3334 22.6406C10.3437 22.6406 10.3524 23.1726 10.3524 23.8299C10.3524 24.4871 10.3437 25.0201 10.3334 25.0201Z" fill="#263238"/>
<path d="M10.7543 25.0201C10.7441 25.0201 10.7354 24.4871 10.7354 23.8299C10.7354 23.1726 10.7441 22.6406 10.7543 22.6406C10.7646 22.6406 10.7733 23.1726 10.7733 23.8299C10.7733 24.4871 10.7653 25.0201 10.7543 25.0201Z" fill="#263238"/>
<path d="M11.1757 25.0201C11.1655 25.0201 11.1567 24.4871 11.1567 23.8299C11.1567 23.1726 11.1655 22.6406 11.1757 22.6406C11.1859 22.6406 11.1947 23.1726 11.1947 23.8299C11.1947 24.4871 11.1867 25.0201 11.1757 25.0201Z" fill="#263238"/>
<path d="M11.5969 25.0201C11.5859 25.0201 11.5771 24.4871 11.5771 23.8299C11.5771 23.1726 11.5859 22.6406 11.5969 22.6406C11.6078 22.6406 11.6159 23.1726 11.6159 23.8299C11.6159 24.4871 11.61 25.0201 11.5969 25.0201Z" fill="#263238"/>
<path d="M12.018 25.0201C12.0071 25.0201 11.999 24.4871 11.999 23.8299C11.999 23.1726 12.0071 22.6406 12.018 22.6406C12.029 22.6406 12.037 23.1726 12.037 23.8299C12.037 24.4871 12.0282 25.0201 12.018 25.0201Z" fill="#263238"/>
<path d="M12.4389 25.0201C12.428 25.0201 12.4199 24.4871 12.4199 23.8299C12.4199 23.1726 12.428 22.6406 12.4389 22.6406C12.4499 22.6406 12.4579 23.1726 12.4579 23.8299C12.4579 24.4871 12.4491 25.0201 12.4389 25.0201Z" fill="#263238"/>
<path d="M12.8593 25.0201C12.8491 25.0201 12.8403 24.4871 12.8403 23.8299C12.8403 23.1726 12.8491 22.6406 12.8593 22.6406C12.8695 22.6406 12.8783 23.1726 12.8783 23.8299C12.8783 24.4871 12.8695 25.0201 12.8593 25.0201Z" fill="#263238"/>
<path d="M13.2807 25.0201C13.2705 25.0201 13.2617 24.4871 13.2617 23.8299C13.2617 23.1726 13.2705 22.6406 13.2807 22.6406C13.2909 22.6406 13.2997 23.1726 13.2997 23.8299C13.2997 24.4871 13.2909 25.0201 13.2807 25.0201Z" fill="#263238"/>
<path d="M31.3379 30.0457V22.9146H36.2447V30.111" fill="#455A64"/>
<path d="M34.935 29.1895H34.6616V30.0469H34.935V29.1895Z" fill="#263238"/>
<path d="M31.9066 28.0332H31.7349V28.6452H31.9066V28.0332Z" fill="#263238"/>
<path d="M31.9066 29.1167H31.7349V29.7287H31.9066V29.1167Z" fill="#263238"/>
<path d="M32.8925 28.0332H32.7207V28.6452H32.8925V28.0332Z" fill="#263238"/>
<path d="M32.8925 29.1079H32.7207V29.7199H32.8925V29.1079Z" fill="#263238"/>
<path d="M33.8783 28.0332H33.7065V28.6452H33.8783V28.0332Z" fill="#263238"/>
<path d="M33.8783 29.1001H33.7065V29.7121H33.8783V29.1001Z" fill="#263238"/>
<path d="M34.8642 28.0332H34.6924V28.6452H34.8642V28.0332Z" fill="#263238"/>
<path d="M35.8495 28.0332H35.6777V28.6452H35.8495V28.0332Z" fill="#263238"/>
<path d="M35.8495 29.0635H35.6777V29.6755H35.8495V29.0635Z" fill="#263238"/>
<path d="M34.9145 25.3037H34.6411V26.1611H34.9145V25.3037Z" fill="#263238"/>
<path d="M31.9066 23.6626H31.7349V24.2746H31.9066V23.6626Z" fill="#263238"/>
<path d="M31.9066 24.7461H31.7349V25.3581H31.9066V24.7461Z" fill="#263238"/>
<path d="M32.8925 23.6626H32.7207V24.2746H32.8925V23.6626Z" fill="#263238"/>
<path d="M32.8925 24.7358H32.7207V25.3478H32.8925V24.7358Z" fill="#263238"/>
<path d="M33.8783 23.6626H33.7065V24.2746H33.8783V23.6626Z" fill="#263238"/>
<path d="M33.8783 24.728H33.7065V25.34H33.8783V24.728Z" fill="#263238"/>
<path d="M34.8642 23.6626H34.6924V24.2746H34.8642V23.6626Z" fill="#263238"/>
<path d="M35.8495 23.6626H35.6777V24.2746H35.8495V23.6626Z" fill="#263238"/>
<path d="M35.8495 24.6919H35.6777V25.3039H35.8495V24.6919Z" fill="#263238"/>
<path d="M8.73201 36.7932C8.73201 36.7932 9.49935 32.7399 6.72524 31.8171C4.1309 30.9545 4.19447 28.6455 4.19447 28.6455H13.4888V30.0465H37.9509C37.9509 30.0465 37.8179 34.5875 35.5224 36.7932" fill="#455A64"/>
<path d="M8.79746 34.8896H36.8309C36.8309 34.8896 36.0563 36.4002 35.5228 36.792H8.73242C8.79429 36.1621 8.81606 35.5253 8.79746 34.8896Z" fill="#263238"/>
<path d="M36.1061 26.1615C36.1029 26.1354 36.1017 26.1089 36.1025 26.0825C36.1025 26.0267 36.1025 25.9508 36.1025 25.856L36.1098 25.8666C35.6925 25.8771 34.6869 25.8834 33.5133 25.8834C32.3396 25.8834 31.3333 25.8771 30.916 25.8666L30.9233 25.856C30.9233 25.9508 30.9233 26.0267 30.9197 26.0825C30.9205 26.1089 30.9192 26.1354 30.916 26.1615C30.9137 26.1353 30.9125 26.1089 30.9123 26.0825C30.9123 26.0267 30.9123 25.9508 30.9087 25.856V25.8518H30.916C31.3333 25.8423 32.3389 25.835 33.5133 25.835C34.6877 25.835 35.6925 25.8423 36.1098 25.8518H36.1171C36.1171 25.9466 36.1171 26.0225 36.1171 26.0783C36.1152 26.1064 36.1115 26.1343 36.1061 26.1615Z" fill="#263238"/>
<path d="M31.5605 26.2437C31.5503 26.2437 31.5415 26.1542 31.5415 26.0425C31.5415 25.9308 31.5503 25.8413 31.5605 25.8413C31.5707 25.8413 31.5795 25.9319 31.5795 26.0425C31.5795 26.1531 31.5685 26.2437 31.5605 26.2437Z" fill="#263238"/>
<path d="M32.2451 26.2437C32.2348 26.2437 32.2261 26.1542 32.2261 26.0425C32.2261 25.9308 32.2348 25.8413 32.2451 25.8413C32.2553 25.8413 32.264 25.9319 32.264 26.0425C32.264 26.1531 32.256 26.2437 32.2451 26.2437Z" fill="#263238"/>
<path d="M32.9326 26.2437C32.9216 26.2437 32.9136 26.1542 32.9136 26.0425C32.9136 25.9308 32.9216 25.8413 32.9326 25.8413C32.9435 25.8413 32.9515 25.9319 32.9515 26.0425C32.9515 26.1531 32.9428 26.2437 32.9326 26.2437Z" fill="#263238"/>
<path d="M33.6201 26.2437C33.6091 26.2437 33.6011 26.1542 33.6011 26.0425C33.6011 25.9308 33.6091 25.8413 33.6201 25.8413C33.631 25.8413 33.639 25.9319 33.639 26.0425C33.639 26.1531 33.6303 26.2437 33.6201 26.2437Z" fill="#263238"/>
<path d="M34.3066 26.2437C34.2964 26.2437 34.2876 26.1542 34.2876 26.0425C34.2876 25.9308 34.2964 25.8413 34.3066 25.8413C34.3168 25.8413 34.3256 25.9319 34.3256 26.0425C34.3256 26.1531 34.3168 26.2437 34.3066 26.2437Z" fill="#263238"/>
<path d="M34.996 26.2437C34.9858 26.2437 34.9771 26.1542 34.9771 26.0425C34.9771 25.9308 34.9858 25.8413 34.996 25.8413C35.0063 25.8413 35.015 25.9319 35.015 26.0425C35.015 26.1531 35.0048 26.2437 34.996 26.2437Z" fill="#263238"/>
<path d="M35.6806 26.2437C35.6704 26.2437 35.6616 26.1542 35.6616 26.0425C35.6616 25.9308 35.6704 25.8413 35.6806 25.8413C35.6908 25.8413 35.6996 25.9319 35.6996 26.0425C35.6996 26.1531 35.6916 26.2437 35.6806 26.2437Z" fill="#263238"/>
<path d="M36.2428 26.1616H30.8101V26.9432H36.2428V26.1616Z" fill="#263238"/>
<path opacity="0.4" d="M32.1626 21.8228H32.7539L32.819 22.3642H32.1626V21.8228Z" fill="white"/>
<path d="M37.9272 29.9653C37.9264 29.9467 37.9264 29.928 37.9272 29.9094C37.9272 29.8683 37.9272 29.8146 37.9272 29.7451C37.9272 29.5976 37.9272 29.387 37.9221 29.1205L37.9323 29.1352C37.2746 29.1436 36.0921 29.1479 34.7467 29.1479L32.0793 29.1405L31.2681 29.131H31.0489H30.9919C30.9854 29.1324 30.9787 29.1324 30.9722 29.131H30.9919H31.0489L31.2681 29.1257L32.0764 29.1173L34.7438 29.1089C36.0892 29.1089 37.2702 29.1142 37.9294 29.1215H37.9396V29.1173C37.9396 29.3838 37.9396 29.5945 37.9345 29.7419C37.9345 29.8115 37.9345 29.8652 37.9345 29.9063C37.9335 29.9262 37.931 29.946 37.9272 29.9653Z" fill="#263238"/>
<path d="M37.1879 30.0002C37.1626 29.7103 37.1626 29.4169 37.1879 29.127C37.2132 29.4169 37.2132 29.7103 37.1879 30.0002Z" fill="#263238"/>
<path d="M35.9455 30.0002C35.9192 29.7103 35.9192 29.4168 35.9455 29.127C35.9708 29.4169 35.9708 29.7103 35.9455 30.0002Z" fill="#263238"/>
<path d="M34.7036 30.0002C34.6782 29.7103 34.6782 29.4169 34.7036 29.127C34.7289 29.4169 34.7289 29.7103 34.7036 30.0002Z" fill="#263238"/>
<path d="M33.4609 30.0002C33.4356 29.7103 33.4356 29.4169 33.4609 29.127C33.4862 29.4169 33.4862 29.7103 33.4609 30.0002Z" fill="#263238"/>
<path d="M32.2133 30.0002C32.188 29.7103 32.188 29.4169 32.2133 29.127C32.2396 29.4168 32.2396 29.7103 32.2133 30.0002Z" fill="#263238"/>
<path d="M30.9697 30.0002C30.9444 29.7103 30.9444 29.4169 30.9697 29.127C30.995 29.4169 30.995 29.7103 30.9697 30.0002Z" fill="#263238"/>
<path d="M29.726 30.0002C29.7007 29.7103 29.7007 29.4169 29.726 29.127C29.7513 29.4169 29.7513 29.7103 29.726 30.0002Z" fill="#263238"/>
<rect width="2.13968" height="13.2882" transform="matrix(0.813273 -0.581882 0.541796 0.84051 39.7407 10.9331)" fill="#9BCC63"/>
<rect x="38.9214" y="9.66895" width="2.59678" height="12.4355" fill="#FF7775"/>
<rect x="46.9463" y="9.66895" width="2.59678" height="12.4355" fill="#61C4E6"/>
</svg>
