<svg width="139" height="48" viewBox="0 0 139 48" fill="none" xmlns="http://www.w3.org/2000/svg">
<path d="M75.0193 11.5719L78.99 24.0534H79.1424L83.1211 11.5719H86.9714L81.3082 28H76.8322L71.161 11.5719H75.0193ZM103.119 19.786C103.119 21.5774 102.779 23.1015 102.1 24.3582C101.426 25.6149 100.506 26.5748 99.3406 27.238C98.1802 27.8957 96.8753 28.2246 95.4261 28.2246C93.9662 28.2246 92.656 27.893 91.4956 27.2299C90.3351 26.5668 89.418 25.6069 88.7442 24.3502C88.0704 23.0935 87.7335 21.5721 87.7335 19.786C87.7335 17.9945 88.0704 16.4704 88.7442 15.2137C89.418 13.957 90.3351 12.9997 91.4956 12.342C92.656 11.6789 93.9662 11.3473 95.4261 11.3473C96.8753 11.3473 98.1802 11.6789 99.3406 12.342C100.506 12.9997 101.426 13.957 102.1 15.2137C102.779 16.4704 103.119 17.9945 103.119 19.786ZM99.5973 19.786C99.5973 18.6255 99.4235 17.6469 99.0759 16.8501C98.7337 16.0533 98.2497 15.449 97.624 15.0372C96.9983 14.6254 96.2657 14.4195 95.4261 14.4195C94.5865 14.4195 93.8539 14.6254 93.2282 15.0372C92.6025 15.449 92.1159 16.0533 91.7683 16.8501C91.426 17.6469 91.2549 18.6255 91.2549 19.786C91.2549 20.9464 91.426 21.925 91.7683 22.7218C92.1159 23.5186 92.6025 24.1229 93.2282 24.5347C93.8539 24.9465 94.5865 25.1524 95.4261 25.1524C96.2657 25.1524 96.9983 24.9465 97.624 24.5347C98.2497 24.1229 98.7337 23.5186 99.0759 22.7218C99.4235 21.925 99.5973 20.9464 99.5973 19.786ZM120.187 17.3233H116.673C116.609 16.8688 116.478 16.465 116.28 16.1121C116.082 15.7538 115.828 15.449 115.518 15.1976C115.208 14.9463 114.85 14.7538 114.443 14.6201C114.042 14.4864 113.606 14.4195 113.136 14.4195C112.285 14.4195 111.545 14.6308 110.914 15.0532C110.283 15.4704 109.793 16.08 109.446 16.8822C109.098 17.679 108.924 18.6469 108.924 19.786C108.924 20.9571 109.098 21.9411 109.446 22.7379C109.799 23.5347 110.291 24.1363 110.922 24.5427C111.553 24.9491 112.283 25.1524 113.112 25.1524C113.577 25.1524 114.007 25.0909 114.403 24.9679C114.804 24.8449 115.16 24.6657 115.47 24.4304C115.78 24.1898 116.037 23.8983 116.24 23.5561C116.449 23.2138 116.593 22.8234 116.673 22.3849L120.187 22.401C120.096 23.155 119.868 23.8823 119.505 24.5828C119.146 25.278 118.662 25.901 118.053 26.4518C117.449 26.9973 116.727 27.4305 115.887 27.7513C115.053 28.0668 114.109 28.2246 113.055 28.2246C111.59 28.2246 110.28 27.893 109.125 27.2299C107.975 26.5668 107.066 25.6069 106.398 24.3502C105.734 23.0935 105.403 21.5721 105.403 19.786C105.403 17.9945 105.74 16.4704 106.414 15.2137C107.087 13.957 108.002 12.9997 109.157 12.342C110.312 11.6789 111.612 11.3473 113.055 11.3473C114.007 11.3473 114.89 11.481 115.703 11.7484C116.521 12.0158 117.245 12.4061 117.876 12.9195C118.507 13.4276 119.021 14.0506 119.416 14.7885C119.818 15.5265 120.074 16.3715 120.187 17.3233ZM137.172 17.3233H133.659C133.595 16.8688 133.464 16.465 133.266 16.1121C133.068 15.7538 132.814 15.449 132.504 15.1976C132.193 14.9463 131.835 14.7538 131.429 14.6201C131.028 14.4864 130.592 14.4195 130.121 14.4195C129.271 14.4195 128.53 14.6308 127.899 15.0532C127.268 15.4704 126.779 16.08 126.431 16.8822C126.084 17.679 125.91 18.6469 125.91 19.786C125.91 20.9571 126.084 21.9411 126.431 22.7379C126.784 23.5347 127.276 24.1363 127.907 24.5427C128.538 24.9491 129.268 25.1524 130.097 25.1524C130.562 25.1524 130.993 25.0909 131.389 24.9679C131.79 24.8449 132.145 24.6657 132.455 24.4304C132.766 24.1898 133.022 23.8983 133.226 23.5561C133.434 23.2138 133.579 22.8234 133.659 22.3849L137.172 22.401C137.081 23.155 136.854 23.8823 136.49 24.5828C136.132 25.278 135.648 25.901 135.038 26.4518C134.434 26.9973 133.712 27.4305 132.873 27.7513C132.038 28.0668 131.095 28.2246 130.041 28.2246C128.576 28.2246 127.266 27.893 126.11 27.2299C124.961 26.5668 124.052 25.6069 123.383 24.3502C122.72 23.0935 122.388 21.5721 122.388 19.786C122.388 17.9945 122.725 16.4704 123.399 15.2137C124.073 13.957 124.987 12.9997 126.143 12.342C127.298 11.6789 128.597 11.3473 130.041 11.3473C130.993 11.3473 131.875 11.481 132.688 11.7484C133.506 12.0158 134.231 12.4061 134.862 12.9195C135.493 13.4276 136.006 14.0506 136.402 14.7885C136.803 15.5265 137.06 16.3715 137.172 17.3233Z" fill="#34495E"/>
<path d="M98.2949 35.3769C98.2949 35.3769 98.2243 35.3148 98.0961 35.2043C97.9212 35.0416 97.7297 34.9402 97.5323 34.9058C97.3953 34.899 97.2583 34.9175 97.1236 34.961C96.9764 35.0007 96.8253 35.0491 96.6573 35.1146C96.3321 35.2354 95.9721 35.4097 95.5794 35.4218C95.1866 35.4338 94.8257 35.2302 94.5025 35.0974C94.3498 35.0286 94.1947 34.9773 94.0381 34.9438C93.9023 34.9179 93.7653 34.9179 93.6295 34.9438C93.4318 34.9749 93.2421 35.0937 93.0786 35.2889C93.0218 35.3674 92.9677 35.4515 92.9165 35.5408C92.9252 35.5118 92.9363 35.4851 92.9493 35.4615C92.9833 35.3863 93.0228 35.319 93.0667 35.2613C93.229 35.0475 93.4219 34.9145 93.6245 34.8765C93.7633 34.8445 93.9038 34.8404 94.0431 34.8644C94.2017 34.8943 94.3588 34.9433 94.5134 35.0111C94.8396 35.1422 95.1946 35.3389 95.5784 35.3269C95.9622 35.3148 96.3202 35.1457 96.6473 35.0283C96.8114 34.9662 96.9695 34.9196 97.1176 34.8817C97.2551 34.8402 97.3949 34.8252 97.5343 34.8368C97.7357 34.877 97.9301 34.9899 98.105 35.1681C98.1677 35.2285 98.2144 35.2768 98.2462 35.3131C98.2643 35.3299 98.2807 35.3514 98.2949 35.3769Z" fill="#263238"/>
<path d="M89.9473 42.8329C89.9473 42.8415 89.8876 42.738 89.7643 42.6051C89.5878 42.427 89.391 42.318 89.1876 42.2859C88.8853 42.2401 88.5807 42.2797 88.2857 42.4032C87.9496 42.5223 87.5817 42.7103 87.18 42.7483C86.7783 42.7863 86.4014 42.5878 86.0693 42.4481C85.9127 42.3742 85.7536 42.3166 85.593 42.2755C85.4535 42.2447 85.3124 42.2412 85.1724 42.2652C84.9687 42.2918 84.7726 42.4108 84.6036 42.6103C84.5435 42.6925 84.4863 42.7812 84.4326 42.876C84.4741 42.7648 84.5267 42.6673 84.5877 42.5878C84.7563 42.3715 84.9557 42.2396 85.1645 42.2065C85.3072 42.1779 85.4513 42.1779 85.594 42.2065C85.7569 42.2422 85.9183 42.2958 86.0773 42.367C86.4114 42.505 86.7733 42.7 87.1711 42.6586C87.5688 42.6172 87.9307 42.4394 88.2698 42.3238C88.5698 42.2025 88.8793 42.1687 89.1856 42.2237C89.3933 42.2619 89.5931 42.383 89.7693 42.5775C89.8168 42.6307 89.8611 42.6919 89.9015 42.7604C89.9181 42.7819 89.9335 42.8061 89.9473 42.8329Z" fill="#263238"/>
<path d="M137.173 46.0045C137.144 45.9959 137.116 45.9832 137.088 45.9665C137.033 45.9406 136.952 45.8958 136.849 45.8388C136.641 45.7249 136.345 45.5351 135.97 45.3539C135.766 45.2547 135.559 45.1826 135.349 45.1382C135.108 45.0892 134.865 45.0892 134.625 45.1382C134.115 45.2349 133.567 45.5058 132.975 45.6369C132.686 45.7077 132.393 45.7077 132.104 45.6369C131.824 45.5714 131.559 45.473 131.308 45.3816C130.806 45.1935 130.347 45.0623 129.959 45.0968C129.653 45.1088 129.351 45.2298 129.073 45.4523C128.998 45.5174 128.926 45.59 128.857 45.6697C128.834 45.7011 128.809 45.7294 128.783 45.7543C128.868 45.622 128.962 45.51 129.064 45.4212C129.343 45.1829 129.648 45.0506 129.958 45.033C130.356 44.9899 130.816 45.1175 131.319 45.3005C131.822 45.4834 132.382 45.706 132.972 45.5472C133.558 45.4161 134.107 45.1486 134.622 45.0537C134.866 45.0036 135.112 45.0036 135.357 45.0537C135.568 45.1024 135.778 45.1785 135.983 45.2815C136.358 45.473 136.652 45.6714 136.858 45.7991L137.094 45.9424C137.122 45.9584 137.148 45.9792 137.173 46.0045Z" fill="#263238"/>
<path d="M81.1807 39.684C81.1807 39.684 81.1101 39.6219 80.9818 39.5115C80.807 39.3488 80.6154 39.2473 80.418 39.213C80.2811 39.2061 80.144 39.2246 80.0093 39.2682C79.8622 39.3079 79.711 39.3562 79.543 39.4218C79.2178 39.5425 78.8579 39.7168 78.4651 39.7289C78.0723 39.741 77.7114 39.5374 77.3882 39.4045C77.2355 39.3357 77.0804 39.2844 76.9239 39.2509C76.7881 39.225 76.651 39.225 76.5152 39.2509C76.3175 39.282 76.1278 39.4009 75.9643 39.596C75.9076 39.6746 75.8535 39.7587 75.8022 39.848C75.811 39.8189 75.822 39.7922 75.8351 39.7686C75.8691 39.6934 75.9085 39.6261 75.9524 39.5684C76.1148 39.3547 76.3076 39.2216 76.5102 39.1836C76.649 39.1516 76.7895 39.1476 76.9288 39.1715C77.0874 39.2014 77.2446 39.2504 77.3992 39.3182C77.7253 39.4494 78.0803 39.6461 78.4641 39.634C78.8479 39.6219 79.2059 39.4528 79.5331 39.3355C79.6971 39.2734 79.8552 39.2268 80.0034 39.1888C80.1409 39.1474 80.2806 39.1323 80.42 39.1439C80.6215 39.1842 80.8159 39.297 80.9908 39.4752C81.0534 39.5356 81.1001 39.584 81.132 39.6202C81.15 39.637 81.1664 39.6585 81.1807 39.684Z" fill="#263238"/>
<path d="M130.168 32.9309C130.168 32.9309 130.109 32.8343 129.985 32.7032C129.809 32.5236 129.612 32.414 129.409 32.3822C129.106 32.3363 128.802 32.3765 128.507 32.5013C128.171 32.6186 127.804 32.8067 127.401 32.8464C126.998 32.8861 126.622 32.6859 126.291 32.5444C126.134 32.4705 125.975 32.4129 125.814 32.3718C125.674 32.3424 125.533 32.3395 125.393 32.3632C125.19 32.3891 124.994 32.5082 124.826 32.7083C124.768 32.7928 124.713 32.8827 124.662 32.9775C124.704 32.867 124.757 32.7701 124.818 32.6911C124.986 32.4734 125.185 32.3407 125.393 32.308C125.536 32.2795 125.68 32.2795 125.823 32.308C125.986 32.3439 126.147 32.3969 126.306 32.4668C126.64 32.6048 127.002 32.7998 127.4 32.7601C127.798 32.7204 128.161 32.5392 128.499 32.4253C128.799 32.3023 129.108 32.2685 129.415 32.3253C129.622 32.3626 129.822 32.4838 129.998 32.679C130.046 32.7318 130.09 32.7925 130.131 32.8602C130.156 32.9033 130.17 32.9275 130.168 32.9309Z" fill="#263238"/>
<path d="M71.5108 34.9139C71.5108 34.9225 71.4511 34.819 71.3278 34.6861C71.1513 34.508 70.9544 34.3991 70.7511 34.3669C70.4488 34.3211 70.1442 34.3608 69.8492 34.4842C69.5131 34.6033 69.1452 34.7914 68.7435 34.8294C68.3418 34.8673 67.9649 34.6689 67.6328 34.5291C67.4761 34.4552 67.3171 34.3976 67.1565 34.3566C67.017 34.3257 66.8759 34.3223 66.7359 34.3462C66.5322 34.3729 66.336 34.4919 66.1671 34.6913C66.1069 34.7735 66.0498 34.8623 65.9961 34.9571C66.0376 34.8459 66.0901 34.7483 66.1512 34.6689C66.3197 34.4526 66.5192 34.3207 66.7279 34.2875C66.8706 34.259 67.0148 34.259 67.1575 34.2875C67.3204 34.3232 67.4818 34.3768 67.6407 34.448C67.9749 34.5861 68.3368 34.781 68.7345 34.7396C69.1323 34.6982 69.4942 34.5205 69.8333 34.4049C70.1332 34.2836 70.4427 34.2497 70.7491 34.3048C70.9568 34.343 71.1565 34.464 71.3328 34.6585C71.3802 34.7117 71.4245 34.773 71.465 34.8414C71.4816 34.8629 71.4969 34.8872 71.5108 34.9139Z" fill="#263238"/>
<path d="M125.915 40.0645C125.886 40.0559 125.858 40.0432 125.831 40.0266C125.775 40.0007 125.694 39.9558 125.591 39.8989C125.383 39.785 125.087 39.5952 124.712 39.414C124.508 39.3148 124.301 39.2427 124.091 39.1983C123.85 39.1492 123.607 39.1492 123.367 39.1983C122.857 39.2949 122.309 39.5659 121.717 39.697C121.428 39.7677 121.135 39.7677 120.846 39.697C120.567 39.6314 120.301 39.5331 120.051 39.4416C119.548 39.2535 119.089 39.1224 118.701 39.1569C118.395 39.1688 118.093 39.2898 117.815 39.5124C117.74 39.5775 117.668 39.6501 117.599 39.7298C117.576 39.7612 117.551 39.7894 117.525 39.8143C117.61 39.682 117.704 39.57 117.806 39.4813C118.085 39.243 118.39 39.1106 118.7 39.0931C119.098 39.0499 119.558 39.1776 120.061 39.3605C120.565 39.5434 121.124 39.766 121.714 39.6073C122.3 39.4761 122.849 39.2087 123.364 39.1138C123.608 39.0636 123.855 39.0636 124.099 39.1138C124.31 39.1624 124.52 39.2386 124.725 39.3415C125.1 39.5331 125.394 39.7315 125.6 39.8592L125.837 40.0024C125.864 40.0185 125.89 40.0393 125.915 40.0645Z" fill="#263238"/>
<path d="M58.0408 39.5858C57.5462 39.5858 57.1504 39.4763 56.8536 39.2572C56.5568 39.0346 56.3837 38.7219 56.3342 38.3191H57.1186C57.1434 38.524 57.2423 38.6866 57.4154 38.8067C57.5886 38.9233 57.8094 38.9816 58.0779 38.9816C58.297 38.9816 58.4648 38.9427 58.5814 38.865C58.7016 38.7873 58.7616 38.683 58.7616 38.5523C58.7616 38.4286 58.7263 38.3297 58.6556 38.2555C58.585 38.1778 58.4631 38.1159 58.2899 38.07L57.5797 37.8739C57.2158 37.7714 56.949 37.6319 56.7794 37.4552C56.6134 37.275 56.5303 37.0506 56.5303 36.7821C56.5303 36.5524 56.5886 36.3546 56.7052 36.1885C56.8254 36.0189 56.9932 35.8899 57.2087 35.8016C57.4243 35.7097 57.6769 35.6638 57.9666 35.6638C58.4118 35.6638 58.7669 35.7698 59.0319 35.9818C59.2969 36.1903 59.4471 36.4676 59.4824 36.8139H58.698C58.6627 36.6266 58.5761 36.4888 58.4383 36.4005C58.3041 36.3122 58.1309 36.268 57.9189 36.268C57.7352 36.268 57.5886 36.3033 57.479 36.374C57.3695 36.4447 57.3147 36.5401 57.3147 36.6602C57.3147 36.7521 57.3448 36.8369 57.4048 36.9146C57.4649 36.9888 57.5903 37.0524 57.7811 37.1054L58.4913 37.3015C58.8659 37.404 59.1344 37.5453 59.2969 37.7255C59.463 37.9022 59.546 38.1265 59.546 38.3986C59.546 38.7802 59.4135 39.0735 59.1485 39.2784C58.8835 39.4833 58.5143 39.5858 58.0408 39.5858ZM66.9944 39.5381V35.7221H67.8106V39.5381H66.9944ZM69.4642 39.5381V35.7221H70.2804V39.5381H69.4642ZM67.376 37.2379H69.8352V37.8633H67.376V37.2379ZM79.8924 39.5381V35.7221H80.7086V39.5381H79.8924ZM89.3124 39.5381V35.7221H91.125C91.4076 35.7221 91.6497 35.7716 91.8511 35.8705C92.056 35.9694 92.2132 36.1072 92.3228 36.2839C92.4358 36.4606 92.4924 36.6673 92.4924 36.904C92.4924 37.1407 92.4358 37.3492 92.3228 37.5294C92.2097 37.7096 92.0507 37.8509 91.8458 37.9534C91.6444 38.0523 91.4041 38.1018 91.125 38.1018H89.959V37.4764H91.0826C91.2698 37.4764 91.4147 37.4252 91.5172 37.3227C91.6232 37.2167 91.6762 37.0789 91.6762 36.9093C91.6762 36.7397 91.6232 36.6037 91.5172 36.5012C91.4147 36.3987 91.2698 36.3475 91.0826 36.3475H90.1286V39.5381H89.3124ZM100.948 39.5381V35.7221H102.76C103.043 35.7221 103.285 35.7716 103.486 35.8705C103.691 35.9694 103.848 36.1072 103.958 36.2839C104.071 36.4606 104.128 36.6673 104.128 36.904C104.128 37.1407 104.071 37.3492 103.958 37.5294C103.845 37.7096 103.686 37.8509 103.481 37.9534C103.28 38.0523 103.039 38.1018 102.76 38.1018H101.594V37.4764H102.718C102.905 37.4764 103.05 37.4252 103.152 37.3227C103.258 37.2167 103.311 37.0789 103.311 36.9093C103.311 36.7397 103.258 36.6037 103.152 36.5012C103.05 36.3987 102.905 36.3475 102.718 36.3475H101.764V39.5381H100.948ZM112.583 39.5381V35.7221H113.399V39.5381H112.583ZM122.003 39.5381V35.7221H123.057L124.753 39.0929L124.494 39.1565V35.7221H125.289V39.5381H124.234L122.538 36.1673L122.798 36.1037V39.5381H122.003ZM134.769 39.5911C134.355 39.5911 134 39.5098 133.704 39.3473C133.407 39.1848 133.177 38.9569 133.015 38.6636C132.856 38.3703 132.776 38.0276 132.776 37.6354C132.776 37.2467 132.857 36.9058 133.02 36.6125C133.182 36.3157 133.407 36.0843 133.693 35.9182C133.983 35.7521 134.318 35.6691 134.7 35.6691C135.014 35.6691 135.295 35.7256 135.543 35.8387C135.794 35.9518 135.995 36.1072 136.147 36.3051C136.302 36.4994 136.394 36.7256 136.422 36.9835H135.606C135.571 36.775 135.472 36.6125 135.309 36.4959C135.15 36.3758 134.951 36.3157 134.711 36.3157C134.488 36.3157 134.294 36.3687 134.128 36.4747C133.962 36.5772 133.833 36.7256 133.741 36.9199C133.649 37.1142 133.603 37.3474 133.603 37.6195C133.603 37.9022 133.649 38.1442 133.741 38.3456C133.833 38.5435 133.967 38.6954 134.143 38.8014C134.324 38.9039 134.545 38.9551 134.806 38.9551C135.018 38.9551 135.198 38.9286 135.347 38.8756C135.495 38.8226 135.608 38.7484 135.686 38.653L136.46 38.9604C136.255 39.1653 136.016 39.3226 135.744 39.4321C135.476 39.5381 135.15 39.5911 134.769 39.5911ZM135.643 38.9604V37.911L135.808 38.0753H134.801V37.4499H136.46V38.9604H135.643Z" fill="#85919D"/>
<path d="M11.5041 47.6988C11.5041 47.6988 11.4357 47.6496 11.3115 47.5621C11.1422 47.4333 10.9567 47.353 10.7656 47.3257C10.6329 47.3203 10.5003 47.3349 10.3698 47.3695C10.2273 47.4009 10.081 47.4392 9.91825 47.4911C9.60338 47.5867 9.25482 47.7248 8.87449 47.7343C8.49415 47.7439 8.14462 47.5826 7.83169 47.4774C7.68384 47.423 7.53363 47.3823 7.38202 47.3558C7.25051 47.3353 7.1178 47.3353 6.98628 47.3558C6.79489 47.3804 6.61119 47.4745 6.45285 47.6291C6.39789 47.6913 6.34548 47.7579 6.2959 47.8286C6.30434 47.8056 6.31504 47.7845 6.32767 47.7658C6.3606 47.7062 6.39879 47.6529 6.44129 47.6072C6.59852 47.438 6.78526 47.3326 6.98147 47.3025C7.11588 47.2772 7.25191 47.274 7.38684 47.2929C7.54037 47.3166 7.69255 47.3554 7.84228 47.4091C8.1581 47.5129 8.50185 47.6687 8.87352 47.6592C9.24519 47.6496 9.59183 47.5157 9.90862 47.4228C10.0675 47.3736 10.2206 47.3367 10.3641 47.3066C10.4972 47.2738 10.6325 47.2619 10.7675 47.2711C10.9626 47.3029 11.1509 47.3923 11.3202 47.5334C11.3809 47.5813 11.4261 47.6195 11.4569 47.6482C11.4744 47.6615 11.4903 47.6786 11.5041 47.6988Z" fill="#263238"/>
<path d="M58.9418 38.4136C58.9418 38.4136 58.884 38.337 58.7646 38.2332C58.594 38.091 58.4032 38.0042 58.2062 37.979C57.9134 37.9427 57.6184 37.9745 57.3328 38.0733C57.0074 38.1662 56.6521 38.3152 56.2621 38.3466C55.8721 38.378 55.5082 38.2195 55.1875 38.1075C55.0355 38.0489 54.8812 38.0033 54.7254 37.9708C54.5902 37.9475 54.4536 37.9452 54.3181 37.964C54.121 37.9845 53.9313 38.0788 53.7683 38.2373C53.7126 38.3042 53.6596 38.3754 53.6094 38.4505C53.6501 38.363 53.7013 38.2862 53.7605 38.2236C53.923 38.0512 54.116 37.9462 54.3181 37.9203C54.4563 37.8977 54.5958 37.8977 54.734 37.9203C54.8917 37.9487 55.0479 37.9907 55.202 38.046C55.5255 38.1553 55.876 38.3097 56.2611 38.2783C56.6463 38.2468 56.9977 38.1034 57.3251 38.0132C57.6154 37.9158 57.9153 37.889 58.2119 37.9339C58.4131 37.9635 58.6067 38.0594 58.7771 38.2141C58.823 38.2559 58.8659 38.3039 58.9052 38.3575C58.9302 38.3917 58.9437 38.4108 58.9418 38.4136Z" fill="#263238"/>
<path d="M5.61649 43.6956C5.61649 43.7025 5.55872 43.6205 5.43932 43.5152C5.26838 43.3742 5.07777 43.2879 4.88085 43.2624C4.58812 43.2262 4.29318 43.2576 4.00752 43.3554C3.68207 43.4497 3.3258 43.5986 2.9368 43.6287C2.5478 43.6587 2.18287 43.5016 1.86126 43.3909C1.70957 43.3324 1.55556 43.2868 1.40005 43.2542C1.26493 43.2298 1.1283 43.2271 0.992749 43.246C0.795471 43.2672 0.605556 43.3614 0.441982 43.5193C0.383705 43.5845 0.328389 43.6548 0.276367 43.7298C0.31658 43.6418 0.36743 43.5645 0.426576 43.5016C0.589758 43.3303 0.782927 43.2258 0.985046 43.1996C1.12324 43.177 1.26281 43.177 1.40101 43.1996C1.55873 43.2278 1.71503 43.2703 1.86897 43.3267C2.19249 43.436 2.54298 43.5904 2.92813 43.5576C3.31329 43.5248 3.66377 43.3841 3.99211 43.2925C4.28257 43.1964 4.58227 43.1697 4.87893 43.2133C5.08004 43.2435 5.27349 43.3394 5.44413 43.4934C5.4901 43.5355 5.533 43.584 5.5722 43.6382C5.58826 43.6552 5.6031 43.6745 5.61649 43.6956Z" fill="#263238"/>
<path d="M54.8233 48C54.7955 47.9932 54.7682 47.9831 54.7415 47.9699C54.6876 47.9494 54.6096 47.9139 54.5095 47.8688C54.3083 47.7786 54.0214 47.6283 53.6585 47.4848C53.4613 47.4063 53.2601 47.3491 53.0568 47.314C52.824 47.2751 52.5888 47.2751 52.356 47.314C51.8621 47.3905 51.3317 47.6051 50.7579 47.7089C50.4782 47.765 50.1943 47.765 49.9146 47.7089C49.6441 47.657 49.387 47.5791 49.1444 47.5067C48.6583 47.3577 48.2135 47.2539 47.8381 47.2812C47.5413 47.2907 47.249 47.3865 46.9794 47.5627C46.9074 47.6143 46.8377 47.6718 46.7705 47.7349C46.748 47.7598 46.7241 47.7821 46.6992 47.8019C46.781 47.6971 46.8723 47.6084 46.9707 47.5381C47.2408 47.3494 47.5362 47.2446 47.8371 47.2307C48.2222 47.1965 48.6679 47.2976 49.155 47.4425C49.6422 47.5873 50.1841 47.7636 50.755 47.6379C51.323 47.534 51.8544 47.3222 52.3531 47.247C52.5894 47.2074 52.8282 47.2074 53.0645 47.247C53.2696 47.2856 53.4723 47.3459 53.671 47.4274C54.0339 47.5791 54.3189 47.7363 54.5182 47.8374L54.7473 47.9508C54.7737 47.9635 54.7992 47.98 54.8233 48Z" fill="#263238"/>
<path d="M37.1809 33.1118H0V36.345H37.1809V33.1118Z" fill="#263238"/>
<path d="M13.0897 33.1788H9.50781V26.5103H13.0897V33.1788ZM9.6041 33.0422H12.9934V26.6469H9.6041V33.0422Z" fill="#263238"/>
<path d="M15.9388 26.5786H13.0405V33.4945H15.9388V26.5786Z" fill="#263238"/>
<path d="M21.3218 8.23486H20.9771V33.5686H21.3218V8.23486Z" fill="#263238"/>
<path d="M22.1494 8.23486H21.8047V33.5686H22.1494V8.23486Z" fill="#263238"/>
<path d="M25.3042 8.23486H24.9595V33.5686H25.3042V8.23486Z" fill="#263238"/>
<path d="M18.0849 8.23486H17.7402V33.5686H18.0849V8.23486Z" fill="#263238"/>
<path d="M21.3212 8.23486H17.7402V8.73774H21.3212V8.23486Z" fill="#263238"/>
<path d="M29.5005 9.44629H5.04053V10.0243H29.5005V9.44629Z" fill="#263238"/>
<path d="M25.3046 17.1211H17.9131V17.6622H25.3046V17.1211Z" fill="#263238"/>
<path d="M25.2043 10.3134L24.9429 10.0845L21.8671 17.1618L22.1285 17.3907L25.2043 10.3134Z" fill="#263238"/>
<path d="M21.2424 10.1083L20.981 9.87939L17.9052 16.9568L18.1666 17.1857L21.2424 10.1083Z" fill="#263238"/>
<path d="M26.9699 6.98535H21.4834V9.44644H26.9699V6.98535Z" fill="#263238"/>
<path d="M10.6705 9.78909L10.6118 9.68114L19.3597 0.174316L22.5058 7.6341L22.424 7.70516L19.3328 0.37656L10.6705 9.78909Z" fill="#263238"/>
<path d="M21.3078 10.1846L17.6807 9.79652L19.3436 0L21.3078 10.1846ZM17.7972 9.67217L21.1749 10.0329L19.3455 0.549338L17.7972 9.67217Z" fill="#263238"/>
<path d="M3.38574 19.356L3.67749 17.1095L5.48 9.42422L5.57148 9.46795L3.76993 17.1436L3.50129 19.2166L9.48943 19.0677L7.14482 9.46795L7.23629 9.42285L9.62423 19.2002L3.38574 19.356Z" fill="#263238"/>
<path d="M4.23626 17.2524H1.89551V21.2877H4.23626V17.2524Z" fill="#263238"/>
<path d="M10.7825 17.2524H4.23682V21.2877H10.7825V17.2524Z" fill="#263238"/>
<path d="M3.11474 21.2863C3.10038 21.2863 3.08984 20.3899 3.08984 19.2857C3.08984 18.1816 3.10038 17.2852 3.11474 17.2852C3.1291 17.2852 3.13964 18.1802 3.13964 19.2857C3.13964 20.3912 3.12815 21.2863 3.11474 21.2863Z" fill="#455A64"/>
<path d="M4.23632 21.2863C4.22292 21.2863 4.21143 20.3899 4.21143 19.2857C4.21143 18.1816 4.22292 17.2852 4.23632 17.2852C4.24973 17.2852 4.26122 18.1802 4.26122 19.2857C4.26122 20.3912 4.24973 21.2863 4.23632 21.2863Z" fill="#455A64"/>
<path d="M10.4143 20.8262C10.4143 20.8262 10.4143 20.8057 10.4143 20.7702C10.4143 20.7346 10.4143 20.6772 10.4143 20.6089C10.4143 20.4654 10.4143 20.2604 10.4095 19.9967C10.4095 19.4638 10.4047 18.6958 10.4008 17.7379L10.4172 17.7625L4.51862 17.7734C4.49551 17.8062 4.54847 17.731 4.54365 17.7392V18.5373C4.54365 18.8024 4.54365 19.0634 4.54365 19.3217V20.8248L4.51188 20.7975L8.73217 20.8139L9.96273 20.8235H10.294H10.3806C10.3906 20.8223 10.4005 20.8223 10.4105 20.8235H10.3854H10.3017H9.97621L8.75047 20.833L4.5138 20.8494H4.48877V18.5263C4.48877 18.3897 4.48877 18.2612 4.48877 18.1273V17.7283L4.51477 17.6914L10.4134 17.7037H10.4307V17.7269C10.4307 18.6835 10.4239 19.4638 10.4211 20.0008C10.4211 20.2618 10.4211 20.4654 10.4211 20.6075C10.4211 20.6731 10.4211 20.7251 10.4211 20.7633C10.421 20.7846 10.4187 20.8058 10.4143 20.8262Z" fill="#455A64"/>
<path d="M4.97119 20.8266C4.95682 20.8266 4.94629 20.1351 4.94629 19.2824C4.94629 18.4297 4.95682 17.7383 4.97119 17.7383C4.98555 17.7383 4.99608 18.4297 4.99608 19.2824C4.99608 20.1351 4.98459 20.8266 4.97119 20.8266Z" fill="#455A64"/>
<path d="M5.52587 20.8266C5.51151 20.8266 5.50098 20.1351 5.50098 19.2824C5.50098 18.4297 5.51151 17.7383 5.52587 17.7383C5.54024 17.7383 5.55077 18.4297 5.55077 19.2824C5.55077 20.1351 5.53928 20.8266 5.52587 20.8266Z" fill="#455A64"/>
<path d="M6.08007 20.8266C6.06667 20.8266 6.05518 20.1351 6.05518 19.2824C6.05518 18.4297 6.06667 17.7383 6.08007 17.7383C6.09348 17.7383 6.10497 18.4297 6.10497 19.2824C6.10497 20.1351 6.09348 20.8266 6.08007 20.8266Z" fill="#455A64"/>
<path d="M6.63476 20.8266C6.62136 20.8266 6.60986 20.1351 6.60986 19.2824C6.60986 18.4297 6.62136 17.7383 6.63476 17.7383C6.64817 17.7383 6.65966 18.4297 6.65966 19.2824C6.65966 20.1351 6.64912 20.8266 6.63476 20.8266Z" fill="#455A64"/>
<path d="M7.18896 20.8266C7.17555 20.8266 7.16406 20.1351 7.16406 19.2824C7.16406 18.4297 7.17555 17.7383 7.18896 17.7383C7.20237 17.7383 7.21386 18.4297 7.21386 19.2824C7.21386 20.1351 7.20715 20.8266 7.18896 20.8266Z" fill="#455A64"/>
<path d="M7.74509 20.8266C7.73073 20.8266 7.71924 20.1351 7.71924 19.2824C7.71924 18.4297 7.73073 17.7383 7.74509 17.7383C7.75946 17.7383 7.76999 18.4297 7.76999 19.2824C7.76999 20.1351 7.7585 20.8266 7.74509 20.8266Z" fill="#455A64"/>
<path d="M8.29931 20.8266C8.28495 20.8266 8.27441 20.1351 8.27441 19.2824C8.27441 18.4297 8.28495 17.7383 8.29931 17.7383C8.31367 17.7383 8.32421 18.4297 8.32421 19.2824C8.32421 20.1351 8.31272 20.8266 8.29931 20.8266Z" fill="#455A64"/>
<path d="M8.854 20.8266C8.83964 20.8266 8.8291 20.1351 8.8291 19.2824C8.8291 18.4297 8.83964 17.7383 8.854 17.7383C8.86836 17.7383 8.8789 18.4297 8.8789 19.2824C8.8789 20.1351 8.86741 20.8266 8.854 20.8266Z" fill="#455A64"/>
<path d="M9.4082 20.8266C9.39479 20.8266 9.3833 20.1351 9.3833 19.2824C9.3833 18.4297 9.39479 17.7383 9.4082 17.7383C9.4216 17.7383 9.43309 18.4297 9.43309 19.2824C9.43309 20.1351 9.4216 20.8266 9.4082 20.8266Z" fill="#455A64"/>
<path d="M9.96288 20.8266C9.94948 20.8266 9.93799 20.1351 9.93799 19.2824C9.93799 18.4297 9.94948 17.7383 9.96288 17.7383C9.97629 17.7383 9.98778 18.4297 9.98778 19.2824C9.98778 20.1351 9.97725 20.8266 9.96288 20.8266Z" fill="#455A64"/>
<path d="M43.3291 29.7817H42.3682V27.4531H43.047L43.3291 29.7817Z" fill="#FF7775"/>
<path d="M23.0131 30.938H20.6724V34.9733H23.0131V30.938Z" fill="#FF7775"/>
<path opacity="0.4" d="M23.0131 30.938H20.6724V34.9733H23.0131V30.938Z" fill="white"/>
<path d="M29.5593 30.938H23.0137V34.9733H29.5593V30.938Z" fill="#FF7775"/>
<path opacity="0.2" d="M29.5593 30.938H23.0137V34.9733H29.5593V30.938Z" fill="white"/>
<path d="M21.8911 34.9734C21.8777 34.9734 21.8662 34.077 21.8662 32.9728C21.8662 31.8687 21.8777 30.9736 21.8911 30.9736C21.9045 30.9736 21.916 31.8687 21.916 32.9728C21.916 34.077 21.9055 34.9734 21.8911 34.9734Z" fill="#263238"/>
<path d="M29.1913 34.5136C29.1905 34.495 29.1905 34.4762 29.1913 34.4576C29.1913 34.418 29.1913 34.3647 29.1913 34.2977C29.1913 34.1542 29.1913 33.9479 29.1913 33.6841C29.1913 33.1512 29.1855 32.3832 29.1816 31.4267L29.199 31.4499L23.3004 31.4622C23.2773 31.4936 23.3302 31.4185 23.3245 31.4267V33.0105C23.3245 33.527 23.3245 34.0299 23.3245 34.5136L23.3004 34.4795L27.5207 34.4945L28.7522 34.504H29.0834H29.1701H29.1999H29.173H29.0892H28.7638L27.5371 34.5136L23.3004 34.53H23.2763V34.4959C23.2763 34.0121 23.2763 33.5092 23.2763 32.9927V31.4267C23.2705 31.4335 23.3245 31.3583 23.3023 31.3911L29.2009 31.4021H29.2182V31.4267C29.2182 32.3832 29.2105 33.1621 29.2086 33.6992C29.2086 33.9602 29.2086 34.1638 29.2086 34.3059C29.2086 34.3729 29.2086 34.4234 29.2086 34.4617C29.2038 34.4796 29.198 34.497 29.1913 34.5136Z" fill="#263238"/>
<path d="M23.7471 34.5137C23.7337 34.5137 23.7222 33.8223 23.7222 32.9696C23.7222 32.1168 23.7337 31.4268 23.7471 31.4268C23.7605 31.4268 23.772 32.1168 23.772 32.9696C23.772 33.8223 23.7653 34.5137 23.7471 34.5137Z" fill="#263238"/>
<path d="M24.3027 34.5137C24.2883 34.5137 24.2769 33.8223 24.2769 32.9696C24.2769 32.1168 24.2883 31.4268 24.3027 31.4268C24.3171 31.4268 24.3276 32.1168 24.3276 32.9696C24.3276 33.8223 24.3161 34.5137 24.3027 34.5137Z" fill="#263238"/>
<path d="M24.8569 34.5137C24.8426 34.5137 24.832 33.8223 24.832 32.9696C24.832 32.1168 24.8426 31.4268 24.8569 31.4268C24.8713 31.4268 24.8818 32.1168 24.8818 32.9696C24.8818 33.8223 24.8703 34.5137 24.8569 34.5137Z" fill="#263238"/>
<path d="M25.4116 34.5137C25.3973 34.5137 25.3867 33.8223 25.3867 32.9696C25.3867 32.1168 25.3973 31.4268 25.4116 31.4268C25.426 31.4268 25.4365 32.1168 25.4365 32.9696C25.4365 33.8223 25.425 34.5137 25.4116 34.5137Z" fill="#263238"/>
<path d="M25.9663 34.5137C25.9529 34.5137 25.9414 33.8223 25.9414 32.9696C25.9414 32.1168 25.9529 31.4268 25.9663 31.4268C25.9797 31.4268 25.9912 32.1168 25.9912 32.9696C25.9912 33.8223 25.9797 34.5137 25.9663 34.5137Z" fill="#263238"/>
<path d="M26.5205 34.5137C26.5071 34.5137 26.4956 33.8223 26.4956 32.9696C26.4956 32.1168 26.5071 31.4268 26.5205 31.4268C26.5339 31.4268 26.5454 32.1168 26.5454 32.9696C26.5454 33.8223 26.5349 34.5137 26.5205 34.5137Z" fill="#263238"/>
<path d="M27.0752 34.5137C27.0618 34.5137 27.0503 33.8223 27.0503 32.9696C27.0503 32.1168 27.0618 31.4268 27.0752 31.4268C27.0886 31.4268 27.1001 32.1168 27.1001 32.9696C27.1001 33.8223 27.0896 34.5137 27.0752 34.5137Z" fill="#263238"/>
<path d="M27.6304 34.5137C27.616 34.5137 27.6055 33.8223 27.6055 32.9696C27.6055 32.1168 27.616 31.4268 27.6304 31.4268C27.6447 31.4268 27.6553 32.1168 27.6553 32.9696C27.6553 33.8223 27.6438 34.5137 27.6304 34.5137Z" fill="#263238"/>
<path d="M28.1851 34.5137C28.1707 34.5137 28.1602 33.8223 28.1602 32.9696C28.1602 32.1168 28.1707 31.4268 28.1851 31.4268C28.1994 31.4268 28.21 32.1168 28.21 32.9696C28.21 33.8223 28.1985 34.5137 28.1851 34.5137Z" fill="#263238"/>
<path d="M28.7397 34.5137C28.7263 34.5137 28.7148 33.8223 28.7148 32.9696C28.7148 32.1168 28.7263 31.4268 28.7397 31.4268C28.7531 31.4268 28.7646 32.1168 28.7646 32.9696C28.7646 33.8223 28.7531 34.5137 28.7397 34.5137Z" fill="#263238"/>
<path d="M30.7465 22.8916H28.4058V26.9269H30.7465V22.8916Z" fill="#FF7775"/>
<path opacity="0.4" d="M30.7465 22.8916H28.4058V26.9269H30.7465V22.8916Z" fill="white"/>
<path d="M37.2917 22.8916H30.7461V26.9269H37.2917V22.8916Z" fill="#FF7775"/>
<path opacity="0.2" d="M37.2917 22.8916H30.7461V26.9269H37.2917V22.8916Z" fill="white"/>
<path d="M29.624 26.926C29.6106 26.926 29.5991 26.0295 29.5991 24.9254C29.5991 23.8212 29.6106 22.9248 29.624 22.9248C29.6374 22.9248 29.6489 23.8212 29.6489 24.9254C29.6489 26.0295 29.6374 26.926 29.624 26.926Z" fill="#263238"/>
<path d="M36.9247 26.4652C36.9233 26.4465 36.9233 26.4278 36.9247 26.4091C36.9247 26.3695 36.9247 26.3162 36.9247 26.2479C36.9247 26.1112 36.9247 25.8994 36.9247 25.6357C36.9247 25.1027 36.9189 24.3348 36.9151 23.3782L36.9324 23.4014L31.0328 23.4137L31.0579 23.3782V24.9606C31.0579 25.4772 31.0579 25.98 31.0579 26.4638L31.0338 26.4296L35.2541 26.4447L36.4856 26.4542H36.8168H36.9025H36.9333H36.9054H36.8226H36.4962L35.2705 26.4638L31.0338 26.4802H31.0097V26.446C31.0097 25.9623 31.0097 25.4594 31.0097 24.9429V23.3796C31.0039 23.3864 31.0569 23.3112 31.0348 23.3427L36.9343 23.355H36.9507V23.3796C36.9507 24.3361 36.9439 25.115 36.942 25.6521C36.942 25.9131 36.942 26.1167 36.9372 26.2588C36.9372 26.3244 36.9372 26.3763 36.9372 26.4146C36.9372 26.4529 36.9247 26.4652 36.9247 26.4652Z" fill="#263238"/>
<path d="M31.4805 26.4654C31.4671 26.4654 31.4556 25.7739 31.4556 24.9212C31.4556 24.0685 31.4671 23.3784 31.4805 23.3784C31.4939 23.3784 31.5054 24.0685 31.5054 24.9212C31.5054 25.7739 31.4939 26.4654 31.4805 26.4654Z" fill="#263238"/>
<path d="M32.0347 26.4654C32.0213 26.4654 32.0098 25.7739 32.0098 24.9212C32.0098 24.0685 32.0213 23.3784 32.0347 23.3784C32.0481 23.3784 32.0596 24.0685 32.0596 24.9212C32.0596 25.7739 32.0442 26.4654 32.0347 26.4654Z" fill="#263238"/>
<path d="M32.5894 26.4654C32.5759 26.4654 32.5645 25.7739 32.5645 24.9212C32.5645 24.0685 32.5759 23.3784 32.5894 23.3784C32.6028 23.3784 32.6142 24.0685 32.6142 24.9212C32.6142 25.7739 32.6037 26.4654 32.5894 26.4654Z" fill="#263238"/>
<path d="M33.1436 26.4654C33.1301 26.4654 33.1187 25.7739 33.1187 24.9212C33.1187 24.0685 33.1301 23.3784 33.1436 23.3784C33.157 23.3784 33.1694 24.0685 33.1694 24.9212C33.1694 25.7739 33.1579 26.4654 33.1436 26.4654Z" fill="#263238"/>
<path d="M33.6992 26.4654C33.6849 26.4654 33.6743 25.7739 33.6743 24.9212C33.6743 24.0685 33.6849 23.3784 33.6992 23.3784C33.7136 23.3784 33.7241 24.0685 33.7241 24.9212C33.7241 25.7739 33.7126 26.4654 33.6992 26.4654Z" fill="#263238"/>
<path d="M34.2588 26.4654C34.2444 26.4654 34.2339 25.7739 34.2339 24.9212C34.2339 24.0685 34.2444 23.3784 34.2588 23.3784C34.2731 23.3784 34.2837 24.0685 34.2837 24.9212C34.2837 25.7739 34.2674 26.4654 34.2588 26.4654Z" fill="#263238"/>
<path d="M34.8086 26.4654C34.7952 26.4654 34.7837 25.7739 34.7837 24.9212C34.7837 24.0685 34.7952 23.3784 34.8086 23.3784C34.822 23.3784 34.8335 24.0685 34.8335 24.9212C34.8335 25.7739 34.822 26.4654 34.8086 26.4654Z" fill="#263238"/>
<path d="M35.3628 26.4654C35.3494 26.4654 35.3379 25.7739 35.3379 24.9212C35.3379 24.0685 35.3494 23.3784 35.3628 23.3784C35.3762 23.3784 35.3877 24.0685 35.3877 24.9212C35.3877 25.7739 35.3772 26.4654 35.3628 26.4654Z" fill="#263238"/>
<path d="M35.9175 26.4654C35.9041 26.4654 35.8926 25.7739 35.8926 24.9212C35.8926 24.0685 35.9041 23.3784 35.9175 23.3784C35.9309 23.3784 35.9424 24.0685 35.9424 24.9212C35.9424 25.7739 35.9318 26.4654 35.9175 26.4654Z" fill="#263238"/>
<path d="M36.4726 26.4654C36.4583 26.4654 36.4468 25.7739 36.4468 24.9212C36.4468 24.0685 36.4583 23.3784 36.4726 23.3784C36.487 23.3784 36.4975 24.0685 36.4975 24.9212C36.4975 25.7739 36.486 26.4654 36.4726 26.4654Z" fill="#263238"/>
<path d="M10.5986 32.979H8.25781V37.0143H10.5986V32.979Z" fill="#FF7775"/>
<path opacity="0.4" d="M10.5986 32.979H8.25781V37.0143H10.5986V32.979Z" fill="white"/>
<path d="M17.1438 32.979H10.5981V37.0143H17.1438V32.979Z" fill="#FF7775"/>
<path opacity="0.2" d="M17.1438 32.979H10.5981V37.0143H17.1438V32.979Z" fill="white"/>
<path d="M9.47607 37.0149C9.46266 37.0149 9.45117 36.1199 9.45117 35.0143C9.45117 33.9088 9.46266 33.0151 9.47607 33.0151C9.48948 33.0151 9.50097 33.9102 9.50097 35.0143C9.50097 36.1185 9.48948 37.0149 9.47607 37.0149Z" fill="#263238"/>
<path d="M16.7767 36.5542C16.7754 36.5356 16.7754 36.5168 16.7767 36.4982C16.7767 36.4586 16.7767 36.4053 16.7767 36.3383C16.7767 36.1948 16.7767 35.9885 16.7767 35.7248C16.7767 35.1918 16.771 34.4238 16.7671 33.4673L16.7844 33.4905L10.8849 33.5028L10.9099 33.4673V35.0511C10.9099 35.5676 10.9099 36.0705 10.9099 36.5542L10.8858 36.5201L15.1061 36.5365L16.3377 36.546H16.6689H16.7546H16.7854H16.7575H16.6747H16.3483L15.1225 36.5556L10.8858 36.572H10.8618V36.5378C10.8618 36.0541 10.8618 35.5512 10.8618 35.0347V33.4673C10.856 33.4673 10.909 33.399 10.8868 33.4318L16.7864 33.4427H16.8027V33.4673C16.8027 34.4238 16.796 35.2028 16.7941 35.7398C16.7941 36.0008 16.7941 36.2044 16.7893 36.3465C16.7893 36.4135 16.7893 36.464 16.7893 36.5023C16.7893 36.5406 16.7767 36.5542 16.7767 36.5542Z" fill="#263238"/>
<path d="M11.3325 36.5552C11.3182 36.5552 11.3076 35.8638 11.3076 35.0111C11.3076 34.1584 11.3182 33.4683 11.3325 33.4683C11.3469 33.4683 11.3574 34.1515 11.3574 35.0111C11.3574 35.8706 11.3469 36.5552 11.3325 36.5552Z" fill="#263238"/>
<path d="M11.8867 36.5552C11.8733 36.5552 11.8618 35.8638 11.8618 35.0111C11.8618 34.1584 11.8733 33.4683 11.8867 33.4683C11.9001 33.4683 11.9116 34.1515 11.9116 35.0111C11.9116 35.8706 11.9001 36.5552 11.8867 36.5552Z" fill="#263238"/>
<path d="M12.4414 36.5552C12.428 36.5552 12.4165 35.8638 12.4165 35.0111C12.4165 34.1584 12.428 33.4683 12.4414 33.4683C12.4548 33.4683 12.4663 34.1515 12.4663 35.0111C12.4663 35.8706 12.4558 36.5552 12.4414 36.5552Z" fill="#263238"/>
<path d="M12.9956 36.5552C12.9822 36.5552 12.9707 35.8638 12.9707 35.0111C12.9707 34.1584 12.9822 33.4683 12.9956 33.4683C13.009 33.4683 13.0205 34.1515 13.0205 35.0111C13.0205 35.8706 13.01 36.5552 12.9956 36.5552Z" fill="#263238"/>
<path d="M13.5513 36.5552C13.5369 36.5552 13.5264 35.8638 13.5264 35.0111C13.5264 34.1584 13.5369 33.4683 13.5513 33.4683C13.5656 33.4683 13.5762 34.1515 13.5762 35.0111C13.5762 35.8706 13.5608 36.5552 13.5513 36.5552Z" fill="#263238"/>
<path d="M14.106 36.5552C14.0916 36.5552 14.0811 35.8638 14.0811 35.0111C14.0811 34.1584 14.0916 33.4683 14.106 33.4683C14.1203 33.4683 14.1308 34.1515 14.1308 35.0111C14.1308 35.8706 14.1194 36.5552 14.106 36.5552Z" fill="#263238"/>
<path d="M14.6606 36.5552C14.6472 36.5552 14.6357 35.8638 14.6357 35.0111C14.6357 34.1584 14.6472 33.4683 14.6606 33.4683C14.674 33.4683 14.6855 34.1515 14.6855 35.0111C14.6855 35.8706 14.674 36.5552 14.6606 36.5552Z" fill="#263238"/>
<path d="M15.2148 36.5552C15.2014 36.5552 15.1899 35.8638 15.1899 35.0111C15.1899 34.1584 15.2014 33.4683 15.2148 33.4683C15.2282 33.4683 15.2397 34.1515 15.2397 35.0111C15.2397 35.8706 15.2282 36.5552 15.2148 36.5552Z" fill="#263238"/>
<path d="M15.769 36.5552C15.7556 36.5552 15.7441 35.8638 15.7441 35.0111C15.7441 34.1584 15.7556 33.4683 15.769 33.4683C15.7824 33.4683 15.7939 34.1515 15.7939 35.0111C15.7939 35.8706 15.7834 36.5552 15.769 36.5552Z" fill="#263238"/>
<path d="M16.3237 36.5552C16.3103 36.5552 16.2988 35.8638 16.2988 35.0111C16.2988 34.1584 16.3103 33.4683 16.3237 33.4683C16.3371 33.4683 16.3486 34.1515 16.3486 35.0111C16.3486 35.8706 16.3381 36.5552 16.3237 36.5552Z" fill="#263238"/>
<path d="M25.6874 26.9482H23.3467V30.9836H25.6874V26.9482Z" fill="#263238"/>
<path d="M32.2336 26.9482H25.688V30.9836H32.2336V26.9482Z" fill="#263238"/>
<path d="M24.5654 30.9822C24.552 30.9822 24.5405 30.0871 24.5405 28.983C24.5405 27.8789 24.552 26.9824 24.5654 26.9824C24.5788 26.9824 24.5903 27.8775 24.5903 28.983C24.5903 30.0885 24.5798 30.9822 24.5654 30.9822Z" fill="#455A64"/>
<path d="M25.6904 30.9822C25.6761 30.9822 25.6655 30.0871 25.6655 28.983C25.6655 27.8789 25.6761 26.9824 25.6904 26.9824C25.7048 26.9824 25.7153 27.8775 25.7153 28.983C25.7153 30.0885 25.701 30.9822 25.6904 30.9822Z" fill="#455A64"/>
<path d="M31.8655 30.5206C31.8647 30.502 31.8647 30.4833 31.8655 30.4646C31.8655 30.425 31.8655 30.373 31.8655 30.3047C31.8655 30.1612 31.8655 29.9563 31.8655 29.6912C31.8655 29.1582 31.8598 28.3902 31.8559 27.4337L31.8733 27.4583L25.9747 27.4692C25.9516 27.5006 26.0045 27.4255 25.9987 27.4337V29.0147C25.9987 29.5313 25.9987 30.0342 25.9987 30.5179L25.9747 30.4837L30.195 30.5001L31.4265 30.5097H31.7577H31.8434H31.8742H31.8473H31.7567H31.4303L30.2046 30.5193L25.9679 30.5343H25.9438V30.5001C25.9438 30.0164 25.9438 29.5135 25.9438 28.997V27.4364L25.9698 27.4009L31.8684 27.4118H31.8858V27.4364C31.8858 28.3998 31.8781 29.1732 31.8761 29.7089C31.8761 29.9713 31.8761 30.1749 31.8761 30.317C31.8761 30.3826 31.8761 30.4345 31.8761 30.4728C31.8735 30.4891 31.8699 30.5051 31.8655 30.5206Z" fill="#455A64"/>
<path d="M26.4214 30.521C26.408 30.521 26.3965 29.8296 26.3965 28.9782C26.3965 28.1269 26.408 27.4341 26.4214 27.4341C26.4348 27.4341 26.4463 28.1255 26.4463 28.9782C26.4463 29.8309 26.4357 30.521 26.4214 30.521Z" fill="#455A64"/>
<path d="M26.9756 30.521C26.9622 30.521 26.9507 29.8296 26.9507 28.9782C26.9507 28.1269 26.9622 27.4341 26.9756 27.4341C26.989 27.4341 27.0005 28.1255 27.0005 28.9782C27.0005 29.8309 26.9899 30.521 26.9756 30.521Z" fill="#455A64"/>
<path d="M27.5312 30.521C27.5169 30.521 27.5063 29.8296 27.5063 28.9782C27.5063 28.1269 27.5169 27.4341 27.5312 27.4341C27.5456 27.4341 27.5561 28.1255 27.5561 28.9782C27.5561 29.8309 27.5447 30.521 27.5312 30.521Z" fill="#455A64"/>
<path d="M28.0854 30.521C28.0711 30.521 28.0605 29.8296 28.0605 28.9782C28.0605 28.1269 28.0711 27.4341 28.0854 27.4341C28.0998 27.4341 28.1103 28.1255 28.1103 28.9782C28.1103 29.8309 28.0969 30.521 28.0854 30.521Z" fill="#455A64"/>
<path d="M28.6406 30.521C28.6272 30.521 28.6157 29.8296 28.6157 28.9782C28.6157 28.1269 28.6272 27.4341 28.6406 27.4341C28.654 27.4341 28.6655 28.1255 28.6655 28.9782C28.6655 29.8309 28.654 30.521 28.6406 30.521Z" fill="#455A64"/>
<path d="M29.1948 30.521C29.1814 30.521 29.1699 29.8296 29.1699 28.9782C29.1699 28.1269 29.1814 27.4341 29.1948 27.4341C29.2082 27.4341 29.2197 28.1255 29.2197 28.9782C29.2197 29.8309 29.2092 30.521 29.1948 30.521Z" fill="#455A64"/>
<path d="M29.7495 30.521C29.7361 30.521 29.7246 29.8296 29.7246 28.9782C29.7246 28.1269 29.7361 27.4341 29.7495 27.4341C29.7629 27.4341 29.7744 28.1255 29.7744 28.9782C29.7744 29.8309 29.7639 30.521 29.7495 30.521Z" fill="#455A64"/>
<path d="M30.3037 30.521C30.2903 30.521 30.2788 29.8296 30.2788 28.9782C30.2788 28.1269 30.2903 27.4341 30.3037 27.4341C30.3171 27.4341 30.3296 28.1255 30.3296 28.9782C30.3296 29.8309 30.3181 30.521 30.3037 30.521Z" fill="#455A64"/>
<path d="M30.8594 30.521C30.845 30.521 30.8345 29.8296 30.8345 28.9782C30.8345 28.1269 30.845 27.4341 30.8594 27.4341C30.8737 27.4341 30.8843 28.1255 30.8843 28.9782C30.8843 29.8309 30.8728 30.521 30.8594 30.521Z" fill="#455A64"/>
<path d="M31.4136 30.521C31.3992 30.521 31.3887 29.8296 31.3887 28.9782C31.3887 28.1269 31.3992 27.4341 31.4136 27.4341C31.4279 27.4341 31.4385 28.1255 31.4385 28.9782C31.4385 29.8309 31.427 30.521 31.4136 30.521Z" fill="#455A64"/>
<path d="M20.0258 35.103H17.6851V39.1383H20.0258V35.103Z" fill="#FF7775"/>
<path d="M26.572 35.103H20.0264V39.1383H26.572V35.103Z" fill="#FF7775"/>
<path opacity="0.4" d="M26.572 35.103H20.0264V39.1383H26.572V35.103Z" fill="black"/>
<path d="M18.9043 39.1389C18.8899 39.1389 18.8794 38.2439 18.8794 37.1384C18.8794 36.0329 18.8899 35.1392 18.9043 35.1392C18.9187 35.1392 18.9292 36.0342 18.9292 37.1384C18.9292 38.2425 18.9177 39.1389 18.9043 39.1389Z" fill="#263238"/>
<path d="M26.2042 38.6779C26.2042 38.6779 26.2042 38.6574 26.2042 38.6218C26.2042 38.5863 26.2042 38.5289 26.2042 38.462C26.2042 38.3253 26.2042 38.1121 26.1993 37.8484C26.1993 37.3155 26.1945 36.5475 26.1907 35.5909L26.207 35.6141L20.3085 35.6264L20.3335 35.5909V35.9927C20.3335 36.1293 20.3335 36.2591 20.3335 36.3903V38.6779L20.3094 38.6437L24.5297 38.6601L25.7603 38.6697H26.0915H26.1782C26.1881 38.6685 26.1981 38.6685 26.208 38.6697H26.1733H26.0896H25.7641L24.5384 38.6792L20.3017 38.6956H20.2767V36.3726C20.2767 36.2359 20.2767 36.1075 20.2767 35.9749V35.5732C20.2719 35.58 20.3248 35.5048 20.3027 35.5376L26.2013 35.5486H26.2186V35.5732C26.2186 36.5297 26.2119 37.3086 26.209 37.8457C26.209 38.1067 26.209 38.3103 26.209 38.4524C26.209 38.5194 26.209 38.5699 26.209 38.6082C26.2102 38.6316 26.2085 38.6552 26.2042 38.6779Z" fill="#263238"/>
<path d="M20.7607 38.6787C20.7464 38.6787 20.7358 37.9873 20.7358 37.1346C20.7358 36.2819 20.7464 35.5918 20.7607 35.5918C20.7751 35.5918 20.7856 36.2819 20.7856 37.1346C20.7856 37.9873 20.7741 38.6787 20.7607 38.6787Z" fill="#263238"/>
<path d="M21.3154 38.6787C21.3011 38.6787 21.2905 37.9873 21.2905 37.1346C21.2905 36.2819 21.3011 35.5918 21.3154 35.5918C21.3298 35.5918 21.3403 36.2819 21.3403 37.1346C21.3403 37.9873 21.3288 38.6787 21.3154 38.6787Z" fill="#263238"/>
<path d="M21.8696 38.6787C21.8562 38.6787 21.8447 37.9873 21.8447 37.1346C21.8447 36.2819 21.8562 35.5918 21.8696 35.5918C21.883 35.5918 21.8945 36.2819 21.8945 37.1346C21.8945 37.9873 21.883 38.6787 21.8696 38.6787Z" fill="#263238"/>
<path d="M22.4243 38.6787C22.4109 38.6787 22.3994 37.9873 22.3994 37.1346C22.3994 36.2819 22.4109 35.5918 22.4243 35.5918C22.4377 35.5918 22.4492 36.2819 22.4492 37.1346C22.4492 37.9873 22.4387 38.6787 22.4243 38.6787Z" fill="#263238"/>
<path d="M22.979 38.6787C22.9656 38.6787 22.9541 37.9873 22.9541 37.1346C22.9541 36.2819 22.9656 35.5918 22.979 35.5918C22.9924 35.5918 23.0039 36.2819 23.0039 37.1346C23.0039 37.9873 22.9953 38.6787 22.979 38.6787Z" fill="#263238"/>
<path d="M23.5337 38.6787C23.5203 38.6787 23.5088 37.9873 23.5088 37.1346C23.5088 36.2819 23.5203 35.5918 23.5337 35.5918C23.5471 35.5918 23.5595 36.2819 23.5595 37.1346C23.5595 37.9873 23.5481 38.6787 23.5337 38.6787Z" fill="#263238"/>
<path d="M24.0889 38.6787C24.0745 38.6787 24.064 37.9873 24.064 37.1346C24.064 36.2819 24.0745 35.5918 24.0889 35.5918C24.1032 35.5918 24.1138 36.2819 24.1138 37.1346C24.1138 37.9873 24.1023 38.6787 24.0889 38.6787Z" fill="#263238"/>
<path d="M24.6431 38.6787C24.6287 38.6787 24.6182 37.9873 24.6182 37.1346C24.6182 36.2819 24.6287 35.5918 24.6431 35.5918C24.6574 35.5918 24.668 36.2819 24.668 37.1346C24.668 37.9873 24.6565 38.6787 24.6431 38.6787Z" fill="#263238"/>
<path d="M25.1977 38.6787C25.1843 38.6787 25.1729 37.9873 25.1729 37.1346C25.1729 36.2819 25.1843 35.5918 25.1977 35.5918C25.2112 35.5918 25.2226 36.2819 25.2226 37.1346C25.2226 37.9873 25.2092 38.6787 25.1977 38.6787Z" fill="#263238"/>
<path d="M25.7524 38.6787C25.739 38.6787 25.7275 37.9873 25.7275 37.1346C25.7275 36.2819 25.739 35.5918 25.7524 35.5918C25.7658 35.5918 25.7773 36.2819 25.7773 37.1346C25.7773 37.9873 25.7668 38.6787 25.7524 38.6787Z" fill="#263238"/>
<path d="M27.5058 34.9736H25.165V39.0089H27.5058V34.9736Z" fill="#263238"/>
<path d="M34.051 34.9736H27.5054V39.0089H34.051V34.9736Z" fill="#263238"/>
<path d="M26.3838 39.0075C26.3694 39.0075 26.3589 38.1111 26.3589 37.0069C26.3589 35.9028 26.3694 35.0063 26.3838 35.0063C26.3981 35.0063 26.4087 35.9014 26.4087 37.0069C26.4087 38.1124 26.3972 39.0075 26.3838 39.0075Z" fill="#455A64"/>
<path d="M27.5054 39.0075C27.492 39.0075 27.4805 38.1111 27.4805 37.0069C27.4805 35.9028 27.492 35.0063 27.5054 35.0063C27.5188 35.0063 27.5303 35.9014 27.5303 37.0069C27.5303 38.1124 27.5197 39.0075 27.5054 39.0075Z" fill="#455A64"/>
<path d="M33.6824 38.5467C33.6824 38.5467 33.6824 38.5262 33.6824 38.4907C33.6824 38.4551 33.6824 38.3977 33.6824 38.3294C33.6824 38.1859 33.6824 37.981 33.6776 37.7172C33.6776 37.1843 33.6728 36.4163 33.669 35.4584L33.6853 35.483L27.7867 35.4953L27.8118 35.4597V36.2578C27.8118 36.5229 27.8118 36.7839 27.8118 37.0422V38.5453L27.7877 38.5112L32.008 38.5262L33.2386 38.5358H33.5698H33.6564H33.6863H33.6593H33.5756H33.2501L32.0244 38.5453L27.7877 38.5617H27.7636V35.4611C27.7578 35.4679 27.8108 35.3928 27.7887 35.4242L33.6873 35.4365H33.7046V35.4597C33.7046 36.4163 33.6978 37.1966 33.695 37.7336C33.695 37.9946 33.695 38.1982 33.695 38.3404C33.695 38.4059 33.695 38.4579 33.695 38.4961C33.6923 38.5137 33.6881 38.5306 33.6824 38.5467Z" fill="#455A64"/>
<path d="M28.2397 38.5473C28.2254 38.5473 28.2148 37.8558 28.2148 37.0031C28.2148 36.1504 28.2254 35.459 28.2397 35.459C28.2541 35.459 28.2646 36.1504 28.2646 37.0031C28.2646 37.8558 28.2531 38.5473 28.2397 38.5473Z" fill="#455A64"/>
<path d="M28.7944 38.5473C28.7801 38.5473 28.7695 37.8558 28.7695 37.0031C28.7695 36.1504 28.7801 35.459 28.7944 35.459C28.8088 35.459 28.8193 36.1504 28.8193 37.0031C28.8193 37.8558 28.8078 38.5473 28.7944 38.5473Z" fill="#455A64"/>
<path d="M29.3491 38.5473C29.3357 38.5473 29.3242 37.8558 29.3242 37.0031C29.3242 36.1504 29.3357 35.459 29.3491 35.459C29.3625 35.459 29.374 36.1504 29.374 37.0031C29.374 37.8558 29.3625 38.5473 29.3491 38.5473Z" fill="#455A64"/>
<path d="M29.9033 38.5473C29.8899 38.5473 29.8784 37.8558 29.8784 37.0031C29.8784 36.1504 29.8899 35.459 29.9033 35.459C29.9167 35.459 29.9282 36.1504 29.9282 37.0031C29.9282 37.8558 29.9177 38.5473 29.9033 38.5473Z" fill="#455A64"/>
<path d="M30.458 38.5473C30.4446 38.5473 30.4331 37.8558 30.4331 37.0031C30.4331 36.1504 30.4446 35.459 30.458 35.459C30.4714 35.459 30.4829 36.1504 30.4829 37.0031C30.4829 37.8558 30.4724 38.5473 30.458 38.5473Z" fill="#455A64"/>
<path d="M31.0132 38.5473C30.9988 38.5473 30.9883 37.8558 30.9883 37.0031C30.9883 36.1504 30.9988 35.459 31.0132 35.459C31.0275 35.459 31.0381 36.1504 31.0381 37.0031C31.0381 37.8558 31.0266 38.5473 31.0132 38.5473Z" fill="#455A64"/>
<path d="M31.5679 38.5473C31.5535 38.5473 31.543 37.8558 31.543 37.0031C31.543 36.1504 31.5535 35.459 31.5679 35.459C31.5822 35.459 31.5928 36.1504 31.5928 37.0031C31.5928 37.8558 31.5813 38.5473 31.5679 38.5473Z" fill="#455A64"/>
<path d="M32.1221 38.5473C32.1087 38.5473 32.0972 37.8558 32.0972 37.0031C32.0972 36.1504 32.1087 35.459 32.1221 35.459C32.1355 35.459 32.147 36.1504 32.147 37.0031C32.147 37.8558 32.1403 38.5473 32.1221 38.5473Z" fill="#455A64"/>
<path d="M32.6768 38.5473C32.6633 38.5473 32.6519 37.8558 32.6519 37.0031C32.6519 36.1504 32.6633 35.459 32.6768 35.459C32.6902 35.459 32.7016 36.1504 32.7016 37.0031C32.7016 37.8558 32.6902 38.5473 32.6768 38.5473Z" fill="#455A64"/>
<path d="M33.2314 38.5473C33.218 38.5473 33.2065 37.8558 33.2065 37.0031C33.2065 36.1504 33.218 35.459 33.2314 35.459C33.2448 35.459 33.2563 36.1504 33.2563 37.0031C33.2563 37.8558 33.2458 38.5473 33.2314 38.5473Z" fill="#455A64"/>
<path d="M29.3456 26.9644H27.0049V30.9997H29.3456V26.9644Z" fill="#455A64"/>
<path d="M35.8909 26.9644H29.3452V30.9997H35.8909V26.9644Z" fill="#455A64"/>
<path d="M28.2236 30.9992C28.2102 30.9992 28.1987 30.1028 28.1987 28.9986C28.1987 27.8945 28.2102 26.998 28.2236 26.998C28.237 26.998 28.2485 27.8945 28.2485 28.9986C28.2485 30.1028 28.238 30.9992 28.2236 30.9992Z" fill="#263238"/>
<path d="M29.3491 30.9992C29.3357 30.9992 29.3242 30.1028 29.3242 28.9986C29.3242 27.8945 29.3357 26.998 29.3491 26.998C29.3625 26.998 29.374 27.8945 29.374 28.9986C29.374 30.1028 29.3597 30.9992 29.3491 30.9992Z" fill="#263238"/>
<path d="M35.5238 30.5395C35.5231 30.5208 35.5231 30.5021 35.5238 30.4834C35.5238 30.4438 35.5238 30.3905 35.5238 30.3222C35.5238 30.1855 35.5238 29.9737 35.5238 29.71C35.5238 29.1771 35.5181 28.4091 35.5142 27.4525L35.5315 27.4758L29.632 27.488L29.657 27.4525V29.0363C29.657 29.5529 29.657 30.0557 29.657 30.5395L29.633 30.5053L33.8533 30.5203L35.0848 30.5299H35.416H35.5017H35.5325H35.5046H35.4218H35.0954L33.8696 30.5395L29.633 30.5559H29.6089V30.5217C29.6089 30.038 29.6089 29.5351 29.6089 29.0185V27.4525L29.6339 27.417L35.5335 27.4279H35.5508V27.4525C35.546 28.4091 35.5431 29.188 35.5412 29.725C35.5412 29.986 35.5412 30.1896 35.5412 30.3318C35.5412 30.3987 35.5412 30.4493 35.5412 30.4875C35.5412 30.5258 35.5238 30.5395 35.5238 30.5395Z" fill="#263238"/>
<path d="M30.0796 30.5401C30.0662 30.5401 30.0547 29.8486 30.0547 28.9959C30.0547 28.1432 30.0662 27.4531 30.0796 27.4531C30.093 27.4531 30.1045 28.1432 30.1045 28.9959C30.1045 29.8486 30.093 30.5401 30.0796 30.5401Z" fill="#263238"/>
<path d="M30.6343 30.5401C30.6209 30.5401 30.6094 29.8486 30.6094 28.9959C30.6094 28.1432 30.6209 27.4531 30.6343 27.4531C30.6477 27.4531 30.6592 28.1432 30.6592 28.9959C30.6592 29.8486 30.6486 30.5401 30.6343 30.5401Z" fill="#263238"/>
<path d="M31.1885 30.5401C31.1751 30.5401 31.1636 29.8486 31.1636 28.9959C31.1636 28.1432 31.1751 27.4531 31.1885 27.4531C31.2019 27.4531 31.2134 28.1432 31.2134 28.9959C31.2134 29.8486 31.2028 30.5401 31.1885 30.5401Z" fill="#263238"/>
<path d="M31.7441 30.5401C31.7298 30.5401 31.7192 29.8486 31.7192 28.9959C31.7192 28.1432 31.7298 27.4531 31.7441 27.4531C31.7585 27.4531 31.769 28.1432 31.769 28.9959C31.769 29.8486 31.7556 30.5401 31.7441 30.5401Z" fill="#263238"/>
<path d="M32.2983 30.5401C32.284 30.5401 32.2734 29.8486 32.2734 28.9959C32.2734 28.1432 32.284 27.4531 32.2983 27.4531C32.3127 27.4531 32.3232 28.1432 32.3232 28.9959C32.3232 29.8486 32.3117 30.5401 32.2983 30.5401Z" fill="#263238"/>
<path d="M32.853 30.5401C32.8396 30.5401 32.8281 29.8486 32.8281 28.9959C32.8281 28.1432 32.8396 27.4531 32.853 27.4531C32.8664 27.4531 32.8779 28.1432 32.8779 28.9959C32.8779 29.8486 32.8664 30.5401 32.853 30.5401Z" fill="#263238"/>
<path d="M33.4077 30.5401C33.3943 30.5401 33.3828 29.8486 33.3828 28.9959C33.3828 28.1432 33.3943 27.4531 33.4077 27.4531C33.4211 27.4531 33.4326 28.1432 33.4326 28.9959C33.4326 29.8486 33.4221 30.5401 33.4077 30.5401Z" fill="#263238"/>
<path d="M33.9619 30.5401C33.9485 30.5401 33.937 29.8486 33.937 28.9959C33.937 28.1432 33.9485 27.4531 33.9619 27.4531C33.9753 27.4531 33.9868 28.1432 33.9868 28.9959C33.9868 29.8486 33.9763 30.5401 33.9619 30.5401Z" fill="#263238"/>
<path d="M34.5171 30.5401C34.5027 30.5401 34.4912 29.8486 34.4912 28.9959C34.4912 28.1432 34.5027 27.4531 34.5171 27.4531C34.5314 27.4531 34.542 28.1432 34.542 28.9959C34.542 29.8486 34.5305 30.5401 34.5171 30.5401Z" fill="#263238"/>
<path d="M35.0723 30.5401C35.0579 30.5401 35.0474 29.8486 35.0474 28.9959C35.0474 28.1432 35.0579 27.4531 35.0723 27.4531C35.0866 27.4531 35.0972 28.1432 35.0972 28.9959C35.0972 29.8486 35.0857 30.5401 35.0723 30.5401Z" fill="#263238"/>
<path d="M25.8427 30.938H23.502V34.9733H25.8427V30.938Z" fill="#FF7775"/>
<path d="M32.3884 30.938H25.8428V34.9733H32.3884V30.938Z" fill="#FF7775"/>
<path opacity="0.4" d="M32.3884 30.938H25.8428V34.9733H32.3884V30.938Z" fill="black"/>
<path d="M24.7202 34.9734C24.7068 34.9734 24.6953 34.077 24.6953 32.9728C24.6953 31.8687 24.7068 30.9736 24.7202 30.9736C24.7336 30.9736 24.7461 31.8687 24.7461 32.9728C24.7461 34.077 24.7346 34.9734 24.7202 34.9734Z" fill="#263238"/>
<path d="M32.0209 34.5136C32.0209 34.5136 32.0209 34.4931 32.0209 34.4576C32.0209 34.4221 32.0209 34.3647 32.0209 34.2977C32.0209 34.1542 32.0209 33.9479 32.0209 33.6841C32.0209 33.1512 32.0151 32.3832 32.0113 31.4267L32.0286 31.4499L26.13 31.4622C26.1069 31.4936 26.1599 31.4185 26.1541 31.4267V33.0105C26.1541 33.527 26.1541 34.0299 26.1541 34.5136L26.13 34.4795L30.3503 34.4945L31.5818 34.504H31.9131H31.9997H32.0296H32.0026H31.9189H31.5934L30.3667 34.5136L26.13 34.53H26.106V33.0105C26.106 32.7522 26.106 32.4912 26.106 32.2261V31.4267C26.106 31.4335 26.1541 31.3583 26.132 31.3911L32.0305 31.4021H32.0479V31.4267C32.0479 32.3832 32.0402 33.1621 32.0383 33.6992C32.0383 33.9602 32.0383 34.1638 32.0383 34.3059C32.0383 34.3729 32.0383 34.4234 32.0383 34.4617C32.0335 34.4796 32.0277 34.497 32.0209 34.5136Z" fill="#263238"/>
<path d="M26.5762 34.5137C26.5628 34.5137 26.5513 33.8223 26.5513 32.9696C26.5513 32.1168 26.5628 31.4268 26.5762 31.4268C26.5896 31.4268 26.6011 32.1168 26.6011 32.9696C26.6011 33.8223 26.5905 34.5137 26.5762 34.5137Z" fill="#263238"/>
<path d="M27.1348 34.5137C27.1204 34.5137 27.1099 33.8223 27.1099 32.9696C27.1099 32.1168 27.1204 31.4268 27.1348 31.4268C27.1491 31.4268 27.1597 32.1168 27.1597 32.9696C27.1597 33.8223 27.1453 34.5137 27.1348 34.5137Z" fill="#263238"/>
<path d="M27.686 34.5137C27.6717 34.5137 27.6611 33.8223 27.6611 32.9696C27.6611 32.1168 27.6717 31.4268 27.686 31.4268C27.7004 31.4268 27.7109 32.1168 27.7109 32.9696C27.7109 33.8223 27.6994 34.5137 27.686 34.5137Z" fill="#263238"/>
<path d="M28.2407 34.5137C28.2273 34.5137 28.2158 33.8223 28.2158 32.9696C28.2158 32.1168 28.2273 31.4268 28.2407 31.4268C28.2541 31.4268 28.2656 32.1168 28.2656 32.9696C28.2656 33.8223 28.2541 34.5137 28.2407 34.5137Z" fill="#263238"/>
<path d="M28.7954 34.5137C28.782 34.5137 28.7705 33.8223 28.7705 32.9696C28.7705 32.1168 28.782 31.4268 28.7954 31.4268C28.8088 31.4268 28.8203 32.1168 28.8203 32.9696C28.8203 33.8223 28.8088 34.5137 28.7954 34.5137Z" fill="#263238"/>
<path d="M29.3491 34.5137C29.3357 34.5137 29.3242 33.8223 29.3242 32.9696C29.3242 32.1168 29.3357 31.4268 29.3491 31.4268C29.3625 31.4268 29.374 32.1168 29.374 32.9696C29.374 33.8223 29.3644 34.5137 29.3491 34.5137Z" fill="#263238"/>
<path d="M29.9043 34.5137C29.8909 34.5137 29.8794 33.8223 29.8794 32.9696C29.8794 32.1168 29.8909 31.4268 29.9043 31.4268C29.9177 31.4268 29.9301 32.1168 29.9301 32.9696C29.9301 33.8223 29.9187 34.5137 29.9043 34.5137Z" fill="#263238"/>
<path d="M30.46 34.5137C30.4456 34.5137 30.4351 33.8223 30.4351 32.9696C30.4351 32.1168 30.4456 31.4268 30.46 31.4268C30.4743 31.4268 30.4849 32.1168 30.4849 32.9696C30.4849 33.8223 30.4734 34.5137 30.46 34.5137Z" fill="#263238"/>
<path d="M31.0142 34.5137C30.9998 34.5137 30.9893 33.8223 30.9893 32.9696C30.9893 32.1168 30.9998 31.4268 31.0142 31.4268C31.0285 31.4268 31.0391 32.1168 31.0391 32.9696C31.0391 33.8223 31.0276 34.5137 31.0142 34.5137Z" fill="#263238"/>
<path d="M31.5688 34.5137C31.5554 34.5137 31.5439 33.8223 31.5439 32.9696C31.5439 32.1168 31.5554 31.4268 31.5688 31.4268C31.5822 31.4268 31.5937 32.1168 31.5937 32.9696C31.5937 33.8223 31.5822 34.5137 31.5688 34.5137Z" fill="#263238"/>
<path d="M32.4203 30.9219H30.0796V34.9572H32.4203V30.9219Z" fill="#455A64"/>
<path d="M38.9656 30.9219H32.4199V34.9572H38.9656V30.9219Z" fill="#455A64"/>
<path d="M31.2983 34.9558C31.2849 34.9558 31.2734 34.0608 31.2734 32.9566C31.2734 31.8525 31.2849 30.9561 31.2983 30.9561C31.3117 30.9561 31.3232 31.8511 31.3232 32.9566C31.3232 34.0621 31.3117 34.9558 31.2983 34.9558Z" fill="#263238"/>
<path d="M32.4199 34.9558C32.4065 34.9558 32.395 34.0608 32.395 32.9566C32.395 31.8525 32.4065 30.9561 32.4199 30.9561C32.4333 30.9561 32.4448 31.8511 32.4448 32.9566C32.4448 34.0621 32.4343 34.9558 32.4199 34.9558Z" fill="#263238"/>
<path d="M38.5986 34.4952C38.5971 34.4766 38.5971 34.4578 38.5986 34.4392C38.5986 34.3996 38.5986 34.3477 38.5986 34.2793C38.5986 34.1358 38.5986 33.9309 38.5986 33.6671C38.5986 33.1328 38.5928 32.3648 38.5889 31.4083L38.6063 31.4329L32.7067 31.4438L32.7317 31.4083V32.9907C32.7317 33.5059 32.7317 34.0088 32.7317 34.4939L32.7077 34.4597L36.928 34.4761L38.1595 34.4857H38.4907H38.5764H38.6072H38.5793H38.4965H38.1701L36.9443 34.4952L32.7077 34.5103H32.6836V34.4761C32.6836 33.9924 32.6836 33.4895 32.6836 32.9729V31.411L32.7086 31.3755L38.6082 31.3864H38.6246V31.411C38.6246 32.3744 38.6178 33.1479 38.6159 33.6835C38.6159 33.9459 38.6159 34.1495 38.6159 34.2916C38.6159 34.3572 38.6159 34.4091 38.6159 34.4474C38.6159 34.4857 38.5986 34.4966 38.5986 34.4952Z" fill="#263238"/>
<path d="M33.1543 34.4947C33.1409 34.4947 33.1294 33.8032 33.1294 32.9519C33.1294 32.1005 33.1409 31.4077 33.1543 31.4077C33.1677 31.4077 33.1792 32.0992 33.1792 32.9519C33.1792 33.8046 33.1677 34.4947 33.1543 34.4947Z" fill="#263238"/>
<path d="M33.709 34.4947C33.6956 34.4947 33.6841 33.8032 33.6841 32.9519C33.6841 32.1005 33.6956 31.4077 33.709 31.4077C33.7224 31.4077 33.7339 32.0992 33.7339 32.9519C33.7339 33.8046 33.7224 34.4947 33.709 34.4947Z" fill="#263238"/>
<path d="M34.2637 34.4947C34.2503 34.4947 34.2388 33.8032 34.2388 32.9519C34.2388 32.1005 34.2503 31.4077 34.2637 31.4077C34.2771 31.4077 34.2886 32.0992 34.2886 32.9519C34.2886 33.8046 34.278 34.4947 34.2637 34.4947Z" fill="#263238"/>
<path d="M34.8179 34.4947C34.8045 34.4947 34.793 33.8032 34.793 32.9519C34.793 32.1005 34.8045 31.4077 34.8179 31.4077C34.8313 31.4077 34.8428 32.0992 34.8428 32.9519C34.8428 33.8046 34.8361 34.4947 34.8179 34.4947Z" fill="#263238"/>
<path d="M35.3735 34.4947C35.3592 34.4947 35.3486 33.8032 35.3486 32.9519C35.3486 32.1005 35.3592 31.4077 35.3735 31.4077C35.3879 31.4077 35.3984 32.0992 35.3984 32.9519C35.3984 33.8046 35.3869 34.4947 35.3735 34.4947Z" fill="#263238"/>
<path d="M35.9277 34.4947C35.9134 34.4947 35.9028 33.8032 35.9028 32.9519C35.9028 32.1005 35.9134 31.4077 35.9277 31.4077C35.9421 31.4077 35.9526 32.0992 35.9526 32.9519C35.9526 33.8046 35.9411 34.4947 35.9277 34.4947Z" fill="#263238"/>
<path d="M36.4824 34.4947C36.469 34.4947 36.4575 33.8032 36.4575 32.9519C36.4575 32.1005 36.469 31.4077 36.4824 31.4077C36.4958 31.4077 36.5073 32.0992 36.5073 32.9519C36.5073 33.8046 36.4958 34.4947 36.4824 34.4947Z" fill="#263238"/>
<path d="M37.0371 34.4947C37.0237 34.4947 37.0122 33.8032 37.0122 32.9519C37.0122 32.1005 37.0237 31.4077 37.0371 31.4077C37.0505 31.4077 37.062 32.0992 37.062 32.9519C37.062 33.8046 37.0505 34.4947 37.0371 34.4947Z" fill="#263238"/>
<path d="M37.5913 34.4947C37.5779 34.4947 37.5664 33.8032 37.5664 32.9519C37.5664 32.1005 37.5779 31.4077 37.5913 31.4077C37.6047 31.4077 37.6162 32.0992 37.6162 32.9519C37.6162 33.8046 37.6057 34.4947 37.5913 34.4947Z" fill="#263238"/>
<path d="M38.1455 34.4947C38.1321 34.4947 38.1206 33.8032 38.1206 32.9519C38.1206 32.1005 38.1321 31.4077 38.1455 31.4077C38.1589 31.4077 38.1714 32.0992 38.1714 32.9519C38.1714 33.8046 38.1599 34.4947 38.1455 34.4947Z" fill="#263238"/>
<path d="M11.768 24.8164H9.42725V28.8517H11.768V24.8164Z" fill="#455A64"/>
<path d="M18.3142 24.8164H11.7686V28.8517H18.3142V24.8164Z" fill="#455A64"/>
<path d="M10.6465 28.8494C10.6321 28.8494 10.6216 27.9543 10.6216 26.8502C10.6216 25.746 10.6321 24.8496 10.6465 24.8496C10.6608 24.8496 10.6714 25.7447 10.6714 26.8502C10.6714 27.9557 10.6599 28.8494 10.6465 28.8494Z" fill="#263238"/>
<path d="M11.7681 28.8494C11.7547 28.8494 11.7432 27.9543 11.7432 26.8502C11.7432 25.746 11.7547 24.8496 11.7681 24.8496C11.7815 24.8496 11.793 25.7447 11.793 26.8502C11.793 27.9557 11.7815 28.8494 11.7681 28.8494Z" fill="#263238"/>
<path d="M17.9465 28.3898C17.9465 28.3898 17.9465 28.3706 17.9465 28.3337C17.9465 28.2969 17.9465 28.2422 17.9465 28.1739C17.9465 28.0304 17.9465 27.8254 17.9465 27.5617C17.9465 27.0287 17.9417 26.2594 17.9379 25.3028L17.9543 25.3274L12.0557 25.3384L12.0807 25.3028V25.7019C12.0807 25.8385 12.0807 25.9683 12.0807 26.1009V28.387L12.0566 28.3529L16.2769 28.3693L17.5075 28.3788H17.8387H17.9254H17.9552C17.9463 28.3802 17.9372 28.3802 17.9283 28.3788H17.8445H17.519L16.2933 28.3884L12.0566 28.4034H12.021V26.0804C12.021 25.9437 12.021 25.8153 12.021 25.6813V25.3069C12.021 25.3151 12.0691 25.24 12.047 25.2714L17.9456 25.2837H17.9629V25.3069C17.9629 26.2635 17.9562 27.0438 17.9533 27.5794C17.9533 27.8418 17.9533 28.0454 17.9533 28.1875C17.9533 28.2531 17.9533 28.3051 17.9533 28.3433C17.9524 28.3591 17.9502 28.3747 17.9465 28.3898Z" fill="#263238"/>
<path d="M12.5019 28.3902C12.4876 28.3902 12.4771 27.7001 12.4771 26.8474C12.4771 25.9947 12.4876 25.3032 12.5019 25.3032C12.5163 25.3032 12.5268 25.9947 12.5268 26.8474C12.5268 27.7001 12.5163 28.3902 12.5019 28.3902Z" fill="#263238"/>
<path d="M13.0571 28.3902C13.0428 28.3902 13.0322 27.7001 13.0322 26.8474C13.0322 25.9947 13.0428 25.3032 13.0571 25.3032C13.0715 25.3032 13.082 25.9947 13.082 26.8474C13.082 27.7001 13.0705 28.3902 13.0571 28.3902Z" fill="#263238"/>
<path d="M13.6118 28.3902C13.5984 28.3902 13.5869 27.7001 13.5869 26.8474C13.5869 25.9947 13.5984 25.3032 13.6118 25.3032C13.6252 25.3032 13.6367 25.9947 13.6367 26.8474C13.6367 27.7001 13.6252 28.3902 13.6118 28.3902Z" fill="#263238"/>
<path d="M14.1665 28.3902C14.1531 28.3902 14.1416 27.7001 14.1416 26.8474C14.1416 25.9947 14.1531 25.3032 14.1665 25.3032C14.1799 25.3032 14.1914 25.9947 14.1914 26.8474C14.1914 27.7001 14.1809 28.3902 14.1665 28.3902Z" fill="#263238"/>
<path d="M14.7207 28.3902C14.7073 28.3902 14.6958 27.7001 14.6958 26.8474C14.6958 25.9947 14.7073 25.3032 14.7207 25.3032C14.7341 25.3032 14.7456 25.9947 14.7456 26.8474C14.7456 27.7001 14.7351 28.3902 14.7207 28.3902Z" fill="#263238"/>
<path d="M15.2763 28.3902C15.262 28.3902 15.2505 27.7001 15.2505 26.8474C15.2505 25.9947 15.262 25.3032 15.2763 25.3032C15.2907 25.3032 15.3012 25.9947 15.3012 26.8474C15.3012 27.7001 15.2936 28.3902 15.2763 28.3902Z" fill="#263238"/>
<path d="M15.831 28.3902C15.8167 28.3902 15.8062 27.7001 15.8062 26.8474C15.8062 25.9947 15.8167 25.3032 15.831 25.3032C15.8454 25.3032 15.8559 25.9947 15.8559 26.8474C15.8559 27.7001 15.8445 28.3902 15.831 28.3902Z" fill="#263238"/>
<path d="M16.3852 28.3902C16.3709 28.3902 16.3604 27.7001 16.3604 26.8474C16.3604 25.9947 16.3709 25.3032 16.3852 25.3032C16.3996 25.3032 16.4101 25.9947 16.4101 26.8474C16.4101 27.7001 16.3987 28.3902 16.3852 28.3902Z" fill="#263238"/>
<path d="M16.9399 28.3902C16.9265 28.3902 16.915 27.7001 16.915 26.8474C16.915 25.9947 16.9265 25.3032 16.9399 25.3032C16.9533 25.3032 16.9648 25.9947 16.9648 26.8474C16.9648 27.7001 16.9533 28.3902 16.9399 28.3902Z" fill="#263238"/>
<path d="M17.4946 28.3902C17.4812 28.3902 17.4697 27.7001 17.4697 26.8474C17.4697 25.9947 17.4812 25.3032 17.4946 25.3032C17.508 25.3032 17.5195 25.9947 17.5195 26.8474C17.5195 27.7001 17.508 28.3902 17.4946 28.3902Z" fill="#263238"/>
<path d="M32.5698 26.835H30.229V30.8703H32.5698V26.835Z" fill="#263238"/>
<path d="M39.1145 26.835H32.5688V30.8703H39.1145V26.835Z" fill="#263238"/>
<path d="M31.4473 30.8689C31.4329 30.8689 31.4224 29.9739 31.4224 28.8697C31.4224 27.7656 31.4329 26.8691 31.4473 26.8691C31.4616 26.8691 31.4722 27.7642 31.4722 28.8697C31.4722 29.9752 31.4607 30.8689 31.4473 30.8689Z" fill="#455A64"/>
<path d="M32.5693 30.8689C32.5559 30.8689 32.5444 29.9739 32.5444 28.8697C32.5444 27.7656 32.5559 26.8691 32.5693 26.8691C32.5827 26.8691 32.5942 27.7642 32.5942 28.8697C32.5942 29.9752 32.5827 30.8689 32.5693 30.8689Z" fill="#455A64"/>
<path d="M38.7469 30.4076C38.7469 30.4076 38.7469 30.3885 38.7469 30.3516C38.7469 30.3147 38.7469 30.2601 38.7469 30.1917C38.7469 30.0482 38.7469 29.8433 38.7421 29.5795C38.7421 29.0466 38.7421 28.2772 38.7334 27.3207L38.7498 27.3453L32.8512 27.3562C32.829 27.389 32.881 27.3139 32.8762 27.3221V28.1201C32.8762 28.3838 32.8762 28.6462 32.8762 28.9045V30.4076L32.8522 30.3735L37.0724 30.3899L38.304 30.3994H38.6342H38.7209H38.7507C38.7418 30.4017 38.7327 30.4017 38.7238 30.3994H38.641H38.3146L37.0888 30.409L32.8522 30.4254H32.8281V30.3899C32.8281 29.9061 32.8281 29.4046 32.8281 28.8867V27.3234C32.8223 27.3303 32.8753 27.2551 32.8531 27.2865L38.7517 27.2988H38.769V27.3221C38.769 28.2854 38.7623 29.0589 38.7604 29.5946C38.7604 29.8569 38.7604 30.0605 38.7556 30.2027C38.7556 30.2683 38.7556 30.3202 38.7556 30.3584C38.7542 30.3753 38.7513 30.3919 38.7469 30.4076Z" fill="#455A64"/>
<path d="M33.3032 30.4077C33.2889 30.4077 33.2783 29.7177 33.2783 28.865C33.2783 28.0123 33.2889 27.3208 33.3032 27.3208C33.3176 27.3208 33.3281 28.0123 33.3281 28.865C33.3281 29.7177 33.3166 30.4077 33.3032 30.4077Z" fill="#455A64"/>
<path d="M33.8584 30.4077C33.845 30.4077 33.8335 29.7177 33.8335 28.865C33.8335 28.0123 33.845 27.3208 33.8584 27.3208C33.8718 27.3208 33.8833 28.0123 33.8833 28.865C33.8833 29.7177 33.8737 30.4077 33.8584 30.4077Z" fill="#455A64"/>
<path d="M34.4126 30.4077C34.3992 30.4077 34.3877 29.7177 34.3877 28.865C34.3877 28.0123 34.3992 27.3208 34.4126 27.3208C34.426 27.3208 34.4375 28.0123 34.4375 28.865C34.4375 29.7177 34.426 30.4077 34.4126 30.4077Z" fill="#455A64"/>
<path d="M34.9673 30.4077C34.9539 30.4077 34.9424 29.7177 34.9424 28.865C34.9424 28.0123 34.9539 27.3208 34.9673 27.3208C34.9807 27.3208 34.9922 28.0123 34.9922 28.865C34.9922 29.7177 34.9816 30.4077 34.9673 30.4077Z" fill="#455A64"/>
<path d="M35.5215 30.4077C35.5081 30.4077 35.4966 29.7177 35.4966 28.865C35.4966 28.0123 35.5081 27.3208 35.5215 27.3208C35.5349 27.3208 35.5464 28.0123 35.5464 28.865C35.5464 29.7177 35.5358 30.4077 35.5215 30.4077Z" fill="#455A64"/>
<path d="M36.0771 30.4077C36.0628 30.4077 36.0522 29.7177 36.0522 28.865C36.0522 28.0123 36.0628 27.3208 36.0771 27.3208C36.0915 27.3208 36.102 28.0123 36.102 28.865C36.102 29.7177 36.0877 30.4077 36.0771 30.4077Z" fill="#455A64"/>
<path d="M36.6313 30.4077C36.617 30.4077 36.6064 29.7177 36.6064 28.865C36.6064 28.0123 36.617 27.3208 36.6313 27.3208C36.6457 27.3208 36.6562 28.0123 36.6562 28.865C36.6562 29.7177 36.6447 30.4077 36.6313 30.4077Z" fill="#455A64"/>
<path d="M37.186 30.4077C37.1726 30.4077 37.1611 29.7177 37.1611 28.865C37.1611 28.0123 37.1726 27.3208 37.186 27.3208C37.1994 27.3208 37.2109 28.0123 37.2109 28.865C37.2109 29.7177 37.1994 30.4077 37.186 30.4077Z" fill="#455A64"/>
<path d="M37.7407 30.4077C37.7273 30.4077 37.7158 29.7177 37.7158 28.865C37.7158 28.0123 37.7273 27.3208 37.7407 27.3208C37.7541 27.3208 37.7656 28.0123 37.7656 28.865C37.7656 29.7177 37.7551 30.4077 37.7407 30.4077Z" fill="#455A64"/>
<path d="M38.2954 30.4077C38.282 30.4077 38.2705 29.7177 38.2705 28.865C38.2705 28.0123 38.282 27.3208 38.2954 27.3208C38.3088 27.3208 38.3203 28.0123 38.3203 28.865C38.3203 29.7177 38.3098 30.4077 38.2954 30.4077Z" fill="#455A64"/>
<path d="M32.9365 34.9556H30.5957V38.9909H32.9365V34.9556Z" fill="#FF7775"/>
<path d="M39.4827 34.9556H32.937V38.9909H39.4827V34.9556Z" fill="#FF7775"/>
<path opacity="0.4" d="M39.4827 34.9556H32.937V38.9909H39.4827V34.9556Z" fill="black"/>
<path d="M31.8149 38.9914C31.8006 38.9914 31.79 38.095 31.79 36.9908C31.79 35.8867 31.8006 34.9902 31.8149 34.9902C31.8293 34.9902 31.8398 35.8867 31.8398 36.9908C31.8398 38.095 31.8283 38.9914 31.8149 38.9914Z" fill="#263238"/>
<path d="M39.1147 38.5312C39.1147 38.5312 39.1147 38.5107 39.1147 38.4752C39.1147 38.4396 39.1147 38.3822 39.1147 38.3139C39.1147 38.1773 39.1147 37.9655 39.1147 37.7017C39.1147 37.1688 39.1099 36.4008 39.106 35.4442L39.1224 35.4675L33.2238 35.4798L33.2488 35.4442V35.846C33.2488 35.9826 33.2488 36.1125 33.2488 36.2437V38.5312L33.2238 38.497L37.445 38.5121L38.6756 38.5216H39.0068H39.0935H39.1233H39.0964H39.0126H38.6872L37.4614 38.5312L33.2248 38.5476H33.2007V37.028C33.2007 36.7698 33.2007 36.5088 33.2007 36.2437V35.4442C33.2007 35.4511 33.2488 35.3759 33.2267 35.4087L39.1253 35.4196H39.1426V35.4442C39.1426 36.4008 39.1359 37.1797 39.133 37.7168C39.133 37.9778 39.133 38.1814 39.133 38.3235C39.133 38.3891 39.133 38.441 39.133 38.4793C39.1286 38.4977 39.1225 38.5152 39.1147 38.5312Z" fill="#263238"/>
<path d="M33.6714 38.5313C33.657 38.5313 33.6465 37.8398 33.6465 36.9871C33.6465 36.1344 33.657 35.4443 33.6714 35.4443C33.6857 35.4443 33.6963 36.1344 33.6963 36.9871C33.6963 37.8398 33.681 38.5313 33.6714 38.5313Z" fill="#263238"/>
<path d="M34.2261 38.5313C34.2117 38.5313 34.2012 37.8398 34.2012 36.9871C34.2012 36.1344 34.2117 35.4443 34.2261 35.4443C34.2404 35.4443 34.251 36.1344 34.251 36.9871C34.251 37.8398 34.2395 38.5313 34.2261 38.5313Z" fill="#263238"/>
<path d="M34.7803 38.5313C34.7669 38.5313 34.7554 37.8398 34.7554 36.9871C34.7554 36.1344 34.7669 35.4443 34.7803 35.4443C34.7937 35.4443 34.8052 36.1344 34.8052 36.9871C34.8052 37.8398 34.7937 38.5313 34.7803 38.5313Z" fill="#263238"/>
<path d="M35.335 38.5313C35.3215 38.5313 35.3101 37.8398 35.3101 36.9871C35.3101 36.1344 35.3215 35.4443 35.335 35.4443C35.3484 35.4443 35.3599 36.1344 35.3599 36.9871C35.3599 37.8398 35.3484 38.5313 35.335 38.5313Z" fill="#263238"/>
<path d="M35.8892 38.5313C35.8757 38.5313 35.8643 37.8398 35.8643 36.9871C35.8643 36.1344 35.8757 35.4443 35.8892 35.4443C35.9026 35.4443 35.9141 36.1344 35.9141 36.9871C35.9141 37.8398 35.9035 38.5313 35.8892 38.5313Z" fill="#263238"/>
<path d="M36.4443 38.5313C36.4309 38.5313 36.4194 37.8398 36.4194 36.9871C36.4194 36.1344 36.4309 35.4443 36.4443 35.4443C36.4577 35.4443 36.4702 36.1344 36.4702 36.9871C36.4702 37.8398 36.4587 38.5313 36.4443 38.5313Z" fill="#263238"/>
<path d="M36.9995 38.5313C36.9851 38.5313 36.9746 37.8398 36.9746 36.9871C36.9746 36.1344 36.9851 35.4443 36.9995 35.4443C37.0139 35.4443 37.0244 36.1344 37.0244 36.9871C37.0244 37.8398 37.0129 38.5313 36.9995 38.5313Z" fill="#263238"/>
<path d="M37.5542 38.5313C37.5398 38.5313 37.5293 37.8398 37.5293 36.9871C37.5293 36.1344 37.5398 35.4443 37.5542 35.4443C37.5686 35.4443 37.5791 36.1344 37.5791 36.9871C37.5791 37.8398 37.5676 38.5313 37.5542 38.5313Z" fill="#263238"/>
<path d="M38.1094 38.5313C38.096 38.5313 38.0845 37.8398 38.0845 36.9871C38.0845 36.1344 38.096 35.4443 38.1094 35.4443C38.1228 35.4443 38.1343 36.1344 38.1343 36.9871C38.1343 37.8398 38.1218 38.5313 38.1094 38.5313Z" fill="#263238"/>
<path d="M38.6626 38.5313C38.6492 38.5313 38.6377 37.8398 38.6377 36.9871C38.6377 36.1344 38.6492 35.4443 38.6626 35.4443C38.676 35.4443 38.6875 36.1344 38.6875 36.9871C38.6875 37.8398 38.677 38.5313 38.6626 38.5313Z" fill="#263238"/>
<path d="M29.4716 37.743H29.4388H29.3426L28.9748 37.7499L27.6203 37.7608L23.1535 37.7717C20.843 37.7717 18.8214 37.7649 17.7432 37.754L17.7557 37.7362C17.7557 38.1462 17.7557 38.4687 17.7499 38.6928C17.7499 38.798 17.7499 38.8813 17.7499 38.9415C17.7499 38.9661 17.7499 38.9879 17.7499 39.0043C17.7499 39.0207 17.7499 39.0262 17.7499 39.0262C17.7499 39.0262 17.7499 39.0194 17.7499 39.0043V38.9415C17.7499 38.8813 17.7499 38.798 17.7499 38.6928C17.7499 38.4687 17.7499 38.1462 17.7441 37.7362V37.7184H17.7576C18.8387 37.7075 20.8584 37.7007 23.1679 37.7007L27.6348 37.7116L28.9893 37.7225L29.357 37.7294H29.4533L29.4716 37.743Z" fill="#263238"/>
<path d="M28.499 38.8853C28.4658 38.5091 28.4658 38.1286 28.499 37.7524C28.5322 38.1286 28.5322 38.5091 28.499 38.8853Z" fill="#263238"/>
<path d="M26.8603 38.8853C26.8272 38.5091 26.8272 38.1286 26.8603 37.7524C26.8935 38.1286 26.8935 38.5091 26.8603 38.8853Z" fill="#263238"/>
<path d="M25.2222 38.8853C25.189 38.5091 25.189 38.1286 25.2222 37.7524C25.2554 38.1286 25.2554 38.5091 25.2222 38.8853Z" fill="#263238"/>
<path d="M23.5825 38.8853C23.5493 38.5091 23.5493 38.1286 23.5825 37.7524C23.6157 38.1286 23.6157 38.5091 23.5825 38.8853Z" fill="#263238"/>
<path d="M21.9438 38.8853C21.9106 38.5091 21.9106 38.1286 21.9438 37.7524C21.977 38.1286 21.977 38.5091 21.9438 38.8853Z" fill="#263238"/>
<path d="M20.3056 38.8853C20.2712 38.5093 20.2712 38.1285 20.3056 37.7524C20.3388 38.1286 20.3388 38.5091 20.3056 38.8853Z" fill="#263238"/>
<path d="M18.6631 38.8853C18.6299 38.5091 18.6299 38.1286 18.6631 37.7524C18.6963 38.1286 18.6963 38.5091 18.6631 38.8853Z" fill="#263238"/>
<path d="M41.1987 38.8416C41.1974 38.818 41.1974 38.7942 41.1987 38.7706C41.1987 38.7205 41.1987 38.6508 41.1987 38.5615C41.1987 38.3716 41.1987 38.0983 41.1929 37.7416L41.2045 37.7594C40.1734 37.7703 38.1046 37.7771 35.7268 37.7771L31.3071 37.7676L29.968 37.7553H29.6031H29.5069C29.4963 37.757 29.4856 37.757 29.4751 37.7553H29.5069H29.6031L29.968 37.7484L31.3071 37.7375L35.7268 37.7266C38.1046 37.7266 40.1734 37.7348 41.2045 37.7457H41.217V37.7416C41.217 38.0942 41.217 38.3675 41.217 38.5615C41.217 38.6503 41.217 38.72 41.217 38.7706C41.2123 38.7949 41.2061 38.8187 41.1987 38.8416Z" fill="#263238"/>
<path d="M36.9541 38.8882C36.9209 38.5121 36.9209 38.1315 36.9541 37.7554C36.9873 38.1315 36.9873 38.5121 36.9541 38.8882Z" fill="#263238"/>
<path d="M35.311 38.8882C35.2778 38.5121 35.2778 38.1315 35.311 37.7554C35.3442 38.1315 35.3442 38.5121 35.311 38.8882Z" fill="#263238"/>
<path d="M33.6714 38.8882C33.6382 38.5121 33.6382 38.1315 33.6714 37.7554C33.7058 38.1314 33.7058 38.5122 33.6714 38.8882Z" fill="#263238"/>
<path d="M32.0327 38.8882C31.9995 38.5121 31.9995 38.1315 32.0327 37.7554C32.0659 38.1315 32.0659 38.5121 32.0327 38.8882Z" fill="#263238"/>
<path d="M30.3945 38.8882C30.3613 38.5121 30.3613 38.1315 30.3945 37.7554C30.4277 38.1315 30.4277 38.5121 30.3945 38.8882Z" fill="#263238"/>
<path d="M17.5342 37.1292C17.5329 37.1056 17.5329 37.0818 17.5342 37.0582C17.5342 37.0071 17.5342 36.9375 17.5342 36.8491C17.5342 36.6591 17.5342 36.3858 17.5284 36.0292L17.5399 36.0456C16.4511 36.0565 14.2013 36.0647 11.6088 36.0647C9.11644 36.0647 6.94269 36.0579 5.8125 36.0469L5.82501 36.0292C5.82501 36.4391 5.82501 36.7644 5.81924 36.9857C5.81924 37.0923 5.81924 37.1743 5.81924 37.2344C5.81924 37.2946 5.81924 37.3192 5.81924 37.3192C5.8182 37.2909 5.8182 37.2627 5.81924 37.2344C5.81924 37.1743 5.81924 37.0978 5.81924 36.9857C5.81924 36.7644 5.81924 36.4391 5.81346 36.0292V36.0114H5.82598C6.95617 36.0005 9.12992 35.9937 11.6223 35.9937C14.2148 35.9937 16.4646 36.0019 17.5534 36.0128H17.565V36.0292C17.565 36.3817 17.565 36.655 17.565 36.8491C17.565 36.9402 17.565 37.0099 17.565 37.0582C17.5567 37.0835 17.5463 37.1073 17.5342 37.1292Z" fill="#263238"/>
<path d="M16.562 37.1758C16.5288 36.7997 16.5288 36.4191 16.562 36.043C16.5952 36.4191 16.5952 36.7997 16.562 37.1758Z" fill="#263238"/>
<path d="M14.9243 37.1758C14.8911 36.7997 14.8911 36.4191 14.9243 36.043C14.9575 36.4191 14.9575 36.7997 14.9243 37.1758Z" fill="#263238"/>
<path d="M13.2847 37.1758C13.2515 36.7997 13.2515 36.4191 13.2847 36.043C13.3179 36.4191 13.3179 36.7997 13.2847 37.1758Z" fill="#263238"/>
<path d="M11.646 37.1758C11.6128 36.7997 11.6128 36.4191 11.646 36.043C11.6792 36.4191 11.6792 36.7997 11.646 37.1758Z" fill="#263238"/>
<path d="M10.0073 37.1758C9.97412 36.7997 9.97412 36.4191 10.0073 36.043C10.0405 36.4191 10.0405 36.7997 10.0073 37.1758Z" fill="#263238"/>
<path d="M8.36816 37.1758C8.33496 36.7997 8.33496 36.4191 8.36816 36.043C8.40136 36.4191 8.40136 36.7997 8.36816 37.1758Z" fill="#263238"/>
<path d="M6.72607 37.1758C6.69287 36.7997 6.69287 36.4191 6.72607 36.043C6.75927 36.4191 6.75927 36.7997 6.72607 37.1758Z" fill="#263238"/>
<path d="M11.768 28.8511H9.42725V32.8864H11.768V28.8511Z" fill="#FF7775"/>
<path d="M18.3142 28.8511H11.7686V32.8864H18.3142V28.8511Z" fill="#FF7775"/>
<path opacity="0.4" d="M18.3142 28.8511H11.7686V32.8864H18.3142V28.8511Z" fill="black"/>
<path d="M10.6465 32.8869C10.6321 32.8869 10.6216 31.9905 10.6216 30.8863C10.6216 29.7822 10.6321 28.8857 10.6465 28.8857C10.6608 28.8857 10.6714 29.7822 10.6714 30.8863C10.6714 31.9905 10.6599 32.8869 10.6465 32.8869Z" fill="#263238"/>
<path d="M17.9465 32.4258C17.9465 32.4258 17.9465 32.4053 17.9465 32.3698C17.9465 32.3343 17.9465 32.2769 17.9465 32.2085C17.9465 32.0719 17.9465 31.8601 17.9465 31.5963C17.9465 31.0634 17.9417 30.2954 17.9379 29.3389L17.9543 29.3621L12.0557 29.3744L12.0807 29.3389V29.7406C12.0807 29.8773 12.0807 30.0071 12.0807 30.1383V32.4258L12.0566 32.3917L16.2769 32.4067L17.5075 32.4162H17.8387H17.9254C17.9353 32.4151 17.9453 32.4151 17.9552 32.4162H17.9283H17.8445H17.519L16.2933 32.4258L12.0566 32.4422H12.021V30.1191C12.021 29.9825 12.021 29.854 12.021 29.7215V29.3197C12.021 29.3266 12.0691 29.2514 12.047 29.2842L17.9456 29.2951H17.9629V29.3197C17.9629 30.2763 17.9562 31.0552 17.9533 31.5922C17.9533 31.8532 17.9533 32.0569 17.9533 32.199C17.9533 32.2646 17.9533 32.3165 17.9533 32.3548C17.954 32.3788 17.9517 32.4029 17.9465 32.4258Z" fill="#263238"/>
<path d="M12.5019 32.4273C12.4876 32.4273 12.4771 31.7358 12.4771 30.8831C12.4771 30.0304 12.4876 29.3403 12.5019 29.3403C12.5163 29.3403 12.5268 30.0304 12.5268 30.8831C12.5268 31.7358 12.5163 32.4273 12.5019 32.4273Z" fill="#263238"/>
<path d="M13.0571 32.4273C13.0428 32.4273 13.0322 31.7358 13.0322 30.8831C13.0322 30.0304 13.0428 29.3403 13.0571 29.3403C13.0715 29.3403 13.082 30.0304 13.082 30.8831C13.082 31.7358 13.0705 32.4273 13.0571 32.4273Z" fill="#263238"/>
<path d="M13.6118 32.4273C13.5984 32.4273 13.5869 31.7358 13.5869 30.8831C13.5869 30.0304 13.5984 29.3403 13.6118 29.3403C13.6252 29.3403 13.6367 30.0304 13.6367 30.8831C13.6367 31.7358 13.6252 32.4273 13.6118 32.4273Z" fill="#263238"/>
<path d="M14.1665 32.4273C14.1531 32.4273 14.1416 31.7358 14.1416 30.8831C14.1416 30.0304 14.1531 29.3403 14.1665 29.3403C14.1799 29.3403 14.1914 30.0304 14.1914 30.8831C14.1914 31.7358 14.1809 32.4273 14.1665 32.4273Z" fill="#263238"/>
<path d="M14.7207 32.4273C14.7073 32.4273 14.6958 31.7358 14.6958 30.8831C14.6958 30.0304 14.7073 29.3403 14.7207 29.3403C14.7341 29.3403 14.7456 30.0304 14.7456 30.8831C14.7456 31.7358 14.7351 32.4273 14.7207 32.4273Z" fill="#263238"/>
<path d="M15.2763 32.4273C15.262 32.4273 15.2505 31.7358 15.2505 30.8831C15.2505 30.0304 15.262 29.3403 15.2763 29.3403C15.2907 29.3403 15.3012 30.0304 15.3012 30.8831C15.3012 31.7358 15.2936 32.4273 15.2763 32.4273Z" fill="#263238"/>
<path d="M15.831 32.4273C15.8167 32.4273 15.8062 31.7358 15.8062 30.8831C15.8062 30.0304 15.8167 29.3403 15.831 29.3403C15.8454 29.3403 15.8559 30.0304 15.8559 30.8831C15.8559 31.7358 15.8445 32.4273 15.831 32.4273Z" fill="#263238"/>
<path d="M16.3852 32.4273C16.3709 32.4273 16.3604 31.7358 16.3604 30.8831C16.3604 30.0304 16.3709 29.3403 16.3852 29.3403C16.3996 29.3403 16.4101 30.0304 16.4101 30.8831C16.4101 31.7358 16.3987 32.4273 16.3852 32.4273Z" fill="#263238"/>
<path d="M16.9399 32.4273C16.9265 32.4273 16.915 31.7358 16.915 30.8831C16.915 30.0304 16.9265 29.3403 16.9399 29.3403C16.9533 29.3403 16.9648 30.0304 16.9648 30.8831C16.9648 31.7358 16.9533 32.4273 16.9399 32.4273Z" fill="#263238"/>
<path d="M17.4946 32.4273C17.4812 32.4273 17.4697 31.7358 17.4697 30.8831C17.4697 30.0304 17.4812 29.3403 17.4946 29.3403C17.508 29.3403 17.5195 30.0304 17.5195 30.8831C17.5195 31.7358 17.508 32.4273 17.4946 32.4273Z" fill="#263238"/>
<path d="M41.2817 38.9471V29.6958H47.7455V39.0318" fill="#455A64"/>
<path d="M46.0198 37.8354H45.6597V38.9478H46.0198V37.8354Z" fill="#263238"/>
<path d="M42.0305 36.3359H41.8042V37.1299H42.0305V36.3359Z" fill="#263238"/>
<path d="M42.0305 37.7412H41.8042V38.5352H42.0305V37.7412Z" fill="#263238"/>
<path d="M43.3293 36.3359H43.103V37.1299H43.3293V36.3359Z" fill="#263238"/>
<path d="M43.3293 37.7305H43.103V38.5244H43.3293V37.7305Z" fill="#263238"/>
<path d="M44.6276 36.3359H44.4014V37.1299H44.6276V36.3359Z" fill="#263238"/>
<path d="M44.6276 37.7197H44.4014V38.5137H44.6276V37.7197Z" fill="#263238"/>
<path d="M45.9265 36.3359H45.7002V37.1299H45.9265V36.3359Z" fill="#263238"/>
<path d="M47.2243 36.3359H46.998V37.1299H47.2243V36.3359Z" fill="#263238"/>
<path d="M47.2243 37.6729H46.998V38.4668H47.2243V37.6729Z" fill="#263238"/>
<path d="M45.9929 32.7944H45.6328V33.9068H45.9929V32.7944Z" fill="#263238"/>
<path d="M42.0305 30.6655H41.8042V31.4595H42.0305V30.6655Z" fill="#263238"/>
<path d="M42.0305 32.0713H41.8042V32.8652H42.0305V32.0713Z" fill="#263238"/>
<path d="M43.3293 30.6655H43.103V31.4595H43.3293V30.6655Z" fill="#263238"/>
<path d="M43.3293 32.0586H43.103V32.8525H43.3293V32.0586Z" fill="#263238"/>
<path d="M44.6276 30.6655H44.4014V31.4595H44.6276V30.6655Z" fill="#263238"/>
<path d="M44.6276 32.0483H44.4014V32.8423H44.6276V32.0483Z" fill="#263238"/>
<path d="M45.9265 30.6655H45.7002V31.4595H45.9265V30.6655Z" fill="#263238"/>
<path d="M47.2243 30.6655H46.998V31.4595H47.2243V30.6655Z" fill="#263238"/>
<path d="M47.2243 32.001H46.998V32.7949H47.2243V32.001Z" fill="#263238"/>
<path d="M11.5029 47.7003C11.5029 47.7003 12.5137 42.442 8.85936 41.2449C5.44182 40.1258 5.52557 37.1304 5.52557 37.1304H17.769V38.9478H49.993C49.993 38.9478 49.8178 44.8389 46.794 47.7003" fill="#455A64"/>
<path d="M11.5881 45.231H48.5167C48.5167 45.231 47.4963 47.1905 46.7935 47.6989H11.5024C11.5839 46.8817 11.6126 46.0556 11.5881 45.231Z" fill="#263238"/>
<path d="M47.5629 33.908C47.5587 33.8742 47.557 33.8398 47.5581 33.8055C47.5581 33.7331 47.5581 33.6347 47.5581 33.5117L47.5677 33.5254C47.0181 33.539 45.6934 33.5472 44.1473 33.5472C42.6012 33.5472 41.2756 33.539 40.7259 33.5254L40.7356 33.5117C40.7356 33.6347 40.7356 33.7331 40.7308 33.8055C40.7318 33.8398 40.7302 33.8742 40.7259 33.908C40.7229 33.874 40.7213 33.8398 40.7211 33.8055C40.7211 33.7331 40.7211 33.6347 40.7163 33.5117V33.5062H40.7259C41.2756 33.4939 42.6003 33.4844 44.1473 33.4844C45.6944 33.4844 47.0181 33.4939 47.5677 33.5062H47.5774C47.5774 33.6292 47.5774 33.7276 47.5774 33.8C47.5749 33.8366 47.5701 33.8727 47.5629 33.908Z" fill="#263238"/>
<path d="M41.5747 34.0137C41.5613 34.0137 41.5498 33.8976 41.5498 33.7527C41.5498 33.6079 41.5613 33.4917 41.5747 33.4917C41.5881 33.4917 41.5996 33.6092 41.5996 33.7527C41.5996 33.8962 41.5852 34.0137 41.5747 34.0137Z" fill="#263238"/>
<path d="M42.4761 34.0137C42.4627 34.0137 42.4512 33.8976 42.4512 33.7527C42.4512 33.6079 42.4627 33.4917 42.4761 33.4917C42.4895 33.4917 42.501 33.6092 42.501 33.7527C42.501 33.8962 42.4904 34.0137 42.4761 34.0137Z" fill="#263238"/>
<path d="M43.3818 34.0137C43.3675 34.0137 43.3569 33.8976 43.3569 33.7527C43.3569 33.6079 43.3675 33.4917 43.3818 33.4917C43.3962 33.4917 43.4067 33.6092 43.4067 33.7527C43.4067 33.8962 43.3952 34.0137 43.3818 34.0137Z" fill="#263238"/>
<path d="M44.2871 34.0137C44.2727 34.0137 44.2622 33.8976 44.2622 33.7527C44.2622 33.6079 44.2727 33.4917 44.2871 33.4917C44.3015 33.4917 44.312 33.6092 44.312 33.7527C44.312 33.8962 44.3005 34.0137 44.2871 34.0137Z" fill="#263238"/>
<path d="M45.1919 34.0137C45.1785 34.0137 45.167 33.8976 45.167 33.7527C45.167 33.6079 45.1785 33.4917 45.1919 33.4917C45.2053 33.4917 45.2168 33.6092 45.2168 33.7527C45.2168 33.8962 45.2053 34.0137 45.1919 34.0137Z" fill="#263238"/>
<path d="M46.0996 34.0137C46.0862 34.0137 46.0747 33.8976 46.0747 33.7527C46.0747 33.6079 46.0862 33.4917 46.0996 33.4917C46.113 33.4917 46.1245 33.6092 46.1245 33.7527C46.1245 33.8962 46.1111 34.0137 46.0996 34.0137Z" fill="#263238"/>
<path d="M47.0019 34.0137C46.9885 34.0137 46.9771 33.8976 46.9771 33.7527C46.9771 33.6079 46.9885 33.4917 47.0019 33.4917C47.0154 33.4917 47.0268 33.6092 47.0268 33.7527C47.0268 33.8962 47.0163 34.0137 47.0019 34.0137Z" fill="#263238"/>
<path d="M47.743 33.9077H40.5864V34.9217H47.743V33.9077Z" fill="#263238"/>
<path opacity="0.4" d="M42.3682 28.2793H43.1471L43.2328 28.9817H42.3682V28.2793Z" fill="white"/>
<path d="M49.9622 38.8424C49.9611 38.8183 49.9611 38.7941 49.9622 38.77C49.9622 38.7167 49.9622 38.647 49.9622 38.5568C49.9622 38.3655 49.9622 38.0922 49.9554 37.7465L49.9689 37.7656C49.1025 37.7765 47.5449 37.782 45.7726 37.782L42.2588 37.7724L41.1902 37.7601H40.9014H40.8263C40.8177 37.7619 40.8089 37.7619 40.8003 37.7601H40.8263H40.9014L41.1902 37.7533L42.2549 37.7424L45.7687 37.7314C47.541 37.7314 49.0967 37.7383 49.9651 37.7478H49.9785V37.7424C49.9785 38.0881 49.9785 38.3614 49.9718 38.5527C49.9718 38.6429 49.9718 38.7126 49.9718 38.7659C49.9705 38.7918 49.9673 38.8175 49.9622 38.8424Z" fill="#263238"/>
<path d="M48.9878 38.8882C48.9546 38.5121 48.9546 38.1315 48.9878 37.7554C49.021 38.1315 49.021 38.5121 48.9878 38.8882Z" fill="#263238"/>
<path d="M47.351 38.8882C47.3166 38.5122 47.3166 38.1314 47.351 37.7554C47.3842 38.1315 47.3842 38.5121 47.351 38.8882Z" fill="#263238"/>
<path d="M45.7148 38.8882C45.6816 38.5121 45.6816 38.1315 45.7148 37.7554C45.748 38.1315 45.748 38.5121 45.7148 38.8882Z" fill="#263238"/>
<path d="M44.0781 38.8882C44.0449 38.5121 44.0449 38.1315 44.0781 37.7554C44.1113 38.1315 44.1113 38.5121 44.0781 38.8882Z" fill="#263238"/>
<path d="M42.4346 38.8882C42.4014 38.5121 42.4014 38.1315 42.4346 37.7554C42.469 38.1314 42.469 38.5122 42.4346 38.8882Z" fill="#263238"/>
<path d="M40.7959 38.8882C40.7627 38.5121 40.7627 38.1315 40.7959 37.7554C40.8291 38.1315 40.8291 38.5121 40.7959 38.8882Z" fill="#263238"/>
<path d="M39.1577 38.8882C39.1245 38.5121 39.1245 38.1315 39.1577 37.7554C39.1909 38.1315 39.1909 38.5121 39.1577 38.8882Z" fill="#263238"/>
<rect width="2.94302" height="18.1747" transform="matrix(0.817455 -0.575992 0.547658 0.836702 56.0352 13.4351)" fill="#9BCC63"/>
<rect x="54.9019" y="11.7134" width="3.59011" height="16.9314" fill="#FF7775"/>
<rect x="65.9966" y="11.7134" width="3.59011" height="16.9314" fill="#61C4E6"/>
</svg>
