<svg width="80" height="71" viewBox="0 0 80 71" fill="none" xmlns="http://www.w3.org/2000/svg">
<path d="M1.55894 3.16254C1.51482 3.51859 1.4707 3.89558 1.4707 4.0003C1.4707 4.10502 2.39717 4.18879 3.52953 4.18879H5.58835V9.63422V15.0797H6.25012H6.91188V9.63422V4.18879H8.98541H11.0589L10.956 3.49764C10.8972 3.1416 10.8236 2.76461 10.7795 2.65989C10.7501 2.57611 8.67659 2.51328 6.19129 2.51328H1.66188L1.55894 3.16254Z" fill="#43B9B2"/>
<path d="M12.5 8.79646V15.0797H13.2353H13.9706V11.9381V8.79646L14.8235 8.92213C15.2794 8.98496 16.2206 9.23629 16.9118 9.46667C17.6029 9.69705 18.5882 9.94838 19.1176 10.0112L20.0735 10.1578L20.1176 12.6083L20.1618 15.0797H20.8824H21.6176V8.79646V2.51328H20.8824H20.1471V5.5711V8.64986L19.2647 8.52419C18.7794 8.44042 17.8824 8.18909 17.2794 7.97965C16.6618 7.74927 15.6765 7.49794 15.0735 7.41416L13.9706 7.26756V4.90089V2.51328H13.2353H12.5V8.79646Z" fill="#43B9B2"/>
<path d="M23.3823 8.79647V15.0797H26.75C30.3529 15.0797 30.2941 15.1006 30.2941 14.0115C30.2941 13.6345 30.1617 13.6136 27.5 13.6136H24.7059V10.9956V8.37759H26.3235H27.9411V7.64455V6.91151H26.3235H24.7059V5.55015V4.1888H27.5C30.5441 4.1888 30.4411 4.23069 30.2059 2.97405L30.1176 2.51328H26.75H23.3823V8.79647Z" fill="#43B9B2"/>
<path d="M34.4118 5.98996C33 6.32507 33.0883 6.24129 33.0883 7.03716V7.7702L33.6471 7.60265C34.9118 7.22566 36.3236 7.43509 37.9412 8.25191C42.0589 10.3672 42.0147 10.3463 43.6765 10.3463C45.3383 10.3463 45.3971 10.3254 49.4118 8.25191C50.7647 7.53981 51.1177 7.45604 52.2794 7.45604C53.4706 7.45604 53.7794 7.53981 55.3677 8.35663C59.2794 10.3463 59.2206 10.3254 60.8824 10.3463C62.3824 10.3672 62.4853 10.3254 64.6324 9.25722C69.5883 6.74394 69.3971 6.74394 74.7059 9.40383C75.6324 9.86459 76.5736 10.2416 76.8088 10.2625H77.2059V38.4321V66.6018H46.1765H15.1471V61.2611V55.9203H14.6324H14.1177V61.8894V67.8584H46.1765H78.2353V38.4321V9.00589H77.6177C77.25 9.00589 76.1912 8.60796 75.0736 8.04247C71.9706 6.49262 71.4412 6.26223 70.4412 6.09468C69.0588 5.84335 67.6912 6.17846 65.5883 7.26754C61.4265 9.44571 60.7647 9.50855 57.6471 7.93775C54.1618 6.1994 53.7353 6.05279 52.2647 6.03185C51.0294 6.01091 50.7794 6.09468 48.7353 7.09999C43.6324 9.63421 43.7647 9.63421 38.6765 7.14188C36.6618 6.15751 35.3089 5.80147 34.4118 5.98996Z" fill="#43B9B2"/>
<path d="M17.5884 21.1953C17.309 22.033 16.3531 24.8814 15.4561 27.5204C14.559 30.1593 13.8237 32.3375 13.8237 32.3794C13.8237 32.4212 14.0884 32.4631 14.412 32.4631C14.9708 32.4631 15.0002 32.4422 15.5443 30.9342L16.1031 29.4263L18.1767 29.3634L20.2502 29.3006L20.7502 30.8923L21.2355 32.4631H22.0296C22.4561 32.4631 22.7943 32.3794 22.7649 32.2746C22.7502 32.1699 21.8237 29.3006 20.7355 25.8867C18.9708 20.3785 18.7061 19.6873 18.412 19.6873C18.1326 19.6873 17.9855 19.9596 17.5884 21.1953ZM19.0884 25.6982L19.8237 28.0649H18.2208C17.3384 28.0649 16.6178 28.023 16.6178 27.9602C16.6178 27.7507 18.2502 23.2059 18.309 23.2687C18.3237 23.3106 18.6914 24.4207 19.0884 25.6982Z" fill="#43B9B2"/>
<path d="M43.4562 25.782C42.3238 29.133 41.3826 32.0233 41.3532 32.1699C41.3091 32.3794 41.4562 32.4631 41.8679 32.4631C42.4268 32.4631 42.4562 32.4212 42.8826 31.1646C43.1179 30.4525 43.3973 29.7614 43.5003 29.5938C43.6473 29.4053 44.2209 29.3215 45.6768 29.3215H47.6621L48.1768 30.8923L48.6915 32.4631H49.4121C49.8238 32.4631 50.1473 32.3794 50.1473 32.2956C50.1473 32.2118 49.265 29.3634 48.1768 25.9705C46.4562 20.5879 46.1621 19.792 45.8532 19.7292C45.5444 19.6873 45.3385 20.19 43.4562 25.782ZM46.4709 25.5516C46.8091 26.6407 47.1179 27.667 47.1621 27.7926C47.2209 28.0021 46.8532 28.0649 45.6032 28.0649H43.9709L44.8091 25.6564C45.2797 24.3369 45.6915 23.3316 45.7503 23.4153C45.8091 23.4991 46.1326 24.4625 46.4709 25.5516Z" fill="#43B9B2"/>
<path d="M5.29443 26.2847V32.4631H8.16208C10.2503 32.4631 11.1768 32.3794 11.515 32.1699C12.1621 31.7929 12.9121 30.5363 13.0297 29.6357C13.265 27.7717 12.7797 25.7401 11.9415 25.1118L11.618 24.8605L11.9268 24.3788C12.3386 23.7505 12.4415 22.4519 12.1474 21.5304C11.7062 20.2109 11.4121 20.1062 8.17679 20.1062H5.29443V26.2847ZM10.618 21.9283C10.9856 22.41 10.9562 23.3525 10.5591 23.7505C10.3091 24.0018 9.82385 24.0856 8.42679 24.0856H6.61796V22.8289V21.5723H8.48561C10.015 21.5723 10.3974 21.6351 10.618 21.9283ZM10.8238 26.159C11.118 26.4103 11.3827 26.892 11.5297 27.4785C11.8533 28.6932 11.618 29.8242 10.8974 30.5153C10.4415 30.9552 10.2356 30.9971 8.51502 30.9971H6.61796V28.3791V25.7611H8.50032C10.0738 25.7611 10.4415 25.8239 10.8238 26.159Z" fill="#43B9B2"/>
<path d="M24.2646 26.2847V32.4631H27.647H31.0146L31.147 31.772L31.2646 31.1018L28.4264 31.0389L25.5882 30.9971V25.5516V20.1062H24.9264H24.2646V26.2847Z" fill="#43B9B2"/>
<path d="M32.7944 26.2846V32.4631H36.1621C39.765 32.4631 39.7062 32.484 39.7062 31.395C39.7062 31.018 39.5738 30.997 36.9121 30.997H34.118V25.5516V20.1062H33.4562H32.7944V26.2846Z" fill="#43B9B2"/>
<path d="M51.7646 26.2847V32.4631H52.4264H53.0882V30.4735V28.4838H53.9705H54.8529L55.7499 30.0965C56.9117 32.1909 57.2058 32.4631 58.2794 32.4631C59.0588 32.4631 59.1176 32.4422 59.1176 31.9605C59.1176 31.5835 59.0146 31.4369 58.6911 31.3531C58.3823 31.2693 57.9999 30.7876 57.4411 29.8242L56.6323 28.4419L57.2499 27.9811C59.2352 26.4732 59.2205 22.0959 57.2205 20.5879C56.6176 20.1481 56.397 20.1062 54.1617 20.1062H51.7646V26.2847ZM56.4264 22.1168C56.6617 22.3472 56.9558 22.8917 57.1176 23.3316C57.3529 24.0018 57.3676 24.2531 57.2205 24.9024C56.9117 26.4313 56.0735 27.0177 54.2499 27.0177H53.0882V24.274V21.5304L54.5588 21.6142C55.7352 21.677 56.1029 21.7817 56.4264 22.1168Z" fill="#43B9B2"/>
<path d="M60.5884 26.2847V32.4631H63.6031C67.0443 32.4631 67.7207 32.2537 68.7207 30.8505C69.706 29.4891 69.9266 28.6723 69.9266 26.2847C69.9266 24.3578 69.8972 24.1065 69.4854 23.0593C68.9854 21.7608 68.0296 20.6507 67.1031 20.3366C66.7648 20.2109 65.1619 20.1062 63.5443 20.1062H60.5884V26.2847ZM66.7354 21.8655C67.8237 22.41 68.6766 24.3578 68.6766 26.2847C68.6766 28.2534 67.7207 30.3478 66.6031 30.7876C66.3384 30.9133 65.1913 30.9971 64.0884 30.9971H62.059V26.2847V21.5723L64.1619 21.5932C65.3825 21.5932 66.456 21.6979 66.7354 21.8655Z" fill="#43B9B2"/>
<path d="M5.29443 43.7729V50.056H5.9562H6.61796V48.0873V46.1186L8.51502 46.0558C10.3533 45.972 10.4415 45.951 11.0444 45.3437C11.9709 44.4221 12.3827 43.1445 12.3238 41.5528C12.265 40.0867 11.8827 39.1233 11.0886 38.3484C10.3827 37.6572 9.7209 37.5106 7.39737 37.4897H5.29443V43.7729ZM9.75032 39.4584C10.4415 39.8563 10.765 40.4847 10.8386 41.5528C10.9268 42.6628 10.6768 43.354 9.9562 43.9823C9.57384 44.3174 9.2062 44.4012 8.05914 44.4012H6.61796V41.7832V39.1652H7.94149C8.73561 39.1652 9.4709 39.2909 9.75032 39.4584Z" fill="#43B9B2"/>
<path d="M14.1177 43.7729V50.056H14.853H15.5883V43.7729V37.4897H14.853H14.1177V43.7729Z" fill="#43B9B2"/>
<path d="M17.353 43.7729V50.056H20.7207H24.0883L24.1766 49.5743C24.3677 48.569 24.4266 48.59 21.4707 48.59H18.6766V45.972V43.354H20.2942H21.9119V42.6209V41.8879H20.2942H18.6766V40.5265V39.1652H21.4707C24.5148 39.1652 24.4119 39.2071 24.1766 37.9504L24.0883 37.4897H20.7207H17.353V43.7729Z" fill="#43B9B2"/>
<path d="M25.8823 43.7729V50.056H26.5441H27.2059V48.0664V46.0767H28.147H29.0882L29.9853 47.7522C31.0294 49.6791 31.4559 50.056 32.5 50.056C33.2206 50.056 33.2353 50.0351 33.2353 49.4277C33.2353 48.9041 33.1764 48.7994 32.897 48.7994C32.7059 48.7994 32.4559 48.6737 32.3382 48.5271C31.9264 48.0664 30.8382 46.0558 30.9264 45.951C30.9706 45.8882 31.2206 45.6578 31.5 45.4693C32.2059 44.9248 32.7794 43.6472 32.8823 42.3906C33 41.0292 32.7647 39.982 32.1029 38.9348C31.3529 37.7619 30.5735 37.4897 27.9853 37.4897H25.8823V43.7729ZM30.397 39.5212C31.7206 40.4009 31.8235 42.7466 30.6029 43.9195C30.1617 44.3383 29.9264 44.4012 28.6617 44.4012H27.2059V41.7832V39.1652H28.5441C29.4853 39.1652 30.0294 39.2699 30.397 39.5212Z" fill="#43B9B2"/>
<path d="M35.8823 40.1077V42.5162H36.6176C37.0147 42.5162 37.5 42.4115 37.7059 42.2858C38.1911 41.9717 38.4411 40.8826 38.3382 39.5212C38.25 38.097 37.897 37.6991 36.75 37.6991H35.8823V40.1077ZM37.4706 39.982C37.5147 41.1548 37.397 41.469 36.8823 41.469C36.6617 41.469 36.6176 41.2596 36.6176 40.0867V38.7253L37.0294 38.7882C37.397 38.851 37.4264 38.9138 37.4706 39.982Z" fill="#43B9B2"/>
<path d="M39.5738 38.097C38.9562 38.9767 38.9856 41.2386 39.6327 42.0345C40.4415 43.0398 41.5297 42.3696 41.6915 40.7569C41.8974 38.851 41.4121 37.6991 40.4121 37.6991C40.0591 37.6991 39.7503 37.8457 39.5738 38.097ZM40.8091 40.1077C40.8091 41.3015 40.7944 41.3643 40.4415 41.3643C40.1033 41.3643 40.0738 41.2805 40.0297 40.338C39.9709 39.0395 40.0591 38.7044 40.4709 38.7882C40.7797 38.851 40.8091 38.9557 40.8091 40.1077Z" fill="#43B9B2"/>
<path d="M42.2501 37.9923C42.2942 38.1389 42.5148 39.228 42.7354 40.4009C43.0883 42.2649 43.1618 42.5162 43.456 42.5162C43.706 42.5162 43.8236 42.2858 44.0442 41.3015L44.3089 40.1077L44.5589 41.2596C44.7795 42.223 44.8677 42.4115 45.1618 42.4115C45.4707 42.4115 45.5442 42.202 45.8971 40.4218C46.4118 37.8457 46.4118 37.6991 45.956 37.6991C45.5589 37.6991 45.5589 37.6991 45.2795 39.1652L45.103 40.1077L44.8677 38.8929C44.6913 37.9085 44.5883 37.6991 44.3383 37.6991C44.0883 37.6991 43.9707 37.9295 43.7501 38.8929L43.4854 40.1077L43.2648 38.8929C43.0736 37.7619 43.0295 37.6991 42.6177 37.6991C42.2942 37.6991 42.1913 37.7829 42.2501 37.9923Z" fill="#43B9B2"/>
<path d="M47.0591 40.1077V42.5162H47.4267C47.7797 42.5162 47.7944 42.4534 47.7944 41.1967V39.8982L48.3973 41.1967C48.8679 42.202 49.0885 42.5162 49.3532 42.5162C49.7061 42.5162 49.7061 42.4953 49.7061 40.1077V37.6991H49.3385C48.9856 37.6991 48.9708 37.7619 48.9708 38.9976V40.3171L48.3826 38.9976C47.912 37.9714 47.7061 37.6991 47.4267 37.6991H47.0591V40.1077Z" fill="#43B9B2"/>
<path d="M50.4414 38.2227C50.4414 38.6625 50.5149 38.7463 50.8826 38.7463H51.3238V40.6312C51.3238 42.4953 51.3238 42.5162 51.6914 42.5162C52.0591 42.5162 52.0591 42.4953 52.0591 40.6312V38.7463H52.5002C52.8679 38.7463 52.9414 38.6625 52.9414 38.2227C52.9414 37.6991 52.9267 37.6991 51.6914 37.6991C50.4561 37.6991 50.4414 37.6991 50.4414 38.2227Z" fill="#43B9B2"/>
<path d="M53.9855 38.097C53.3678 38.9767 53.3972 41.2386 54.0443 42.0345C54.8531 43.0398 55.9414 42.3696 56.1031 40.7569C56.309 38.851 55.8237 37.6991 54.8237 37.6991C54.4708 37.6991 54.1619 37.8457 53.9855 38.097ZM55.2208 40.1077C55.2208 41.3015 55.2061 41.3643 54.8531 41.3643C54.5149 41.3643 54.4855 41.2805 54.4414 40.338C54.3825 39.0395 54.4708 38.7044 54.8825 38.7882C55.1914 38.851 55.2208 38.9557 55.2208 40.1077Z" fill="#43B9B2"/>
<path d="M56.6617 37.9923C56.7058 38.1389 56.9264 39.228 57.147 40.4009C57.4999 42.2649 57.5735 42.5162 57.8676 42.5162C58.1176 42.5162 58.2352 42.2858 58.4558 41.3015L58.7205 40.1077L58.9705 41.2596C59.1911 42.223 59.2793 42.4115 59.5735 42.4115C59.8823 42.4115 59.9558 42.202 60.3088 40.4218C60.8235 37.8457 60.8235 37.6991 60.3676 37.6991C59.9705 37.6991 59.9705 37.6991 59.6911 39.1652L59.5146 40.1077L59.2793 38.8929C59.1029 37.8876 58.9999 37.6991 58.7352 37.6991C58.4558 37.6991 58.3529 37.9085 58.147 38.8929L57.897 40.1077L57.6764 38.8929C57.4852 37.7829 57.4411 37.6991 57.0293 37.6991C56.7058 37.6991 56.6029 37.7829 56.6617 37.9923Z" fill="#43B9B2"/>
<path d="M61.4707 40.1077V42.5162H61.8384C62.1913 42.5162 62.206 42.4534 62.206 41.1967V39.8982L62.8089 41.1967C63.2795 42.202 63.5001 42.5162 63.7648 42.5162C64.1178 42.5162 64.1178 42.4953 64.1178 40.1077V37.6991H63.7501C63.3972 37.6991 63.3825 37.7619 63.3825 38.9976V40.3171L62.7942 38.9976C62.3236 37.9714 62.1178 37.6991 61.8384 37.6991H61.4707V40.1077Z" fill="#43B9B2"/>
<path d="M35.8823 47.6475V50.056H36.9853C38.0588 50.056 38.0882 50.0351 38.0882 49.5324C38.0882 49.0507 38.0441 49.0088 37.3529 49.0088C36.7206 49.0088 36.6176 48.946 36.6176 48.59C36.6176 48.2339 36.7206 48.1711 37.2794 48.1711C37.8823 48.1711 37.9411 48.1292 37.9411 47.6475C37.9411 47.1658 37.8823 47.1239 37.2794 47.1239C36.7206 47.1239 36.6176 47.0611 36.6176 46.705C36.6176 46.349 36.7206 46.2861 37.3529 46.2861C38.0441 46.2861 38.0882 46.2442 38.0882 45.7625C38.0882 45.2599 38.0588 45.2389 36.9853 45.2389H35.8823V47.6475Z" fill="#43B9B2"/>
<path d="M39.044 46.2233C39.2646 46.7888 39.4999 47.3124 39.5587 47.4171C39.6323 47.5009 39.4558 48.0873 39.1764 48.7156C38.897 49.323 38.6764 49.8885 38.6764 49.9513C38.6764 50.0142 38.8676 50.056 39.1029 50.056C39.4264 50.056 39.6029 49.8885 39.8234 49.4068L40.1029 48.7575L40.3823 49.4068C40.5734 49.8885 40.7646 50.056 41.0587 50.056C41.5734 50.056 41.5734 49.9513 41.0293 48.7366C40.794 48.192 40.5881 47.6894 40.5881 47.6475C40.5881 47.5847 40.794 47.082 41.0293 46.5375C41.2793 45.972 41.4705 45.4484 41.4705 45.3646C41.4705 45.3018 41.2793 45.2389 41.0293 45.2389C40.6911 45.2389 40.544 45.3855 40.3529 45.9091L40.1176 46.5584L39.8234 45.9091C39.6029 45.4065 39.4264 45.2389 39.0881 45.2389H38.647L39.044 46.2233Z" fill="#43B9B2"/>
<path d="M42.2061 47.6265V50.056H42.5737C42.9119 50.056 42.9413 49.9723 42.9413 49.2183C42.9413 48.4015 42.9561 48.3805 43.4561 48.3805C44.4561 48.3805 45.0296 46.9145 44.4413 45.8673C44.2355 45.5112 43.9708 45.3855 43.1913 45.3018L42.2061 45.1761V47.6265ZM43.7943 46.8516C43.8384 47.2705 43.7796 47.3333 43.3972 47.3333C43.0002 47.3333 42.9413 47.2496 42.9413 46.7888C42.9413 46.328 43.0002 46.2652 43.3531 46.328C43.6325 46.3699 43.7649 46.5165 43.7943 46.8516Z" fill="#43B9B2"/>
<path d="M45.5884 47.6475V50.056H46.6913C47.7648 50.056 47.7943 50.0351 47.7943 49.5324C47.7943 49.0507 47.7501 49.0088 47.059 49.0088C46.4266 49.0088 46.3237 48.946 46.3237 48.59C46.3237 48.2339 46.4266 48.1711 46.9119 48.1711C47.4413 48.1711 47.5001 48.1083 47.5001 47.6475C47.5001 47.1658 47.4413 47.1239 46.9119 47.1239C46.4266 47.1239 46.3237 47.0611 46.3237 46.705C46.3237 46.349 46.4266 46.2861 47.059 46.2861C47.7501 46.2861 47.7943 46.2442 47.7943 45.7625C47.7943 45.2599 47.7648 45.2389 46.6913 45.2389H45.5884V47.6475Z" fill="#43B9B2"/>
<path d="M48.6768 47.6475V50.056H49.1179C49.5444 50.056 49.5591 50.0142 49.5591 49.1136C49.5591 48.59 49.6179 48.1711 49.6768 48.1711C49.7356 48.1711 49.9415 48.59 50.1179 49.1136C50.3973 49.9304 50.5003 50.056 50.8826 50.056C51.1179 50.056 51.3238 50.0142 51.3238 49.9723C51.3238 49.9094 51.1768 49.5324 51.015 49.1136C50.7062 48.3805 50.7062 48.3386 50.9709 47.6475C51.5003 46.2442 50.8826 45.2389 49.4562 45.2389H48.6768V47.6475ZM50.265 46.5375C50.4856 46.8516 50.2209 47.3333 49.8385 47.3333C49.6326 47.3333 49.5591 47.1867 49.5591 46.8097C49.5591 46.2442 49.9415 46.0767 50.265 46.5375Z" fill="#43B9B2"/>
<path d="M52.0591 47.6475V50.056H52.5003H52.9414V47.6475V45.2389H52.5003H52.0591V47.6475Z" fill="#43B9B2"/>
<path d="M53.9707 47.6475V50.056H55.0736C56.1472 50.056 56.1766 50.0351 56.1766 49.5324C56.1766 49.0507 56.1325 49.0088 55.4413 49.0088C54.8089 49.0088 54.706 48.946 54.706 48.59C54.706 48.2339 54.8089 48.1711 55.3678 48.1711C55.9707 48.1711 56.0295 48.1292 56.0295 47.6475C56.0295 47.1658 55.9707 47.1239 55.3678 47.1239C54.8089 47.1239 54.706 47.0611 54.706 46.705C54.706 46.349 54.8089 46.2861 55.4413 46.2861C56.1325 46.2861 56.1766 46.2442 56.1766 45.7625C56.1766 45.2599 56.1472 45.2389 55.0736 45.2389H53.9707V47.6475Z" fill="#43B9B2"/>
<path d="M57.2061 47.6475V50.056H57.5737C57.9266 50.056 57.9413 49.9932 57.9413 48.8413V47.6475L58.5002 48.8413C58.8972 49.7209 59.1325 50.056 59.3825 50.056C59.7061 50.056 59.7061 50.0142 59.7061 47.6475V45.2389H59.3384C59.0149 45.2389 58.9855 45.3227 58.9413 46.4327L58.8972 47.6265L58.3384 46.4327C57.9855 45.6369 57.6913 45.2389 57.5002 45.2389C57.2208 45.2389 57.2061 45.3855 57.2061 47.6475Z" fill="#43B9B2"/>
<path d="M61.3677 45.4484C60.8971 45.7206 60.7354 46.3071 60.7354 47.815C60.7354 48.9251 60.7942 49.2183 61.0736 49.5953C61.7206 50.454 63.3236 50.0141 62.7942 49.1136C62.6765 48.9251 62.4706 48.8622 62.1765 48.946C61.6324 49.0926 61.4706 48.7994 61.4706 47.6265C61.4706 46.5793 61.7795 46.0767 62.2059 46.4537C62.4118 46.6422 62.5148 46.6003 62.7354 46.2652C63.0148 45.8254 63.0148 45.8254 62.5442 45.4693C62.1765 45.197 61.8236 45.197 61.3677 45.4484Z" fill="#43B9B2"/>
<path d="M63.8237 47.6475V50.056H64.9267C66.0002 50.056 66.0296 50.0351 66.0296 49.5324C66.0296 49.0507 65.9855 49.0088 65.2943 49.0088C64.662 49.0088 64.559 48.946 64.559 48.59C64.559 48.2339 64.662 48.1711 65.2208 48.1711C65.8237 48.1711 65.8826 48.1292 65.8826 47.6475C65.8826 47.1658 65.8237 47.1239 65.2208 47.1239C64.662 47.1239 64.559 47.0611 64.559 46.705C64.559 46.349 64.662 46.2861 65.2943 46.2861C65.9855 46.2861 66.0296 46.2442 66.0296 45.7625C66.0296 45.2599 66.0002 45.2389 64.9267 45.2389H63.8237V47.6475Z" fill="#43B9B2"/>
<path d="M36.0444 53.5327C35.6914 54.1611 35.6179 55.9622 35.8973 56.8419C36.1326 57.5749 36.9267 57.931 37.515 57.5959C37.9856 57.3026 38.0591 56.9466 37.7356 56.5696C37.5738 56.3811 37.4562 56.3811 37.2062 56.5906C36.7356 56.9885 36.4267 56.3183 36.515 55.1035C36.5885 54.0773 36.8385 53.7422 37.2503 54.0773C37.4709 54.2239 37.5885 54.2029 37.765 53.9516C38.1179 53.449 37.7503 52.9882 36.9856 52.9882C36.4709 52.9882 36.2797 53.0929 36.0444 53.5327Z" fill="#43B9B2"/>
<path d="M38.8237 55.292V57.5959H40.0002C41.0737 57.5959 41.1767 57.554 41.1767 57.177C41.1767 56.8 41.0737 56.7581 40.3678 56.7581C39.6031 56.7581 39.559 56.7372 39.559 56.2345C39.559 55.7528 39.6178 55.7109 40.2208 55.7109C40.7796 55.7109 40.8826 55.6481 40.8826 55.292C40.8826 54.936 40.7796 54.8731 40.2208 54.8731C39.662 54.8731 39.559 54.8103 39.559 54.4543C39.559 54.0773 39.662 54.0354 40.3678 54.0354C41.1326 54.0354 41.1767 54.0144 41.1767 53.5118C41.1767 52.9882 41.162 52.9882 40.0002 52.9882H38.8237V55.292Z" fill="#43B9B2"/>
<path d="M42.0591 55.292V57.5959H42.4267C42.7797 57.5959 42.7944 57.533 42.7944 56.3811V55.1873L43.3532 56.3811C43.7944 57.3655 43.9708 57.5959 44.3091 57.5959H44.7061V55.292V52.9882H44.2797C43.8532 52.9882 43.8385 53.0301 43.7944 54.0773L43.7503 55.1873L43.2503 54.0773C42.8826 53.2605 42.6767 52.9882 42.412 52.9882C42.0591 52.9882 42.0591 53.0091 42.0591 55.292Z" fill="#43B9B2"/>
<path d="M45.4414 53.5118C45.4414 53.9516 45.5149 54.0354 45.8826 54.0354H46.3238V55.8156C46.3238 57.5749 46.3238 57.5959 46.6914 57.5959C47.0591 57.5959 47.0591 57.5749 47.0591 55.8156V54.0354H47.5002C47.8679 54.0354 47.9414 53.9516 47.9414 53.5118C47.9414 52.9882 47.9267 52.9882 46.6914 52.9882C45.4561 52.9882 45.4414 52.9882 45.4414 53.5118Z" fill="#43B9B2"/>
<path d="M48.6768 55.292V57.5959H49.8532C50.9268 57.5959 51.0297 57.554 51.0297 57.177C51.0297 56.8209 50.9268 56.7581 50.2944 56.7581C49.6032 56.7581 49.5591 56.7162 49.5591 56.2345C49.5591 55.7528 49.6179 55.7109 50.1473 55.7109C50.6326 55.7109 50.7356 55.6481 50.7356 55.292C50.7356 54.936 50.6326 54.8731 50.1473 54.8731C49.6621 54.8731 49.5591 54.8103 49.5591 54.4543C49.5591 54.0982 49.6621 54.0354 50.2944 54.0354C50.9856 54.0354 51.0297 53.9935 51.0297 53.5118C51.0297 52.9882 51.015 52.9882 49.8532 52.9882H48.6768V55.292Z" fill="#43B9B2"/>
<path d="M51.9121 55.292V57.5959H52.2798C52.618 57.5959 52.6474 57.5121 52.6474 56.7581C52.6474 56.1926 52.7062 55.9203 52.8386 55.9203C52.9562 55.9203 53.1621 56.2973 53.3092 56.7581C53.5445 57.4911 53.6327 57.5959 54.0592 57.5959H54.5592L54.2356 56.6534C53.9415 55.7737 53.9268 55.7109 54.1621 55.3339C54.5003 54.8103 54.4709 53.9097 54.118 53.4071C53.8827 53.072 53.6327 52.9882 52.868 52.9882H51.9121V55.292ZM53.5298 54.4543C53.5298 54.7894 53.4268 54.8731 53.0886 54.8731C52.7503 54.8731 52.6474 54.7894 52.6474 54.4543C52.6474 54.1192 52.7503 54.0354 53.0886 54.0354C53.4268 54.0354 53.5298 54.1192 53.5298 54.4543Z" fill="#43B9B2"/>
</svg>
