<svg width="80" height="71" viewBox="0 0 80 71" fill="none" xmlns="http://www.w3.org/2000/svg">
<path d="M18.522 47.9094L22.2507 59.6303H22.3938L26.13 47.9094H29.7457L24.4276 63.3364H20.2244L14.8987 47.9094H18.522ZM44.9091 55.6229C44.9091 57.3052 44.5902 58.7364 43.9524 59.9166C43.3197 61.0967 42.4559 61.9981 41.3612 62.6208C40.2714 63.2385 39.0461 63.5473 37.6852 63.5473C36.3142 63.5473 35.0839 63.236 33.9942 62.6133C32.9044 61.9906 32.0432 61.0892 31.4104 59.909C30.7777 58.7289 30.4613 57.3002 30.4613 55.6229C30.4613 53.9406 30.7777 52.5094 31.4104 51.3293C32.0432 50.1492 32.9044 49.2502 33.9942 48.6326C35.0839 48.0099 36.3142 47.6985 37.6852 47.6985C39.0461 47.6985 40.2714 48.0099 41.3612 48.6326C42.4559 49.2502 43.3197 50.1492 43.9524 51.3293C44.5902 52.5094 44.9091 53.9406 44.9091 55.6229ZM41.6022 55.6229C41.6022 54.5332 41.439 53.6142 41.1126 52.866C40.7912 52.1177 40.3367 51.5502 39.7492 51.1636C39.1616 50.7769 38.4736 50.5835 37.6852 50.5835C36.8968 50.5835 36.2088 50.7769 35.6212 51.1636C35.0337 51.5502 34.5767 52.1177 34.2503 52.866C33.9289 53.6142 33.7682 54.5332 33.7682 55.6229C33.7682 56.7127 33.9289 57.6316 34.2503 58.3799C34.5767 59.1281 35.0337 59.6956 35.6212 60.0823C36.2088 60.469 36.8968 60.6623 37.6852 60.6623C38.4736 60.6623 39.1616 60.469 39.7492 60.0823C40.3367 59.6956 40.7912 59.1281 41.1126 58.3799C41.439 57.6316 41.6022 56.7127 41.6022 55.6229ZM60.9368 53.3104H57.6375C57.5772 52.8835 57.4542 52.5044 57.2684 52.1729C57.0826 51.8365 56.844 51.5502 56.5528 51.3142C56.2615 51.0782 55.925 50.8974 55.5434 50.7719C55.1667 50.6463 54.7575 50.5835 54.3155 50.5835C53.5171 50.5835 52.8216 50.7819 52.229 51.1786C51.6364 51.5703 51.1769 52.1428 50.8505 52.8961C50.5241 53.6443 50.3609 54.5533 50.3609 55.6229C50.3609 56.7227 50.5241 57.6467 50.8505 58.395C51.1819 59.1432 51.6439 59.7082 52.2365 60.0898C52.8291 60.4715 53.5146 60.6623 54.2929 60.6623C54.7298 60.6623 55.1341 60.6046 55.5057 60.4891C55.8824 60.3736 56.2163 60.2053 56.5076 59.9844C56.7988 59.7584 57.0399 59.4847 57.2307 59.1633C57.4266 58.8419 57.5621 58.4753 57.6375 58.0635L60.9368 58.0786C60.8514 58.7867 60.638 59.4696 60.2965 60.1275C59.9601 60.7803 59.5056 61.3654 58.9331 61.8826C58.3656 62.3948 57.6877 62.8016 56.8993 63.1029C56.1159 63.3992 55.2295 63.5473 54.2402 63.5473C52.8642 63.5473 51.6339 63.236 50.5492 62.6133C49.4695 61.9906 48.6158 61.0892 47.9881 59.909C47.3654 58.7289 47.054 57.3002 47.054 55.6229C47.054 53.9406 47.3704 52.5094 48.0031 51.3293C48.6359 50.1492 49.4946 49.2502 50.5793 48.6326C51.664 48.0099 52.8843 47.6985 54.2402 47.6985C55.1341 47.6985 55.9627 47.8241 56.726 48.0751C57.4944 48.3262 58.1748 48.6928 58.7674 49.1749C59.36 49.652 59.842 50.237 60.2137 50.93C60.5903 51.6231 60.8313 52.4165 60.9368 53.3104ZM76.8873 53.3104H73.588C73.5277 52.8835 73.4047 52.5044 73.2189 52.1729C73.0331 51.8365 72.7946 51.5502 72.5033 51.3142C72.212 51.0782 71.8756 50.8974 71.4939 50.7719C71.1173 50.6463 70.708 50.5835 70.2661 50.5835C69.4676 50.5835 68.7721 50.7819 68.1795 51.1786C67.5869 51.5703 67.1274 52.1428 66.801 52.8961C66.4746 53.6443 66.3114 54.5533 66.3114 55.6229C66.3114 56.7227 66.4746 57.6467 66.801 58.395C67.1325 59.1432 67.5945 59.7082 68.187 60.0898C68.7796 60.4715 69.4651 60.6623 70.2435 60.6623C70.6804 60.6623 71.0846 60.6046 71.4562 60.4891C71.8329 60.3736 72.1668 60.2053 72.4581 59.9844C72.7494 59.7584 72.9904 59.4847 73.1812 59.1633C73.3771 58.8419 73.5127 58.4753 73.588 58.0635L76.8873 58.0786C76.802 58.7867 76.5885 59.4696 76.247 60.1275C75.9106 60.7803 75.4561 61.3654 74.8836 61.8826C74.3162 62.3948 73.6382 62.8016 72.8498 63.1029C72.0664 63.3992 71.18 63.5473 70.1907 63.5473C68.8148 63.5473 67.5844 63.236 66.4997 62.6133C65.42 61.9906 64.5663 61.0892 63.9386 59.909C63.3159 58.7289 63.0045 57.3002 63.0045 55.6229C63.0045 53.9406 63.3209 52.5094 63.9537 51.3293C64.5864 50.1492 65.4451 49.2502 66.5298 48.6326C67.6146 48.0099 68.8349 47.6985 70.1907 47.6985C71.0846 47.6985 71.9132 47.8241 72.6765 48.0751C73.4449 48.3262 74.1253 48.6928 74.7179 49.1749C75.3105 49.652 75.7926 50.237 76.1642 50.93C76.5408 51.6231 76.7819 52.4165 76.8873 53.3104Z" fill="#34495E"/>
<path d="M0.375758 69.519V65.1554H1.16364V69.519H0.375758ZM0.751515 69.519V68.8948H3.30909V69.519H0.751515ZM5.13835 69.5796C4.81108 69.5796 4.52219 69.511 4.27169 69.3736C4.02522 69.2362 3.8333 69.0463 3.69593 68.8039C3.55855 68.5574 3.48987 68.2766 3.48987 67.9615C3.48987 67.6463 3.55855 67.3695 3.69593 67.1312C3.8333 66.8928 4.02522 66.7069 4.27169 66.5736C4.52219 66.4362 4.81108 66.3675 5.13835 66.3675C5.46967 66.3675 5.75856 66.4362 6.00502 66.5736C6.25148 66.7069 6.4434 66.8928 6.58078 67.1312C6.71815 67.3695 6.78684 67.6463 6.78684 67.9615C6.78684 68.2766 6.71613 68.5574 6.57472 68.8039C6.43734 69.0463 6.24542 69.2362 5.99896 69.3736C5.75249 69.511 5.46563 69.5796 5.13835 69.5796ZM5.13835 68.9675C5.29997 68.9675 5.44542 68.9271 5.57472 68.8463C5.70401 68.7615 5.80502 68.6443 5.87775 68.4948C5.95047 68.3413 5.98684 68.1615 5.98684 67.9554C5.98684 67.6524 5.90603 67.414 5.74441 67.2403C5.58684 67.0665 5.38482 66.9796 5.13835 66.9796C4.89189 66.9796 4.68785 67.0665 4.52623 67.2403C4.36462 67.414 4.28381 67.6524 4.28381 67.9554C4.28381 68.1615 4.32017 68.3413 4.3929 68.4948C4.46967 68.6443 4.57068 68.7615 4.69593 68.8463C4.82522 68.9271 4.9727 68.9675 5.13835 68.9675ZM8.72386 70.8221C8.31578 70.8221 7.98043 70.7332 7.7178 70.5554C7.45922 70.3776 7.30568 70.1372 7.2572 69.8342H7.98447C8.02083 69.9392 8.09962 70.0201 8.22083 70.0766C8.34609 70.1372 8.5077 70.1675 8.70568 70.1675C8.99255 70.1675 9.20467 70.1029 9.34205 69.9736C9.47942 69.8483 9.54811 69.6564 9.54811 69.3978V68.7312L9.60265 68.7433C9.55417 68.9695 9.43094 69.1514 9.23296 69.2887C9.03498 69.4221 8.79255 69.4887 8.50568 69.4887C8.23094 69.4887 7.99053 69.4241 7.78447 69.2948C7.58245 69.1655 7.42487 68.9857 7.31174 68.7554C7.19861 68.5211 7.14205 68.2483 7.14205 67.9372C7.14205 67.6221 7.20063 67.3473 7.3178 67.113C7.43498 66.8786 7.59861 66.6968 7.80871 66.5675C8.02285 66.4342 8.27134 66.3675 8.55417 66.3675C8.84508 66.3675 9.08346 66.4382 9.26932 66.5796C9.45922 66.717 9.57639 66.9089 9.62083 67.1554L9.57235 67.1615V66.4281H10.3178V69.3918C10.3178 69.8322 10.1744 70.1796 9.8875 70.4342C9.60467 70.6928 9.21679 70.8221 8.72386 70.8221ZM8.75417 68.8827C9.00063 68.8827 9.19659 68.7999 9.34205 68.6342C9.49154 68.4645 9.56629 68.2281 9.56629 67.9251C9.56629 67.6221 9.49154 67.3877 9.34205 67.2221C9.19255 67.0564 8.99457 66.9736 8.74811 66.9736C8.50568 66.9736 8.30972 67.0584 8.16023 67.2281C8.01073 67.3938 7.93599 67.6281 7.93599 67.9312C7.93599 68.2342 8.01073 68.4685 8.16023 68.6342C8.30972 68.7999 8.5077 68.8827 8.75417 68.8827ZM11.1305 69.519V66.4281H11.8941V69.519H11.1305ZM11.0941 65.919V65.0766H11.9244V65.919H11.0941ZM13.8748 69.5796C13.4465 69.5796 13.1051 69.4908 12.8506 69.313C12.596 69.1312 12.4566 68.8807 12.4324 68.5615H13.1294C13.1496 68.719 13.2243 68.8382 13.3536 68.919C13.4829 68.9999 13.6566 69.0403 13.8748 69.0403C14.0728 69.0403 14.2203 69.01 14.3172 68.9493C14.4182 68.8847 14.4688 68.7938 14.4688 68.6766C14.4688 68.5918 14.4405 68.5231 14.3839 68.4706C14.3273 68.414 14.2203 68.3675 14.0627 68.3312L13.5657 68.216C13.2263 68.1433 12.9738 68.0302 12.8081 67.8766C12.6465 67.719 12.5657 67.5231 12.5657 67.2887C12.5657 67.0019 12.6748 66.7776 12.893 66.616C13.1152 66.4504 13.4203 66.3675 13.8081 66.3675C14.192 66.3675 14.4991 66.4504 14.7294 66.616C14.9637 66.7776 15.093 67.0019 15.1172 67.2887H14.4203C14.4001 67.1635 14.3354 67.0685 14.2263 67.0039C14.1213 66.9392 13.9758 66.9069 13.79 66.9069C13.6162 66.9069 13.4849 66.9352 13.396 66.9918C13.3071 67.0443 13.2627 67.1231 13.2627 67.2281C13.2627 67.3089 13.297 67.3776 13.3657 67.4342C13.4344 67.4867 13.5496 67.5332 13.7112 67.5736L14.2445 67.6948C14.5475 67.7635 14.7758 67.8827 14.9294 68.0524C15.0869 68.2221 15.1657 68.4221 15.1657 68.6524C15.1657 68.9473 15.0526 69.1756 14.8263 69.3372C14.6001 69.4988 14.2829 69.5796 13.8748 69.5796ZM17.0697 69.5796C16.6899 69.5796 16.4091 69.4908 16.2273 69.313C16.0495 69.1312 15.9607 68.8605 15.9607 68.5009V65.7251L16.7304 65.4403V68.519C16.7304 68.6685 16.7708 68.7796 16.8516 68.8524C16.9324 68.9251 17.0596 68.9615 17.2334 68.9615C17.3021 68.9615 17.3627 68.9574 17.4152 68.9493C17.4718 68.9372 17.5243 68.9231 17.5728 68.9069V69.5009C17.5243 69.5251 17.4556 69.5433 17.3667 69.5554C17.2778 69.5716 17.1788 69.5796 17.0697 69.5796ZM15.3667 67.0281V66.4281H17.5728V67.0281H15.3667ZM18.1262 69.519V66.4281H18.8899V69.519H18.1262ZM18.0899 65.919V65.0766H18.9202V65.919H18.0899ZM21.0281 69.5796C20.717 69.5796 20.4423 69.511 20.2039 69.3736C19.9695 69.2362 19.7837 69.0463 19.6463 68.8039C19.513 68.5574 19.4463 68.2786 19.4463 67.9675C19.4463 67.6564 19.513 67.3817 19.6463 67.1433C19.7837 66.9009 19.9695 66.711 20.2039 66.5736C20.4423 66.4362 20.717 66.3675 21.0281 66.3675C21.2827 66.3675 21.513 66.416 21.719 66.513C21.9251 66.6059 22.0948 66.7392 22.2281 66.913C22.3615 67.0827 22.4463 67.2807 22.4827 67.5069H21.7493C21.7049 67.3413 21.62 67.212 21.4948 67.119C21.3695 67.0261 21.218 66.9796 21.0402 66.9796C20.8746 66.9796 20.7312 67.0201 20.6099 67.1009C20.4928 67.1817 20.4019 67.2968 20.3372 67.4463C20.2726 67.5958 20.2402 67.7695 20.2402 67.9675C20.2402 68.1695 20.2726 68.3453 20.3372 68.4948C20.4019 68.6443 20.4948 68.7615 20.616 68.8463C20.7372 68.9271 20.8786 68.9675 21.0402 68.9675C21.218 68.9675 21.3695 68.9211 21.4948 68.8281C21.62 68.7352 21.7049 68.6059 21.7493 68.4403H22.4827C22.4463 68.6665 22.3594 68.8665 22.2221 69.0403C22.0887 69.21 21.919 69.3433 21.713 69.4403C21.511 69.5332 21.2827 69.5796 21.0281 69.5796ZM24.2145 69.5796C23.7863 69.5796 23.4448 69.4908 23.1903 69.313C22.9358 69.1312 22.7964 68.8807 22.7721 68.5615H23.4691C23.4893 68.719 23.564 68.8382 23.6933 68.919C23.8226 68.9999 23.9964 69.0403 24.2145 69.0403C24.4125 69.0403 24.56 69.01 24.657 68.9493C24.758 68.8847 24.8085 68.7938 24.8085 68.6766C24.8085 68.5918 24.7802 68.5231 24.7236 68.4706C24.6671 68.414 24.56 68.3675 24.4024 68.3312L23.9054 68.216C23.5661 68.1433 23.3135 68.0302 23.1479 67.8766C22.9863 67.719 22.9054 67.5231 22.9054 67.2887C22.9054 67.0019 23.0145 66.7776 23.2327 66.616C23.4549 66.4504 23.76 66.3675 24.1479 66.3675C24.5317 66.3675 24.8388 66.4504 25.0691 66.616C25.3034 66.7776 25.4327 67.0019 25.457 67.2887H24.76C24.7398 67.1635 24.6751 67.0685 24.5661 67.0039C24.461 66.9392 24.3156 66.9069 24.1297 66.9069C23.956 66.9069 23.8246 66.9352 23.7358 66.9918C23.6469 67.0443 23.6024 67.1231 23.6024 67.2281C23.6024 67.3089 23.6368 67.3776 23.7054 67.4342C23.7741 67.4867 23.8893 67.5332 24.0509 67.5736L24.5842 67.6948C24.8873 67.7635 25.1156 67.8827 25.2691 68.0524C25.4267 68.2221 25.5054 68.4221 25.5054 68.6524C25.5054 68.9473 25.3923 69.1756 25.1661 69.3372C24.9398 69.4988 24.6226 69.5796 24.2145 69.5796ZM29.5128 69.519V65.1554H31.4704C31.7896 65.1554 32.0623 65.21 32.2886 65.319C32.5189 65.4281 32.6947 65.5817 32.8159 65.7796C32.9411 65.9776 33.0037 66.212 33.0037 66.4827C33.0037 66.7493 32.9411 66.9837 32.8159 67.1857C32.6906 67.3877 32.5149 67.5453 32.2886 67.6584C32.0623 67.7675 31.7896 67.8221 31.4704 67.8221H30.125V67.2039H31.434C31.6846 67.2039 31.8765 67.1392 32.0098 67.01C32.1472 66.8807 32.2159 66.7049 32.2159 66.4827C32.2159 66.2645 32.1472 66.0928 32.0098 65.9675C31.8765 65.8423 31.6846 65.7796 31.434 65.7796H30.3007V69.519H29.5128ZM33.5855 69.519V66.4281H34.331V67.1736H34.3492V69.519H33.5855ZM34.3492 67.9069L34.2704 67.1736C34.3431 66.911 34.4663 66.711 34.6401 66.5736C34.8138 66.4362 35.0219 66.3675 35.2643 66.3675C35.3492 66.3675 35.4098 66.3756 35.4461 66.3918V67.113C35.4259 67.1049 35.3976 67.1009 35.3613 67.1009C35.3249 67.0968 35.2805 67.0948 35.2279 67.0948C34.933 67.0948 34.7128 67.1594 34.5673 67.2887C34.4219 67.418 34.3492 67.6241 34.3492 67.9069ZM37.2698 69.5796C36.9425 69.5796 36.6557 69.511 36.4092 69.3736C36.1668 69.2362 35.9769 69.0463 35.8395 68.8039C35.7062 68.5615 35.6395 68.2827 35.6395 67.9675C35.6395 67.6524 35.7062 67.3756 35.8395 67.1372C35.9769 66.8948 36.1668 66.7069 36.4092 66.5736C36.6516 66.4362 36.9344 66.3675 37.2577 66.3675C37.5647 66.3675 37.8314 66.4322 38.0577 66.5615C38.2839 66.6867 38.4597 66.8645 38.5849 67.0948C38.7102 67.3251 38.7728 67.5938 38.7728 67.9009C38.7728 67.9574 38.7708 68.01 38.7668 68.0584C38.7627 68.1069 38.7567 68.1554 38.7486 68.2039H36.1122V67.6706H38.1607L38.0031 67.816C38.0031 67.5251 37.9365 67.3069 37.8031 67.1615C37.6698 67.016 37.4839 66.9433 37.2456 66.9433C36.987 66.9433 36.7809 67.0322 36.6274 67.21C36.4779 67.3877 36.4031 67.6443 36.4031 67.9796C36.4031 68.311 36.4779 68.5655 36.6274 68.7433C36.7809 68.917 36.9971 69.0039 37.2759 69.0039C37.4375 69.0039 37.5789 68.9736 37.7001 68.913C37.8213 68.8524 37.9102 68.7594 37.9668 68.6342H38.688C38.587 68.9251 38.4153 69.1554 38.1728 69.3251C37.9344 69.4948 37.6334 69.5796 37.2698 69.5796ZM40.7251 69.5796C40.414 69.5796 40.1392 69.511 39.9009 69.3736C39.6665 69.2362 39.4807 69.0463 39.3433 68.8039C39.2099 68.5574 39.1433 68.2786 39.1433 67.9675C39.1433 67.6564 39.2099 67.3817 39.3433 67.1433C39.4807 66.9009 39.6665 66.711 39.9009 66.5736C40.1392 66.4362 40.414 66.3675 40.7251 66.3675C40.9796 66.3675 41.2099 66.416 41.416 66.513C41.6221 66.6059 41.7918 66.7392 41.9251 66.913C42.0584 67.0827 42.1433 67.2807 42.1796 67.5069H41.4463C41.4019 67.3413 41.317 67.212 41.1918 67.119C41.0665 67.0261 40.915 66.9796 40.7372 66.9796C40.5716 66.9796 40.4281 67.0201 40.3069 67.1009C40.1897 67.1817 40.0988 67.2968 40.0342 67.4463C39.9695 67.5958 39.9372 67.7695 39.9372 67.9675C39.9372 68.1695 39.9695 68.3453 40.0342 68.4948C40.0988 68.6443 40.1918 68.7615 40.313 68.8463C40.4342 68.9271 40.5756 68.9675 40.7372 68.9675C40.915 68.9675 41.0665 68.9211 41.1918 68.8281C41.317 68.7352 41.4019 68.6059 41.4463 68.4403H42.1796C42.1433 68.6665 42.0564 68.8665 41.919 69.0403C41.7857 69.21 41.616 69.3433 41.4099 69.4403C41.2079 69.5332 40.9796 69.5796 40.7251 69.5796ZM42.6823 69.519V66.4281H43.446V69.519H42.6823ZM42.646 65.919V65.0766H43.4763V65.919H42.646ZM45.4267 69.5796C44.9984 69.5796 44.657 69.4908 44.4024 69.313C44.1479 69.1312 44.0085 68.8807 43.9842 68.5615H44.6812C44.7014 68.719 44.7762 68.8382 44.9055 68.919C45.0347 68.9999 45.2085 69.0403 45.4267 69.0403C45.6246 69.0403 45.7721 69.01 45.8691 68.9493C45.9701 68.8847 46.0206 68.7938 46.0206 68.6766C46.0206 68.5918 45.9923 68.5231 45.9358 68.4706C45.8792 68.414 45.7721 68.3675 45.6145 68.3312L45.1176 68.216C44.7782 68.1433 44.5257 68.0302 44.36 67.8766C44.1984 67.719 44.1176 67.5231 44.1176 67.2887C44.1176 67.0019 44.2267 66.7776 44.4448 66.616C44.6671 66.4504 44.9721 66.3675 45.36 66.3675C45.7438 66.3675 46.0509 66.4504 46.2812 66.616C46.5156 66.7776 46.6448 67.0019 46.6691 67.2887H45.9721C45.9519 67.1635 45.8873 67.0685 45.7782 67.0039C45.6731 66.9392 45.5277 66.9069 45.3418 66.9069C45.1681 66.9069 45.0368 66.9352 44.9479 66.9918C44.859 67.0443 44.8145 67.1231 44.8145 67.2281C44.8145 67.3089 44.8489 67.3776 44.9176 67.4342C44.9863 67.4867 45.1014 67.5332 45.263 67.5736L45.7964 67.6948C46.0994 67.7635 46.3277 67.8827 46.4812 68.0524C46.6388 68.2221 46.7176 68.4221 46.7176 68.6524C46.7176 68.9473 46.6044 69.1756 46.3782 69.3372C46.1519 69.4988 45.8347 69.5796 45.4267 69.5796ZM47.2574 69.519V66.4281H48.021V69.519H47.2574ZM47.221 65.919V65.0766H48.0513V65.919H47.221ZM50.226 69.5796C49.8987 69.5796 49.6098 69.511 49.3593 69.3736C49.1128 69.2362 48.9209 69.0463 48.7835 68.8039C48.6462 68.5574 48.5775 68.2766 48.5775 67.9615C48.5775 67.6463 48.6462 67.3695 48.7835 67.1312C48.9209 66.8928 49.1128 66.7069 49.3593 66.5736C49.6098 66.4362 49.8987 66.3675 50.226 66.3675C50.5573 66.3675 50.8462 66.4362 51.0926 66.5736C51.3391 66.7069 51.531 66.8928 51.6684 67.1312C51.8058 67.3695 51.8744 67.6463 51.8744 67.9615C51.8744 68.2766 51.8037 68.5574 51.6623 68.8039C51.5249 69.0463 51.333 69.2362 51.0866 69.3736C50.8401 69.511 50.5532 69.5796 50.226 69.5796ZM50.226 68.9675C50.3876 68.9675 50.533 68.9271 50.6623 68.8463C50.7916 68.7615 50.8926 68.6443 50.9653 68.4948C51.0381 68.3413 51.0744 68.1615 51.0744 67.9554C51.0744 67.6524 50.9936 67.414 50.832 67.2403C50.6744 67.0665 50.4724 66.9796 50.226 66.9796C49.9795 66.9796 49.7755 67.0665 49.6138 67.2403C49.4522 67.414 49.3714 67.6524 49.3714 67.9554C49.3714 68.1615 49.4078 68.3413 49.4805 68.4948C49.5573 68.6443 49.6583 68.7615 49.7835 68.8463C49.9128 68.9271 50.0603 68.9675 50.226 68.9675ZM52.4361 69.519V66.4281H53.1816V67.1554H53.1998V69.519H52.4361ZM54.6058 69.519V67.5675C54.6058 67.3776 54.5573 67.2342 54.4604 67.1372C54.3634 67.0403 54.222 66.9918 54.0361 66.9918C53.8745 66.9918 53.7291 67.0281 53.5998 67.1009C53.4745 67.1736 53.3755 67.2746 53.3028 67.4039C53.2341 67.5332 53.1998 67.6827 53.1998 67.8524L53.121 67.113C53.226 66.8867 53.3796 66.7069 53.5816 66.5736C53.7836 66.4362 54.026 66.3675 54.3089 66.3675C54.6442 66.3675 54.9048 66.4625 55.0907 66.6524C55.2806 66.8423 55.3755 67.0948 55.3755 67.41V69.519H54.6058ZM60.8748 69.519V65.7796H59.4263V65.1554H63.1112V65.7796H61.6627V69.519H60.8748ZM63.0126 69.519V66.4281H63.7581V67.1736H63.7762V69.519H63.0126ZM63.7762 67.9069L63.6975 67.1736C63.7702 66.911 63.8934 66.711 64.0672 66.5736C64.2409 66.4362 64.449 66.3675 64.6914 66.3675C64.7762 66.3675 64.8368 66.3756 64.8732 66.3918V67.113C64.853 67.1049 64.8247 67.1009 64.7884 67.1009C64.752 67.0968 64.7076 67.0948 64.655 67.0948C64.3601 67.0948 64.1399 67.1594 63.9944 67.2887C63.849 67.418 63.7762 67.6241 63.7762 67.9069ZM66.3386 69.5796C66.1245 69.5796 65.9386 69.5352 65.781 69.4463C65.6275 69.3534 65.5083 69.2281 65.4235 69.0706C65.3426 68.913 65.3022 68.7352 65.3022 68.5372V66.4281H66.0659V68.3796C66.0659 68.5695 66.1123 68.713 66.2053 68.81C66.3022 68.9069 66.4376 68.9554 66.6113 68.9554C66.7689 68.9554 66.9063 68.919 67.0235 68.8463C67.1447 68.7736 67.2396 68.6726 67.3083 68.5433C67.381 68.41 67.4174 68.2605 67.4174 68.0948L67.4962 68.8342C67.3952 69.0605 67.2437 69.2423 67.0416 69.3796C66.8437 69.513 66.6093 69.5796 66.3386 69.5796ZM67.4416 69.519V68.7918H67.4174V66.4281H68.1871V69.519H67.4416ZM70.1485 69.5796C69.7202 69.5796 69.3788 69.4908 69.1243 69.313C68.8697 69.1312 68.7303 68.8807 68.7061 68.5615H69.403C69.4232 68.719 69.498 68.8382 69.6273 68.919C69.7566 68.9999 69.9303 69.0403 70.1485 69.0403C70.3465 69.0403 70.4939 69.01 70.5909 68.9493C70.6919 68.8847 70.7424 68.7938 70.7424 68.6766C70.7424 68.5918 70.7142 68.5231 70.6576 68.4706C70.601 68.414 70.4939 68.3675 70.3364 68.3312L69.8394 68.216C69.5 68.1433 69.2475 68.0302 69.0818 67.8766C68.9202 67.719 68.8394 67.5231 68.8394 67.2887C68.8394 67.0019 68.9485 66.7776 69.1667 66.616C69.3889 66.4504 69.6939 66.3675 70.0818 66.3675C70.4657 66.3675 70.7727 66.4504 71.003 66.616C71.2374 66.7776 71.3667 67.0019 71.3909 67.2887H70.6939C70.6737 67.1635 70.6091 67.0685 70.5 67.0039C70.395 66.9392 70.2495 66.9069 70.0636 66.9069C69.8899 66.9069 69.7586 66.9352 69.6697 66.9918C69.5808 67.0443 69.5364 67.1231 69.5364 67.2281C69.5364 67.3089 69.5707 67.3776 69.6394 67.4342C69.7081 67.4867 69.8232 67.5332 69.9849 67.5736L70.5182 67.6948C70.8212 67.7635 71.0495 67.8827 71.203 68.0524C71.3606 68.2221 71.4394 68.4221 71.4394 68.6524C71.4394 68.9473 71.3263 69.1756 71.1 69.3372C70.8737 69.4988 70.5566 69.5796 70.1485 69.5796ZM73.3434 69.5796C72.9636 69.5796 72.6828 69.4908 72.501 69.313C72.3232 69.1312 72.2343 68.8605 72.2343 68.5009V65.7251L73.004 65.4403V68.519C73.004 68.6685 73.0444 68.7796 73.1252 68.8524C73.2061 68.9251 73.3333 68.9615 73.5071 68.9615C73.5758 68.9615 73.6364 68.9574 73.6889 68.9493C73.7455 68.9372 73.798 68.9231 73.8465 68.9069V69.5009C73.798 69.5251 73.7293 69.5433 73.6404 69.5554C73.5515 69.5716 73.4525 69.5796 73.3434 69.5796ZM71.6404 67.0281V66.4281H73.8465V67.0281H71.6404Z" fill="#85919D"/>
<path d="M17.8082 40.7887C17.8082 40.7887 17.7186 40.7467 17.5558 40.6719C17.3338 40.5617 17.0907 40.493 16.8401 40.4697C16.6663 40.4651 16.4924 40.4776 16.3214 40.5071C16.1346 40.534 15.9428 40.5667 15.7295 40.6111C15.3168 40.6929 14.8599 40.8109 14.3614 40.8191C13.8628 40.8273 13.4047 40.6894 12.9945 40.5994C12.8007 40.5529 12.6038 40.5181 12.4051 40.4954C12.2327 40.4779 12.0588 40.4779 11.8864 40.4954C11.6355 40.5165 11.3947 40.597 11.1872 40.7291C11.1151 40.7823 11.0464 40.8393 10.9814 40.8997C10.9925 40.8801 11.0065 40.862 11.0231 40.846C11.0663 40.7951 11.1163 40.7495 11.172 40.7104C11.3781 40.5657 11.6229 40.4756 11.8801 40.4499C12.0562 40.4282 12.2345 40.4254 12.4114 40.4417C12.6127 40.4619 12.8121 40.4951 13.0084 40.541C13.4224 40.6298 13.8729 40.763 14.3601 40.7548C14.8473 40.7467 15.3016 40.6322 15.7169 40.5527C15.9251 40.5106 16.1258 40.4791 16.3138 40.4534C16.4884 40.4253 16.6657 40.4151 16.8427 40.423C17.0984 40.4502 17.3451 40.5266 17.5671 40.6473C17.6466 40.6882 17.7059 40.721 17.7463 40.7455C17.7692 40.7569 17.7901 40.7715 17.8082 40.7887Z" fill="#263238"/>
<path d="M79.9993 32.8479C79.9993 32.8479 79.9236 32.7825 79.7671 32.6937C79.5434 32.5721 79.2934 32.4979 79.0351 32.4763C78.6513 32.4453 78.2646 32.4725 77.8903 32.557C77.4637 32.6364 76.998 32.7638 76.4869 32.7907C75.9757 32.8176 75.4986 32.682 75.0784 32.5862C74.8791 32.5361 74.6768 32.4971 74.4726 32.4693C74.2954 32.4494 74.1163 32.4474 73.9387 32.4635C73.6804 32.481 73.4317 32.5616 73.218 32.6972C73.1451 32.7544 73.0756 32.8153 73.0098 32.8795C73.0632 32.8047 73.1302 32.739 73.2079 32.6855C73.4209 32.5381 73.6738 32.4483 73.9387 32.4261C74.1198 32.4068 74.3028 32.4068 74.4839 32.4261C74.6905 32.4504 74.8954 32.4863 75.0973 32.5336C75.5214 32.6271 75.9808 32.7591 76.4856 32.7323C76.9904 32.7054 77.4511 32.5827 77.8802 32.5056C78.2608 32.4223 78.6538 32.3993 79.0426 32.4378C79.3064 32.4631 79.5601 32.5451 79.7835 32.6773C79.8436 32.7131 79.8998 32.7542 79.9513 32.8C79.9842 32.8292 80.0018 32.8456 79.9993 32.8479Z" fill="#263238"/>
<path d="M10.089 37.3645C10.089 37.3703 10.0133 37.3002 9.85677 37.2102C9.63271 37.0896 9.38286 37.0158 9.12475 36.994C8.74104 36.963 8.35444 36.9899 7.98002 37.0735C7.55342 37.1541 7.08645 37.2815 6.57655 37.3072C6.06666 37.3329 5.58833 37.1985 5.16678 37.1039C4.96795 37.0539 4.76608 37.0148 4.56223 36.987C4.38512 36.9662 4.20604 36.9638 4.02836 36.98C3.76978 36.9981 3.52084 37.0787 3.30644 37.2137C3.23005 37.2694 3.15754 37.3295 3.08936 37.3937C3.14206 37.3184 3.20872 37.2523 3.28624 37.1985C3.50014 37.0521 3.75334 36.9627 4.01827 36.9403C4.19941 36.9209 4.38235 36.9209 4.5635 36.9403C4.77024 36.9645 4.97511 37.0008 5.17688 37.049C5.60095 37.1424 6.06035 37.2745 6.5652 37.2464C7.07004 37.2184 7.52944 37.098 7.95982 37.0197C8.34054 36.9376 8.73338 36.9147 9.12222 36.952C9.38583 36.9778 9.6394 37.0598 9.86308 37.1915C9.92333 37.2275 9.97957 37.269 10.0309 37.3154C10.052 37.3299 10.0714 37.3464 10.089 37.3645Z" fill="#263238"/>
<path d="M74.6011 41.0453C74.5647 41.0395 74.5288 41.0309 74.4938 41.0196C74.4232 41.0021 74.3209 40.9717 74.1897 40.9331C73.9259 40.856 73.5498 40.7274 73.074 40.6048C72.8154 40.5376 72.5517 40.4887 72.2851 40.4587C71.9799 40.4254 71.6716 40.4254 71.3663 40.4587C70.7189 40.5241 70.0235 40.7076 69.2712 40.7964C68.9045 40.8443 68.5324 40.8443 68.1656 40.7964C67.811 40.752 67.474 40.6854 67.1559 40.6234C66.5186 40.4961 65.9355 40.4073 65.4433 40.4306C65.0542 40.4387 64.671 40.5207 64.3175 40.6714C64.2232 40.7155 64.1317 40.7646 64.0436 40.8186C64.0141 40.8399 63.9829 40.859 63.9502 40.8759C64.0574 40.7863 64.1771 40.7104 64.3061 40.6503C64.6603 40.4889 65.0475 40.3993 65.442 40.3874C65.9468 40.3582 66.5312 40.4447 67.1698 40.5685C67.8085 40.6924 68.519 40.8431 69.2674 40.7356C70.0121 40.6468 70.7088 40.4657 71.3625 40.4014C71.6724 40.3675 71.9854 40.3675 72.2952 40.4014C72.5641 40.4344 72.8299 40.4859 73.0904 40.5557C73.5662 40.6854 73.9398 40.8198 74.201 40.9062L74.5014 41.0032C74.5361 41.0141 74.5695 41.0282 74.6011 41.0453Z" fill="#263238"/>
<path d="M51.4721 28.313H2.72705V31.0777H51.4721V28.313Z" fill="#263238"/>
<path d="M19.8864 28.3718H15.1914V22.6694H19.8864V28.3718ZM15.3176 28.255H19.7602V22.7863H15.3176V28.255Z" fill="#263238"/>
<path d="M23.6222 22.7275H19.8232V28.6415H23.6222V22.7275Z" fill="#263238"/>
<path d="M30.6803 7.04102H30.2285V28.7044H30.6803V7.04102Z" fill="#263238"/>
<path d="M31.7653 7.04102H31.3135V28.7044H31.7653V7.04102Z" fill="#263238"/>
<path d="M35.9015 7.04102H35.4497V28.7044H35.9015V7.04102Z" fill="#263238"/>
<path d="M26.4372 7.04102H25.9854V28.7044H26.4372V7.04102Z" fill="#263238"/>
<path d="M30.6791 7.04102H25.9854V7.47103H30.6791V7.04102Z" fill="#263238"/>
<path d="M41.403 8.07666H9.33545V8.57095H41.403V8.07666Z" fill="#263238"/>
<path d="M35.9014 14.6406H26.2109V15.1034H35.9014V14.6406Z" fill="#263238"/>
<path d="M35.7704 8.81876L35.4277 8.62305L31.3956 14.6747L31.7382 14.8704L35.7704 8.81876Z" fill="#263238"/>
<path d="M30.5761 8.64346L30.2334 8.44775L26.2012 14.4994L26.5439 14.6951L30.5761 8.64346Z" fill="#263238"/>
<path d="M38.0836 5.97217H30.8921V8.07669H38.0836V5.97217Z" fill="#263238"/>
<path d="M16.7161 8.3702L16.6392 8.27789L28.1079 0.148438L32.2325 6.52743L32.1252 6.5882L28.0726 0.321379L16.7161 8.3702Z" fill="#263238"/>
<path d="M30.6611 8.70904L25.9067 8.37718L28.0864 0L30.6611 8.70904ZM26.0595 8.27084L30.4869 8.57933L28.0889 0.469749L26.0595 8.27084Z" fill="#263238"/>
<path d="M7.16602 16.5512L7.54843 14.6301L9.9111 8.0583L10.031 8.09569L7.6696 14.6593L7.31747 16.432L15.1665 16.3046L12.0933 8.09569L12.2132 8.05713L15.3432 16.4179L7.16602 16.5512Z" fill="#263238"/>
<path d="M8.28009 14.7515H5.21191V18.2021H8.28009V14.7515Z" fill="#263238"/>
<path d="M16.861 14.7515H8.28125V18.2021H16.861V14.7515Z" fill="#263238"/>
<path d="M6.81113 18.2022C6.7922 18.2022 6.77832 17.4357 6.77832 16.4915C6.77832 15.5473 6.7922 14.7808 6.81113 14.7808C6.83007 14.7808 6.84395 15.5461 6.84395 16.4915C6.84395 17.4368 6.8288 18.2022 6.81113 18.2022Z" fill="#455A64"/>
<path d="M8.28184 18.2022C8.26417 18.2022 8.24902 17.4357 8.24902 16.4915C8.24902 15.5473 8.26417 14.7808 8.28184 14.7808C8.29951 14.7808 8.31465 15.5461 8.31465 16.4915C8.31465 17.4368 8.29951 18.2022 8.28184 18.2022Z" fill="#455A64"/>
<path d="M16.3793 17.808C16.3793 17.808 16.3793 17.7905 16.3793 17.7601C16.3793 17.7298 16.3793 17.6807 16.3793 17.6222C16.3793 17.4996 16.3793 17.3243 16.373 17.0987C16.373 16.643 16.3667 15.9863 16.3616 15.1672L16.3831 15.1882L8.65143 15.1976C8.62114 15.2256 8.69056 15.1613 8.68424 15.1683V15.8508C8.68424 16.0775 8.68424 16.3006 8.68424 16.5215V17.8069L8.64259 17.7835L14.1744 17.7975L15.7874 17.8057H16.2215H16.3351C16.3482 17.8047 16.3612 17.8047 16.3743 17.8057H16.3414H16.2316H15.805L14.1984 17.8139L8.64512 17.8279H8.6123V15.8414C8.6123 15.7246 8.6123 15.6147 8.6123 15.5002V15.159L8.64638 15.1274L16.378 15.138H16.4008V15.1578C16.4008 15.9758 16.3919 16.643 16.3881 17.1023C16.3881 17.3254 16.3881 17.4996 16.3881 17.6211C16.3881 17.6772 16.3881 17.7216 16.3881 17.7543C16.3881 17.7725 16.3851 17.7906 16.3793 17.808Z" fill="#455A64"/>
<path d="M9.24473 17.8079C9.2258 17.8079 9.21191 17.2166 9.21191 16.4874C9.21191 15.7583 9.2258 15.167 9.24473 15.167C9.26366 15.167 9.27754 15.7583 9.27754 16.4874C9.27754 17.2166 9.2624 17.8079 9.24473 17.8079Z" fill="#455A64"/>
<path d="M9.97129 17.8079C9.95236 17.8079 9.93848 17.2166 9.93848 16.4874C9.93848 15.7583 9.95236 15.167 9.97129 15.167C9.99022 15.167 10.0041 15.7583 10.0041 16.4874C10.0041 17.2166 9.98896 17.8079 9.97129 17.8079Z" fill="#455A64"/>
<path d="M10.6983 17.8079C10.6807 17.8079 10.6655 17.2166 10.6655 16.4874C10.6655 15.7583 10.6807 15.167 10.6983 15.167C10.716 15.167 10.7312 15.7583 10.7312 16.4874C10.7312 17.2166 10.716 17.8079 10.6983 17.8079Z" fill="#455A64"/>
<path d="M11.4254 17.8079C11.4077 17.8079 11.3926 17.2166 11.3926 16.4874C11.3926 15.7583 11.4077 15.167 11.4254 15.167C11.4431 15.167 11.4582 15.7583 11.4582 16.4874C11.4582 17.2166 11.4443 17.8079 11.4254 17.8079Z" fill="#455A64"/>
<path d="M12.1524 17.8079C12.1348 17.8079 12.1196 17.2166 12.1196 16.4874C12.1196 15.7583 12.1348 15.167 12.1524 15.167C12.1701 15.167 12.1853 15.7583 12.1853 16.4874C12.1853 17.2166 12.1764 17.8079 12.1524 17.8079Z" fill="#455A64"/>
<path d="M12.8808 17.8079C12.8618 17.8079 12.8467 17.2166 12.8467 16.4874C12.8467 15.7583 12.8618 15.167 12.8808 15.167C12.8997 15.167 12.9136 15.7583 12.9136 16.4874C12.9136 17.2166 12.8984 17.8079 12.8808 17.8079Z" fill="#455A64"/>
<path d="M13.6075 17.8079C13.5886 17.8079 13.5747 17.2166 13.5747 16.4874C13.5747 15.7583 13.5886 15.167 13.6075 15.167C13.6265 15.167 13.6403 15.7583 13.6403 16.4874C13.6403 17.2166 13.6252 17.8079 13.6075 17.8079Z" fill="#455A64"/>
<path d="M14.3346 17.8079C14.3156 17.8079 14.3018 17.2166 14.3018 16.4874C14.3018 15.7583 14.3156 15.167 14.3346 15.167C14.3535 15.167 14.3674 15.7583 14.3674 16.4874C14.3674 17.2166 14.3522 17.8079 14.3346 17.8079Z" fill="#455A64"/>
<path d="M15.0616 17.8079C15.044 17.8079 15.0288 17.2166 15.0288 16.4874C15.0288 15.7583 15.044 15.167 15.0616 15.167C15.0793 15.167 15.0944 15.7583 15.0944 16.4874C15.0944 17.2166 15.0793 17.8079 15.0616 17.8079Z" fill="#455A64"/>
<path d="M15.7887 17.8079C15.771 17.8079 15.7559 17.2166 15.7559 16.4874C15.7559 15.7583 15.771 15.167 15.7887 15.167C15.8063 15.167 15.8215 15.7583 15.8215 16.4874C15.8215 17.2166 15.8076 17.8079 15.7887 17.8079Z" fill="#455A64"/>
<path d="M59.533 25.4653H58.2734V23.4741H59.1632L59.533 25.4653Z" fill="#FF7775"/>
<path d="M32.8973 26.4551H29.8291V29.9057H32.8973V26.4551Z" fill="#FF7775"/>
<path opacity="0.4" d="M32.8973 26.4551H29.8291V29.9057H32.8973V26.4551Z" fill="white"/>
<path d="M41.4787 26.4551H32.8989V29.9057H41.4787V26.4551Z" fill="#FF7775"/>
<path opacity="0.2" d="M41.4787 26.4551H32.8989V29.9057H41.4787V26.4551Z" fill="white"/>
<path d="M31.4273 29.9056C31.4097 29.9056 31.3945 29.1391 31.3945 28.1949C31.3945 27.2507 31.4097 26.4854 31.4273 26.4854C31.445 26.4854 31.4602 27.2507 31.4602 28.1949C31.4602 29.1391 31.4463 29.9056 31.4273 29.9056Z" fill="#263238"/>
<path d="M40.9969 29.5122C40.9959 29.4962 40.9959 29.4802 40.9969 29.4643C40.9969 29.4304 40.9969 29.3848 40.9969 29.3275C40.9969 29.2048 40.9969 29.0284 40.9969 28.8029C40.9969 28.3471 40.9893 27.6904 40.9842 26.8725L41.0069 26.8923L33.2753 26.9028C33.245 26.9297 33.3144 26.8655 33.3068 26.8725V28.2268C33.3068 28.6685 33.3068 29.0985 33.3068 29.5122L33.2753 29.483L38.8071 29.4958L40.4213 29.504H40.8555H40.9691H41.0082H40.9729H40.8631H40.4365L38.8286 29.5122L33.2753 29.5262H33.2437V29.497C33.2437 29.0833 33.2437 28.6533 33.2437 28.2116V26.8725C33.2362 26.8783 33.3068 26.814 33.2778 26.8421L41.0095 26.8514H41.0322V26.8725C41.0322 27.6904 41.0221 28.3565 41.0196 28.8157C41.0196 29.0389 41.0196 29.213 41.0196 29.3346C41.0196 29.3918 41.0196 29.435 41.0196 29.4678C41.0133 29.4831 41.0057 29.498 40.9969 29.5122Z" fill="#263238"/>
<path d="M33.8609 29.5123C33.8433 29.5123 33.8281 28.921 33.8281 28.1918C33.8281 27.4627 33.8433 26.8726 33.8609 26.8726C33.8786 26.8726 33.8938 27.4627 33.8938 28.1918C33.8938 28.921 33.8849 29.5123 33.8609 29.5123Z" fill="#263238"/>
<path d="M34.5888 29.5123C34.5698 29.5123 34.5547 28.921 34.5547 28.1918C34.5547 27.4627 34.5698 26.8726 34.5888 26.8726C34.6077 26.8726 34.6216 27.4627 34.6216 28.1918C34.6216 28.921 34.6064 29.5123 34.5888 29.5123Z" fill="#263238"/>
<path d="M35.316 29.5123C35.2971 29.5123 35.2832 28.921 35.2832 28.1918C35.2832 27.4627 35.2971 26.8726 35.316 26.8726C35.335 26.8726 35.3488 27.4627 35.3488 28.1918C35.3488 28.921 35.3337 29.5123 35.316 29.5123Z" fill="#263238"/>
<path d="M36.0426 29.5123C36.0237 29.5123 36.0098 28.921 36.0098 28.1918C36.0098 27.4627 36.0237 26.8726 36.0426 26.8726C36.0615 26.8726 36.0754 27.4627 36.0754 28.1918C36.0754 28.921 36.0603 29.5123 36.0426 29.5123Z" fill="#263238"/>
<path d="M36.7701 29.5123C36.7524 29.5123 36.7373 28.921 36.7373 28.1918C36.7373 27.4627 36.7524 26.8726 36.7701 26.8726C36.7878 26.8726 36.8029 27.4627 36.8029 28.1918C36.8029 28.921 36.7878 29.5123 36.7701 29.5123Z" fill="#263238"/>
<path d="M37.4967 29.5123C37.479 29.5123 37.4639 28.921 37.4639 28.1918C37.4639 27.4627 37.479 26.8726 37.4967 26.8726C37.5144 26.8726 37.5295 27.4627 37.5295 28.1918C37.5295 28.921 37.5156 29.5123 37.4967 29.5123Z" fill="#263238"/>
<path d="M38.2237 29.5123C38.2061 29.5123 38.1909 28.921 38.1909 28.1918C38.1909 27.4627 38.2061 26.8726 38.2237 26.8726C38.2414 26.8726 38.2565 27.4627 38.2565 28.1918C38.2565 28.921 38.2427 29.5123 38.2237 29.5123Z" fill="#263238"/>
<path d="M38.9518 29.5123C38.9328 29.5123 38.9189 28.921 38.9189 28.1918C38.9189 27.4627 38.9328 26.8726 38.9518 26.8726C38.9707 26.8726 38.9846 27.4627 38.9846 28.1918C38.9846 28.921 38.9694 29.5123 38.9518 29.5123Z" fill="#263238"/>
<path d="M39.6793 29.5123C39.6604 29.5123 39.6465 28.921 39.6465 28.1918C39.6465 27.4627 39.6604 26.8726 39.6793 26.8726C39.6982 26.8726 39.7121 27.4627 39.7121 28.1918C39.7121 28.921 39.697 29.5123 39.6793 29.5123Z" fill="#263238"/>
<path d="M40.4059 29.5123C40.3882 29.5123 40.373 28.921 40.373 28.1918C40.373 27.4627 40.3882 26.8726 40.4059 26.8726C40.4235 26.8726 40.4387 27.4627 40.4387 28.1918C40.4387 28.921 40.4235 29.5123 40.4059 29.5123Z" fill="#263238"/>
<path d="M43.036 19.5737H39.9678V23.0244H43.036V19.5737Z" fill="#FF7775"/>
<path opacity="0.4" d="M43.036 19.5737H39.9678V23.0244H43.036V19.5737Z" fill="white"/>
<path d="M51.6159 19.5737H43.0361V23.0244H51.6159V19.5737Z" fill="#FF7775"/>
<path opacity="0.2" d="M51.6159 19.5737H43.0361V23.0244H51.6159V19.5737Z" fill="white"/>
<path d="M41.566 23.0245C41.5483 23.0245 41.5332 22.2579 41.5332 21.3138C41.5332 20.3696 41.5483 19.603 41.566 19.603C41.5837 19.603 41.5988 20.3696 41.5988 21.3138C41.5988 22.2579 41.5837 23.0245 41.566 23.0245Z" fill="#263238"/>
<path d="M51.135 22.6303C51.1333 22.6144 51.1333 22.5983 51.135 22.5824C51.135 22.5485 51.135 22.5029 51.135 22.4445C51.135 22.3277 51.135 22.1465 51.135 21.921C51.135 21.4653 51.1275 20.8086 51.1224 19.9906L51.1451 20.0105L43.4122 20.021L43.445 19.9906V21.3438C43.445 21.7855 43.445 22.2155 43.445 22.6291L43.4135 22.5999L48.9453 22.6128L50.5595 22.621H50.9937H51.106H51.1464H51.1098H51.0013H50.5734L48.9667 22.6291L43.4135 22.6432H43.3819V22.6139C43.3819 22.2003 43.3819 21.7703 43.3819 21.3286V19.9918C43.3744 19.9976 43.4438 19.9333 43.4147 19.9602L51.1477 19.9707H51.1691V19.9918C51.1691 20.8097 51.1603 21.4758 51.1578 21.935C51.1578 22.1582 51.1578 22.3323 51.1515 22.4539C51.1515 22.5099 51.1515 22.5543 51.1515 22.5871C51.1515 22.6198 51.135 22.6303 51.135 22.6303Z" fill="#263238"/>
<path d="M43.9991 22.6304C43.9815 22.6304 43.9663 22.0392 43.9663 21.31C43.9663 20.5808 43.9815 19.9907 43.9991 19.9907C44.0168 19.9907 44.0319 20.5808 44.0319 21.31C44.0319 22.0392 44.0168 22.6304 43.9991 22.6304Z" fill="#263238"/>
<path d="M44.7262 22.6304C44.7085 22.6304 44.6934 22.0392 44.6934 21.31C44.6934 20.5808 44.7085 19.9907 44.7262 19.9907C44.7438 19.9907 44.759 20.5808 44.759 21.31C44.759 22.0392 44.7388 22.6304 44.7262 22.6304Z" fill="#263238"/>
<path d="M45.4532 22.6304C45.4356 22.6304 45.4204 22.0392 45.4204 21.31C45.4204 20.5808 45.4356 19.9907 45.4532 19.9907C45.4709 19.9907 45.486 20.5808 45.486 21.31C45.486 22.0392 45.4722 22.6304 45.4532 22.6304Z" fill="#263238"/>
<path d="M46.1803 22.6304C46.1626 22.6304 46.1475 22.0392 46.1475 21.31C46.1475 20.5808 46.1626 19.9907 46.1803 19.9907C46.1979 19.9907 46.2144 20.5808 46.2144 21.31C46.2144 22.0392 46.1992 22.6304 46.1803 22.6304Z" fill="#263238"/>
<path d="M46.9083 22.6304C46.8894 22.6304 46.8755 22.0392 46.8755 21.31C46.8755 20.5808 46.8894 19.9907 46.9083 19.9907C46.9272 19.9907 46.9411 20.5808 46.9411 21.31C46.9411 22.0392 46.926 22.6304 46.9083 22.6304Z" fill="#263238"/>
<path d="M47.6417 22.6304C47.6228 22.6304 47.6089 22.0392 47.6089 21.31C47.6089 20.5808 47.6228 19.9907 47.6417 19.9907C47.6606 19.9907 47.6745 20.5808 47.6745 21.31C47.6745 22.0392 47.6531 22.6304 47.6417 22.6304Z" fill="#263238"/>
<path d="M48.3619 22.6304C48.3442 22.6304 48.3291 22.0392 48.3291 21.31C48.3291 20.5808 48.3442 19.9907 48.3619 19.9907C48.3796 19.9907 48.3947 20.5808 48.3947 21.31C48.3947 22.0392 48.3796 22.6304 48.3619 22.6304Z" fill="#263238"/>
<path d="M49.0895 22.6304C49.0718 22.6304 49.0566 22.0392 49.0566 21.31C49.0566 20.5808 49.0718 19.9907 49.0895 19.9907C49.1071 19.9907 49.1223 20.5808 49.1223 21.31C49.1223 22.0392 49.1084 22.6304 49.0895 22.6304Z" fill="#263238"/>
<path d="M49.816 22.6304C49.7983 22.6304 49.7832 22.0392 49.7832 21.31C49.7832 20.5808 49.7983 19.9907 49.816 19.9907C49.8337 19.9907 49.8488 20.5808 49.8488 21.31C49.8488 22.0392 49.835 22.6304 49.816 22.6304Z" fill="#263238"/>
<path d="M50.5448 22.6304C50.5259 22.6304 50.5107 22.0392 50.5107 21.31C50.5107 20.5808 50.5259 19.9907 50.5448 19.9907C50.5637 19.9907 50.5776 20.5808 50.5776 21.31C50.5776 22.0392 50.5625 22.6304 50.5448 22.6304Z" fill="#263238"/>
<path d="M16.6219 28.2012H13.5537V31.6518H16.6219V28.2012Z" fill="#FF7775"/>
<path opacity="0.4" d="M16.6219 28.2012H13.5537V31.6518H16.6219V28.2012Z" fill="white"/>
<path d="M25.2014 28.2012H16.6216V31.6518H25.2014V28.2012Z" fill="#FF7775"/>
<path opacity="0.2" d="M25.2014 28.2012H16.6216V31.6518H25.2014V28.2012Z" fill="white"/>
<path d="M15.151 31.6517C15.1333 31.6517 15.1182 30.8863 15.1182 29.941C15.1182 28.9957 15.1333 28.2314 15.151 28.2314C15.1686 28.2314 15.1838 28.9968 15.1838 29.941C15.1838 30.8852 15.1686 31.6517 15.151 31.6517Z" fill="#263238"/>
<path d="M24.7205 31.2583C24.7187 31.2423 24.7187 31.2263 24.7205 31.2104C24.7205 31.1765 24.7205 31.1309 24.7205 31.0736C24.7205 30.9509 24.7205 30.7745 24.7205 30.549C24.7205 30.0932 24.7129 29.4365 24.7079 28.6186L24.7306 28.6384L16.9977 28.6489L17.0305 28.6186V29.9729C17.0305 30.4146 17.0305 30.8446 17.0305 31.2583L16.9989 31.2291L22.5307 31.2431L24.145 31.2513H24.5791H24.6915H24.7319H24.6953H24.5867H24.1589L22.5522 31.2594L16.9989 31.2735H16.9674V31.2442C16.9674 30.8306 16.9674 30.4006 16.9674 29.9589V28.6186C16.9598 28.6186 17.0292 28.5601 17.0002 28.5882L24.7331 28.5975H24.7546V28.6186C24.7546 29.4365 24.7457 30.1026 24.7432 30.5618C24.7432 30.785 24.7432 30.9591 24.7369 31.0807C24.7369 31.1379 24.7369 31.1811 24.7369 31.2139C24.7369 31.2466 24.7205 31.2583 24.7205 31.2583Z" fill="#263238"/>
<path d="M17.5846 31.2579C17.5656 31.2579 17.5518 30.6666 17.5518 29.9374C17.5518 29.2083 17.5656 28.6182 17.5846 28.6182C17.6035 28.6182 17.6174 29.2024 17.6174 29.9374C17.6174 30.6724 17.6035 31.2579 17.5846 31.2579Z" fill="#263238"/>
<path d="M18.3111 31.2579C18.2935 31.2579 18.2783 30.6666 18.2783 29.9374C18.2783 29.2083 18.2935 28.6182 18.3111 28.6182C18.3288 28.6182 18.3439 29.2024 18.3439 29.9374C18.3439 30.6724 18.3288 31.2579 18.3111 31.2579Z" fill="#263238"/>
<path d="M19.0387 31.2579C19.021 31.2579 19.0059 30.6666 19.0059 29.9374C19.0059 29.2083 19.021 28.6182 19.0387 28.6182C19.0563 28.6182 19.0715 29.2024 19.0715 29.9374C19.0715 30.6724 19.0576 31.2579 19.0387 31.2579Z" fill="#263238"/>
<path d="M19.7652 31.2579C19.7476 31.2579 19.7324 30.6666 19.7324 29.9374C19.7324 29.2083 19.7476 28.6182 19.7652 28.6182C19.7829 28.6182 19.7981 29.2024 19.7981 29.9374C19.7981 30.6724 19.7842 31.2579 19.7652 31.2579Z" fill="#263238"/>
<path d="M20.4938 31.2579C20.4748 31.2579 20.4609 30.6666 20.4609 29.9374C20.4609 29.2083 20.4748 28.6182 20.4938 28.6182C20.5127 28.6182 20.5266 29.2024 20.5266 29.9374C20.5266 30.6724 20.5064 31.2579 20.4938 31.2579Z" fill="#263238"/>
<path d="M21.2208 31.2579C21.2019 31.2579 21.188 30.6666 21.188 29.9374C21.188 29.2083 21.2019 28.6182 21.2208 28.6182C21.2397 28.6182 21.2536 29.2024 21.2536 29.9374C21.2536 30.6724 21.2385 31.2579 21.2208 31.2579Z" fill="#263238"/>
<path d="M21.9479 31.2579C21.9302 31.2579 21.915 30.6666 21.915 29.9374C21.915 29.2083 21.9302 28.6182 21.9479 28.6182C21.9655 28.6182 21.9807 29.2024 21.9807 29.9374C21.9807 30.6724 21.9655 31.2579 21.9479 31.2579Z" fill="#263238"/>
<path d="M22.6744 31.2579C22.6567 31.2579 22.6416 30.6666 22.6416 29.9374C22.6416 29.2083 22.6567 28.6182 22.6744 28.6182C22.6921 28.6182 22.7072 29.2024 22.7072 29.9374C22.7072 30.6724 22.6921 31.2579 22.6744 31.2579Z" fill="#263238"/>
<path d="M23.4015 31.2579C23.3838 31.2579 23.3687 30.6666 23.3687 29.9374C23.3687 29.2083 23.3838 28.6182 23.4015 28.6182C23.4191 28.6182 23.4343 29.2024 23.4343 29.9374C23.4343 30.6724 23.4204 31.2579 23.4015 31.2579Z" fill="#263238"/>
<path d="M24.1285 31.2579C24.1108 31.2579 24.0957 30.6666 24.0957 29.9374C24.0957 29.2083 24.1108 28.6182 24.1285 28.6182C24.1462 28.6182 24.1613 29.2024 24.1613 29.9374C24.1613 30.6724 24.1474 31.2579 24.1285 31.2579Z" fill="#263238"/>
<path d="M36.4041 23.0435H33.3359V26.4941H36.4041V23.0435Z" fill="#263238"/>
<path d="M44.9851 23.0435H36.4053V26.4941H44.9851V23.0435Z" fill="#263238"/>
<path d="M34.9332 26.4925C34.9155 26.4925 34.9004 25.7272 34.9004 24.783C34.9004 23.8388 34.9155 23.0723 34.9332 23.0723C34.9509 23.0723 34.966 23.8376 34.966 24.783C34.966 25.7283 34.9521 26.4925 34.9332 26.4925Z" fill="#455A64"/>
<path d="M36.4088 26.4925C36.3899 26.4925 36.376 25.7272 36.376 24.783C36.376 23.8388 36.3899 23.0723 36.4088 23.0723C36.4277 23.0723 36.4416 23.8376 36.4416 24.783C36.4416 25.7283 36.4227 26.4925 36.4088 26.4925Z" fill="#455A64"/>
<path d="M44.5027 26.0989C44.5016 26.0829 44.5016 26.0669 44.5027 26.051C44.5027 26.0171 44.5027 25.9727 44.5027 25.9143C44.5027 25.7916 44.5027 25.6163 44.5027 25.3896C44.5027 24.9339 44.4951 24.2772 44.4901 23.4592L44.5128 23.4802L36.7811 23.4896C36.7508 23.5165 36.8202 23.4522 36.8127 23.4592V24.8112C36.8127 25.2529 36.8127 25.6829 36.8127 26.0966L36.7811 26.0674L42.3129 26.0814L43.9272 26.0896H44.3613H44.4736H44.514H44.4787H44.3601H43.9322L42.3255 26.0977L36.7723 26.1106H36.7407V26.0814C36.7407 25.6677 36.7407 25.2377 36.7407 24.796V23.4615L36.7748 23.4312L44.5065 23.4405H44.5292V23.4615C44.5292 24.2853 44.5191 24.9467 44.5166 25.4048C44.5166 25.6292 44.5166 25.8033 44.5166 25.9248C44.5166 25.9809 44.5166 26.0253 44.5166 26.058C44.5131 26.0719 44.5084 26.0856 44.5027 26.0989Z" fill="#455A64"/>
<path d="M37.3668 26.0987C37.3491 26.0987 37.334 25.5074 37.334 24.7794C37.334 24.0514 37.3491 23.459 37.3668 23.459C37.3845 23.459 37.3996 24.0503 37.3996 24.7794C37.3996 25.5086 37.3857 26.0987 37.3668 26.0987Z" fill="#455A64"/>
<path d="M38.0939 26.0987C38.0762 26.0987 38.061 25.5074 38.061 24.7794C38.061 24.0514 38.0762 23.459 38.0939 23.459C38.1115 23.459 38.1267 24.0503 38.1267 24.7794C38.1267 25.5086 38.1128 26.0987 38.0939 26.0987Z" fill="#455A64"/>
<path d="M38.8219 26.0987C38.8029 26.0987 38.7891 25.5074 38.7891 24.7794C38.7891 24.0514 38.8029 23.459 38.8219 23.459C38.8408 23.459 38.8547 24.0503 38.8547 24.7794C38.8547 25.5086 38.8395 26.0987 38.8219 26.0987Z" fill="#455A64"/>
<path d="M39.5489 26.0987C39.53 26.0987 39.5161 25.5074 39.5161 24.7794C39.5161 24.0514 39.53 23.459 39.5489 23.459C39.5679 23.459 39.5817 24.0503 39.5817 24.7794C39.5817 25.5086 39.5641 26.0987 39.5489 26.0987Z" fill="#455A64"/>
<path d="M40.276 26.0987C40.2583 26.0987 40.2432 25.5074 40.2432 24.7794C40.2432 24.0514 40.2583 23.459 40.276 23.459C40.2936 23.459 40.3088 24.0503 40.3088 24.7794C40.3088 25.5086 40.2936 26.0987 40.276 26.0987Z" fill="#455A64"/>
<path d="M41.003 26.0987C40.9854 26.0987 40.9702 25.5074 40.9702 24.7794C40.9702 24.0514 40.9854 23.459 41.003 23.459C41.0207 23.459 41.0358 24.0503 41.0358 24.7794C41.0358 25.5086 41.022 26.0987 41.003 26.0987Z" fill="#455A64"/>
<path d="M41.7301 26.0987C41.7124 26.0987 41.6973 25.5074 41.6973 24.7794C41.6973 24.0514 41.7124 23.459 41.7301 23.459C41.7478 23.459 41.7629 24.0503 41.7629 24.7794C41.7629 25.5086 41.749 26.0987 41.7301 26.0987Z" fill="#455A64"/>
<path d="M42.4566 26.0987C42.439 26.0987 42.4238 25.5074 42.4238 24.7794C42.4238 24.0514 42.439 23.459 42.4566 23.459C42.4743 23.459 42.4907 24.0503 42.4907 24.7794C42.4907 25.5086 42.4756 26.0987 42.4566 26.0987Z" fill="#455A64"/>
<path d="M43.1852 26.0987C43.1662 26.0987 43.1523 25.5074 43.1523 24.7794C43.1523 24.0514 43.1662 23.459 43.1852 23.459C43.2041 23.459 43.218 24.0503 43.218 24.7794C43.218 25.5086 43.2028 26.0987 43.1852 26.0987Z" fill="#455A64"/>
<path d="M43.9117 26.0987C43.8928 26.0987 43.8789 25.5074 43.8789 24.7794C43.8789 24.0514 43.8928 23.459 43.9117 23.459C43.9307 23.459 43.9445 24.0503 43.9445 24.7794C43.9445 25.5086 43.9294 26.0987 43.9117 26.0987Z" fill="#455A64"/>
<path d="M28.9813 30.0171H25.9131V33.4678H28.9813V30.0171Z" fill="#FF7775"/>
<path d="M37.5622 30.0171H28.9824V33.4678H37.5622V30.0171Z" fill="#FF7775"/>
<path opacity="0.4" d="M37.5622 30.0171H28.9824V33.4678H37.5622V30.0171Z" fill="black"/>
<path d="M27.5123 33.4676C27.4934 33.4676 27.4795 32.7023 27.4795 31.7569C27.4795 30.8116 27.4934 30.0474 27.5123 30.0474C27.5312 30.0474 27.5451 30.8127 27.5451 31.7569C27.5451 32.7011 27.53 33.4676 27.5123 33.4676Z" fill="#263238"/>
<path d="M37.0805 33.0737C37.0805 33.0737 37.0805 33.0562 37.0805 33.0258C37.0805 32.9955 37.0805 32.9464 37.0805 32.8891C37.0805 32.7723 37.0805 32.59 37.0742 32.3644C37.0742 31.9087 37.0679 31.252 37.0628 30.434L37.0843 30.4539L29.3526 30.4644L29.3854 30.434V30.7776C29.3854 30.8944 29.3854 31.0054 29.3854 31.1176V33.0737L29.3539 33.0445L34.8857 33.0586L36.4986 33.0667H36.9328H37.0464C37.0594 33.0658 37.0725 33.0658 37.0855 33.0667H37.0401H36.9303H36.5037L34.897 33.0749L29.3438 33.0889H29.311V31.1024C29.311 30.9856 29.311 30.8757 29.311 30.7624V30.4188C29.3046 30.4247 29.3741 30.3604 29.345 30.3885L37.0767 30.3978H37.0994V30.4188C37.0994 31.2368 37.0906 31.9029 37.0868 32.3621C37.0868 32.5853 37.0868 32.7594 37.0868 32.8809C37.0868 32.9382 37.0868 32.9814 37.0868 33.0141C37.0883 33.0342 37.0862 33.0544 37.0805 33.0737Z" fill="#263238"/>
<path d="M29.9459 33.0738C29.927 33.0738 29.9131 32.4825 29.9131 31.7533C29.9131 31.0242 29.927 30.4341 29.9459 30.4341C29.9648 30.4341 29.9787 31.0242 29.9787 31.7533C29.9787 32.4825 29.9636 33.0738 29.9459 33.0738Z" fill="#263238"/>
<path d="M30.6725 33.0738C30.6535 33.0738 30.6396 32.4825 30.6396 31.7533C30.6396 31.0242 30.6535 30.4341 30.6725 30.4341C30.6914 30.4341 30.7053 31.0242 30.7053 31.7533C30.7053 32.4825 30.6901 33.0738 30.6725 33.0738Z" fill="#263238"/>
<path d="M31.3995 33.0738C31.3818 33.0738 31.3667 32.4825 31.3667 31.7533C31.3667 31.0242 31.3818 30.4341 31.3995 30.4341C31.4172 30.4341 31.4323 31.0242 31.4323 31.7533C31.4323 32.4825 31.4172 33.0738 31.3995 33.0738Z" fill="#263238"/>
<path d="M32.1266 33.0738C32.1089 33.0738 32.0938 32.4825 32.0938 31.7533C32.0938 31.0242 32.1089 30.4341 32.1266 30.4341C32.1442 30.4341 32.1594 31.0242 32.1594 31.7533C32.1594 32.4825 32.1455 33.0738 32.1266 33.0738Z" fill="#263238"/>
<path d="M32.8536 33.0738C32.8359 33.0738 32.8208 32.4825 32.8208 31.7533C32.8208 31.0242 32.8359 30.4341 32.8536 30.4341C32.8713 30.4341 32.8864 31.0242 32.8864 31.7533C32.8864 32.4825 32.8751 33.0738 32.8536 33.0738Z" fill="#263238"/>
<path d="M33.5807 33.0738C33.563 33.0738 33.5479 32.4825 33.5479 31.7533C33.5479 31.0242 33.563 30.4341 33.5807 30.4341C33.5983 30.4341 33.6147 31.0242 33.6147 31.7533C33.6147 32.4825 33.5996 33.0738 33.5807 33.0738Z" fill="#263238"/>
<path d="M34.3087 33.0738C34.2898 33.0738 34.2759 32.4825 34.2759 31.7533C34.2759 31.0242 34.2898 30.4341 34.3087 30.4341C34.3276 30.4341 34.3415 31.0242 34.3415 31.7533C34.3415 32.4825 34.3264 33.0738 34.3087 33.0738Z" fill="#263238"/>
<path d="M35.0357 33.0738C35.0168 33.0738 35.0029 32.4825 35.0029 31.7533C35.0029 31.0242 35.0168 30.4341 35.0357 30.4341C35.0547 30.4341 35.0686 31.0242 35.0686 31.7533C35.0686 32.4825 35.0534 33.0738 35.0357 33.0738Z" fill="#263238"/>
<path d="M35.7623 33.0738C35.7446 33.0738 35.7295 32.4825 35.7295 31.7533C35.7295 31.0242 35.7446 30.4341 35.7623 30.4341C35.78 30.4341 35.7951 31.0242 35.7951 31.7533C35.7951 32.4825 35.7775 33.0738 35.7623 33.0738Z" fill="#263238"/>
<path d="M36.4898 33.0738C36.4722 33.0738 36.457 32.4825 36.457 31.7533C36.457 31.0242 36.4722 30.4341 36.4898 30.4341C36.5075 30.4341 36.5227 31.0242 36.5227 31.7533C36.5227 32.4825 36.5088 33.0738 36.4898 33.0738Z" fill="#263238"/>
<path d="M38.7879 29.9048H35.7197V33.3554H38.7879V29.9048Z" fill="#263238"/>
<path d="M47.3679 29.9048H38.7881V33.3554H47.3679V29.9048Z" fill="#263238"/>
<path d="M37.3175 33.3555C37.2986 33.3555 37.2847 32.589 37.2847 31.6448C37.2847 30.7006 37.2986 29.9341 37.3175 29.9341C37.3364 29.9341 37.3503 30.6995 37.3503 31.6448C37.3503 32.5901 37.3352 33.3555 37.3175 33.3555Z" fill="#455A64"/>
<path d="M38.7877 33.3555C38.77 33.3555 38.7549 32.589 38.7549 31.6448C38.7549 30.7006 38.77 29.9341 38.7877 29.9341C38.8054 29.9341 38.8205 30.6995 38.8205 31.6448C38.8205 32.5901 38.8066 33.3555 38.7877 33.3555Z" fill="#455A64"/>
<path d="M46.8842 32.9618C46.8842 32.9618 46.8842 32.9443 46.8842 32.9139C46.8842 32.8836 46.8842 32.8345 46.8842 32.776C46.8842 32.6533 46.8842 32.4781 46.8779 32.2525C46.8779 31.7968 46.8716 31.1401 46.8666 30.321L46.888 30.342L39.1564 30.3525L39.1892 30.3221V31.0046C39.1892 31.2313 39.1892 31.4544 39.1892 31.6753V32.9607L39.1576 32.9315L44.6894 32.9443L46.3024 32.9525H46.7366H46.8502H46.8893H46.8539H46.7441H46.3176L44.7109 32.9607L39.1576 32.9747H39.1261V30.3233C39.1185 30.3291 39.1879 30.2649 39.1589 30.2918L46.8905 30.3023H46.9133V30.3221C46.9133 31.1401 46.9044 31.8073 46.9006 32.2666C46.9006 32.4898 46.9006 32.6639 46.9006 32.7854C46.9006 32.8415 46.9006 32.8859 46.9006 32.9186C46.8971 32.9336 46.8916 32.9481 46.8842 32.9618Z" fill="#455A64"/>
<path d="M39.7506 32.9617C39.7317 32.9617 39.7178 32.3704 39.7178 31.6412C39.7178 30.9121 39.7317 30.3208 39.7506 30.3208C39.7695 30.3208 39.7834 30.9121 39.7834 31.6412C39.7834 32.3704 39.7683 32.9617 39.7506 32.9617Z" fill="#455A64"/>
<path d="M40.4781 32.9617C40.4592 32.9617 40.4453 32.3704 40.4453 31.6412C40.4453 30.9121 40.4592 30.3208 40.4781 30.3208C40.4971 30.3208 40.5109 30.9121 40.5109 31.6412C40.5109 32.3704 40.4958 32.9617 40.4781 32.9617Z" fill="#455A64"/>
<path d="M41.2047 32.9617C41.187 32.9617 41.1719 32.3704 41.1719 31.6412C41.1719 30.9121 41.187 30.3208 41.2047 30.3208C41.2224 30.3208 41.2375 30.9121 41.2375 31.6412C41.2375 32.3704 41.2224 32.9617 41.2047 32.9617Z" fill="#455A64"/>
<path d="M41.9317 32.9617C41.9141 32.9617 41.8989 32.3704 41.8989 31.6412C41.8989 30.9121 41.9141 30.3208 41.9317 30.3208C41.9494 30.3208 41.9646 30.9121 41.9646 31.6412C41.9646 32.3704 41.9507 32.9617 41.9317 32.9617Z" fill="#455A64"/>
<path d="M42.6588 32.9617C42.6411 32.9617 42.626 32.3704 42.626 31.6412C42.626 30.9121 42.6411 30.3208 42.6588 30.3208C42.6765 30.3208 42.6916 30.9121 42.6916 31.6412C42.6916 32.3704 42.6777 32.9617 42.6588 32.9617Z" fill="#455A64"/>
<path d="M43.3873 32.9617C43.3684 32.9617 43.3545 32.3704 43.3545 31.6412C43.3545 30.9121 43.3684 30.3208 43.3873 30.3208C43.4062 30.3208 43.4201 30.9121 43.4201 31.6412C43.4201 32.3704 43.405 32.9617 43.3873 32.9617Z" fill="#455A64"/>
<path d="M44.1139 32.9617C44.0949 32.9617 44.0811 32.3704 44.0811 31.6412C44.0811 30.9121 44.0949 30.3208 44.1139 30.3208C44.1328 30.3208 44.1467 30.9121 44.1467 31.6412C44.1467 32.3704 44.1315 32.9617 44.1139 32.9617Z" fill="#455A64"/>
<path d="M44.8414 32.9617C44.8237 32.9617 44.8086 32.3704 44.8086 31.6412C44.8086 30.9121 44.8237 30.3208 44.8414 30.3208C44.8591 30.3208 44.8742 30.9121 44.8742 31.6412C44.8742 32.3704 44.8654 32.9617 44.8414 32.9617Z" fill="#455A64"/>
<path d="M45.568 32.9617C45.5503 32.9617 45.5352 32.3704 45.5352 31.6412C45.5352 30.9121 45.5503 30.3208 45.568 30.3208C45.5856 30.3208 45.6008 30.9121 45.6008 31.6412C45.6008 32.3704 45.5856 32.9617 45.568 32.9617Z" fill="#455A64"/>
<path d="M46.295 32.9617C46.2773 32.9617 46.2622 32.3704 46.2622 31.6412C46.2622 30.9121 46.2773 30.3208 46.295 30.3208C46.3127 30.3208 46.3278 30.9121 46.3278 31.6412C46.3278 32.3704 46.314 32.9617 46.295 32.9617Z" fill="#455A64"/>
<path d="M41.2 23.0571H38.1318V26.5078H41.2V23.0571Z" fill="#455A64"/>
<path d="M49.7795 23.0571H41.1997V26.5078H49.7795V23.0571Z" fill="#455A64"/>
<path d="M39.7296 26.5079C39.7119 26.5079 39.6968 25.7413 39.6968 24.7971C39.6968 23.853 39.7119 23.0864 39.7296 23.0864C39.7473 23.0864 39.7624 23.853 39.7624 24.7971C39.7624 25.7413 39.7485 26.5079 39.7296 26.5079Z" fill="#263238"/>
<path d="M41.2047 26.5079C41.187 26.5079 41.1719 25.7413 41.1719 24.7971C41.1719 23.853 41.187 23.0864 41.2047 23.0864C41.2224 23.0864 41.2375 23.853 41.2375 24.7971C41.2375 25.7413 41.2186 26.5079 41.2047 26.5079Z" fill="#263238"/>
<path d="M49.299 26.1139C49.298 26.098 49.298 26.082 49.299 26.066C49.299 26.0321 49.299 25.9866 49.299 25.9281C49.299 25.8113 49.299 25.6302 49.299 25.4046C49.299 24.9489 49.2914 24.2922 49.2864 23.4742L49.3091 23.4941L41.5762 23.5046L41.609 23.4742V24.8286C41.609 25.2703 41.609 25.7003 41.609 26.1139L41.5775 26.0847L47.1093 26.0976L48.7235 26.1058H49.1577H49.27H49.3104H49.2738H49.1652H48.7374L47.1307 26.1139L41.5775 26.128H41.5459V26.0987C41.5459 25.6851 41.5459 25.2551 41.5459 24.8134V23.4742L41.5787 23.4438L49.3116 23.4532H49.3344V23.4742C49.328 24.2922 49.3243 24.9583 49.3217 25.4175C49.3217 25.6407 49.3217 25.8148 49.3217 25.9363C49.3217 25.9936 49.3217 26.0368 49.3217 26.0695C49.3217 26.1022 49.299 26.1139 49.299 26.1139Z" fill="#263238"/>
<path d="M42.1627 26.1138C42.145 26.1138 42.1299 25.5225 42.1299 24.7934C42.1299 24.0642 42.145 23.4741 42.1627 23.4741C42.1804 23.4741 42.1955 24.0642 42.1955 24.7934C42.1955 25.5225 42.1804 26.1138 42.1627 26.1138Z" fill="#263238"/>
<path d="M42.8897 26.1138C42.8721 26.1138 42.8569 25.5225 42.8569 24.7934C42.8569 24.0642 42.8721 23.4741 42.8897 23.4741C42.9074 23.4741 42.9226 24.0642 42.9226 24.7934C42.9226 25.5225 42.9087 26.1138 42.8897 26.1138Z" fill="#263238"/>
<path d="M43.6168 26.1138C43.5991 26.1138 43.584 25.5225 43.584 24.7934C43.584 24.0642 43.5991 23.4741 43.6168 23.4741C43.6345 23.4741 43.6496 24.0642 43.6496 24.7934C43.6496 25.5225 43.6357 26.1138 43.6168 26.1138Z" fill="#263238"/>
<path d="M44.3453 26.1138C44.3264 26.1138 44.3125 25.5225 44.3125 24.7934C44.3125 24.0642 44.3264 23.4741 44.3453 23.4741C44.3642 23.4741 44.3781 24.0642 44.3781 24.7934C44.3781 25.5225 44.3605 26.1138 44.3453 26.1138Z" fill="#263238"/>
<path d="M45.0719 26.1138C45.0529 26.1138 45.0391 25.5225 45.0391 24.7934C45.0391 24.0642 45.0529 23.4741 45.0719 23.4741C45.0908 23.4741 45.1047 24.0642 45.1047 24.7934C45.1047 25.5225 45.0895 26.1138 45.0719 26.1138Z" fill="#263238"/>
<path d="M45.7989 26.1138C45.7813 26.1138 45.7661 25.5225 45.7661 24.7934C45.7661 24.0642 45.7813 23.4741 45.7989 23.4741C45.8166 23.4741 45.8317 24.0642 45.8317 24.7934C45.8317 25.5225 45.8166 26.1138 45.7989 26.1138Z" fill="#263238"/>
<path d="M46.526 26.1138C46.5083 26.1138 46.4932 25.5225 46.4932 24.7934C46.4932 24.0642 46.5083 23.4741 46.526 23.4741C46.5436 23.4741 46.5588 24.0642 46.5588 24.7934C46.5588 25.5225 46.5449 26.1138 46.526 26.1138Z" fill="#263238"/>
<path d="M47.2525 26.1138C47.2349 26.1138 47.2197 25.5225 47.2197 24.7934C47.2197 24.0642 47.2349 23.4741 47.2525 23.4741C47.2702 23.4741 47.2854 24.0642 47.2854 24.7934C47.2854 25.5225 47.2715 26.1138 47.2525 26.1138Z" fill="#263238"/>
<path d="M47.9813 26.1138C47.9624 26.1138 47.9473 25.5225 47.9473 24.7934C47.9473 24.0642 47.9624 23.4741 47.9813 23.4741C48.0003 23.4741 48.0142 24.0642 48.0142 24.7934C48.0142 25.5225 47.999 26.1138 47.9813 26.1138Z" fill="#263238"/>
<path d="M48.7081 26.1138C48.6892 26.1138 48.6753 25.5225 48.6753 24.7934C48.6753 24.0642 48.6892 23.4741 48.7081 23.4741C48.727 23.4741 48.7409 24.0642 48.7409 24.7934C48.7409 25.5225 48.7258 26.1138 48.7081 26.1138Z" fill="#263238"/>
<path d="M36.6072 26.4551H33.5391V29.9057H36.6072V26.4551Z" fill="#FF7775"/>
<path d="M45.1882 26.4551H36.6084V29.9057H45.1882V26.4551Z" fill="#FF7775"/>
<path opacity="0.4" d="M45.1882 26.4551H36.6084V29.9057H45.1882V26.4551Z" fill="black"/>
<path d="M35.1363 29.9056C35.1187 29.9056 35.1035 29.1391 35.1035 28.1949C35.1035 27.2507 35.1187 26.4854 35.1363 26.4854C35.154 26.4854 35.1704 27.2507 35.1704 28.1949C35.1704 29.1391 35.1553 29.9056 35.1363 29.9056Z" fill="#263238"/>
<path d="M44.7062 29.5122C44.7062 29.5122 44.7062 29.4946 44.7062 29.4643C44.7062 29.4339 44.7062 29.3848 44.7062 29.3275C44.7062 29.2048 44.7062 29.0284 44.7062 28.8029C44.7062 28.3471 44.6987 27.6904 44.6936 26.8725L44.7163 26.8923L36.9847 26.9028C36.9544 26.9297 37.0238 26.8655 37.0162 26.8725V28.2268C37.0162 28.6685 37.0162 29.0985 37.0162 29.5122L36.9847 29.483L42.5165 29.4958L44.1307 29.504H44.5649H44.6785H44.7176H44.6823H44.5725H44.1459L42.5379 29.5122L36.9847 29.5262H36.9531V28.2268C36.9531 28.0059 36.9531 27.7827 36.9531 27.5561V26.8725C36.9531 26.8783 37.0162 26.814 36.9872 26.8421L44.7189 26.8514H44.7416V26.8725C44.7416 27.6904 44.7315 28.3565 44.729 28.8157C44.729 29.0389 44.729 29.213 44.729 29.3346C44.729 29.3918 44.729 29.435 44.729 29.4678C44.7227 29.4831 44.7151 29.498 44.7062 29.5122Z" fill="#263238"/>
<path d="M37.5699 29.5123C37.5523 29.5123 37.5371 28.921 37.5371 28.1918C37.5371 27.4627 37.5523 26.8726 37.5699 26.8726C37.5876 26.8726 37.6027 27.4627 37.6027 28.1918C37.6027 28.921 37.5889 29.5123 37.5699 29.5123Z" fill="#263238"/>
<path d="M38.3023 29.5123C38.2834 29.5123 38.2695 28.921 38.2695 28.1918C38.2695 27.4627 38.2834 26.8726 38.3023 26.8726C38.3213 26.8726 38.3352 27.4627 38.3352 28.1918C38.3352 28.921 38.3162 29.5123 38.3023 29.5123Z" fill="#263238"/>
<path d="M39.025 29.5123C39.0061 29.5123 38.9922 28.921 38.9922 28.1918C38.9922 27.4627 39.0061 26.8726 39.025 26.8726C39.0439 26.8726 39.0578 27.4627 39.0578 28.1918C39.0578 28.921 39.0427 29.5123 39.025 29.5123Z" fill="#263238"/>
<path d="M39.7525 29.5123C39.7349 29.5123 39.7197 28.921 39.7197 28.1918C39.7197 27.4627 39.7349 26.8726 39.7525 26.8726C39.7702 26.8726 39.7854 27.4627 39.7854 28.1918C39.7854 28.921 39.7702 29.5123 39.7525 29.5123Z" fill="#263238"/>
<path d="M40.4791 29.5123C40.4614 29.5123 40.4463 28.921 40.4463 28.1918C40.4463 27.4627 40.4614 26.8726 40.4791 26.8726C40.4968 26.8726 40.5119 27.4627 40.5119 28.1918C40.5119 28.921 40.4968 29.5123 40.4791 29.5123Z" fill="#263238"/>
<path d="M41.2047 29.5123C41.187 29.5123 41.1719 28.921 41.1719 28.1918C41.1719 27.4627 41.187 26.8726 41.2047 26.8726C41.2224 26.8726 41.2375 27.4627 41.2375 28.1918C41.2375 28.921 41.2249 29.5123 41.2047 29.5123Z" fill="#263238"/>
<path d="M41.9332 29.5123C41.9155 29.5123 41.9004 28.921 41.9004 28.1918C41.9004 27.4627 41.9155 26.8726 41.9332 26.8726C41.9509 26.8726 41.9673 27.4627 41.9673 28.1918C41.9673 28.921 41.9521 29.5123 41.9332 29.5123Z" fill="#263238"/>
<path d="M42.6612 29.5123C42.6423 29.5123 42.6284 28.921 42.6284 28.1918C42.6284 27.4627 42.6423 26.8726 42.6612 26.8726C42.6802 26.8726 42.694 27.4627 42.694 28.1918C42.694 28.921 42.6789 29.5123 42.6612 29.5123Z" fill="#263238"/>
<path d="M43.3883 29.5123C43.3693 29.5123 43.3555 28.921 43.3555 28.1918C43.3555 27.4627 43.3693 26.8726 43.3883 26.8726C43.4072 26.8726 43.4211 27.4627 43.4211 28.1918C43.4211 28.921 43.406 29.5123 43.3883 29.5123Z" fill="#263238"/>
<path d="M44.1153 29.5123C44.0977 29.5123 44.0825 28.921 44.0825 28.1918C44.0825 27.4627 44.0977 26.8726 44.1153 26.8726C44.133 26.8726 44.1482 27.4627 44.1482 28.1918C44.1482 28.921 44.133 29.5123 44.1153 29.5123Z" fill="#263238"/>
<path d="M45.2313 26.4409H42.1631V29.8916H45.2313V26.4409Z" fill="#455A64"/>
<path d="M53.8108 26.4409H45.231V29.8916H53.8108V26.4409Z" fill="#455A64"/>
<path d="M43.7604 29.891C43.7427 29.891 43.7275 29.1256 43.7275 28.1814C43.7275 27.2373 43.7427 26.4707 43.7604 26.4707C43.778 26.4707 43.7932 27.2361 43.7932 28.1814C43.7932 29.1268 43.778 29.891 43.7604 29.891Z" fill="#263238"/>
<path d="M45.2311 29.891C45.2134 29.891 45.1982 29.1256 45.1982 28.1814C45.1982 27.2373 45.2134 26.4707 45.2311 26.4707C45.2487 26.4707 45.2639 27.2361 45.2639 28.1814C45.2639 29.1268 45.25 29.891 45.2311 29.891Z" fill="#263238"/>
<path d="M53.3303 29.4968C53.3283 29.4809 53.3283 29.4649 53.3303 29.4489C53.3303 29.4151 53.3303 29.3706 53.3303 29.3122C53.3303 29.1895 53.3303 29.0142 53.3303 28.7887C53.3303 28.3318 53.3227 27.6751 53.3176 26.8571L53.3404 26.8782L45.6074 26.8875L45.6403 26.8571V28.2103C45.6403 28.6508 45.6403 29.0809 45.6403 29.4957L45.6087 29.4665L51.1405 29.4805L52.7547 29.4887H53.1889H53.3012H53.3416H53.305H53.1965H52.7686L51.162 29.4968L45.6087 29.5097H45.5771V29.4805C45.5771 29.0668 45.5771 28.6368 45.5771 28.1951V26.8595L45.61 26.8291L53.3429 26.8384H53.3643V26.8595C53.3643 27.6833 53.3555 28.3447 53.353 28.8027C53.353 29.0271 53.353 29.2012 53.353 29.3227C53.353 29.3788 53.353 29.4232 53.353 29.456C53.353 29.4887 53.3303 29.498 53.3303 29.4968Z" fill="#263238"/>
<path d="M46.1939 29.4966C46.1763 29.4966 46.1611 28.9054 46.1611 28.1774C46.1611 27.4494 46.1763 26.8569 46.1939 26.8569C46.2116 26.8569 46.2268 27.4482 46.2268 28.1774C46.2268 28.9065 46.2116 29.4966 46.1939 29.4966Z" fill="#263238"/>
<path d="M46.921 29.4966C46.9033 29.4966 46.8882 28.9054 46.8882 28.1774C46.8882 27.4494 46.9033 26.8569 46.921 26.8569C46.9387 26.8569 46.9538 27.4482 46.9538 28.1774C46.9538 28.9065 46.9387 29.4966 46.921 29.4966Z" fill="#263238"/>
<path d="M47.648 29.4966C47.6304 29.4966 47.6152 28.9054 47.6152 28.1774C47.6152 27.4494 47.6304 26.8569 47.648 26.8569C47.6657 26.8569 47.6809 27.4482 47.6809 28.1774C47.6809 28.9065 47.667 29.4966 47.648 29.4966Z" fill="#263238"/>
<path d="M48.3746 29.4966C48.3569 29.4966 48.3418 28.9054 48.3418 28.1774C48.3418 27.4494 48.3569 26.8569 48.3746 26.8569C48.3923 26.8569 48.4074 27.4482 48.4074 28.1774C48.4074 28.9065 48.3986 29.4966 48.3746 29.4966Z" fill="#263238"/>
<path d="M49.1031 29.4966C49.0842 29.4966 49.0703 28.9054 49.0703 28.1774C49.0703 27.4494 49.0842 26.8569 49.1031 26.8569C49.1221 26.8569 49.1359 27.4482 49.1359 28.1774C49.1359 28.9065 49.1208 29.4966 49.1031 29.4966Z" fill="#263238"/>
<path d="M49.8302 29.4966C49.8112 29.4966 49.7974 28.9054 49.7974 28.1774C49.7974 27.4494 49.8112 26.8569 49.8302 26.8569C49.8491 26.8569 49.863 27.4482 49.863 28.1774C49.863 28.9065 49.8478 29.4966 49.8302 29.4966Z" fill="#263238"/>
<path d="M50.5572 29.4966C50.5396 29.4966 50.5244 28.9054 50.5244 28.1774C50.5244 27.4494 50.5396 26.8569 50.5572 26.8569C50.5749 26.8569 50.59 27.4482 50.59 28.1774C50.59 28.9065 50.5749 29.4966 50.5572 29.4966Z" fill="#263238"/>
<path d="M51.2838 29.4966C51.2661 29.4966 51.251 28.9054 51.251 28.1774C51.251 27.4494 51.2661 26.8569 51.2838 26.8569C51.3015 26.8569 51.3166 27.4482 51.3166 28.1774C51.3166 28.9065 51.3015 29.4966 51.2838 29.4966Z" fill="#263238"/>
<path d="M52.0113 29.4966C51.9937 29.4966 51.9785 28.9054 51.9785 28.1774C51.9785 27.4494 51.9937 26.8569 52.0113 26.8569C52.029 26.8569 52.0441 27.4482 52.0441 28.1774C52.0441 28.9065 52.0303 29.4966 52.0113 29.4966Z" fill="#263238"/>
<path d="M52.7379 29.4966C52.7202 29.4966 52.7051 28.9054 52.7051 28.1774C52.7051 27.4494 52.7202 26.8569 52.7379 26.8569C52.7556 26.8569 52.772 27.4482 52.772 28.1774C52.772 28.9065 52.7568 29.4966 52.7379 29.4966Z" fill="#263238"/>
<path d="M18.1551 21.2202H15.0869V24.6709H18.1551V21.2202Z" fill="#455A64"/>
<path d="M26.736 21.2202H18.1562V24.6709H26.736V21.2202Z" fill="#455A64"/>
<path d="M16.6861 24.6698C16.6672 24.6698 16.6533 23.9044 16.6533 22.9602C16.6533 22.0161 16.6672 21.2495 16.6861 21.2495C16.7051 21.2495 16.719 22.0149 16.719 22.9602C16.719 23.9056 16.7038 24.6698 16.6861 24.6698Z" fill="#263238"/>
<path d="M18.1564 24.6698C18.1387 24.6698 18.1235 23.9044 18.1235 22.9602C18.1235 22.0161 18.1387 21.2495 18.1564 21.2495C18.174 21.2495 18.1892 22.0149 18.1892 22.9602C18.1892 23.9056 18.174 24.6698 18.1564 24.6698Z" fill="#263238"/>
<path d="M26.2543 24.2762C26.2543 24.2762 26.2543 24.2599 26.2543 24.2283C26.2543 24.1968 26.2543 24.15 26.2543 24.0916C26.2543 23.9689 26.2543 23.7936 26.2543 23.5681C26.2543 23.1124 26.248 22.4545 26.2429 21.6365L26.2644 21.6575L18.5327 21.6669L18.5656 21.6365V21.9777C18.5656 22.0946 18.5656 22.2056 18.5656 22.3189V24.2739L18.534 24.2447L24.0658 24.2587L25.6788 24.2669H26.1129H26.2265H26.2657C26.2539 24.268 26.2421 24.268 26.2303 24.2669H26.1205H25.6939L24.0873 24.275L18.534 24.2879H18.4873V22.3014C18.4873 22.1845 18.4873 22.0747 18.4873 21.9602V21.64C18.4873 21.647 18.5504 21.5828 18.5214 21.6096L26.253 21.6202H26.2758V21.64C26.2758 22.458 26.2669 23.1252 26.2631 23.5833C26.2631 23.8076 26.2631 23.9817 26.2631 24.1033C26.2631 24.1594 26.2631 24.2038 26.2631 24.2365C26.262 24.25 26.259 24.2634 26.2543 24.2762Z" fill="#263238"/>
<path d="M19.1178 24.2759C19.0988 24.2759 19.085 23.6858 19.085 22.9567C19.085 22.2275 19.0988 21.6362 19.1178 21.6362C19.1367 21.6362 19.1506 22.2275 19.1506 22.9567C19.1506 23.6858 19.1367 24.2759 19.1178 24.2759Z" fill="#263238"/>
<path d="M19.8463 24.2759C19.8274 24.2759 19.8135 23.6858 19.8135 22.9567C19.8135 22.2275 19.8274 21.6362 19.8463 21.6362C19.8652 21.6362 19.8791 22.2275 19.8791 22.9567C19.8791 23.6858 19.864 24.2759 19.8463 24.2759Z" fill="#263238"/>
<path d="M20.5733 24.2759C20.5557 24.2759 20.5405 23.6858 20.5405 22.9567C20.5405 22.2275 20.5557 21.6362 20.5733 21.6362C20.591 21.6362 20.6062 22.2275 20.6062 22.9567C20.6062 23.6858 20.591 24.2759 20.5733 24.2759Z" fill="#263238"/>
<path d="M21.3004 24.2759C21.2827 24.2759 21.2676 23.6858 21.2676 22.9567C21.2676 22.2275 21.2827 21.6362 21.3004 21.6362C21.3181 21.6362 21.3332 22.2275 21.3332 22.9567C21.3332 23.6858 21.3193 24.2759 21.3004 24.2759Z" fill="#263238"/>
<path d="M22.027 24.2759C22.0093 24.2759 21.9941 23.6858 21.9941 22.9567C21.9941 22.2275 22.0093 21.6362 22.027 21.6362C22.0446 21.6362 22.0598 22.2275 22.0598 22.9567C22.0598 23.6858 22.0459 24.2759 22.027 24.2759Z" fill="#263238"/>
<path d="M22.7558 24.2759C22.7368 24.2759 22.7217 23.6858 22.7217 22.9567C22.7217 22.2275 22.7368 21.6362 22.7558 21.6362C22.7747 21.6362 22.7886 22.2275 22.7886 22.9567C22.7886 23.6858 22.7785 24.2759 22.7558 24.2759Z" fill="#263238"/>
<path d="M23.482 24.2759C23.4631 24.2759 23.4492 23.6858 23.4492 22.9567C23.4492 22.2275 23.4631 21.6362 23.482 21.6362C23.501 21.6362 23.5148 22.2275 23.5148 22.9567C23.5148 23.6858 23.4997 24.2759 23.482 24.2759Z" fill="#263238"/>
<path d="M24.2096 24.2759C24.1906 24.2759 24.1768 23.6858 24.1768 22.9567C24.1768 22.2275 24.1906 21.6362 24.2096 21.6362C24.2285 21.6362 24.2424 22.2275 24.2424 22.9567C24.2424 23.6858 24.2272 24.2759 24.2096 24.2759Z" fill="#263238"/>
<path d="M24.9361 24.2759C24.9185 24.2759 24.9033 23.6858 24.9033 22.9567C24.9033 22.2275 24.9185 21.6362 24.9361 21.6362C24.9538 21.6362 24.969 22.2275 24.969 22.9567C24.969 23.6858 24.9538 24.2759 24.9361 24.2759Z" fill="#263238"/>
<path d="M25.6637 24.2759C25.646 24.2759 25.6309 23.6858 25.6309 22.9567C25.6309 22.2275 25.646 21.6362 25.6637 21.6362C25.6813 21.6362 25.6965 22.2275 25.6965 22.9567C25.6965 23.6858 25.6813 24.2759 25.6637 24.2759Z" fill="#263238"/>
<path d="M45.4266 22.9463H42.3584V26.397H45.4266V22.9463Z" fill="#263238"/>
<path d="M54.0066 22.9463H45.4268V26.397H54.0066V22.9463Z" fill="#263238"/>
<path d="M43.9566 26.3959C43.9377 26.3959 43.9238 25.6305 43.9238 24.6863C43.9238 23.7421 43.9377 22.9756 43.9566 22.9756C43.9756 22.9756 43.9895 23.741 43.9895 24.6863C43.9895 25.6317 43.9743 26.3959 43.9566 26.3959Z" fill="#455A64"/>
<path d="M45.4264 26.3959C45.4087 26.3959 45.3936 25.6305 45.3936 24.6863C45.3936 23.7421 45.4087 22.9756 45.4264 22.9756C45.444 22.9756 45.4592 23.741 45.4592 24.6863C45.4592 25.6317 45.444 26.3959 45.4264 26.3959Z" fill="#455A64"/>
<path d="M53.5244 26.0017C53.5244 26.0017 53.5244 25.9853 53.5244 25.9538C53.5244 25.9222 53.5244 25.8755 53.5244 25.8171C53.5244 25.6944 53.5244 25.5191 53.5181 25.2936C53.5181 24.8378 53.5181 24.18 53.5067 23.362L53.5282 23.383L45.7965 23.3924C45.7675 23.4204 45.8356 23.3561 45.8293 23.3632V24.0456C45.8293 24.2711 45.8293 24.4955 45.8293 24.7163V26.0017L45.7978 25.9725L51.3296 25.9865L52.9438 25.9947H53.3767H53.4903H53.5294C53.5177 25.9966 53.5058 25.9966 53.4941 25.9947H53.3855H52.9577L51.351 26.0029L45.7978 26.0169H45.7662V25.9865C45.7662 25.5728 45.7662 25.144 45.7662 24.7011V23.3643C45.7586 23.3702 45.828 23.3059 45.799 23.3328L53.5307 23.3433H53.5534V23.3632C53.5534 24.187 53.5446 24.8484 53.542 25.3064C53.542 25.5308 53.542 25.7049 53.5357 25.8264C53.5357 25.8825 53.5357 25.9269 53.5357 25.9596C53.534 25.9741 53.5302 25.9882 53.5244 26.0017Z" fill="#455A64"/>
<path d="M46.3893 26.0015C46.3703 26.0015 46.3564 25.4114 46.3564 24.6823C46.3564 23.9531 46.3703 23.3618 46.3893 23.3618C46.4082 23.3618 46.4221 23.9531 46.4221 24.6823C46.4221 25.4114 46.4069 26.0015 46.3893 26.0015Z" fill="#455A64"/>
<path d="M47.1168 26.0015C47.0991 26.0015 47.084 25.4114 47.084 24.6823C47.084 23.9531 47.0991 23.3618 47.1168 23.3618C47.1345 23.3618 47.1496 23.9531 47.1496 24.6823C47.1496 25.4114 47.137 26.0015 47.1168 26.0015Z" fill="#455A64"/>
<path d="M47.8434 26.0015C47.8257 26.0015 47.8105 25.4114 47.8105 24.6823C47.8105 23.9531 47.8257 23.3618 47.8434 23.3618C47.861 23.3618 47.8762 23.9531 47.8762 24.6823C47.8762 25.4114 47.861 26.0015 47.8434 26.0015Z" fill="#455A64"/>
<path d="M48.5709 26.0015C48.5532 26.0015 48.5381 25.4114 48.5381 24.6823C48.5381 23.9531 48.5532 23.3618 48.5709 23.3618C48.5886 23.3618 48.6037 23.9531 48.6037 24.6823C48.6037 25.4114 48.5898 26.0015 48.5709 26.0015Z" fill="#455A64"/>
<path d="M49.2975 26.0015C49.2798 26.0015 49.2646 25.4114 49.2646 24.6823C49.2646 23.9531 49.2798 23.3618 49.2975 23.3618C49.3151 23.3618 49.3303 23.9531 49.3303 24.6823C49.3303 25.4114 49.3164 26.0015 49.2975 26.0015Z" fill="#455A64"/>
<path d="M50.026 26.0015C50.007 26.0015 49.9932 25.4114 49.9932 24.6823C49.9932 23.9531 50.007 23.3618 50.026 23.3618C50.0449 23.3618 50.0588 23.9531 50.0588 24.6823C50.0588 25.4114 50.0399 26.0015 50.026 26.0015Z" fill="#455A64"/>
<path d="M50.7525 26.0015C50.7336 26.0015 50.7197 25.4114 50.7197 24.6823C50.7197 23.9531 50.7336 23.3618 50.7525 23.3618C50.7715 23.3618 50.7854 23.9531 50.7854 24.6823C50.7854 25.4114 50.7702 26.0015 50.7525 26.0015Z" fill="#455A64"/>
<path d="M51.4796 26.0015C51.4619 26.0015 51.4468 25.4114 51.4468 24.6823C51.4468 23.9531 51.4619 23.3618 51.4796 23.3618C51.4973 23.3618 51.5124 23.9531 51.5124 24.6823C51.5124 25.4114 51.4973 26.0015 51.4796 26.0015Z" fill="#455A64"/>
<path d="M52.2066 26.0015C52.189 26.0015 52.1738 25.4114 52.1738 24.6823C52.1738 23.9531 52.189 23.3618 52.2066 23.3618C52.2243 23.3618 52.2395 23.9531 52.2395 24.6823C52.2395 25.4114 52.2256 26.0015 52.2066 26.0015Z" fill="#455A64"/>
<path d="M52.9337 26.0015C52.916 26.0015 52.9009 25.4114 52.9009 24.6823C52.9009 23.9531 52.916 23.3618 52.9337 23.3618C52.9514 23.3618 52.9665 23.9531 52.9665 24.6823C52.9665 25.4114 52.9526 26.0015 52.9337 26.0015Z" fill="#455A64"/>
<path d="M45.9075 29.8911H42.8394V33.3418H45.9075V29.8911Z" fill="#FF7775"/>
<path d="M54.4885 29.8911H45.9087V33.3418H54.4885V29.8911Z" fill="#FF7775"/>
<path opacity="0.4" d="M54.4885 29.8911H45.9087V33.3418H54.4885V29.8911Z" fill="black"/>
<path d="M44.4381 33.3414C44.4192 33.3414 44.4053 32.5748 44.4053 31.6306C44.4053 30.6865 44.4192 29.9199 44.4381 29.9199C44.457 29.9199 44.4709 30.6865 44.4709 31.6306C44.4709 32.5748 44.4558 33.3414 44.4381 33.3414Z" fill="#263238"/>
<path d="M54.0067 32.9472C54.0067 32.9472 54.0067 32.9297 54.0067 32.8993C54.0067 32.8689 54.0067 32.8199 54.0067 32.7614C54.0067 32.6446 54.0067 32.4635 54.0067 32.2379C54.0067 31.7822 54.0004 31.1255 53.9954 30.3075L54.0168 30.3274L46.2852 30.3379L46.318 30.3075V30.6511C46.318 30.7679 46.318 30.8789 46.318 30.9911V32.9472L46.2852 32.918L51.8182 32.9309L53.4312 32.939H53.8654H53.979H54.0181H53.9828H53.873H53.4464L51.8397 32.9472L46.2864 32.9612H46.2549V31.6618C46.2549 31.441 46.2549 31.2178 46.2549 30.9911V30.3075C46.2549 30.3134 46.318 30.2491 46.289 30.2771L54.0206 30.2865H54.0433V30.3075C54.0433 31.1255 54.0345 31.7915 54.0307 32.2508C54.0307 32.474 54.0307 32.6481 54.0307 32.7696C54.0307 32.8257 54.0307 32.8701 54.0307 32.9028C54.025 32.9186 54.0169 32.9335 54.0067 32.9472Z" fill="#263238"/>
<path d="M46.8717 32.9473C46.8527 32.9473 46.8389 32.356 46.8389 31.6269C46.8389 30.8977 46.8527 30.3076 46.8717 30.3076C46.8906 30.3076 46.9045 30.8977 46.9045 31.6269C46.9045 32.356 46.8843 32.9473 46.8717 32.9473Z" fill="#263238"/>
<path d="M47.5987 32.9473C47.5798 32.9473 47.5659 32.356 47.5659 31.6269C47.5659 30.8977 47.5798 30.3076 47.5987 30.3076C47.6177 30.3076 47.6315 30.8977 47.6315 31.6269C47.6315 32.356 47.6164 32.9473 47.5987 32.9473Z" fill="#263238"/>
<path d="M48.3258 32.9473C48.3081 32.9473 48.293 32.356 48.293 31.6269C48.293 30.8977 48.3081 30.3076 48.3258 30.3076C48.3435 30.3076 48.3586 30.8977 48.3586 31.6269C48.3586 32.356 48.3435 32.9473 48.3258 32.9473Z" fill="#263238"/>
<path d="M49.0523 32.9473C49.0347 32.9473 49.0195 32.356 49.0195 31.6269C49.0195 30.8977 49.0347 30.3076 49.0523 30.3076C49.07 30.3076 49.0852 30.8977 49.0852 31.6269C49.0852 32.356 49.07 32.9473 49.0523 32.9473Z" fill="#263238"/>
<path d="M49.7799 32.9473C49.7622 32.9473 49.7471 32.356 49.7471 31.6269C49.7471 30.8977 49.7622 30.3076 49.7799 30.3076C49.7976 30.3076 49.8127 30.8977 49.8127 31.6269C49.8127 32.356 49.7988 32.9473 49.7799 32.9473Z" fill="#263238"/>
<path d="M50.5064 32.9473C50.4888 32.9473 50.4736 32.356 50.4736 31.6269C50.4736 30.8977 50.4888 30.3076 50.5064 30.3076C50.5241 30.3076 50.5405 30.8977 50.5405 31.6269C50.5405 32.356 50.5254 32.9473 50.5064 32.9473Z" fill="#263238"/>
<path d="M51.235 32.9473C51.216 32.9473 51.2021 32.356 51.2021 31.6269C51.2021 30.8977 51.216 30.3076 51.235 30.3076C51.2539 30.3076 51.2678 30.8977 51.2678 31.6269C51.2678 32.356 51.2526 32.9473 51.235 32.9473Z" fill="#263238"/>
<path d="M51.9615 32.9473C51.9426 32.9473 51.9287 32.356 51.9287 31.6269C51.9287 30.8977 51.9426 30.3076 51.9615 30.3076C51.9805 30.3076 51.9943 30.8977 51.9943 31.6269C51.9943 32.356 51.9792 32.9473 51.9615 32.9473Z" fill="#263238"/>
<path d="M52.69 32.9473C52.6724 32.9473 52.6572 32.356 52.6572 31.6269C52.6572 30.8977 52.6724 30.3076 52.69 30.3076C52.7077 30.3076 52.7229 30.8977 52.7229 31.6269C52.7229 32.356 52.7064 32.9473 52.69 32.9473Z" fill="#263238"/>
<path d="M53.4156 32.9473C53.398 32.9473 53.3828 32.356 53.3828 31.6269C53.3828 30.8977 53.398 30.3076 53.4156 30.3076C53.4333 30.3076 53.4484 30.8977 53.4484 31.6269C53.4484 32.356 53.4346 32.9473 53.4156 32.9473Z" fill="#263238"/>
<path d="M41.3655 32.2735H41.3226H41.1964L40.7142 32.2794L38.9385 32.2887L33.0823 32.2981C30.0532 32.2981 27.4028 32.2922 25.9893 32.2829L26.0057 32.2677C26.0057 32.6182 26.0057 32.894 25.9981 33.0857C25.9981 33.1756 25.9981 33.2469 25.9981 33.2983C25.9981 33.3194 25.9981 33.3381 25.9981 33.3521C25.9981 33.3661 25.9981 33.3708 25.9981 33.3708C25.9981 33.3708 25.9981 33.3649 25.9981 33.3521V33.2983C25.9981 33.2469 25.9981 33.1756 25.9981 33.0857C25.9981 32.894 25.9981 32.6182 25.9905 32.2677V32.2525H26.0082C27.4255 32.2431 30.0734 32.2373 33.1012 32.2373L38.9574 32.2467L40.7332 32.256L41.2153 32.2618H41.3415L41.3655 32.2735Z" fill="#263238"/>
<path d="M40.0904 33.2504C40.0467 32.9288 40.0467 32.6034 40.0904 32.2817C40.1342 32.6034 40.1342 32.9288 40.0904 33.2504Z" fill="#263238"/>
<path d="M37.942 33.2504C37.8982 32.9288 37.8982 32.6034 37.942 32.2817C37.9857 32.6034 37.9857 32.9288 37.942 33.2504Z" fill="#263238"/>
<path d="M35.7945 33.2504C35.7508 32.9288 35.7508 32.6034 35.7945 32.2817C35.8383 32.6034 35.8383 32.9288 35.7945 33.2504Z" fill="#263238"/>
<path d="M33.6451 33.2504C33.6014 32.9288 33.6014 32.6034 33.6451 32.2817C33.6889 32.6034 33.6889 32.9288 33.6451 33.2504Z" fill="#263238"/>
<path d="M31.4967 33.2504C31.4529 32.9288 31.4529 32.6034 31.4967 32.2817C31.5404 32.6034 31.5404 32.9288 31.4967 33.2504Z" fill="#263238"/>
<path d="M29.3485 33.2504C29.3031 32.9289 29.3031 32.6033 29.3485 32.2817C29.3922 32.6034 29.3922 32.9288 29.3485 33.2504Z" fill="#263238"/>
<path d="M27.1954 33.2504C27.1517 32.9288 27.1517 32.6034 27.1954 32.2817C27.2392 32.6034 27.2392 32.9288 27.1954 33.2504Z" fill="#263238"/>
<path d="M56.74 33.2143C56.7383 33.194 56.7383 33.1737 56.74 33.1535C56.74 33.1106 56.74 33.0511 56.74 32.9747C56.74 32.8123 56.74 32.5786 56.7325 32.2736L56.7476 32.2888C55.3959 32.2981 52.6836 32.304 49.5662 32.304L43.7719 32.2958L42.0163 32.2853H41.538H41.4118C41.3979 32.2868 41.384 32.2868 41.3701 32.2853H41.4118H41.538L42.0163 32.2794L43.7719 32.2701L49.5662 32.2607C52.6836 32.2607 55.3959 32.2678 56.7476 32.2771H56.764V32.2736C56.764 32.5751 56.764 32.8088 56.764 32.9747C56.764 33.0507 56.764 33.1103 56.764 33.1535C56.7578 33.1743 56.7498 33.1946 56.74 33.2143Z" fill="#263238"/>
<path d="M51.1754 33.2539C51.1316 32.9322 51.1316 32.6068 51.1754 32.2852C51.2191 32.6068 51.2191 32.9322 51.1754 33.2539Z" fill="#263238"/>
<path d="M49.0211 33.2539C48.9773 32.9322 48.9773 32.6068 49.0211 32.2852C49.0649 32.6068 49.0649 32.9322 49.0211 33.2539Z" fill="#263238"/>
<path d="M46.8717 33.2539C46.8279 32.9322 46.8279 32.6068 46.8717 32.2852C46.917 32.6067 46.917 32.9323 46.8717 33.2539Z" fill="#263238"/>
<path d="M44.7237 33.2539C44.68 32.9322 44.68 32.6068 44.7237 32.2852C44.7675 32.6068 44.7675 32.9322 44.7237 33.2539Z" fill="#263238"/>
<path d="M42.5758 33.2539C42.532 32.9322 42.532 32.6068 42.5758 32.2852C42.6195 32.6068 42.6195 32.9322 42.5758 33.2539Z" fill="#263238"/>
<path d="M25.7151 31.7499C25.7134 31.7296 25.7134 31.7093 25.7151 31.6891C25.7151 31.6455 25.7151 31.5859 25.7151 31.5103C25.7151 31.3479 25.7151 31.1142 25.7075 30.8092L25.7226 30.8232C24.2952 30.8326 21.3456 30.8396 17.9468 30.8396C14.6792 30.8396 11.8294 30.8337 10.3477 30.8244L10.3641 30.8092C10.3641 31.1597 10.3641 31.4379 10.3565 31.6272C10.3565 31.7183 10.3565 31.7884 10.3565 31.8398C10.3565 31.8912 10.3565 31.9123 10.3565 31.9123C10.3551 31.8881 10.3551 31.864 10.3565 31.8398C10.3565 31.7884 10.3565 31.723 10.3565 31.6272C10.3565 31.4379 10.3565 31.1597 10.3489 30.8092V30.794H10.3653C11.847 30.7847 14.6969 30.7788 17.9645 30.7788C21.3633 30.7788 24.3129 30.7858 25.7403 30.7952H25.7554V30.8092C25.7554 31.1107 25.7554 31.3444 25.7554 31.5103C25.7554 31.5882 25.7554 31.6478 25.7554 31.6891C25.7445 31.7107 25.731 31.7311 25.7151 31.7499Z" fill="#263238"/>
<path d="M24.4415 31.788C24.3978 31.4664 24.3978 31.141 24.4415 30.8193C24.4853 31.141 24.4853 31.4664 24.4415 31.788Z" fill="#263238"/>
<path d="M22.2936 31.788C22.2498 31.4664 22.2498 31.141 22.2936 30.8193C22.3373 31.141 22.3373 31.4664 22.2936 31.788Z" fill="#263238"/>
<path d="M20.1441 31.788C20.1004 31.4664 20.1004 31.141 20.1441 30.8193C20.1879 31.141 20.1879 31.4664 20.1441 31.788Z" fill="#263238"/>
<path d="M17.9957 31.788C17.952 31.4664 17.952 31.141 17.9957 30.8193C18.0395 31.141 18.0395 31.4664 17.9957 31.788Z" fill="#263238"/>
<path d="M15.8482 31.788C15.8045 31.4664 15.8045 31.141 15.8482 30.8193C15.892 31.141 15.892 31.4664 15.8482 31.788Z" fill="#263238"/>
<path d="M13.6988 31.788C13.6551 31.4664 13.6551 31.141 13.6988 30.8193C13.7426 31.141 13.7426 31.4664 13.6988 31.788Z" fill="#263238"/>
<path d="M11.5455 31.788C11.5018 31.4664 11.5018 31.141 11.5455 30.8193C11.5893 31.141 11.5893 31.4664 11.5455 31.788Z" fill="#263238"/>
<path d="M18.1551 24.6709H15.0869V28.1216H18.1551V24.6709Z" fill="#FF7775"/>
<path d="M26.736 24.6709H18.1562V28.1216H26.736V24.6709Z" fill="#FF7775"/>
<path opacity="0.4" d="M26.736 24.6709H18.1562V28.1216H26.736V24.6709Z" fill="black"/>
<path d="M16.6861 28.1216C16.6672 28.1216 16.6533 27.3551 16.6533 26.4109C16.6533 25.4667 16.6672 24.7002 16.6861 24.7002C16.7051 24.7002 16.719 25.4667 16.719 26.4109C16.719 27.3551 16.7038 28.1216 16.6861 28.1216Z" fill="#263238"/>
<path d="M26.2543 27.7277C26.2543 27.7277 26.2543 27.7102 26.2543 27.6798C26.2543 27.6495 26.2543 27.6004 26.2543 27.542C26.2543 27.4251 26.2543 27.244 26.2543 27.0184C26.2543 26.5627 26.248 25.906 26.2429 25.088L26.2644 25.1079L18.5327 25.1184L18.5656 25.088V25.4316C18.5656 25.5484 18.5656 25.6594 18.5656 25.7716V27.7277L18.534 27.6985L24.0658 27.7114L25.6788 27.7196H26.1129H26.2265C26.2396 27.7186 26.2526 27.7186 26.2657 27.7196H26.2303H26.1205H25.6939L24.0873 27.7277L18.534 27.7418H18.4873V25.7553C18.4873 25.6384 18.4873 25.5286 18.4873 25.4152V25.0717C18.4873 25.0775 18.5504 25.0133 18.5214 25.0413L26.253 25.0506H26.2758V25.0717C26.2758 25.8897 26.2669 26.5557 26.2631 27.0149C26.2631 27.2381 26.2631 27.4122 26.2631 27.5338C26.2631 27.5899 26.2631 27.6343 26.2631 27.667C26.264 27.6876 26.261 27.7081 26.2543 27.7277Z" fill="#263238"/>
<path d="M19.1178 27.7276C19.0988 27.7276 19.085 27.1363 19.085 26.4072C19.085 25.678 19.0988 25.0879 19.1178 25.0879C19.1367 25.0879 19.1506 25.678 19.1506 26.4072C19.1506 27.1363 19.1367 27.7276 19.1178 27.7276Z" fill="#263238"/>
<path d="M19.8463 27.7276C19.8274 27.7276 19.8135 27.1363 19.8135 26.4072C19.8135 25.678 19.8274 25.0879 19.8463 25.0879C19.8652 25.0879 19.8791 25.678 19.8791 26.4072C19.8791 27.1363 19.864 27.7276 19.8463 27.7276Z" fill="#263238"/>
<path d="M20.5733 27.7276C20.5557 27.7276 20.5405 27.1363 20.5405 26.4072C20.5405 25.678 20.5557 25.0879 20.5733 25.0879C20.591 25.0879 20.6062 25.678 20.6062 26.4072C20.6062 27.1363 20.591 27.7276 20.5733 27.7276Z" fill="#263238"/>
<path d="M21.3004 27.7276C21.2827 27.7276 21.2676 27.1363 21.2676 26.4072C21.2676 25.678 21.2827 25.0879 21.3004 25.0879C21.3181 25.0879 21.3332 25.678 21.3332 26.4072C21.3332 27.1363 21.3193 27.7276 21.3004 27.7276Z" fill="#263238"/>
<path d="M22.027 27.7276C22.0093 27.7276 21.9941 27.1363 21.9941 26.4072C21.9941 25.678 22.0093 25.0879 22.027 25.0879C22.0446 25.0879 22.0598 25.678 22.0598 26.4072C22.0598 27.1363 22.0459 27.7276 22.027 27.7276Z" fill="#263238"/>
<path d="M22.7558 27.7276C22.7368 27.7276 22.7217 27.1363 22.7217 26.4072C22.7217 25.678 22.7368 25.0879 22.7558 25.0879C22.7747 25.0879 22.7886 25.678 22.7886 26.4072C22.7886 27.1363 22.7785 27.7276 22.7558 27.7276Z" fill="#263238"/>
<path d="M23.482 27.7276C23.4631 27.7276 23.4492 27.1363 23.4492 26.4072C23.4492 25.678 23.4631 25.0879 23.482 25.0879C23.501 25.0879 23.5148 25.678 23.5148 26.4072C23.5148 27.1363 23.4997 27.7276 23.482 27.7276Z" fill="#263238"/>
<path d="M24.2096 27.7276C24.1906 27.7276 24.1768 27.1363 24.1768 26.4072C24.1768 25.678 24.1906 25.0879 24.2096 25.0879C24.2285 25.0879 24.2424 25.678 24.2424 26.4072C24.2424 27.1363 24.2272 27.7276 24.2096 27.7276Z" fill="#263238"/>
<path d="M24.9361 27.7276C24.9185 27.7276 24.9033 27.1363 24.9033 26.4072C24.9033 25.678 24.9185 25.0879 24.9361 25.0879C24.9538 25.0879 24.969 25.678 24.969 26.4072C24.969 27.1363 24.9538 27.7276 24.9361 27.7276Z" fill="#263238"/>
<path d="M25.6637 27.7276C25.646 27.7276 25.6309 27.1363 25.6309 26.4072C25.6309 25.678 25.646 25.0879 25.6637 25.0879C25.6813 25.0879 25.6965 25.678 25.6965 26.4072C25.6965 27.1363 25.6813 27.7276 25.6637 27.7276Z" fill="#263238"/>
<path d="M56.8486 33.304V25.3931H65.3212V33.3765" fill="#455A64"/>
<path d="M63.0609 32.353H62.5889V33.3042H63.0609V32.353Z" fill="#263238"/>
<path d="M57.8308 31.0708H57.5342V31.7497H57.8308V31.0708Z" fill="#263238"/>
<path d="M57.8308 32.2734H57.5342V32.9524H57.8308V32.2734Z" fill="#263238"/>
<path d="M59.5329 31.0708H59.2363V31.7497H59.5329V31.0708Z" fill="#263238"/>
<path d="M59.5329 32.2632H59.2363V32.9421H59.5329V32.2632Z" fill="#263238"/>
<path d="M61.2361 31.0708H60.9395V31.7497H61.2361V31.0708Z" fill="#263238"/>
<path d="M61.2361 32.2534H60.9395V32.9323H61.2361V32.2534Z" fill="#263238"/>
<path d="M62.9382 31.0708H62.6416V31.7497H62.9382V31.0708Z" fill="#263238"/>
<path d="M64.6394 31.0708H64.3428V31.7497H64.6394V31.0708Z" fill="#263238"/>
<path d="M64.6394 32.2139H64.3428V32.8928H64.6394V32.2139Z" fill="#263238"/>
<path d="M63.0257 28.0435H62.5537V28.9946H63.0257V28.0435Z" fill="#263238"/>
<path d="M57.8308 26.2212H57.5342V26.9001H57.8308V26.2212Z" fill="#263238"/>
<path d="M57.8308 27.4238H57.5342V28.1027H57.8308V27.4238Z" fill="#263238"/>
<path d="M59.5329 26.2212H59.2363V26.9001H59.5329V26.2212Z" fill="#263238"/>
<path d="M59.5329 27.4136H59.2363V28.0925H59.5329V27.4136Z" fill="#263238"/>
<path d="M61.2361 26.2212H60.9395V26.9001H61.2361V26.2212Z" fill="#263238"/>
<path d="M61.2361 27.4043H60.9395V28.0832H61.2361V27.4043Z" fill="#263238"/>
<path d="M62.9382 26.2212H62.6416V26.9001H62.9382V26.2212Z" fill="#263238"/>
<path d="M64.6394 26.2212H64.3428V26.9001H64.6394V26.2212Z" fill="#263238"/>
<path d="M64.6394 27.3643H64.3428V28.0432H64.6394V27.3643Z" fill="#263238"/>
<path d="M17.8078 40.7886C17.8078 40.7886 19.1331 36.2921 14.3421 35.2684C9.86163 34.3114 9.97143 31.75 9.97143 31.75H26.0229V33.3041H68.2694C68.2694 33.3041 68.0397 38.3417 64.0754 40.7886" fill="#455A64"/>
<path d="M17.9199 38.6777H66.3343C66.3343 38.6777 64.9965 40.3534 64.0752 40.7881H17.8076C17.9145 40.0893 17.9521 39.3829 17.9199 38.6777Z" fill="#263238"/>
<path d="M65.084 28.9946C65.0784 28.9657 65.0763 28.9363 65.0777 28.9069C65.0777 28.845 65.0777 28.7609 65.0777 28.6557L65.0903 28.6674C64.3697 28.6791 62.633 28.6861 60.6061 28.6861C58.5791 28.6861 56.8412 28.6791 56.1205 28.6674L56.1332 28.6557C56.1332 28.7609 56.1332 28.845 56.1268 28.9069C56.1283 28.9363 56.1261 28.9657 56.1205 28.9946C56.1166 28.9655 56.1145 28.9362 56.1142 28.9069C56.1142 28.845 56.1142 28.7609 56.1079 28.6557V28.651H56.1205C56.8412 28.6405 58.5778 28.6323 60.6061 28.6323C62.6343 28.6323 64.3697 28.6405 65.0903 28.651H65.1029C65.1029 28.7562 65.1029 28.8403 65.1029 28.9023C65.0997 28.9335 65.0933 28.9644 65.084 28.9946Z" fill="#263238"/>
<path d="M57.2335 29.0855C57.2158 29.0855 57.2007 28.9862 57.2007 28.8623C57.2007 28.7385 57.2158 28.6392 57.2335 28.6392C57.2512 28.6392 57.2663 28.7397 57.2663 28.8623C57.2663 28.985 57.2474 29.0855 57.2335 29.0855Z" fill="#263238"/>
<path d="M58.4146 29.0855C58.397 29.0855 58.3818 28.9862 58.3818 28.8623C58.3818 28.7385 58.397 28.6392 58.4146 28.6392C58.4323 28.6392 58.4475 28.7397 58.4475 28.8623C58.4475 28.985 58.4336 29.0855 58.4146 29.0855Z" fill="#263238"/>
<path d="M59.6026 29.0855C59.5837 29.0855 59.5698 28.9862 59.5698 28.8623C59.5698 28.7385 59.5837 28.6392 59.6026 28.6392C59.6216 28.6392 59.6355 28.7397 59.6355 28.8623C59.6355 28.985 59.6203 29.0855 59.6026 29.0855Z" fill="#263238"/>
<path d="M60.7887 29.0855C60.7697 29.0855 60.7559 28.9862 60.7559 28.8623C60.7559 28.7385 60.7697 28.6392 60.7887 28.6392C60.8076 28.6392 60.8215 28.7397 60.8215 28.8623C60.8215 28.985 60.8063 29.0855 60.7887 29.0855Z" fill="#263238"/>
<path d="M61.9752 29.0855C61.9575 29.0855 61.9424 28.9862 61.9424 28.8623C61.9424 28.7385 61.9575 28.6392 61.9752 28.6392C61.9929 28.6392 62.008 28.7397 62.008 28.8623C62.008 28.985 61.9929 29.0855 61.9752 29.0855Z" fill="#263238"/>
<path d="M63.1656 29.0855C63.148 29.0855 63.1328 28.9862 63.1328 28.8623C63.1328 28.7385 63.148 28.6392 63.1656 28.6392C63.1833 28.6392 63.1984 28.7397 63.1984 28.8623C63.1984 28.985 63.1808 29.0855 63.1656 29.0855Z" fill="#263238"/>
<path d="M64.3482 29.0855C64.3306 29.0855 64.3154 28.9862 64.3154 28.8623C64.3154 28.7385 64.3306 28.6392 64.3482 28.6392C64.3659 28.6392 64.3811 28.7397 64.3811 28.8623C64.3811 28.985 64.3672 29.0855 64.3482 29.0855Z" fill="#263238"/>
<path d="M65.32 28.9946H55.9375V29.8617H65.32V28.9946Z" fill="#263238"/>
<path opacity="0.4" d="M58.2734 24.1812H59.2945L59.4068 24.7818H58.2734V24.1812Z" fill="white"/>
<path d="M68.2292 33.2137C68.2279 33.1931 68.2279 33.1724 68.2292 33.1518C68.2292 33.1062 68.2292 33.0466 68.2292 32.9695C68.2292 32.8059 68.2292 32.5722 68.2204 32.2765L68.2381 32.2929C67.1022 32.3022 65.0601 32.3069 62.7365 32.3069L58.1299 32.2987L56.7289 32.2882H56.3503H56.2518C56.2405 32.2897 56.2291 32.2897 56.2178 32.2882H56.2518H56.3503L56.7289 32.2824L58.1248 32.273L62.7315 32.2637C65.055 32.2637 67.0946 32.2695 68.233 32.2777H68.2507V32.273C68.2507 32.5687 68.2507 32.8024 68.2419 32.966C68.2419 33.0431 68.2419 33.1027 68.2419 33.1482C68.2401 33.1704 68.2359 33.1923 68.2292 33.2137Z" fill="#263238"/>
<path d="M66.9518 33.2539C66.908 32.9322 66.908 32.6068 66.9518 32.2852C66.9955 32.6068 66.9955 32.9322 66.9518 33.2539Z" fill="#263238"/>
<path d="M64.8065 33.2539C64.7611 32.9323 64.7611 32.6067 64.8065 32.2852C64.8502 32.6068 64.8502 32.9322 64.8065 33.2539Z" fill="#263238"/>
<path d="M62.6607 33.2539C62.617 32.9322 62.617 32.6068 62.6607 32.2852C62.7045 32.6068 62.7045 32.9322 62.6607 33.2539Z" fill="#263238"/>
<path d="M60.5152 33.2539C60.4715 32.9322 60.4715 32.6068 60.5152 32.2852C60.559 32.6068 60.559 32.9322 60.5152 33.2539Z" fill="#263238"/>
<path d="M58.3609 33.2539C58.3172 32.9322 58.3172 32.6068 58.3609 32.2852C58.4063 32.6067 58.4063 32.9323 58.3609 33.2539Z" fill="#263238"/>
<path d="M56.2125 33.2539C56.1687 32.9322 56.1687 32.6068 56.2125 32.2852C56.2563 32.6068 56.2563 32.9322 56.2125 33.2539Z" fill="#263238"/>
<path d="M54.0646 33.2539C54.0208 32.9322 54.0208 32.6068 54.0646 32.2852C54.1083 32.6068 54.1083 32.9322 54.0646 33.2539Z" fill="#263238"/>
<rect width="2.63858" height="15.6253" transform="matrix(0.846562 -0.532289 0.591453 0.806339 1.05225 50.3916)" fill="#9BCC63"/>
<rect y="48.9658" width="3.33333" height="14.0281" fill="#FF7775"/>
<rect x="10.3032" y="48.9658" width="3.33333" height="14.0281" fill="#61C4E6"/>
</svg>
